<?xml version="1.0" encoding="UTF-8" standalone="no"?>
<!-- Created with Inkscape (http://www.inkscape.org/) -->

<svg
   width="210mm"
   height="297mm"
   viewBox="0 0 210 297"
   version="1.1"
   id="svg5"
   sodipodi:docname="gear.svg"
   inkscape:version="1.1.2 (0a00cf5339, 2022-02-04)"
   xmlns:inkscape="http://www.inkscape.org/namespaces/inkscape"
   xmlns:sodipodi="http://sodipodi.sourceforge.net/DTD/sodipodi-0.dtd"
   xmlns="http://www.w3.org/2000/svg"
   xmlns:svg="http://www.w3.org/2000/svg">
  <sodipodi:namedview
     id="namedview7"
     pagecolor="#ffffff"
     bordercolor="#666666"
     borderopacity="1.0"
     inkscape:pageshadow="2"
     inkscape:pageopacity="0.0"
     inkscape:pagecheckerboard="0"
     inkscape:document-units="mm"
     showgrid="false"
     inkscape:zoom="0.77771465"
     inkscape:cx="396.67505"
     inkscape:cy="457.75144"
     inkscape:window-width="2560"
     inkscape:window-height="1403"
     inkscape:window-x="2560"
     inkscape:window-y="0"
     inkscape:window-maximized="1"
     inkscape:current-layer="layer1" />
  <defs
     id="defs2" />
  <g
     inkscape:label="Layer 1"
     inkscape:groupmode="layer"
     id="layer1">
    <g
       inkscape:label="Rendered Gears"
       transform="translate(104.954, 148.33)"
       id="g19">
      <path
         style="fill:none;stroke:#000000;stroke-width:0.26458333333333334"
         d="M 38.7017 -1.74347 L 40.4037 -1.32268 L 42.1047 -0.65093 L 42.1047 0.65093 L 40.4037 1.32268 L 38.7017 1.74347 L 38.5982 3.32304 L 40.2307 3.96238 L 41.8295 4.85041 L 41.6595 6.14112 L 39.8854 6.58511 L 38.1431 6.78014 L 37.8342 8.33268 L 39.3693 9.17964 L 40.8385 10.2688 L 40.5016 11.5262 L 38.6846 11.7349 L 36.9317 11.7008 L 36.4229 13.1997 L 37.8343 14.2398 L 39.1488 15.5114 L 38.6506 16.7142 L 36.822 16.6838 L 35.0885 16.4213 L 34.3884 17.841 L 35.652 19.0564 L 36.7892 20.4886 L 36.1383 21.6161 L 34.3293 21.3473 L 32.6449 20.8607 L 31.7655 22.1769 L 32.8596 23.5469 L 33.8002 25.1153 L 33.0077 26.1481 L 31.2492 25.6456 L 29.6428 24.9433 L 28.5991 26.1334 L 29.505 27.6345 L 30.2328 29.3123 L 29.3123 30.2328 L 27.6345 29.505 L 26.1334 28.5991 L 24.9433 29.6428 L 25.6456 31.2492 L 26.1481 33.0077 L 25.1153 33.8002 L 23.5469 32.8596 L 22.1769 31.7655 L 20.8607 32.6449 L 21.3473 34.3293 L 21.6161 36.1383 L 20.4886 36.7892 L 19.0564 35.652 L 17.841 34.3884 L 16.4213 35.0885 L 16.6838 36.822 L 16.7142 38.6506 L 15.5114 39.1488 L 14.2398 37.8343 L 13.1997 36.4229 L 11.7008 36.9317 L 11.7349 38.6846 L 11.5262 40.5016 L 10.2688 40.8385 L 9.17964 39.3693 L 8.33268 37.8342 L 6.78014 38.1431 L 6.58511 39.8854 L 6.14112 41.6595 L 4.85041 41.8295 L 3.96238 40.2307 L 3.32304 38.5982 L 1.74347 38.7017 L 1.32268 40.4037 L 0.65093 42.1047 L -0.65093 42.1047 L -1.32268 40.4037 L -1.74347 38.7017 L -3.32304 38.5982 L -3.96238 40.2307 L -4.85041 41.8295 L -6.14112 41.6595 L -6.58511 39.8854 L -6.78014 38.1431 L -8.33268 37.8342 L -9.17964 39.3693 L -10.2688 40.8385 L -11.5262 40.5016 L -11.7349 38.6846 L -11.7008 36.9317 L -13.1997 36.4229 L -14.2398 37.8343 L -15.5114 39.1488 L -16.7142 38.6506 L -16.6838 36.822 L -16.4213 35.0885 L -17.841 34.3884 L -19.0564 35.652 L -20.4886 36.7892 L -21.6161 36.1383 L -21.3473 34.3293 L -20.8607 32.6449 L -22.1769 31.7655 L -23.5469 32.8596 L -25.1153 33.8002 L -26.1481 33.0077 L -25.6456 31.2492 L -24.9433 29.6428 L -26.1334 28.5991 L -27.6345 29.505 L -29.3123 30.2328 L -30.2328 29.3123 L -29.505 27.6345 L -28.5991 26.1334 L -29.6428 24.9433 L -31.2492 25.6456 L -33.0077 26.1481 L -33.8002 25.1153 L -32.8596 23.5469 L -31.7655 22.1769 L -32.6449 20.8607 L -34.3293 21.3473 L -36.1383 21.6161 L -36.7892 20.4886 L -35.652 19.0564 L -34.3884 17.841 L -35.0885 16.4213 L -36.822 16.6838 L -38.6506 16.7142 L -39.1488 15.5114 L -37.8343 14.2398 L -36.4229 13.1997 L -36.9317 11.7008 L -38.6846 11.7349 L -40.5016 11.5262 L -40.8385 10.2688 L -39.3693 9.17964 L -37.8342 8.33268 L -38.1431 6.78014 L -39.8854 6.58511 L -41.6595 6.14112 L -41.8295 4.85041 L -40.2307 3.96238 L -38.5982 3.32304 L -38.7017 1.74347 L -40.4037 1.32268 L -42.1047 0.65093 L -42.1047 -0.65093 L -40.4037 -1.32268 L -38.7017 -1.74347 L -38.5982 -3.32304 L -40.2307 -3.96238 L -41.8295 -4.85041 L -41.6595 -6.14112 L -39.8854 -6.58511 L -38.1431 -6.78014 L -37.8342 -8.33268 L -39.3693 -9.17964 L -40.8385 -10.2688 L -40.5016 -11.5262 L -38.6846 -11.7349 L -36.9317 -11.7008 L -36.4229 -13.1997 L -37.8343 -14.2398 L -39.1488 -15.5114 L -38.6506 -16.7142 L -36.822 -16.6838 L -35.0885 -16.4213 L -34.3884 -17.841 L -35.652 -19.0564 L -36.7892 -20.4886 L -36.1383 -21.6161 L -34.3293 -21.3473 L -32.6449 -20.8607 L -31.7655 -22.1769 L -32.8596 -23.5469 L -33.8002 -25.1153 L -33.0077 -26.1481 L -31.2492 -25.6456 L -29.6428 -24.9433 L -28.5991 -26.1334 L -29.505 -27.6345 L -30.2328 -29.3123 L -29.3123 -30.2328 L -27.6345 -29.505 L -26.1334 -28.5991 L -24.9433 -29.6428 L -25.6456 -31.2492 L -26.1481 -33.0077 L -25.1153 -33.8002 L -23.5469 -32.8596 L -22.1769 -31.7655 L -20.8607 -32.6449 L -21.3473 -34.3293 L -21.6161 -36.1383 L -20.4886 -36.7892 L -19.0564 -35.652 L -17.841 -34.3884 L -16.4213 -35.0885 L -16.6838 -36.822 L -16.7142 -38.6506 L -15.5114 -39.1488 L -14.2398 -37.8343 L -13.1997 -36.4229 L -11.7008 -36.9317 L -11.7349 -38.6846 L -11.5262 -40.5016 L -10.2688 -40.8385 L -9.17964 -39.3693 L -8.33268 -37.8342 L -6.78014 -38.1431 L -6.58511 -39.8854 L -6.14112 -41.6595 L -4.85041 -41.8295 L -3.96238 -40.2307 L -3.32304 -38.5982 L -1.74347 -38.7017 L -1.32268 -40.4037 L -0.65093 -42.1047 L 0.65093 -42.1047 L 1.32268 -40.4037 L 1.74347 -38.7017 L 3.32304 -38.5982 L 3.96238 -40.2307 L 4.85041 -41.8295 L 6.14112 -41.6595 L 6.58511 -39.8854 L 6.78014 -38.1431 L 8.33268 -37.8342 L 9.17964 -39.3693 L 10.2688 -40.8385 L 11.5262 -40.5016 L 11.7349 -38.6846 L 11.7008 -36.9317 L 13.1997 -36.4229 L 14.2398 -37.8343 L 15.5114 -39.1488 L 16.7142 -38.6506 L 16.6838 -36.822 L 16.4213 -35.0885 L 17.841 -34.3884 L 19.0564 -35.652 L 20.4886 -36.7892 L 21.6161 -36.1383 L 21.3473 -34.3293 L 20.8607 -32.6449 L 22.1769 -31.7655 L 23.5469 -32.8596 L 25.1153 -33.8002 L 26.1481 -33.0077 L 25.6456 -31.2492 L 24.9433 -29.6428 L 26.1334 -28.5991 L 27.6345 -29.505 L 29.3123 -30.2328 L 30.2328 -29.3123 L 29.505 -27.6345 L 28.5991 -26.1334 L 29.6428 -24.9433 L 31.2492 -25.6456 L 33.0077 -26.1481 L 33.8002 -25.1153 L 32.8596 -23.5469 L 31.7655 -22.1769 L 32.6449 -20.8607 L 34.3293 -21.3473 L 36.1383 -21.6161 L 36.7892 -20.4886 L 35.652 -19.0564 L 34.3884 -17.841 L 35.0885 -16.4213 L 36.822 -16.6838 L 38.6506 -16.7142 L 39.1488 -15.5114 L 37.8343 -14.2398 L 36.4229 -13.1997 L 36.9317 -11.7008 L 38.6846 -11.7349 L 40.5016 -11.5262 L 40.8385 -10.2688 L 39.3693 -9.17964 L 37.8342 -8.33268 L 38.1431 -6.78014 L 39.8854 -6.58511 L 41.6595 -6.14112 L 41.8295 -4.85041 L 40.2307 -3.96238 L 38.5982 -3.32304 z"
         id="path15" />
      <path
         sodipodi:cx="0"
         sodipodi:cy="0"
         sodipodi:rx="2.6458333333333335"
         sodipodi:ry="2.6458333333333335"
         sodipodi:type="arc"
         style="fill:none;stroke:#000000;stroke-width:0.26458333333333334"
         id="path17" />
    </g>
  </g>
</svg>
