M48
; DRILL file {KiCad 6.0.2+dfsg-1} date zo 12 feb 2023 20:47:10 CET
; FORMAT={-:-/ absolute / metric / decimal}
; #@! TF.CreationDate,2023-02-12T20:47:10+01:00
; #@! TF.GenerationSoftware,Kicad,Pcbnew,6.0.2+dfsg-1
; #@! TF.FileFunction,Plated,1,2,PTH
FMAT,2
METRIC
; #@! TA.AperFunction,Plated,PTH,ComponentDrill
T1C0.900
; #@! TA.AperFunction,Plated,PTH,ComponentDrill
T2C1.000
; #@! TA.AperFunction,Plated,PTH,ComponentDrill
T3C1.200
%
G90
G05
T1
X76.325Y-27.157
X76.325Y-31.157
X76.325Y-35.157
T2
X108.034Y-20.291
X109.95Y-43.085
X109.95Y-45.625
X109.95Y-48.165
X109.95Y-50.705
X109.95Y-53.245
X109.95Y-55.785
X109.95Y-58.325
X109.95Y-60.865
X109.95Y-63.405
X109.95Y-65.945
X109.95Y-68.485
X109.95Y-71.025
X109.95Y-73.565
X109.95Y-76.105
X109.95Y-78.645
X109.95Y-81.185
X109.95Y-83.725
X110.574Y-20.291
X113.114Y-20.291
X115.654Y-20.291
X118.194Y-20.291
X120.734Y-20.291
X123.274Y-20.291
X125.814Y-20.291
X132.81Y-43.085
X132.81Y-45.72
X132.81Y-48.26
X132.81Y-50.8
X132.81Y-53.34
X132.81Y-55.88
X132.81Y-58.42
X132.81Y-60.96
X132.81Y-63.5
X132.81Y-66.04
X132.81Y-68.58
X132.81Y-71.12
X132.81Y-73.66
X132.81Y-76.2
X132.81Y-78.74
X132.81Y-81.28
X132.81Y-83.725
X147.828Y-34.036
X147.828Y-36.576
X147.828Y-39.116
X147.828Y-41.656
X147.828Y-44.196
X147.828Y-46.736
X147.828Y-49.276
T3
X72.075Y-25.157
X72.075Y-37.157
X78.075Y-25.157
X78.075Y-37.157
X153.155Y-24.956
X153.155Y-28.956
X153.155Y-32.956
T0
M30
