%TF.GenerationSoftware,KiCad,Pcbnew,6.0.2+dfsg-1*%
%TF.CreationDate,2023-02-12T20:47:07+01:00*%
%TF.ProjectId,picopico,7069636f-7069-4636-9f2e-6b696361645f,rev?*%
%TF.SameCoordinates,Original*%
%TF.FileFunction,Copper,L1,Top*%
%TF.FilePolarity,Positive*%
%FSLAX46Y46*%
G04 Gerber Fmt 4.6, Leading zero omitted, Abs format (unit mm)*
G04 Created by KiCad (PCBNEW 6.0.2+dfsg-1) date 2023-02-12 20:47:07*
%MOMM*%
%LPD*%
G01*
G04 APERTURE LIST*
G04 Aperture macros list*
%AMRoundRect*
0 Rectangle with rounded corners*
0 $1 Rounding radius*
0 $2 $3 $4 $5 $6 $7 $8 $9 X,Y pos of 4 corners*
0 Add a 4 corners polygon primitive as box body*
4,1,4,$2,$3,$4,$5,$6,$7,$8,$9,$2,$3,0*
0 Add four circle primitives for the rounded corners*
1,1,$1+$1,$2,$3*
1,1,$1+$1,$4,$5*
1,1,$1+$1,$6,$7*
1,1,$1+$1,$8,$9*
0 Add four rect primitives between the rounded corners*
20,1,$1+$1,$2,$3,$4,$5,0*
20,1,$1+$1,$4,$5,$6,$7,0*
20,1,$1+$1,$6,$7,$8,$9,0*
20,1,$1+$1,$8,$9,$2,$3,0*%
G04 Aperture macros list end*
%ADD10C,0.300000*%
%TA.AperFunction,NonConductor*%
%ADD11C,0.300000*%
%TD*%
%TA.AperFunction,NonConductor*%
%ADD12C,0.200000*%
%TD*%
%TA.AperFunction,SMDPad,CuDef*%
%ADD13R,3.200000X1.000000*%
%TD*%
%TA.AperFunction,SMDPad,CuDef*%
%ADD14R,1.000000X1.000000*%
%TD*%
%TA.AperFunction,SMDPad,CuDef*%
%ADD15RoundRect,0.250000X0.400000X0.625000X-0.400000X0.625000X-0.400000X-0.625000X0.400000X-0.625000X0*%
%TD*%
%TA.AperFunction,ComponentPad*%
%ADD16C,2.000000*%
%TD*%
%TA.AperFunction,ComponentPad*%
%ADD17C,1.700000*%
%TD*%
%TA.AperFunction,ComponentPad*%
%ADD18R,1.700000X1.700000*%
%TD*%
%TA.AperFunction,ComponentPad*%
%ADD19O,1.700000X1.700000*%
%TD*%
%TA.AperFunction,Conductor*%
%ADD20C,0.800000*%
%TD*%
%TA.AperFunction,Conductor*%
%ADD21C,0.600000*%
%TD*%
G04 APERTURE END LIST*
D10*
D11*
X182447428Y-67856857D02*
X182376000Y-67999714D01*
X182304571Y-68071142D01*
X182161714Y-68142571D01*
X182090285Y-68142571D01*
X181947428Y-68071142D01*
X181876000Y-67999714D01*
X181804571Y-67856857D01*
X181804571Y-67571142D01*
X181876000Y-67428285D01*
X181947428Y-67356857D01*
X182090285Y-67285428D01*
X182161714Y-67285428D01*
X182304571Y-67356857D01*
X182376000Y-67428285D01*
X182447428Y-67571142D01*
X182447428Y-67856857D01*
X182518857Y-67999714D01*
X182590285Y-68071142D01*
X182733142Y-68142571D01*
X183018857Y-68142571D01*
X183161714Y-68071142D01*
X183233142Y-67999714D01*
X183304571Y-67856857D01*
X183304571Y-67571142D01*
X183233142Y-67428285D01*
X183161714Y-67356857D01*
X183018857Y-67285428D01*
X182733142Y-67285428D01*
X182590285Y-67356857D01*
X182518857Y-67428285D01*
X182447428Y-67571142D01*
X181804571Y-66785428D02*
X181804571Y-65856857D01*
X182376000Y-66356857D01*
X182376000Y-66142571D01*
X182447428Y-65999714D01*
X182518857Y-65928285D01*
X182661714Y-65856857D01*
X183018857Y-65856857D01*
X183161714Y-65928285D01*
X183233142Y-65999714D01*
X183304571Y-66142571D01*
X183304571Y-66571142D01*
X183233142Y-66714000D01*
X183161714Y-66785428D01*
X183233142Y-65142571D02*
X183304571Y-65142571D01*
X183447428Y-65214000D01*
X183518857Y-65285428D01*
X182304571Y-63856857D02*
X183304571Y-63856857D01*
X181733142Y-64214000D02*
X182804571Y-64571142D01*
X182804571Y-63642571D01*
X181804571Y-63214000D02*
X181804571Y-62285428D01*
X182376000Y-62785428D01*
X182376000Y-62571142D01*
X182447428Y-62428285D01*
X182518857Y-62356857D01*
X182661714Y-62285428D01*
X183018857Y-62285428D01*
X183161714Y-62356857D01*
X183233142Y-62428285D01*
X183304571Y-62571142D01*
X183304571Y-62999714D01*
X183233142Y-63142571D01*
X183161714Y-63214000D01*
X183304571Y-61571142D02*
X183304571Y-61285428D01*
X183233142Y-61142571D01*
X183161714Y-61071142D01*
X182947428Y-60928285D01*
X182661714Y-60856857D01*
X182090285Y-60856857D01*
X181947428Y-60928285D01*
X181876000Y-60999714D01*
X181804571Y-61142571D01*
X181804571Y-61428285D01*
X181876000Y-61571142D01*
X181947428Y-61642571D01*
X182090285Y-61714000D01*
X182447428Y-61714000D01*
X182590285Y-61642571D01*
X182661714Y-61571142D01*
X182733142Y-61428285D01*
X182733142Y-61142571D01*
X182661714Y-60999714D01*
X182590285Y-60928285D01*
X182447428Y-60856857D01*
X181804571Y-59928285D02*
X181804571Y-59785428D01*
X181876000Y-59642571D01*
X181947428Y-59571142D01*
X182090285Y-59499714D01*
X182376000Y-59428285D01*
X182733142Y-59428285D01*
X183018857Y-59499714D01*
X183161714Y-59571142D01*
X183233142Y-59642571D01*
X183304571Y-59785428D01*
X183304571Y-59928285D01*
X183233142Y-60071142D01*
X183161714Y-60142571D01*
X183018857Y-60214000D01*
X182733142Y-60285428D01*
X182376000Y-60285428D01*
X182090285Y-60214000D01*
X181947428Y-60142571D01*
X181876000Y-60071142D01*
X181804571Y-59928285D01*
X183304571Y-57642571D02*
X182304571Y-57642571D01*
X182447428Y-57642571D02*
X182376000Y-57571142D01*
X182304571Y-57428285D01*
X182304571Y-57214000D01*
X182376000Y-57071142D01*
X182518857Y-56999714D01*
X183304571Y-56999714D01*
X182518857Y-56999714D02*
X182376000Y-56928285D01*
X182304571Y-56785428D01*
X182304571Y-56571142D01*
X182376000Y-56428285D01*
X182518857Y-56356857D01*
X183304571Y-56356857D01*
X183304571Y-55642571D02*
X182304571Y-55642571D01*
X182447428Y-55642571D02*
X182376000Y-55571142D01*
X182304571Y-55428285D01*
X182304571Y-55214000D01*
X182376000Y-55071142D01*
X182518857Y-54999714D01*
X183304571Y-54999714D01*
X182518857Y-54999714D02*
X182376000Y-54928285D01*
X182304571Y-54785428D01*
X182304571Y-54571142D01*
X182376000Y-54428285D01*
X182518857Y-54356857D01*
X183304571Y-54356857D01*
D12*
X166997000Y-14605000D02*
X171528420Y-14605000D01*
X166997000Y-98044000D02*
X171528420Y-98044000D01*
X170942000Y-14605000D02*
X170942000Y-98044000D01*
X170942000Y-14605000D02*
X170942000Y-98044000D01*
X170942000Y-14605000D02*
X170355579Y-15731504D01*
X170942000Y-14605000D02*
X171528421Y-15731504D01*
X170942000Y-98044000D02*
X171528421Y-96917496D01*
X170942000Y-98044000D02*
X170355579Y-96917496D01*
D10*
D11*
X63197828Y-62967357D02*
X63126400Y-63110214D01*
X63054971Y-63181642D01*
X62912114Y-63253071D01*
X62840685Y-63253071D01*
X62697828Y-63181642D01*
X62626400Y-63110214D01*
X62554971Y-62967357D01*
X62554971Y-62681642D01*
X62626400Y-62538785D01*
X62697828Y-62467357D01*
X62840685Y-62395928D01*
X62912114Y-62395928D01*
X63054971Y-62467357D01*
X63126400Y-62538785D01*
X63197828Y-62681642D01*
X63197828Y-62967357D01*
X63269257Y-63110214D01*
X63340685Y-63181642D01*
X63483542Y-63253071D01*
X63769257Y-63253071D01*
X63912114Y-63181642D01*
X63983542Y-63110214D01*
X64054971Y-62967357D01*
X64054971Y-62681642D01*
X63983542Y-62538785D01*
X63912114Y-62467357D01*
X63769257Y-62395928D01*
X63483542Y-62395928D01*
X63340685Y-62467357D01*
X63269257Y-62538785D01*
X63197828Y-62681642D01*
X62554971Y-61895928D02*
X62554971Y-60967357D01*
X63126400Y-61467357D01*
X63126400Y-61253071D01*
X63197828Y-61110214D01*
X63269257Y-61038785D01*
X63412114Y-60967357D01*
X63769257Y-60967357D01*
X63912114Y-61038785D01*
X63983542Y-61110214D01*
X64054971Y-61253071D01*
X64054971Y-61681642D01*
X63983542Y-61824500D01*
X63912114Y-61895928D01*
X63983542Y-60253071D02*
X64054971Y-60253071D01*
X64197828Y-60324500D01*
X64269257Y-60395928D01*
X63054971Y-58967357D02*
X64054971Y-58967357D01*
X62483542Y-59324500D02*
X63554971Y-59681642D01*
X63554971Y-58753071D01*
X62554971Y-58324500D02*
X62554971Y-57395928D01*
X63126400Y-57895928D01*
X63126400Y-57681642D01*
X63197828Y-57538785D01*
X63269257Y-57467357D01*
X63412114Y-57395928D01*
X63769257Y-57395928D01*
X63912114Y-57467357D01*
X63983542Y-57538785D01*
X64054971Y-57681642D01*
X64054971Y-58110214D01*
X63983542Y-58253071D01*
X63912114Y-58324500D01*
X64054971Y-56681642D02*
X64054971Y-56395928D01*
X63983542Y-56253071D01*
X63912114Y-56181642D01*
X63697828Y-56038785D01*
X63412114Y-55967357D01*
X62840685Y-55967357D01*
X62697828Y-56038785D01*
X62626400Y-56110214D01*
X62554971Y-56253071D01*
X62554971Y-56538785D01*
X62626400Y-56681642D01*
X62697828Y-56753071D01*
X62840685Y-56824500D01*
X63197828Y-56824500D01*
X63340685Y-56753071D01*
X63412114Y-56681642D01*
X63483542Y-56538785D01*
X63483542Y-56253071D01*
X63412114Y-56110214D01*
X63340685Y-56038785D01*
X63197828Y-55967357D01*
X62554971Y-55038785D02*
X62554971Y-54895928D01*
X62626400Y-54753071D01*
X62697828Y-54681642D01*
X62840685Y-54610214D01*
X63126400Y-54538785D01*
X63483542Y-54538785D01*
X63769257Y-54610214D01*
X63912114Y-54681642D01*
X63983542Y-54753071D01*
X64054971Y-54895928D01*
X64054971Y-55038785D01*
X63983542Y-55181642D01*
X63912114Y-55253071D01*
X63769257Y-55324500D01*
X63483542Y-55395928D01*
X63126400Y-55395928D01*
X62840685Y-55324500D01*
X62697828Y-55253071D01*
X62626400Y-55181642D01*
X62554971Y-55038785D01*
X64054971Y-52753071D02*
X63054971Y-52753071D01*
X63197828Y-52753071D02*
X63126400Y-52681642D01*
X63054971Y-52538785D01*
X63054971Y-52324500D01*
X63126400Y-52181642D01*
X63269257Y-52110214D01*
X64054971Y-52110214D01*
X63269257Y-52110214D02*
X63126400Y-52038785D01*
X63054971Y-51895928D01*
X63054971Y-51681642D01*
X63126400Y-51538785D01*
X63269257Y-51467357D01*
X64054971Y-51467357D01*
X64054971Y-50753071D02*
X63054971Y-50753071D01*
X63197828Y-50753071D02*
X63126400Y-50681642D01*
X63054971Y-50538785D01*
X63054971Y-50324500D01*
X63126400Y-50181642D01*
X63269257Y-50110214D01*
X64054971Y-50110214D01*
X63269257Y-50110214D02*
X63126400Y-50038785D01*
X63054971Y-49895928D01*
X63054971Y-49681642D01*
X63126400Y-49538785D01*
X63269257Y-49467357D01*
X64054971Y-49467357D01*
D12*
X66556000Y-14605000D02*
X64589980Y-14605000D01*
X66556000Y-98044000D02*
X64589980Y-98044000D01*
X65176400Y-14605000D02*
X65176400Y-98044000D01*
X65176400Y-14605000D02*
X65176400Y-98044000D01*
X65176400Y-14605000D02*
X64589979Y-15731504D01*
X65176400Y-14605000D02*
X65762821Y-15731504D01*
X65176400Y-98044000D02*
X65762821Y-96917496D01*
X65176400Y-98044000D02*
X64589979Y-96917496D01*
D10*
D11*
X109990785Y-100754571D02*
X110276500Y-100754571D01*
X110419357Y-100683142D01*
X110490785Y-100611714D01*
X110633642Y-100397428D01*
X110705071Y-100111714D01*
X110705071Y-99540285D01*
X110633642Y-99397428D01*
X110562214Y-99326000D01*
X110419357Y-99254571D01*
X110133642Y-99254571D01*
X109990785Y-99326000D01*
X109919357Y-99397428D01*
X109847928Y-99540285D01*
X109847928Y-99897428D01*
X109919357Y-100040285D01*
X109990785Y-100111714D01*
X110133642Y-100183142D01*
X110419357Y-100183142D01*
X110562214Y-100111714D01*
X110633642Y-100040285D01*
X110705071Y-99897428D01*
X111419357Y-100754571D02*
X111705071Y-100754571D01*
X111847928Y-100683142D01*
X111919357Y-100611714D01*
X112062214Y-100397428D01*
X112133642Y-100111714D01*
X112133642Y-99540285D01*
X112062214Y-99397428D01*
X111990785Y-99326000D01*
X111847928Y-99254571D01*
X111562214Y-99254571D01*
X111419357Y-99326000D01*
X111347928Y-99397428D01*
X111276500Y-99540285D01*
X111276500Y-99897428D01*
X111347928Y-100040285D01*
X111419357Y-100111714D01*
X111562214Y-100183142D01*
X111847928Y-100183142D01*
X111990785Y-100111714D01*
X112062214Y-100040285D01*
X112133642Y-99897428D01*
X112847928Y-100683142D02*
X112847928Y-100754571D01*
X112776500Y-100897428D01*
X112705071Y-100968857D01*
X114133642Y-99754571D02*
X114133642Y-100754571D01*
X113776500Y-99183142D02*
X113419357Y-100254571D01*
X114347928Y-100254571D01*
X115562214Y-99754571D02*
X115562214Y-100754571D01*
X115205071Y-99183142D02*
X114847928Y-100254571D01*
X115776500Y-100254571D01*
X117133642Y-100754571D02*
X116276500Y-100754571D01*
X116705071Y-100754571D02*
X116705071Y-99254571D01*
X116562214Y-99468857D01*
X116419357Y-99611714D01*
X116276500Y-99683142D01*
X118062214Y-99254571D02*
X118205071Y-99254571D01*
X118347928Y-99326000D01*
X118419357Y-99397428D01*
X118490785Y-99540285D01*
X118562214Y-99826000D01*
X118562214Y-100183142D01*
X118490785Y-100468857D01*
X118419357Y-100611714D01*
X118347928Y-100683142D01*
X118205071Y-100754571D01*
X118062214Y-100754571D01*
X117919357Y-100683142D01*
X117847928Y-100611714D01*
X117776500Y-100468857D01*
X117705071Y-100183142D01*
X117705071Y-99826000D01*
X117776500Y-99540285D01*
X117847928Y-99397428D01*
X117919357Y-99326000D01*
X118062214Y-99254571D01*
X120347928Y-100754571D02*
X120347928Y-99754571D01*
X120347928Y-99897428D02*
X120419357Y-99826000D01*
X120562214Y-99754571D01*
X120776500Y-99754571D01*
X120919357Y-99826000D01*
X120990785Y-99968857D01*
X120990785Y-100754571D01*
X120990785Y-99968857D02*
X121062214Y-99826000D01*
X121205071Y-99754571D01*
X121419357Y-99754571D01*
X121562214Y-99826000D01*
X121633642Y-99968857D01*
X121633642Y-100754571D01*
X122347928Y-100754571D02*
X122347928Y-99754571D01*
X122347928Y-99897428D02*
X122419357Y-99826000D01*
X122562214Y-99754571D01*
X122776500Y-99754571D01*
X122919357Y-99826000D01*
X122990785Y-99968857D01*
X122990785Y-100754571D01*
X122990785Y-99968857D02*
X123062214Y-99826000D01*
X123205071Y-99754571D01*
X123419357Y-99754571D01*
X123562214Y-99826000D01*
X123633642Y-99968857D01*
X123633642Y-100754571D01*
D12*
X166497000Y-98544000D02*
X166497000Y-102186420D01*
X67056000Y-98544000D02*
X67056000Y-102186420D01*
X166497000Y-101600000D02*
X67056000Y-101600000D01*
X166497000Y-101600000D02*
X67056000Y-101600000D01*
X166497000Y-101600000D02*
X165370496Y-101013579D01*
X166497000Y-101600000D02*
X165370496Y-102186421D01*
X67056000Y-101600000D02*
X68182504Y-102186421D01*
X67056000Y-101600000D02*
X68182504Y-101013579D01*
D13*
%TO.P,SW_B1,1,1*%
%TO.N,/SW_BOT*%
X89306400Y-56134000D03*
X96106400Y-56134000D03*
%TO.P,SW_B1,2,2*%
%TO.N,GND*%
X96106400Y-60134000D03*
X89306400Y-60134000D03*
%TD*%
D14*
%TO.P,TP2,1,1*%
%TO.N,Net-(U2-Pad3)*%
X147320000Y-29718000D03*
%TD*%
D15*
%TO.P,R7,1*%
%TO.N,/SW_START*%
X125655000Y-55880000D03*
%TO.P,R7,2*%
%TO.N,+3.3V*%
X122555000Y-55880000D03*
%TD*%
%TO.P,R4,1*%
%TO.N,+3.3V*%
X116130000Y-73660000D03*
%TO.P,R4,2*%
%TO.N,/SW_R*%
X113030000Y-73660000D03*
%TD*%
D13*
%TO.P,SW5,1,1*%
%TO.N,GND*%
X127762000Y-93408000D03*
X134562000Y-93408000D03*
%TO.P,SW5,2,2*%
%TO.N,/SW_A*%
X127762000Y-89408000D03*
X134562000Y-89408000D03*
%TD*%
%TO.P,SW7,1,1*%
%TO.N,GND*%
X144204500Y-61302400D03*
X151004500Y-61302400D03*
%TO.P,SW7,2,2*%
%TO.N,/SW_START*%
X144204500Y-57302400D03*
X151004500Y-57302400D03*
%TD*%
D15*
%TO.P,R2,1*%
%TO.N,+3.3V*%
X116130000Y-68580000D03*
%TO.P,R2,2*%
%TO.N,/SW_T*%
X113030000Y-68580000D03*
%TD*%
D13*
%TO.P,SW_T1,1,1*%
%TO.N,/SW_T*%
X78232000Y-56134000D03*
X71432000Y-56134000D03*
%TO.P,SW_T1,2,2*%
%TO.N,GND*%
X78232000Y-60134000D03*
X71432000Y-60134000D03*
%TD*%
D15*
%TO.P,R5,1*%
%TO.N,/SW_A*%
X126037500Y-71120000D03*
%TO.P,R5,2*%
%TO.N,+3.3V*%
X122937500Y-71120000D03*
%TD*%
%TO.P,R8,1*%
%TO.N,/SW_SEL*%
X125730000Y-53340000D03*
%TO.P,R8,2*%
%TO.N,+3.3V*%
X122630000Y-53340000D03*
%TD*%
D13*
%TO.P,SW8,1,1*%
%TO.N,GND*%
X155322500Y-58667400D03*
X162122500Y-58667400D03*
%TO.P,SW8,2,2*%
%TO.N,/SW_SEL*%
X155322500Y-54667400D03*
X162122500Y-54667400D03*
%TD*%
%TO.P,SW3,1,1*%
%TO.N,/SW_R*%
X80314800Y-63500000D03*
X87114800Y-63500000D03*
%TO.P,SW3,2,2*%
%TO.N,GND*%
X80314800Y-67500000D03*
X87114800Y-67500000D03*
%TD*%
%TO.P,SW_L1,1,1*%
%TO.N,/SW_L*%
X87122000Y-48768000D03*
X80322000Y-48768000D03*
%TO.P,SW_L1,2,2*%
%TO.N,GND*%
X80322000Y-52768000D03*
X87122000Y-52768000D03*
%TD*%
D15*
%TO.P,R3,1*%
%TO.N,+3.3V*%
X116130000Y-71120000D03*
%TO.P,R3,2*%
%TO.N,/SW_BOT*%
X113030000Y-71120000D03*
%TD*%
%TO.P,R6,1*%
%TO.N,/SW_B*%
X126037500Y-73914000D03*
%TO.P,R6,2*%
%TO.N,+3.3V*%
X122937500Y-73914000D03*
%TD*%
%TO.P,R1,1*%
%TO.N,+3.3V*%
X116130000Y-66040000D03*
%TO.P,R1,2*%
%TO.N,/SW_L*%
X113030000Y-66040000D03*
%TD*%
D13*
%TO.P,SW6,1,1*%
%TO.N,GND*%
X108712000Y-93408000D03*
X115512000Y-93408000D03*
%TO.P,SW6,2,2*%
%TO.N,/SW_B*%
X115512000Y-89408000D03*
X108712000Y-89408000D03*
%TD*%
D16*
%TO.P,SW1,*%
%TO.N,*%
X72075500Y-37157500D03*
X78075500Y-25157500D03*
X72075500Y-25157500D03*
X78075500Y-37157500D03*
D17*
%TO.P,SW1,1,A*%
%TO.N,unconnected-(SW1-Pad1)*%
X76325500Y-27157500D03*
%TO.P,SW1,2,B*%
%TO.N,+BATT*%
X76325500Y-31157500D03*
%TO.P,SW1,3,C*%
%TO.N,+3.3V*%
X76325500Y-35157500D03*
%TD*%
%TO.P,U2,1,1*%
%TO.N,Net-(U2-Pad1)*%
X153155000Y-24956000D03*
%TO.P,U2,2,2*%
%TO.N,Net-(J1-Pad9)*%
X153155000Y-28956000D03*
%TO.P,U2,3,3*%
%TO.N,Net-(U2-Pad3)*%
X153155000Y-32956000D03*
%TD*%
D14*
%TO.P,TP1,1,1*%
%TO.N,Net-(U2-Pad1)*%
X147320000Y-24892000D03*
%TD*%
D18*
%TO.P,J2,1,Pin_1*%
%TO.N,+3.3V*%
X108034200Y-20291200D03*
D19*
%TO.P,J2,2,Pin_2*%
%TO.N,GND*%
X110574200Y-20291200D03*
%TO.P,J2,3,Pin_3*%
%TO.N,/LED{slash}BL*%
X113114200Y-20291200D03*
%TO.P,J2,4,Pin_4*%
%TO.N,/CS*%
X115654200Y-20291200D03*
%TO.P,J2,5,Pin_5*%
%TO.N,/DC{slash}RS*%
X118194200Y-20291200D03*
%TO.P,J2,6,Pin_6*%
%TO.N,/RESET*%
X120734200Y-20291200D03*
%TO.P,J2,7,Pin_7*%
%TO.N,/SDA*%
X123274200Y-20291200D03*
%TO.P,J2,8,Pin_8*%
%TO.N,/SCK*%
X125814200Y-20291200D03*
%TD*%
D17*
%TO.P,J1,1,Pin_1*%
%TO.N,/LRC*%
X147828000Y-34036000D03*
D19*
%TO.P,J1,2,Pin_2*%
%TO.N,/BCLK*%
X147828000Y-36576000D03*
%TO.P,J1,3,Pin_3*%
%TO.N,/DIN*%
X147828000Y-39116000D03*
%TO.P,J1,4,Pin_4*%
%TO.N,GND*%
X147828000Y-41656000D03*
%TO.P,J1,5,Pin_5*%
%TO.N,+3.3V*%
X147828000Y-44196000D03*
D18*
%TO.P,J1,6,Pin_6*%
%TO.N,GND*%
X147828000Y-46736000D03*
D19*
%TO.P,J1,7,Pin_7*%
%TO.N,+3.3V*%
X147828000Y-49276000D03*
%TD*%
%TO.P,U1,1,3v3*%
%TO.N,+3.3V*%
X132810000Y-43085000D03*
%TO.P,U1,2,RST*%
%TO.N,unconnected-(U1-Pad2)*%
X132810000Y-45720000D03*
%TO.P,U1,3,VP*%
%TO.N,unconnected-(U1-Pad3)*%
X132810000Y-48260000D03*
%TO.P,U1,4,VN*%
%TO.N,unconnected-(U1-Pad4)*%
X132810000Y-50800000D03*
%TO.P,U1,5,34i*%
%TO.N,/SW_SEL*%
X132810000Y-53340000D03*
%TO.P,U1,6,35i*%
%TO.N,/SW_START*%
X132810000Y-55880000D03*
%TO.P,U1,7,32*%
%TO.N,unconnected-(U1-Pad7)*%
X132810000Y-58420000D03*
%TO.P,U1,8,33*%
%TO.N,unconnected-(U1-Pad8)*%
X132810000Y-60960000D03*
%TO.P,U1,9,25*%
%TO.N,/LRC*%
X132810000Y-63500000D03*
%TO.P,U1,10,26*%
%TO.N,/BCLK*%
X132810000Y-66040000D03*
%TO.P,U1,11,27*%
%TO.N,/DIN*%
X132810000Y-68580000D03*
%TO.P,U1,12,14*%
%TO.N,/SW_A*%
X132810000Y-71120000D03*
%TO.P,U1,13,12STRAP*%
%TO.N,unconnected-(U1-Pad13)*%
X132810000Y-73660000D03*
%TO.P,U1,14,13*%
%TO.N,/SW_B*%
X132810000Y-76200000D03*
D18*
%TO.P,U1,15,GND*%
%TO.N,GND*%
X132810000Y-78740000D03*
D19*
%TO.P,U1,16,VBAT*%
%TO.N,unconnected-(U1-Pad16)*%
X132810000Y-81280000D03*
D18*
%TO.P,U1,17,GND*%
%TO.N,GND*%
X132810000Y-83725000D03*
D19*
%TO.P,U1,18,3.3v*%
%TO.N,+3.3V*%
X109950000Y-83725000D03*
%TO.P,U1,19,VIN*%
X109950000Y-81185000D03*
%TO.P,U1,20,5V*%
%TO.N,unconnected-(U1-Pad20)*%
X109950000Y-78645000D03*
D18*
%TO.P,U1,21,GND*%
%TO.N,GND*%
X109950000Y-76105000D03*
D19*
%TO.P,U1,22,15*%
%TO.N,/SW_R*%
X109950000Y-73565000D03*
%TO.P,U1,23,2*%
%TO.N,/SW_BOT*%
X109950000Y-71025000D03*
%TO.P,U1,24,0STRAP*%
%TO.N,/SW_T*%
X109950000Y-68485000D03*
%TO.P,U1,25,4*%
%TO.N,/SW_L*%
X109950000Y-65945000D03*
%TO.P,U1,26,5*%
%TO.N,/SCK*%
X109950000Y-63405000D03*
%TO.P,U1,27,18*%
%TO.N,/SDA*%
X109950000Y-60865000D03*
%TO.P,U1,28,19*%
%TO.N,/RESET*%
X109950000Y-58325000D03*
%TO.P,U1,29,21*%
%TO.N,/DC{slash}RS*%
X109950000Y-55785000D03*
%TO.P,U1,30,RX*%
%TO.N,unconnected-(U1-Pad30)*%
X109950000Y-53245000D03*
%TO.P,U1,31,TX*%
%TO.N,unconnected-(U1-Pad31)*%
X109950000Y-50705000D03*
%TO.P,U1,32,22*%
%TO.N,/CS*%
X109950000Y-48165000D03*
D17*
%TO.P,U1,33,23*%
%TO.N,/LED{slash}BL*%
X109950000Y-45625000D03*
D18*
%TO.P,U1,34,GND*%
%TO.N,GND*%
X109950000Y-43085000D03*
%TD*%
D20*
%TO.N,+3.3V*%
X137922000Y-17780000D02*
X144526000Y-24384000D01*
X122937500Y-73914000D02*
X122937500Y-71872500D01*
X133985000Y-17780000D02*
X137922000Y-17780000D01*
X144526000Y-41656000D02*
X144526000Y-47176081D01*
D21*
X134515000Y-41310340D02*
X122915000Y-52910340D01*
X116205000Y-65405000D02*
X116840000Y-64770000D01*
D20*
X107831000Y-18915000D02*
X107831000Y-20240400D01*
D21*
X133985000Y-17780000D02*
X134515000Y-18310000D01*
X116205000Y-82550000D02*
X116205000Y-65405000D01*
X114935000Y-83820000D02*
X116205000Y-82550000D01*
X134515000Y-18310000D02*
X134515000Y-41310340D01*
D20*
X108966000Y-17780000D02*
X107831000Y-18915000D01*
X122937500Y-56632500D02*
X122937500Y-63752500D01*
X144526000Y-24384000D02*
X144526000Y-41656000D01*
D21*
X109855000Y-83820000D02*
X114935000Y-83820000D01*
D20*
X144526000Y-47176081D02*
X146625919Y-49276000D01*
X147066000Y-44196000D02*
X147828000Y-44196000D01*
X122915000Y-56610000D02*
X122937500Y-56632500D01*
D21*
X116840000Y-64770000D02*
X121920000Y-64770000D01*
X122915000Y-52910340D02*
X122915000Y-57245000D01*
D20*
X133985000Y-17780000D02*
X108966000Y-17780000D01*
D21*
X121985000Y-64705000D02*
X122937500Y-63752500D01*
D20*
X122937500Y-63752500D02*
X122937500Y-71755000D01*
X144526000Y-41656000D02*
X147066000Y-44196000D01*
X146625919Y-49276000D02*
X147828000Y-49276000D01*
D21*
%TO.N,GND*%
X127762000Y-93408000D02*
X134562000Y-93408000D01*
X86762800Y-67532000D02*
X79962800Y-67532000D01*
X80322000Y-52768000D02*
X87122000Y-52768000D01*
X108712000Y-93408000D02*
X115512000Y-93408000D01*
%TO.N,/SW_A*%
X136398000Y-87572000D02*
X136398000Y-74708000D01*
X136398000Y-74708000D02*
X132810000Y-71120000D01*
X132810000Y-71120000D02*
X126037500Y-71120000D01*
D20*
X132620000Y-71120000D02*
X132715000Y-71215000D01*
D21*
X134562000Y-89408000D02*
X127762000Y-89408000D01*
X134562000Y-89408000D02*
X136398000Y-87572000D01*
%TO.N,/SW_START*%
X144810500Y-57302400D02*
X144715500Y-57397400D01*
X144810500Y-57397400D02*
X151610500Y-57397400D01*
D20*
X141376400Y-57302400D02*
X144810500Y-57302400D01*
X139852400Y-55778400D02*
X141376400Y-57302400D01*
X125756600Y-55778400D02*
X139852400Y-55778400D01*
X125655000Y-55880000D02*
X125756600Y-55778400D01*
D21*
%TO.N,/SCK*%
X125730000Y-47625000D02*
X109855000Y-63500000D01*
X125730000Y-42316400D02*
X125730000Y-47625000D01*
X125730000Y-20178600D02*
X125730000Y-42508600D01*
%TO.N,/SDA*%
X123139200Y-47675800D02*
X109855000Y-60960000D01*
X123139200Y-42545000D02*
X123139200Y-47675800D01*
X123139200Y-20443600D02*
X123139200Y-42773600D01*
%TO.N,/RESET*%
X120548400Y-42529125D02*
X120548400Y-47567850D01*
X120548400Y-47567850D02*
X109855000Y-58261250D01*
X120523000Y-20500750D02*
X120523000Y-42672000D01*
%TO.N,/DC{slash}RS*%
X117983000Y-47752000D02*
X109855000Y-55880000D01*
X117983000Y-42672000D02*
X117983000Y-47752000D01*
X117983000Y-20331000D02*
X117983000Y-42661000D01*
%TO.N,/CS*%
X115570000Y-43180000D02*
X110490000Y-48260000D01*
X115570000Y-20267500D02*
X115570000Y-38152500D01*
X115570000Y-37973000D02*
X115570000Y-43180000D01*
%TO.N,/LED{slash}BL*%
X112903000Y-20140500D02*
X112903000Y-38025500D01*
X112903000Y-37973000D02*
X112903000Y-43307000D01*
X110490000Y-45720000D02*
X109855000Y-45720000D01*
X112903000Y-43307000D02*
X110490000Y-45720000D01*
D20*
%TO.N,/SW_R*%
X99885000Y-63500000D02*
X87114800Y-63500000D01*
X113030000Y-73660000D02*
X110045000Y-73660000D01*
X109950000Y-73565000D02*
X99885000Y-63500000D01*
X110045000Y-73660000D02*
X109950000Y-73565000D01*
D21*
X80314800Y-63468000D02*
X87114800Y-63468000D01*
%TO.N,/SW_L*%
X112375000Y-65945000D02*
X113105000Y-66675000D01*
X109950000Y-65945000D02*
X112375000Y-65945000D01*
X109950000Y-65945000D02*
X106172000Y-62167000D01*
X97028000Y-48768000D02*
X87122000Y-48768000D01*
X106172000Y-57912000D02*
X97028000Y-48768000D01*
X80322000Y-48768000D02*
X87122000Y-48768000D01*
X106172000Y-62167000D02*
X106172000Y-57912000D01*
%TO.N,/SW_T*%
X109950000Y-68485000D02*
X112375000Y-68485000D01*
X79883000Y-54483000D02*
X78232000Y-56134000D01*
X104902000Y-63437000D02*
X104902000Y-59055000D01*
X109950000Y-68485000D02*
X104902000Y-63437000D01*
X78232000Y-56134000D02*
X71432000Y-56134000D01*
X112375000Y-68485000D02*
X113105000Y-69215000D01*
X104902000Y-59055000D02*
X100330000Y-54483000D01*
X100330000Y-54483000D02*
X79883000Y-54483000D01*
D20*
%TO.N,/SW_B*%
X132080000Y-76200000D02*
X132810000Y-76200000D01*
X132620000Y-76200000D02*
X132715000Y-76295000D01*
X126037500Y-73914000D02*
X129794000Y-73914000D01*
D21*
X115512000Y-89408000D02*
X108712000Y-89408000D01*
D20*
X126037500Y-78882500D02*
X115512000Y-89408000D01*
X126037500Y-73914000D02*
X126037500Y-78882500D01*
X129794000Y-73914000D02*
X132080000Y-76200000D01*
%TO.N,/SW_SEL*%
X125730000Y-53340000D02*
X125831600Y-53238400D01*
X155322500Y-54667400D02*
X162122500Y-54667400D01*
X151028400Y-53238400D02*
X152457400Y-54667400D01*
X152457400Y-54667400D02*
X155322500Y-54667400D01*
X125831600Y-53238400D02*
X151028400Y-53238400D01*
D21*
%TO.N,/SW_BOT*%
X96106400Y-56134000D02*
X89306400Y-56134000D01*
X103378000Y-64453000D02*
X103378000Y-59944000D01*
X109950000Y-71025000D02*
X112935000Y-71025000D01*
X109950000Y-71025000D02*
X103378000Y-64453000D01*
X103378000Y-59944000D02*
X99568000Y-56134000D01*
X99568000Y-56134000D02*
X96106400Y-56134000D01*
X112935000Y-71025000D02*
X113030000Y-71120000D01*
D20*
%TO.N,Net-(U2-Pad1)*%
X152710000Y-24892000D02*
X152774000Y-24956000D01*
X147320000Y-24892000D02*
X152710000Y-24892000D01*
%TO.N,Net-(U2-Pad3)*%
X147320000Y-29718000D02*
X148844000Y-29718000D01*
X148844000Y-29718000D02*
X152082000Y-32956000D01*
X152082000Y-32956000D02*
X152774000Y-32956000D01*
%TD*%
%TA.AperFunction,Conductor*%
%TO.N,GND*%
G36*
X165439121Y-15625002D02*
G01*
X165485614Y-15678658D01*
X165497000Y-15731000D01*
X165497000Y-96918000D01*
X165476998Y-96986121D01*
X165423342Y-97032614D01*
X165371000Y-97044000D01*
X68182000Y-97044000D01*
X68113879Y-97023998D01*
X68067386Y-96970342D01*
X68056000Y-96918000D01*
X68056000Y-93952669D01*
X106604001Y-93952669D01*
X106604371Y-93959490D01*
X106609895Y-94010352D01*
X106613521Y-94025604D01*
X106658676Y-94146054D01*
X106667214Y-94161649D01*
X106743715Y-94263724D01*
X106756276Y-94276285D01*
X106858351Y-94352786D01*
X106873946Y-94361324D01*
X106994394Y-94406478D01*
X107009649Y-94410105D01*
X107060514Y-94415631D01*
X107067328Y-94416000D01*
X108439885Y-94416000D01*
X108455124Y-94411525D01*
X108456329Y-94410135D01*
X108458000Y-94402452D01*
X108458000Y-94397884D01*
X108966000Y-94397884D01*
X108970475Y-94413123D01*
X108971865Y-94414328D01*
X108979548Y-94415999D01*
X110356669Y-94415999D01*
X110363490Y-94415629D01*
X110414352Y-94410105D01*
X110429604Y-94406479D01*
X110550054Y-94361324D01*
X110565649Y-94352786D01*
X110667724Y-94276285D01*
X110680285Y-94263724D01*
X110756786Y-94161649D01*
X110765324Y-94146054D01*
X110810478Y-94025606D01*
X110814105Y-94010351D01*
X110819631Y-93959486D01*
X110820000Y-93952672D01*
X110820000Y-93952669D01*
X113404001Y-93952669D01*
X113404371Y-93959490D01*
X113409895Y-94010352D01*
X113413521Y-94025604D01*
X113458676Y-94146054D01*
X113467214Y-94161649D01*
X113543715Y-94263724D01*
X113556276Y-94276285D01*
X113658351Y-94352786D01*
X113673946Y-94361324D01*
X113794394Y-94406478D01*
X113809649Y-94410105D01*
X113860514Y-94415631D01*
X113867328Y-94416000D01*
X115239885Y-94416000D01*
X115255124Y-94411525D01*
X115256329Y-94410135D01*
X115258000Y-94402452D01*
X115258000Y-94397884D01*
X115766000Y-94397884D01*
X115770475Y-94413123D01*
X115771865Y-94414328D01*
X115779548Y-94415999D01*
X117156669Y-94415999D01*
X117163490Y-94415629D01*
X117214352Y-94410105D01*
X117229604Y-94406479D01*
X117350054Y-94361324D01*
X117365649Y-94352786D01*
X117467724Y-94276285D01*
X117480285Y-94263724D01*
X117556786Y-94161649D01*
X117565324Y-94146054D01*
X117610478Y-94025606D01*
X117614105Y-94010351D01*
X117619631Y-93959486D01*
X117620000Y-93952672D01*
X117620000Y-93952669D01*
X125654001Y-93952669D01*
X125654371Y-93959490D01*
X125659895Y-94010352D01*
X125663521Y-94025604D01*
X125708676Y-94146054D01*
X125717214Y-94161649D01*
X125793715Y-94263724D01*
X125806276Y-94276285D01*
X125908351Y-94352786D01*
X125923946Y-94361324D01*
X126044394Y-94406478D01*
X126059649Y-94410105D01*
X126110514Y-94415631D01*
X126117328Y-94416000D01*
X127489885Y-94416000D01*
X127505124Y-94411525D01*
X127506329Y-94410135D01*
X127508000Y-94402452D01*
X127508000Y-94397884D01*
X128016000Y-94397884D01*
X128020475Y-94413123D01*
X128021865Y-94414328D01*
X128029548Y-94415999D01*
X129406669Y-94415999D01*
X129413490Y-94415629D01*
X129464352Y-94410105D01*
X129479604Y-94406479D01*
X129600054Y-94361324D01*
X129615649Y-94352786D01*
X129717724Y-94276285D01*
X129730285Y-94263724D01*
X129806786Y-94161649D01*
X129815324Y-94146054D01*
X129860478Y-94025606D01*
X129864105Y-94010351D01*
X129869631Y-93959486D01*
X129870000Y-93952672D01*
X129870000Y-93952669D01*
X132454001Y-93952669D01*
X132454371Y-93959490D01*
X132459895Y-94010352D01*
X132463521Y-94025604D01*
X132508676Y-94146054D01*
X132517214Y-94161649D01*
X132593715Y-94263724D01*
X132606276Y-94276285D01*
X132708351Y-94352786D01*
X132723946Y-94361324D01*
X132844394Y-94406478D01*
X132859649Y-94410105D01*
X132910514Y-94415631D01*
X132917328Y-94416000D01*
X134289885Y-94416000D01*
X134305124Y-94411525D01*
X134306329Y-94410135D01*
X134308000Y-94402452D01*
X134308000Y-94397884D01*
X134816000Y-94397884D01*
X134820475Y-94413123D01*
X134821865Y-94414328D01*
X134829548Y-94415999D01*
X136206669Y-94415999D01*
X136213490Y-94415629D01*
X136264352Y-94410105D01*
X136279604Y-94406479D01*
X136400054Y-94361324D01*
X136415649Y-94352786D01*
X136517724Y-94276285D01*
X136530285Y-94263724D01*
X136606786Y-94161649D01*
X136615324Y-94146054D01*
X136660478Y-94025606D01*
X136664105Y-94010351D01*
X136669631Y-93959486D01*
X136670000Y-93952672D01*
X136670000Y-93680115D01*
X136665525Y-93664876D01*
X136664135Y-93663671D01*
X136656452Y-93662000D01*
X134834115Y-93662000D01*
X134818876Y-93666475D01*
X134817671Y-93667865D01*
X134816000Y-93675548D01*
X134816000Y-94397884D01*
X134308000Y-94397884D01*
X134308000Y-93680115D01*
X134303525Y-93664876D01*
X134302135Y-93663671D01*
X134294452Y-93662000D01*
X132472116Y-93662000D01*
X132456877Y-93666475D01*
X132455672Y-93667865D01*
X132454001Y-93675548D01*
X132454001Y-93952669D01*
X129870000Y-93952669D01*
X129870000Y-93680115D01*
X129865525Y-93664876D01*
X129864135Y-93663671D01*
X129856452Y-93662000D01*
X128034115Y-93662000D01*
X128018876Y-93666475D01*
X128017671Y-93667865D01*
X128016000Y-93675548D01*
X128016000Y-94397884D01*
X127508000Y-94397884D01*
X127508000Y-93680115D01*
X127503525Y-93664876D01*
X127502135Y-93663671D01*
X127494452Y-93662000D01*
X125672116Y-93662000D01*
X125656877Y-93666475D01*
X125655672Y-93667865D01*
X125654001Y-93675548D01*
X125654001Y-93952669D01*
X117620000Y-93952669D01*
X117620000Y-93680115D01*
X117615525Y-93664876D01*
X117614135Y-93663671D01*
X117606452Y-93662000D01*
X115784115Y-93662000D01*
X115768876Y-93666475D01*
X115767671Y-93667865D01*
X115766000Y-93675548D01*
X115766000Y-94397884D01*
X115258000Y-94397884D01*
X115258000Y-93680115D01*
X115253525Y-93664876D01*
X115252135Y-93663671D01*
X115244452Y-93662000D01*
X113422116Y-93662000D01*
X113406877Y-93666475D01*
X113405672Y-93667865D01*
X113404001Y-93675548D01*
X113404001Y-93952669D01*
X110820000Y-93952669D01*
X110820000Y-93680115D01*
X110815525Y-93664876D01*
X110814135Y-93663671D01*
X110806452Y-93662000D01*
X108984115Y-93662000D01*
X108968876Y-93666475D01*
X108967671Y-93667865D01*
X108966000Y-93675548D01*
X108966000Y-94397884D01*
X108458000Y-94397884D01*
X108458000Y-93680115D01*
X108453525Y-93664876D01*
X108452135Y-93663671D01*
X108444452Y-93662000D01*
X106622116Y-93662000D01*
X106606877Y-93666475D01*
X106605672Y-93667865D01*
X106604001Y-93675548D01*
X106604001Y-93952669D01*
X68056000Y-93952669D01*
X68056000Y-91186000D01*
X79432457Y-91186000D01*
X79452609Y-91493460D01*
X79453413Y-91497500D01*
X79453413Y-91497503D01*
X79503937Y-91751503D01*
X79512720Y-91795659D01*
X79611762Y-92087427D01*
X79613586Y-92091125D01*
X79738845Y-92345125D01*
X79748040Y-92363771D01*
X79919222Y-92619964D01*
X79921936Y-92623058D01*
X79921940Y-92623064D01*
X79963055Y-92669946D01*
X80122380Y-92851620D01*
X80125469Y-92854329D01*
X80350936Y-93052060D01*
X80350942Y-93052064D01*
X80354036Y-93054778D01*
X80610229Y-93225960D01*
X80613928Y-93227784D01*
X80613933Y-93227787D01*
X80755962Y-93297828D01*
X80886573Y-93362238D01*
X80890478Y-93363564D01*
X80890479Y-93363564D01*
X81174434Y-93459954D01*
X81174437Y-93459955D01*
X81178341Y-93461280D01*
X81182380Y-93462083D01*
X81182386Y-93462085D01*
X81476497Y-93520587D01*
X81476500Y-93520587D01*
X81480540Y-93521391D01*
X81484651Y-93521660D01*
X81484655Y-93521661D01*
X81709010Y-93536366D01*
X81709019Y-93536366D01*
X81711059Y-93536500D01*
X81864941Y-93536500D01*
X81866981Y-93536366D01*
X81866990Y-93536366D01*
X82091345Y-93521661D01*
X82091349Y-93521660D01*
X82095460Y-93521391D01*
X82099500Y-93520587D01*
X82099503Y-93520587D01*
X82393614Y-93462085D01*
X82393620Y-93462083D01*
X82397659Y-93461280D01*
X82401563Y-93459955D01*
X82401566Y-93459954D01*
X82685521Y-93363564D01*
X82685522Y-93363564D01*
X82689427Y-93362238D01*
X82820038Y-93297828D01*
X82962067Y-93227787D01*
X82962072Y-93227784D01*
X82965771Y-93225960D01*
X83100578Y-93135885D01*
X106604000Y-93135885D01*
X106608475Y-93151124D01*
X106609865Y-93152329D01*
X106617548Y-93154000D01*
X108439885Y-93154000D01*
X108455124Y-93149525D01*
X108456329Y-93148135D01*
X108458000Y-93140452D01*
X108458000Y-93135885D01*
X108966000Y-93135885D01*
X108970475Y-93151124D01*
X108971865Y-93152329D01*
X108979548Y-93154000D01*
X110801884Y-93154000D01*
X110817123Y-93149525D01*
X110818328Y-93148135D01*
X110819999Y-93140452D01*
X110819999Y-93135885D01*
X113404000Y-93135885D01*
X113408475Y-93151124D01*
X113409865Y-93152329D01*
X113417548Y-93154000D01*
X115239885Y-93154000D01*
X115255124Y-93149525D01*
X115256329Y-93148135D01*
X115258000Y-93140452D01*
X115258000Y-93135885D01*
X115766000Y-93135885D01*
X115770475Y-93151124D01*
X115771865Y-93152329D01*
X115779548Y-93154000D01*
X117601884Y-93154000D01*
X117617123Y-93149525D01*
X117618328Y-93148135D01*
X117619999Y-93140452D01*
X117619999Y-93135885D01*
X125654000Y-93135885D01*
X125658475Y-93151124D01*
X125659865Y-93152329D01*
X125667548Y-93154000D01*
X127489885Y-93154000D01*
X127505124Y-93149525D01*
X127506329Y-93148135D01*
X127508000Y-93140452D01*
X127508000Y-93135885D01*
X128016000Y-93135885D01*
X128020475Y-93151124D01*
X128021865Y-93152329D01*
X128029548Y-93154000D01*
X129851884Y-93154000D01*
X129867123Y-93149525D01*
X129868328Y-93148135D01*
X129869999Y-93140452D01*
X129869999Y-93135885D01*
X132454000Y-93135885D01*
X132458475Y-93151124D01*
X132459865Y-93152329D01*
X132467548Y-93154000D01*
X134289885Y-93154000D01*
X134305124Y-93149525D01*
X134306329Y-93148135D01*
X134308000Y-93140452D01*
X134308000Y-93135885D01*
X134816000Y-93135885D01*
X134820475Y-93151124D01*
X134821865Y-93152329D01*
X134829548Y-93154000D01*
X136651884Y-93154000D01*
X136667123Y-93149525D01*
X136668328Y-93148135D01*
X136669999Y-93140452D01*
X136669999Y-92863331D01*
X136669629Y-92856510D01*
X136664105Y-92805648D01*
X136660479Y-92790396D01*
X136615324Y-92669946D01*
X136606786Y-92654351D01*
X136530285Y-92552276D01*
X136517724Y-92539715D01*
X136415649Y-92463214D01*
X136400054Y-92454676D01*
X136279606Y-92409522D01*
X136264351Y-92405895D01*
X136213486Y-92400369D01*
X136206672Y-92400000D01*
X134834115Y-92400000D01*
X134818876Y-92404475D01*
X134817671Y-92405865D01*
X134816000Y-92413548D01*
X134816000Y-93135885D01*
X134308000Y-93135885D01*
X134308000Y-92418116D01*
X134303525Y-92402877D01*
X134302135Y-92401672D01*
X134294452Y-92400001D01*
X132917331Y-92400001D01*
X132910510Y-92400371D01*
X132859648Y-92405895D01*
X132844396Y-92409521D01*
X132723946Y-92454676D01*
X132708351Y-92463214D01*
X132606276Y-92539715D01*
X132593715Y-92552276D01*
X132517214Y-92654351D01*
X132508676Y-92669946D01*
X132463522Y-92790394D01*
X132459895Y-92805649D01*
X132454369Y-92856514D01*
X132454000Y-92863328D01*
X132454000Y-93135885D01*
X129869999Y-93135885D01*
X129869999Y-92863331D01*
X129869629Y-92856510D01*
X129864105Y-92805648D01*
X129860479Y-92790396D01*
X129815324Y-92669946D01*
X129806786Y-92654351D01*
X129730285Y-92552276D01*
X129717724Y-92539715D01*
X129615649Y-92463214D01*
X129600054Y-92454676D01*
X129479606Y-92409522D01*
X129464351Y-92405895D01*
X129413486Y-92400369D01*
X129406672Y-92400000D01*
X128034115Y-92400000D01*
X128018876Y-92404475D01*
X128017671Y-92405865D01*
X128016000Y-92413548D01*
X128016000Y-93135885D01*
X127508000Y-93135885D01*
X127508000Y-92418116D01*
X127503525Y-92402877D01*
X127502135Y-92401672D01*
X127494452Y-92400001D01*
X126117331Y-92400001D01*
X126110510Y-92400371D01*
X126059648Y-92405895D01*
X126044396Y-92409521D01*
X125923946Y-92454676D01*
X125908351Y-92463214D01*
X125806276Y-92539715D01*
X125793715Y-92552276D01*
X125717214Y-92654351D01*
X125708676Y-92669946D01*
X125663522Y-92790394D01*
X125659895Y-92805649D01*
X125654369Y-92856514D01*
X125654000Y-92863328D01*
X125654000Y-93135885D01*
X117619999Y-93135885D01*
X117619999Y-92863331D01*
X117619629Y-92856510D01*
X117614105Y-92805648D01*
X117610479Y-92790396D01*
X117565324Y-92669946D01*
X117556786Y-92654351D01*
X117480285Y-92552276D01*
X117467724Y-92539715D01*
X117365649Y-92463214D01*
X117350054Y-92454676D01*
X117229606Y-92409522D01*
X117214351Y-92405895D01*
X117163486Y-92400369D01*
X117156672Y-92400000D01*
X115784115Y-92400000D01*
X115768876Y-92404475D01*
X115767671Y-92405865D01*
X115766000Y-92413548D01*
X115766000Y-93135885D01*
X115258000Y-93135885D01*
X115258000Y-92418116D01*
X115253525Y-92402877D01*
X115252135Y-92401672D01*
X115244452Y-92400001D01*
X113867331Y-92400001D01*
X113860510Y-92400371D01*
X113809648Y-92405895D01*
X113794396Y-92409521D01*
X113673946Y-92454676D01*
X113658351Y-92463214D01*
X113556276Y-92539715D01*
X113543715Y-92552276D01*
X113467214Y-92654351D01*
X113458676Y-92669946D01*
X113413522Y-92790394D01*
X113409895Y-92805649D01*
X113404369Y-92856514D01*
X113404000Y-92863328D01*
X113404000Y-93135885D01*
X110819999Y-93135885D01*
X110819999Y-92863331D01*
X110819629Y-92856510D01*
X110814105Y-92805648D01*
X110810479Y-92790396D01*
X110765324Y-92669946D01*
X110756786Y-92654351D01*
X110680285Y-92552276D01*
X110667724Y-92539715D01*
X110565649Y-92463214D01*
X110550054Y-92454676D01*
X110429606Y-92409522D01*
X110414351Y-92405895D01*
X110363486Y-92400369D01*
X110356672Y-92400000D01*
X108984115Y-92400000D01*
X108968876Y-92404475D01*
X108967671Y-92405865D01*
X108966000Y-92413548D01*
X108966000Y-93135885D01*
X108458000Y-93135885D01*
X108458000Y-92418116D01*
X108453525Y-92402877D01*
X108452135Y-92401672D01*
X108444452Y-92400001D01*
X107067331Y-92400001D01*
X107060510Y-92400371D01*
X107009648Y-92405895D01*
X106994396Y-92409521D01*
X106873946Y-92454676D01*
X106858351Y-92463214D01*
X106756276Y-92539715D01*
X106743715Y-92552276D01*
X106667214Y-92654351D01*
X106658676Y-92669946D01*
X106613522Y-92790394D01*
X106609895Y-92805649D01*
X106604369Y-92856514D01*
X106604000Y-92863328D01*
X106604000Y-93135885D01*
X83100578Y-93135885D01*
X83221964Y-93054778D01*
X83225058Y-93052064D01*
X83225064Y-93052060D01*
X83450531Y-92854329D01*
X83453620Y-92851620D01*
X83612945Y-92669946D01*
X83654060Y-92623064D01*
X83654064Y-92623058D01*
X83656778Y-92619964D01*
X83660719Y-92614067D01*
X83787383Y-92424499D01*
X83827960Y-92363772D01*
X83838980Y-92341427D01*
X83962414Y-92091125D01*
X83964238Y-92087427D01*
X84063280Y-91795659D01*
X84072064Y-91751503D01*
X84122587Y-91497503D01*
X84122587Y-91497500D01*
X84123391Y-91493460D01*
X84126895Y-91440000D01*
X151568457Y-91440000D01*
X151588609Y-91747460D01*
X151589413Y-91751500D01*
X151589413Y-91751503D01*
X151598974Y-91799566D01*
X151648720Y-92049659D01*
X151650045Y-92053563D01*
X151650046Y-92053566D01*
X151662796Y-92091125D01*
X151747762Y-92341427D01*
X151884040Y-92617771D01*
X152055222Y-92873964D01*
X152057936Y-92877058D01*
X152057940Y-92877064D01*
X152255671Y-93102531D01*
X152258380Y-93105620D01*
X152261469Y-93108329D01*
X152486936Y-93306060D01*
X152486942Y-93306064D01*
X152490036Y-93308778D01*
X152746229Y-93479960D01*
X152749928Y-93481784D01*
X152749933Y-93481787D01*
X152891962Y-93551828D01*
X153022573Y-93616238D01*
X153026478Y-93617564D01*
X153026479Y-93617564D01*
X153310434Y-93713954D01*
X153310437Y-93713955D01*
X153314341Y-93715280D01*
X153318380Y-93716083D01*
X153318386Y-93716085D01*
X153612497Y-93774587D01*
X153612500Y-93774587D01*
X153616540Y-93775391D01*
X153620651Y-93775660D01*
X153620655Y-93775661D01*
X153845010Y-93790366D01*
X153845019Y-93790366D01*
X153847059Y-93790500D01*
X154000941Y-93790500D01*
X154002981Y-93790366D01*
X154002990Y-93790366D01*
X154227345Y-93775661D01*
X154227349Y-93775660D01*
X154231460Y-93775391D01*
X154235500Y-93774587D01*
X154235503Y-93774587D01*
X154529614Y-93716085D01*
X154529620Y-93716083D01*
X154533659Y-93715280D01*
X154537563Y-93713955D01*
X154537566Y-93713954D01*
X154821521Y-93617564D01*
X154821522Y-93617564D01*
X154825427Y-93616238D01*
X154956038Y-93551828D01*
X155098067Y-93481787D01*
X155098072Y-93481784D01*
X155101771Y-93479960D01*
X155357964Y-93308778D01*
X155361058Y-93306064D01*
X155361064Y-93306060D01*
X155586531Y-93108329D01*
X155589620Y-93105620D01*
X155592329Y-93102531D01*
X155790060Y-92877064D01*
X155790064Y-92877058D01*
X155792778Y-92873964D01*
X155804441Y-92856510D01*
X155961666Y-92621205D01*
X155961667Y-92621204D01*
X155963960Y-92617772D01*
X156002454Y-92539715D01*
X156069934Y-92402877D01*
X156100238Y-92341427D01*
X156185204Y-92091125D01*
X156197954Y-92053566D01*
X156197955Y-92053563D01*
X156199280Y-92049659D01*
X156249027Y-91799566D01*
X156258587Y-91751503D01*
X156258587Y-91751500D01*
X156259391Y-91747460D01*
X156279543Y-91440000D01*
X156259391Y-91132540D01*
X156214827Y-90908500D01*
X156200085Y-90834386D01*
X156200083Y-90834380D01*
X156199280Y-90830341D01*
X156172188Y-90750529D01*
X156101564Y-90542479D01*
X156101564Y-90542478D01*
X156100238Y-90538573D01*
X155976905Y-90288479D01*
X155965787Y-90265933D01*
X155965784Y-90265928D01*
X155963960Y-90262229D01*
X155792778Y-90006036D01*
X155790064Y-90002942D01*
X155790060Y-90002936D01*
X155592329Y-89777469D01*
X155589620Y-89774380D01*
X155560607Y-89748936D01*
X155361064Y-89573940D01*
X155361058Y-89573936D01*
X155357964Y-89571222D01*
X155101771Y-89400040D01*
X155098072Y-89398216D01*
X155098067Y-89398213D01*
X154956038Y-89328172D01*
X154825427Y-89263762D01*
X154821521Y-89262436D01*
X154537566Y-89166046D01*
X154537563Y-89166045D01*
X154533659Y-89164720D01*
X154529620Y-89163917D01*
X154529614Y-89163915D01*
X154235503Y-89105413D01*
X154235500Y-89105413D01*
X154231460Y-89104609D01*
X154227349Y-89104340D01*
X154227345Y-89104339D01*
X154002990Y-89089634D01*
X154002981Y-89089634D01*
X154000941Y-89089500D01*
X153847059Y-89089500D01*
X153845019Y-89089634D01*
X153845010Y-89089634D01*
X153620655Y-89104339D01*
X153620651Y-89104340D01*
X153616540Y-89104609D01*
X153612500Y-89105413D01*
X153612497Y-89105413D01*
X153318386Y-89163915D01*
X153318380Y-89163917D01*
X153314341Y-89164720D01*
X153310437Y-89166045D01*
X153310434Y-89166046D01*
X153026479Y-89262436D01*
X153022573Y-89263762D01*
X152891962Y-89328172D01*
X152749933Y-89398213D01*
X152749928Y-89398216D01*
X152746229Y-89400040D01*
X152490036Y-89571222D01*
X152486942Y-89573936D01*
X152486936Y-89573940D01*
X152287393Y-89748936D01*
X152258380Y-89774380D01*
X152255671Y-89777469D01*
X152057940Y-90002936D01*
X152057936Y-90002942D01*
X152055222Y-90006036D01*
X152052933Y-90009462D01*
X152052929Y-90009467D01*
X151997882Y-90091851D01*
X151884040Y-90262228D01*
X151882216Y-90265927D01*
X151882213Y-90265932D01*
X151871761Y-90287127D01*
X151747762Y-90538573D01*
X151746436Y-90542478D01*
X151746436Y-90542479D01*
X151675813Y-90750529D01*
X151648720Y-90830341D01*
X151647917Y-90834380D01*
X151647915Y-90834386D01*
X151633173Y-90908500D01*
X151588609Y-91132540D01*
X151568457Y-91440000D01*
X84126895Y-91440000D01*
X84143543Y-91186000D01*
X84125355Y-90908500D01*
X84123661Y-90882655D01*
X84123660Y-90882651D01*
X84123391Y-90878540D01*
X84122587Y-90874497D01*
X84064085Y-90580386D01*
X84064083Y-90580380D01*
X84063280Y-90576341D01*
X84051786Y-90542479D01*
X83965564Y-90288479D01*
X83965564Y-90288478D01*
X83964238Y-90284573D01*
X83869198Y-90091851D01*
X83829787Y-90011933D01*
X83829784Y-90011928D01*
X83827960Y-90008229D01*
X83656778Y-89752036D01*
X83654064Y-89748942D01*
X83654060Y-89748936D01*
X83456329Y-89523469D01*
X83453620Y-89520380D01*
X83450531Y-89517671D01*
X83225064Y-89319940D01*
X83225058Y-89319936D01*
X83221964Y-89317222D01*
X82965771Y-89146040D01*
X82962072Y-89144216D01*
X82962067Y-89144213D01*
X82820038Y-89074172D01*
X82689427Y-89009762D01*
X82685521Y-89008436D01*
X82401566Y-88912046D01*
X82401563Y-88912045D01*
X82397659Y-88910720D01*
X82393620Y-88909917D01*
X82393614Y-88909915D01*
X82099503Y-88851413D01*
X82099500Y-88851413D01*
X82095460Y-88850609D01*
X82091349Y-88850340D01*
X82091345Y-88850339D01*
X81866990Y-88835634D01*
X81866981Y-88835634D01*
X81864941Y-88835500D01*
X81711059Y-88835500D01*
X81709019Y-88835634D01*
X81709010Y-88835634D01*
X81484655Y-88850339D01*
X81484651Y-88850340D01*
X81480540Y-88850609D01*
X81476500Y-88851413D01*
X81476497Y-88851413D01*
X81182386Y-88909915D01*
X81182380Y-88909917D01*
X81178341Y-88910720D01*
X81174437Y-88912045D01*
X81174434Y-88912046D01*
X80890479Y-89008436D01*
X80886573Y-89009762D01*
X80755962Y-89074172D01*
X80613933Y-89144213D01*
X80613928Y-89144216D01*
X80610229Y-89146040D01*
X80354036Y-89317222D01*
X80350942Y-89319936D01*
X80350936Y-89319940D01*
X80125469Y-89517671D01*
X80122380Y-89520380D01*
X80119671Y-89523469D01*
X79921940Y-89748936D01*
X79921936Y-89748942D01*
X79919222Y-89752036D01*
X79748040Y-90008228D01*
X79611762Y-90284573D01*
X79610436Y-90288478D01*
X79610436Y-90288479D01*
X79524215Y-90542479D01*
X79512720Y-90576341D01*
X79511917Y-90580380D01*
X79511915Y-90580386D01*
X79453413Y-90874497D01*
X79452609Y-90878540D01*
X79452340Y-90882651D01*
X79452339Y-90882655D01*
X79450645Y-90908500D01*
X79432457Y-91186000D01*
X68056000Y-91186000D01*
X68056000Y-68044669D01*
X78206801Y-68044669D01*
X78207171Y-68051490D01*
X78212695Y-68102352D01*
X78216321Y-68117604D01*
X78261476Y-68238054D01*
X78270014Y-68253649D01*
X78346515Y-68355724D01*
X78359076Y-68368285D01*
X78461151Y-68444786D01*
X78476746Y-68453324D01*
X78597194Y-68498478D01*
X78612449Y-68502105D01*
X78663314Y-68507631D01*
X78670128Y-68508000D01*
X80042685Y-68508000D01*
X80057924Y-68503525D01*
X80059129Y-68502135D01*
X80060800Y-68494452D01*
X80060800Y-68489884D01*
X80568800Y-68489884D01*
X80573275Y-68505123D01*
X80574665Y-68506328D01*
X80582348Y-68507999D01*
X81959469Y-68507999D01*
X81966290Y-68507629D01*
X82017152Y-68502105D01*
X82032404Y-68498479D01*
X82152854Y-68453324D01*
X82168449Y-68444786D01*
X82270524Y-68368285D01*
X82283085Y-68355724D01*
X82359586Y-68253649D01*
X82368124Y-68238054D01*
X82413278Y-68117606D01*
X82416905Y-68102351D01*
X82422431Y-68051486D01*
X82422800Y-68044672D01*
X82422800Y-68044669D01*
X85006801Y-68044669D01*
X85007171Y-68051490D01*
X85012695Y-68102352D01*
X85016321Y-68117604D01*
X85061476Y-68238054D01*
X85070014Y-68253649D01*
X85146515Y-68355724D01*
X85159076Y-68368285D01*
X85261151Y-68444786D01*
X85276746Y-68453324D01*
X85397194Y-68498478D01*
X85412449Y-68502105D01*
X85463314Y-68507631D01*
X85470128Y-68508000D01*
X86842685Y-68508000D01*
X86857924Y-68503525D01*
X86859129Y-68502135D01*
X86860800Y-68494452D01*
X86860800Y-68489884D01*
X87368800Y-68489884D01*
X87373275Y-68505123D01*
X87374665Y-68506328D01*
X87382348Y-68507999D01*
X88759469Y-68507999D01*
X88766290Y-68507629D01*
X88817152Y-68502105D01*
X88832404Y-68498479D01*
X88952854Y-68453324D01*
X88968449Y-68444786D01*
X89070524Y-68368285D01*
X89083085Y-68355724D01*
X89159586Y-68253649D01*
X89168124Y-68238054D01*
X89213278Y-68117606D01*
X89216905Y-68102351D01*
X89222431Y-68051486D01*
X89222800Y-68044672D01*
X89222800Y-67772115D01*
X89218325Y-67756876D01*
X89216935Y-67755671D01*
X89209252Y-67754000D01*
X87386915Y-67754000D01*
X87371676Y-67758475D01*
X87370471Y-67759865D01*
X87368800Y-67767548D01*
X87368800Y-68489884D01*
X86860800Y-68489884D01*
X86860800Y-67772115D01*
X86856325Y-67756876D01*
X86854935Y-67755671D01*
X86847252Y-67754000D01*
X85024916Y-67754000D01*
X85009677Y-67758475D01*
X85008472Y-67759865D01*
X85006801Y-67767548D01*
X85006801Y-68044669D01*
X82422800Y-68044669D01*
X82422800Y-67772115D01*
X82418325Y-67756876D01*
X82416935Y-67755671D01*
X82409252Y-67754000D01*
X80586915Y-67754000D01*
X80571676Y-67758475D01*
X80570471Y-67759865D01*
X80568800Y-67767548D01*
X80568800Y-68489884D01*
X80060800Y-68489884D01*
X80060800Y-67772115D01*
X80056325Y-67756876D01*
X80054935Y-67755671D01*
X80047252Y-67754000D01*
X78224916Y-67754000D01*
X78209677Y-67758475D01*
X78208472Y-67759865D01*
X78206801Y-67767548D01*
X78206801Y-68044669D01*
X68056000Y-68044669D01*
X68056000Y-67227885D01*
X78206800Y-67227885D01*
X78211275Y-67243124D01*
X78212665Y-67244329D01*
X78220348Y-67246000D01*
X80042685Y-67246000D01*
X80057924Y-67241525D01*
X80059129Y-67240135D01*
X80060800Y-67232452D01*
X80060800Y-67227885D01*
X80568800Y-67227885D01*
X80573275Y-67243124D01*
X80574665Y-67244329D01*
X80582348Y-67246000D01*
X82404684Y-67246000D01*
X82419923Y-67241525D01*
X82421128Y-67240135D01*
X82422799Y-67232452D01*
X82422799Y-67227885D01*
X85006800Y-67227885D01*
X85011275Y-67243124D01*
X85012665Y-67244329D01*
X85020348Y-67246000D01*
X86842685Y-67246000D01*
X86857924Y-67241525D01*
X86859129Y-67240135D01*
X86860800Y-67232452D01*
X86860800Y-67227885D01*
X87368800Y-67227885D01*
X87373275Y-67243124D01*
X87374665Y-67244329D01*
X87382348Y-67246000D01*
X89204684Y-67246000D01*
X89219923Y-67241525D01*
X89221128Y-67240135D01*
X89222799Y-67232452D01*
X89222799Y-66955331D01*
X89222429Y-66948510D01*
X89216905Y-66897648D01*
X89213279Y-66882396D01*
X89168124Y-66761946D01*
X89159586Y-66746351D01*
X89083085Y-66644276D01*
X89070524Y-66631715D01*
X88968449Y-66555214D01*
X88952854Y-66546676D01*
X88832406Y-66501522D01*
X88817151Y-66497895D01*
X88766286Y-66492369D01*
X88759472Y-66492000D01*
X87386915Y-66492000D01*
X87371676Y-66496475D01*
X87370471Y-66497865D01*
X87368800Y-66505548D01*
X87368800Y-67227885D01*
X86860800Y-67227885D01*
X86860800Y-66510116D01*
X86856325Y-66494877D01*
X86854935Y-66493672D01*
X86847252Y-66492001D01*
X85470131Y-66492001D01*
X85463310Y-66492371D01*
X85412448Y-66497895D01*
X85397196Y-66501521D01*
X85276746Y-66546676D01*
X85261151Y-66555214D01*
X85159076Y-66631715D01*
X85146515Y-66644276D01*
X85070014Y-66746351D01*
X85061476Y-66761946D01*
X85016322Y-66882394D01*
X85012695Y-66897649D01*
X85007169Y-66948514D01*
X85006800Y-66955328D01*
X85006800Y-67227885D01*
X82422799Y-67227885D01*
X82422799Y-66955331D01*
X82422429Y-66948510D01*
X82416905Y-66897648D01*
X82413279Y-66882396D01*
X82368124Y-66761946D01*
X82359586Y-66746351D01*
X82283085Y-66644276D01*
X82270524Y-66631715D01*
X82168449Y-66555214D01*
X82152854Y-66546676D01*
X82032406Y-66501522D01*
X82017151Y-66497895D01*
X81966286Y-66492369D01*
X81959472Y-66492000D01*
X80586915Y-66492000D01*
X80571676Y-66496475D01*
X80570471Y-66497865D01*
X80568800Y-66505548D01*
X80568800Y-67227885D01*
X80060800Y-67227885D01*
X80060800Y-66510116D01*
X80056325Y-66494877D01*
X80054935Y-66493672D01*
X80047252Y-66492001D01*
X78670131Y-66492001D01*
X78663310Y-66492371D01*
X78612448Y-66497895D01*
X78597196Y-66501521D01*
X78476746Y-66546676D01*
X78461151Y-66555214D01*
X78359076Y-66631715D01*
X78346515Y-66644276D01*
X78270014Y-66746351D01*
X78261476Y-66761946D01*
X78216322Y-66882394D01*
X78212695Y-66897649D01*
X78207169Y-66948514D01*
X78206800Y-66955328D01*
X78206800Y-67227885D01*
X68056000Y-67227885D01*
X68056000Y-60678669D01*
X69324001Y-60678669D01*
X69324371Y-60685490D01*
X69329895Y-60736352D01*
X69333521Y-60751604D01*
X69378676Y-60872054D01*
X69387214Y-60887649D01*
X69463715Y-60989724D01*
X69476276Y-61002285D01*
X69578351Y-61078786D01*
X69593946Y-61087324D01*
X69714394Y-61132478D01*
X69729649Y-61136105D01*
X69780514Y-61141631D01*
X69787328Y-61142000D01*
X71159885Y-61142000D01*
X71175124Y-61137525D01*
X71176329Y-61136135D01*
X71178000Y-61128452D01*
X71178000Y-61123884D01*
X71686000Y-61123884D01*
X71690475Y-61139123D01*
X71691865Y-61140328D01*
X71699548Y-61141999D01*
X73076669Y-61141999D01*
X73083490Y-61141629D01*
X73134352Y-61136105D01*
X73149604Y-61132479D01*
X73270054Y-61087324D01*
X73285649Y-61078786D01*
X73387724Y-61002285D01*
X73400285Y-60989724D01*
X73476786Y-60887649D01*
X73485324Y-60872054D01*
X73530478Y-60751606D01*
X73534105Y-60736351D01*
X73539631Y-60685486D01*
X73540000Y-60678672D01*
X73540000Y-60678669D01*
X76124001Y-60678669D01*
X76124371Y-60685490D01*
X76129895Y-60736352D01*
X76133521Y-60751604D01*
X76178676Y-60872054D01*
X76187214Y-60887649D01*
X76263715Y-60989724D01*
X76276276Y-61002285D01*
X76378351Y-61078786D01*
X76393946Y-61087324D01*
X76514394Y-61132478D01*
X76529649Y-61136105D01*
X76580514Y-61141631D01*
X76587328Y-61142000D01*
X77959885Y-61142000D01*
X77975124Y-61137525D01*
X77976329Y-61136135D01*
X77978000Y-61128452D01*
X77978000Y-61123884D01*
X78486000Y-61123884D01*
X78490475Y-61139123D01*
X78491865Y-61140328D01*
X78499548Y-61141999D01*
X79876669Y-61141999D01*
X79883490Y-61141629D01*
X79934352Y-61136105D01*
X79949604Y-61132479D01*
X80070054Y-61087324D01*
X80085649Y-61078786D01*
X80187724Y-61002285D01*
X80200285Y-60989724D01*
X80276786Y-60887649D01*
X80285324Y-60872054D01*
X80330478Y-60751606D01*
X80334105Y-60736351D01*
X80339631Y-60685486D01*
X80340000Y-60678672D01*
X80340000Y-60678669D01*
X87198401Y-60678669D01*
X87198771Y-60685490D01*
X87204295Y-60736352D01*
X87207921Y-60751604D01*
X87253076Y-60872054D01*
X87261614Y-60887649D01*
X87338115Y-60989724D01*
X87350676Y-61002285D01*
X87452751Y-61078786D01*
X87468346Y-61087324D01*
X87588794Y-61132478D01*
X87604049Y-61136105D01*
X87654914Y-61141631D01*
X87661728Y-61142000D01*
X89034285Y-61142000D01*
X89049524Y-61137525D01*
X89050729Y-61136135D01*
X89052400Y-61128452D01*
X89052400Y-61123884D01*
X89560400Y-61123884D01*
X89564875Y-61139123D01*
X89566265Y-61140328D01*
X89573948Y-61141999D01*
X90951069Y-61141999D01*
X90957890Y-61141629D01*
X91008752Y-61136105D01*
X91024004Y-61132479D01*
X91144454Y-61087324D01*
X91160049Y-61078786D01*
X91262124Y-61002285D01*
X91274685Y-60989724D01*
X91351186Y-60887649D01*
X91359724Y-60872054D01*
X91404878Y-60751606D01*
X91408505Y-60736351D01*
X91414031Y-60685486D01*
X91414400Y-60678672D01*
X91414400Y-60678669D01*
X93998401Y-60678669D01*
X93998771Y-60685490D01*
X94004295Y-60736352D01*
X94007921Y-60751604D01*
X94053076Y-60872054D01*
X94061614Y-60887649D01*
X94138115Y-60989724D01*
X94150676Y-61002285D01*
X94252751Y-61078786D01*
X94268346Y-61087324D01*
X94388794Y-61132478D01*
X94404049Y-61136105D01*
X94454914Y-61141631D01*
X94461728Y-61142000D01*
X95834285Y-61142000D01*
X95849524Y-61137525D01*
X95850729Y-61136135D01*
X95852400Y-61128452D01*
X95852400Y-61123884D01*
X96360400Y-61123884D01*
X96364875Y-61139123D01*
X96366265Y-61140328D01*
X96373948Y-61141999D01*
X97751069Y-61141999D01*
X97757890Y-61141629D01*
X97808752Y-61136105D01*
X97824004Y-61132479D01*
X97944454Y-61087324D01*
X97960049Y-61078786D01*
X98062124Y-61002285D01*
X98074685Y-60989724D01*
X98151186Y-60887649D01*
X98159724Y-60872054D01*
X98204878Y-60751606D01*
X98208505Y-60736351D01*
X98214031Y-60685486D01*
X98214400Y-60678672D01*
X98214400Y-60406115D01*
X98209925Y-60390876D01*
X98208535Y-60389671D01*
X98200852Y-60388000D01*
X96378515Y-60388000D01*
X96363276Y-60392475D01*
X96362071Y-60393865D01*
X96360400Y-60401548D01*
X96360400Y-61123884D01*
X95852400Y-61123884D01*
X95852400Y-60406115D01*
X95847925Y-60390876D01*
X95846535Y-60389671D01*
X95838852Y-60388000D01*
X94016516Y-60388000D01*
X94001277Y-60392475D01*
X94000072Y-60393865D01*
X93998401Y-60401548D01*
X93998401Y-60678669D01*
X91414400Y-60678669D01*
X91414400Y-60406115D01*
X91409925Y-60390876D01*
X91408535Y-60389671D01*
X91400852Y-60388000D01*
X89578515Y-60388000D01*
X89563276Y-60392475D01*
X89562071Y-60393865D01*
X89560400Y-60401548D01*
X89560400Y-61123884D01*
X89052400Y-61123884D01*
X89052400Y-60406115D01*
X89047925Y-60390876D01*
X89046535Y-60389671D01*
X89038852Y-60388000D01*
X87216516Y-60388000D01*
X87201277Y-60392475D01*
X87200072Y-60393865D01*
X87198401Y-60401548D01*
X87198401Y-60678669D01*
X80340000Y-60678669D01*
X80340000Y-60406115D01*
X80335525Y-60390876D01*
X80334135Y-60389671D01*
X80326452Y-60388000D01*
X78504115Y-60388000D01*
X78488876Y-60392475D01*
X78487671Y-60393865D01*
X78486000Y-60401548D01*
X78486000Y-61123884D01*
X77978000Y-61123884D01*
X77978000Y-60406115D01*
X77973525Y-60390876D01*
X77972135Y-60389671D01*
X77964452Y-60388000D01*
X76142116Y-60388000D01*
X76126877Y-60392475D01*
X76125672Y-60393865D01*
X76124001Y-60401548D01*
X76124001Y-60678669D01*
X73540000Y-60678669D01*
X73540000Y-60406115D01*
X73535525Y-60390876D01*
X73534135Y-60389671D01*
X73526452Y-60388000D01*
X71704115Y-60388000D01*
X71688876Y-60392475D01*
X71687671Y-60393865D01*
X71686000Y-60401548D01*
X71686000Y-61123884D01*
X71178000Y-61123884D01*
X71178000Y-60406115D01*
X71173525Y-60390876D01*
X71172135Y-60389671D01*
X71164452Y-60388000D01*
X69342116Y-60388000D01*
X69326877Y-60392475D01*
X69325672Y-60393865D01*
X69324001Y-60401548D01*
X69324001Y-60678669D01*
X68056000Y-60678669D01*
X68056000Y-59861885D01*
X69324000Y-59861885D01*
X69328475Y-59877124D01*
X69329865Y-59878329D01*
X69337548Y-59880000D01*
X71159885Y-59880000D01*
X71175124Y-59875525D01*
X71176329Y-59874135D01*
X71178000Y-59866452D01*
X71178000Y-59861885D01*
X71686000Y-59861885D01*
X71690475Y-59877124D01*
X71691865Y-59878329D01*
X71699548Y-59880000D01*
X73521884Y-59880000D01*
X73537123Y-59875525D01*
X73538328Y-59874135D01*
X73539999Y-59866452D01*
X73539999Y-59861885D01*
X76124000Y-59861885D01*
X76128475Y-59877124D01*
X76129865Y-59878329D01*
X76137548Y-59880000D01*
X77959885Y-59880000D01*
X77975124Y-59875525D01*
X77976329Y-59874135D01*
X77978000Y-59866452D01*
X77978000Y-59861885D01*
X78486000Y-59861885D01*
X78490475Y-59877124D01*
X78491865Y-59878329D01*
X78499548Y-59880000D01*
X80321884Y-59880000D01*
X80337123Y-59875525D01*
X80338328Y-59874135D01*
X80339999Y-59866452D01*
X80339999Y-59861885D01*
X87198400Y-59861885D01*
X87202875Y-59877124D01*
X87204265Y-59878329D01*
X87211948Y-59880000D01*
X89034285Y-59880000D01*
X89049524Y-59875525D01*
X89050729Y-59874135D01*
X89052400Y-59866452D01*
X89052400Y-59861885D01*
X89560400Y-59861885D01*
X89564875Y-59877124D01*
X89566265Y-59878329D01*
X89573948Y-59880000D01*
X91396284Y-59880000D01*
X91411523Y-59875525D01*
X91412728Y-59874135D01*
X91414399Y-59866452D01*
X91414399Y-59861885D01*
X93998400Y-59861885D01*
X94002875Y-59877124D01*
X94004265Y-59878329D01*
X94011948Y-59880000D01*
X95834285Y-59880000D01*
X95849524Y-59875525D01*
X95850729Y-59874135D01*
X95852400Y-59866452D01*
X95852400Y-59861885D01*
X96360400Y-59861885D01*
X96364875Y-59877124D01*
X96366265Y-59878329D01*
X96373948Y-59880000D01*
X98196284Y-59880000D01*
X98211523Y-59875525D01*
X98212728Y-59874135D01*
X98214399Y-59866452D01*
X98214399Y-59589331D01*
X98214029Y-59582510D01*
X98208505Y-59531648D01*
X98204879Y-59516396D01*
X98159724Y-59395946D01*
X98151186Y-59380351D01*
X98074685Y-59278276D01*
X98062124Y-59265715D01*
X97960049Y-59189214D01*
X97944454Y-59180676D01*
X97824006Y-59135522D01*
X97808751Y-59131895D01*
X97757886Y-59126369D01*
X97751072Y-59126000D01*
X96378515Y-59126000D01*
X96363276Y-59130475D01*
X96362071Y-59131865D01*
X96360400Y-59139548D01*
X96360400Y-59861885D01*
X95852400Y-59861885D01*
X95852400Y-59144116D01*
X95847925Y-59128877D01*
X95846535Y-59127672D01*
X95838852Y-59126001D01*
X94461731Y-59126001D01*
X94454910Y-59126371D01*
X94404048Y-59131895D01*
X94388796Y-59135521D01*
X94268346Y-59180676D01*
X94252751Y-59189214D01*
X94150676Y-59265715D01*
X94138115Y-59278276D01*
X94061614Y-59380351D01*
X94053076Y-59395946D01*
X94007922Y-59516394D01*
X94004295Y-59531649D01*
X93998769Y-59582514D01*
X93998400Y-59589328D01*
X93998400Y-59861885D01*
X91414399Y-59861885D01*
X91414399Y-59589331D01*
X91414029Y-59582510D01*
X91408505Y-59531648D01*
X91404879Y-59516396D01*
X91359724Y-59395946D01*
X91351186Y-59380351D01*
X91274685Y-59278276D01*
X91262124Y-59265715D01*
X91160049Y-59189214D01*
X91144454Y-59180676D01*
X91024006Y-59135522D01*
X91008751Y-59131895D01*
X90957886Y-59126369D01*
X90951072Y-59126000D01*
X89578515Y-59126000D01*
X89563276Y-59130475D01*
X89562071Y-59131865D01*
X89560400Y-59139548D01*
X89560400Y-59861885D01*
X89052400Y-59861885D01*
X89052400Y-59144116D01*
X89047925Y-59128877D01*
X89046535Y-59127672D01*
X89038852Y-59126001D01*
X87661731Y-59126001D01*
X87654910Y-59126371D01*
X87604048Y-59131895D01*
X87588796Y-59135521D01*
X87468346Y-59180676D01*
X87452751Y-59189214D01*
X87350676Y-59265715D01*
X87338115Y-59278276D01*
X87261614Y-59380351D01*
X87253076Y-59395946D01*
X87207922Y-59516394D01*
X87204295Y-59531649D01*
X87198769Y-59582514D01*
X87198400Y-59589328D01*
X87198400Y-59861885D01*
X80339999Y-59861885D01*
X80339999Y-59589331D01*
X80339629Y-59582510D01*
X80334105Y-59531648D01*
X80330479Y-59516396D01*
X80285324Y-59395946D01*
X80276786Y-59380351D01*
X80200285Y-59278276D01*
X80187724Y-59265715D01*
X80085649Y-59189214D01*
X80070054Y-59180676D01*
X79949606Y-59135522D01*
X79934351Y-59131895D01*
X79883486Y-59126369D01*
X79876672Y-59126000D01*
X78504115Y-59126000D01*
X78488876Y-59130475D01*
X78487671Y-59131865D01*
X78486000Y-59139548D01*
X78486000Y-59861885D01*
X77978000Y-59861885D01*
X77978000Y-59144116D01*
X77973525Y-59128877D01*
X77972135Y-59127672D01*
X77964452Y-59126001D01*
X76587331Y-59126001D01*
X76580510Y-59126371D01*
X76529648Y-59131895D01*
X76514396Y-59135521D01*
X76393946Y-59180676D01*
X76378351Y-59189214D01*
X76276276Y-59265715D01*
X76263715Y-59278276D01*
X76187214Y-59380351D01*
X76178676Y-59395946D01*
X76133522Y-59516394D01*
X76129895Y-59531649D01*
X76124369Y-59582514D01*
X76124000Y-59589328D01*
X76124000Y-59861885D01*
X73539999Y-59861885D01*
X73539999Y-59589331D01*
X73539629Y-59582510D01*
X73534105Y-59531648D01*
X73530479Y-59516396D01*
X73485324Y-59395946D01*
X73476786Y-59380351D01*
X73400285Y-59278276D01*
X73387724Y-59265715D01*
X73285649Y-59189214D01*
X73270054Y-59180676D01*
X73149606Y-59135522D01*
X73134351Y-59131895D01*
X73083486Y-59126369D01*
X73076672Y-59126000D01*
X71704115Y-59126000D01*
X71688876Y-59130475D01*
X71687671Y-59131865D01*
X71686000Y-59139548D01*
X71686000Y-59861885D01*
X71178000Y-59861885D01*
X71178000Y-59144116D01*
X71173525Y-59128877D01*
X71172135Y-59127672D01*
X71164452Y-59126001D01*
X69787331Y-59126001D01*
X69780510Y-59126371D01*
X69729648Y-59131895D01*
X69714396Y-59135521D01*
X69593946Y-59180676D01*
X69578351Y-59189214D01*
X69476276Y-59265715D01*
X69463715Y-59278276D01*
X69387214Y-59380351D01*
X69378676Y-59395946D01*
X69333522Y-59516394D01*
X69329895Y-59531649D01*
X69324369Y-59582514D01*
X69324000Y-59589328D01*
X69324000Y-59861885D01*
X68056000Y-59861885D01*
X68056000Y-56691816D01*
X68831500Y-56691816D01*
X68831749Y-56694603D01*
X68831749Y-56694609D01*
X68839411Y-56780455D01*
X68842234Y-56812087D01*
X68898259Y-57007470D01*
X68992427Y-57187596D01*
X68996458Y-57192539D01*
X68996459Y-57192540D01*
X69088935Y-57305927D01*
X69120891Y-57345109D01*
X69125831Y-57349138D01*
X69255021Y-57454502D01*
X69278404Y-57473573D01*
X69458530Y-57567741D01*
X69653913Y-57623766D01*
X69685545Y-57626589D01*
X69771391Y-57634251D01*
X69771397Y-57634251D01*
X69774184Y-57634500D01*
X73089816Y-57634500D01*
X73092603Y-57634251D01*
X73092609Y-57634251D01*
X73178455Y-57626589D01*
X73210087Y-57623766D01*
X73405470Y-57567741D01*
X73585596Y-57473573D01*
X73598735Y-57462857D01*
X73664166Y-57435303D01*
X73678371Y-57434500D01*
X75985629Y-57434500D01*
X76053750Y-57454502D01*
X76065265Y-57462857D01*
X76078404Y-57473573D01*
X76258530Y-57567741D01*
X76453913Y-57623766D01*
X76485545Y-57626589D01*
X76571391Y-57634251D01*
X76571397Y-57634251D01*
X76574184Y-57634500D01*
X79889816Y-57634500D01*
X79892603Y-57634251D01*
X79892609Y-57634251D01*
X79978455Y-57626589D01*
X80010087Y-57623766D01*
X80205470Y-57567741D01*
X80385596Y-57473573D01*
X80408980Y-57454502D01*
X80538169Y-57349138D01*
X80543109Y-57345109D01*
X80575065Y-57305927D01*
X80667541Y-57192540D01*
X80667542Y-57192539D01*
X80671573Y-57187596D01*
X80765741Y-57007470D01*
X80821766Y-56812087D01*
X80824589Y-56780455D01*
X80832251Y-56694609D01*
X80832251Y-56694603D01*
X80832500Y-56691816D01*
X80832500Y-55909500D01*
X80852502Y-55841379D01*
X80906158Y-55794886D01*
X80958500Y-55783500D01*
X86579900Y-55783500D01*
X86648021Y-55803502D01*
X86694514Y-55857158D01*
X86705900Y-55909500D01*
X86705900Y-56691816D01*
X86706149Y-56694603D01*
X86706149Y-56694609D01*
X86713811Y-56780455D01*
X86716634Y-56812087D01*
X86772659Y-57007470D01*
X86866827Y-57187596D01*
X86870858Y-57192539D01*
X86870859Y-57192540D01*
X86963335Y-57305927D01*
X86995291Y-57345109D01*
X87000231Y-57349138D01*
X87129421Y-57454502D01*
X87152804Y-57473573D01*
X87332930Y-57567741D01*
X87528313Y-57623766D01*
X87559945Y-57626589D01*
X87645791Y-57634251D01*
X87645797Y-57634251D01*
X87648584Y-57634500D01*
X90964216Y-57634500D01*
X90967003Y-57634251D01*
X90967009Y-57634251D01*
X91052855Y-57626589D01*
X91084487Y-57623766D01*
X91279870Y-57567741D01*
X91459996Y-57473573D01*
X91473135Y-57462857D01*
X91538566Y-57435303D01*
X91552771Y-57434500D01*
X93860029Y-57434500D01*
X93928150Y-57454502D01*
X93939665Y-57462857D01*
X93952804Y-57473573D01*
X94132930Y-57567741D01*
X94328313Y-57623766D01*
X94359945Y-57626589D01*
X94445791Y-57634251D01*
X94445797Y-57634251D01*
X94448584Y-57634500D01*
X97764216Y-57634500D01*
X97767003Y-57634251D01*
X97767009Y-57634251D01*
X97852855Y-57626589D01*
X97884487Y-57623766D01*
X98079870Y-57567741D01*
X98259996Y-57473573D01*
X98273135Y-57462857D01*
X98338566Y-57435303D01*
X98352771Y-57434500D01*
X98977125Y-57434500D01*
X99045246Y-57454502D01*
X99066220Y-57471405D01*
X102040595Y-60445780D01*
X102074621Y-60508092D01*
X102077500Y-60534875D01*
X102077500Y-63407704D01*
X102057498Y-63475825D01*
X102003842Y-63522318D01*
X101933568Y-63532422D01*
X101868988Y-63502928D01*
X101862405Y-63496799D01*
X100913789Y-62548183D01*
X100907718Y-62541668D01*
X100868410Y-62496369D01*
X100868408Y-62496367D01*
X100864910Y-62492336D01*
X100817796Y-62453705D01*
X100781260Y-62423747D01*
X100779908Y-62422623D01*
X100701298Y-62356310D01*
X100701296Y-62356308D01*
X100697215Y-62352866D01*
X100692611Y-62350159D01*
X100688931Y-62347554D01*
X100685249Y-62345023D01*
X100681120Y-62341638D01*
X100587101Y-62288120D01*
X100585642Y-62287275D01*
X100496928Y-62235122D01*
X100496923Y-62235119D01*
X100492324Y-62232416D01*
X100487339Y-62230528D01*
X100483345Y-62228614D01*
X100479199Y-62226698D01*
X100474567Y-62224061D01*
X100469558Y-62222243D01*
X100469552Y-62222240D01*
X100372842Y-62187136D01*
X100371223Y-62186535D01*
X100270067Y-62148211D01*
X100264825Y-62147187D01*
X100260440Y-62145938D01*
X100256171Y-62144786D01*
X100251156Y-62142966D01*
X100144656Y-62123708D01*
X100143071Y-62123411D01*
X100036800Y-62102657D01*
X100031463Y-62102531D01*
X100026161Y-62101955D01*
X100026202Y-62101577D01*
X100025525Y-62101509D01*
X100025483Y-62101881D01*
X100021364Y-62101413D01*
X100017275Y-62100674D01*
X100013131Y-62100479D01*
X100013126Y-62100478D01*
X99993869Y-62099570D01*
X99993862Y-62099570D01*
X99992381Y-62099500D01*
X99904308Y-62099500D01*
X99901340Y-62099465D01*
X99898485Y-62099398D01*
X99799193Y-62097058D01*
X99793914Y-62097833D01*
X99793911Y-62097833D01*
X99792699Y-62098011D01*
X99791656Y-62098164D01*
X99773361Y-62099500D01*
X89182803Y-62099500D01*
X89124428Y-62085162D01*
X89088270Y-62066259D01*
X88892887Y-62010234D01*
X88861255Y-62007411D01*
X88775409Y-61999749D01*
X88775403Y-61999749D01*
X88772616Y-61999500D01*
X85456984Y-61999500D01*
X85454197Y-61999749D01*
X85454191Y-61999749D01*
X85368345Y-62007411D01*
X85336713Y-62010234D01*
X85141330Y-62066259D01*
X85135673Y-62069216D01*
X85135669Y-62069218D01*
X84975102Y-62153161D01*
X84916726Y-62167500D01*
X82512874Y-62167500D01*
X82454498Y-62153161D01*
X82293931Y-62069218D01*
X82293927Y-62069216D01*
X82288270Y-62066259D01*
X82092887Y-62010234D01*
X82061255Y-62007411D01*
X81975409Y-61999749D01*
X81975403Y-61999749D01*
X81972616Y-61999500D01*
X78656984Y-61999500D01*
X78654197Y-61999749D01*
X78654191Y-61999749D01*
X78568345Y-62007411D01*
X78536713Y-62010234D01*
X78341330Y-62066259D01*
X78231726Y-62123559D01*
X78168890Y-62156409D01*
X78161204Y-62160427D01*
X78156261Y-62164458D01*
X78156260Y-62164459D01*
X78049649Y-62251409D01*
X78003691Y-62288891D01*
X77999662Y-62293831D01*
X77893706Y-62423747D01*
X77875227Y-62446404D01*
X77781059Y-62626530D01*
X77725034Y-62821913D01*
X77724501Y-62827886D01*
X77715682Y-62926703D01*
X77714300Y-62942184D01*
X77714300Y-64057816D01*
X77725034Y-64178087D01*
X77781059Y-64373470D01*
X77875227Y-64553596D01*
X77879258Y-64558539D01*
X77879259Y-64558540D01*
X77907721Y-64593438D01*
X78003691Y-64711109D01*
X78008631Y-64715138D01*
X78098585Y-64788502D01*
X78161204Y-64839573D01*
X78341330Y-64933741D01*
X78536713Y-64989766D01*
X78568345Y-64992589D01*
X78654191Y-65000251D01*
X78654197Y-65000251D01*
X78656984Y-65000500D01*
X81972616Y-65000500D01*
X81975403Y-65000251D01*
X81975409Y-65000251D01*
X82061255Y-64992589D01*
X82092887Y-64989766D01*
X82288270Y-64933741D01*
X82468396Y-64839573D01*
X82520771Y-64796857D01*
X82586203Y-64769303D01*
X82600407Y-64768500D01*
X84829193Y-64768500D01*
X84897314Y-64788502D01*
X84908830Y-64796857D01*
X84961204Y-64839573D01*
X85141330Y-64933741D01*
X85336713Y-64989766D01*
X85368345Y-64992589D01*
X85454191Y-65000251D01*
X85454197Y-65000251D01*
X85456984Y-65000500D01*
X88772616Y-65000500D01*
X88775403Y-65000251D01*
X88775409Y-65000251D01*
X88861255Y-64992589D01*
X88892887Y-64989766D01*
X89088270Y-64933741D01*
X89124428Y-64914838D01*
X89182803Y-64900500D01*
X99252704Y-64900500D01*
X99320825Y-64920502D01*
X99341799Y-64937405D01*
X108068365Y-73663972D01*
X108102391Y-73726284D01*
X108105173Y-73748120D01*
X108105977Y-73768582D01*
X108153058Y-74026376D01*
X108235994Y-74274965D01*
X108283540Y-74370120D01*
X108342393Y-74487902D01*
X108353128Y-74509387D01*
X108355657Y-74513046D01*
X108408014Y-74588800D01*
X108502124Y-74724967D01*
X108591617Y-74821779D01*
X108631786Y-74865234D01*
X108663339Y-74928834D01*
X108655498Y-74999396D01*
X108649781Y-75011273D01*
X108646678Y-75016940D01*
X108601522Y-75137394D01*
X108597895Y-75152649D01*
X108592369Y-75203514D01*
X108592000Y-75210328D01*
X108592000Y-75832885D01*
X108596475Y-75848124D01*
X108597865Y-75849329D01*
X108605548Y-75851000D01*
X111289884Y-75851000D01*
X111305123Y-75846525D01*
X111306328Y-75845135D01*
X111307999Y-75837452D01*
X111307999Y-75210331D01*
X111307630Y-75203513D01*
X111307259Y-75200099D01*
X111319792Y-75130218D01*
X111368116Y-75078205D01*
X111432523Y-75060500D01*
X111584718Y-75060500D01*
X111652839Y-75080502D01*
X111673813Y-75097405D01*
X111824625Y-75248217D01*
X111829231Y-75251418D01*
X111829233Y-75251420D01*
X111998361Y-75368967D01*
X112007925Y-75375614D01*
X112033594Y-75387366D01*
X112205782Y-75466200D01*
X112205784Y-75466201D01*
X112210887Y-75468537D01*
X112427098Y-75524051D01*
X112491232Y-75529267D01*
X112565311Y-75535293D01*
X112565323Y-75535293D01*
X112567862Y-75535500D01*
X113492138Y-75535500D01*
X113494677Y-75535293D01*
X113494689Y-75535293D01*
X113568768Y-75529267D01*
X113632902Y-75524051D01*
X113849113Y-75468537D01*
X113854216Y-75466201D01*
X113854218Y-75466200D01*
X114026406Y-75387366D01*
X114052075Y-75375614D01*
X114061639Y-75368967D01*
X114230767Y-75251420D01*
X114230769Y-75251418D01*
X114235375Y-75248217D01*
X114393217Y-75090375D01*
X114476535Y-74970496D01*
X114531837Y-74925974D01*
X114602431Y-74918419D01*
X114665903Y-74950228D01*
X114683464Y-74970495D01*
X114766783Y-75090375D01*
X114867595Y-75191187D01*
X114901621Y-75253499D01*
X114904500Y-75280282D01*
X114904500Y-81959125D01*
X114884498Y-82027246D01*
X114867595Y-82048220D01*
X114433220Y-82482595D01*
X114370908Y-82516621D01*
X114344125Y-82519500D01*
X111516301Y-82519500D01*
X111448180Y-82499498D01*
X111401687Y-82445842D01*
X111391583Y-82375568D01*
X111419849Y-82312427D01*
X111450910Y-82275475D01*
X111589586Y-82053116D01*
X111591751Y-82048220D01*
X111693749Y-81817503D01*
X111695547Y-81813436D01*
X111766681Y-81561216D01*
X111788806Y-81396491D01*
X111801139Y-81304673D01*
X111801140Y-81304665D01*
X111801566Y-81301491D01*
X111802140Y-81283222D01*
X111805126Y-81188222D01*
X111805126Y-81188217D01*
X111805227Y-81185000D01*
X111789684Y-80965466D01*
X111787034Y-80928045D01*
X111786719Y-80923596D01*
X111731563Y-80667408D01*
X111712610Y-80616032D01*
X111642401Y-80425724D01*
X111640860Y-80421547D01*
X111516420Y-80190920D01*
X111513774Y-80187337D01*
X111365735Y-79986907D01*
X111341353Y-79920228D01*
X111356890Y-79850953D01*
X111370636Y-79830973D01*
X111448045Y-79738883D01*
X111450910Y-79735475D01*
X111589586Y-79513116D01*
X111599573Y-79490527D01*
X111693749Y-79277503D01*
X111695547Y-79273436D01*
X111766681Y-79021216D01*
X111771855Y-78982696D01*
X111801139Y-78764673D01*
X111801140Y-78764665D01*
X111801566Y-78761491D01*
X111805227Y-78645000D01*
X111786719Y-78383596D01*
X111731563Y-78127408D01*
X111712610Y-78076032D01*
X111642401Y-77885724D01*
X111640860Y-77881547D01*
X111516420Y-77650920D01*
X111512738Y-77645934D01*
X111402912Y-77497242D01*
X111360726Y-77440126D01*
X111270490Y-77348461D01*
X111236956Y-77285884D01*
X111242577Y-77215110D01*
X111249762Y-77199562D01*
X111253322Y-77193059D01*
X111298478Y-77072606D01*
X111302105Y-77057351D01*
X111307631Y-77006486D01*
X111308000Y-76999672D01*
X111308000Y-76377115D01*
X111303525Y-76361876D01*
X111302135Y-76360671D01*
X111294452Y-76359000D01*
X108610116Y-76359000D01*
X108594877Y-76363475D01*
X108593672Y-76364865D01*
X108592001Y-76372548D01*
X108592001Y-76999669D01*
X108592371Y-77006490D01*
X108597895Y-77057352D01*
X108601521Y-77072604D01*
X108646677Y-77193058D01*
X108649715Y-77198606D01*
X108664884Y-77267963D01*
X108640148Y-77334511D01*
X108626166Y-77350285D01*
X108581043Y-77393330D01*
X108581039Y-77393335D01*
X108577816Y-77396409D01*
X108575060Y-77399905D01*
X108498861Y-77496564D01*
X108415578Y-77602208D01*
X108413346Y-77606050D01*
X108413343Y-77606055D01*
X108307865Y-77787649D01*
X108283955Y-77828813D01*
X108282290Y-77832925D01*
X108282287Y-77832930D01*
X108213010Y-78003967D01*
X108185574Y-78071703D01*
X108122399Y-78326032D01*
X108095688Y-78586726D01*
X108095863Y-78591177D01*
X108103731Y-78791410D01*
X108105977Y-78848582D01*
X108153058Y-79106376D01*
X108235994Y-79354965D01*
X108278185Y-79439402D01*
X108350008Y-79583142D01*
X108353128Y-79589387D01*
X108398341Y-79654804D01*
X108434833Y-79707604D01*
X108502124Y-79804967D01*
X108525855Y-79830638D01*
X108557406Y-79894237D01*
X108549565Y-79964800D01*
X108532279Y-79994171D01*
X108418338Y-80138705D01*
X108418328Y-80138719D01*
X108415578Y-80142208D01*
X108413346Y-80146050D01*
X108413343Y-80146055D01*
X108360397Y-80237208D01*
X108283955Y-80368813D01*
X108282290Y-80372925D01*
X108282287Y-80372930D01*
X108245476Y-80463813D01*
X108185574Y-80611703D01*
X108122399Y-80866032D01*
X108095688Y-81126726D01*
X108095863Y-81131177D01*
X108101711Y-81280000D01*
X108105977Y-81388582D01*
X108153058Y-81646376D01*
X108235994Y-81894965D01*
X108294131Y-82011315D01*
X108315018Y-82053116D01*
X108353128Y-82129387D01*
X108502124Y-82344967D01*
X108525855Y-82370638D01*
X108557406Y-82434237D01*
X108549565Y-82504800D01*
X108532279Y-82534171D01*
X108418338Y-82678705D01*
X108418328Y-82678719D01*
X108415578Y-82682208D01*
X108413346Y-82686050D01*
X108413343Y-82686055D01*
X108360697Y-82776692D01*
X108283955Y-82908813D01*
X108282290Y-82912925D01*
X108282287Y-82912930D01*
X108213010Y-83083967D01*
X108185574Y-83151703D01*
X108122399Y-83406032D01*
X108095688Y-83666726D01*
X108105977Y-83928582D01*
X108153058Y-84186376D01*
X108235994Y-84434965D01*
X108237987Y-84438953D01*
X108331694Y-84626490D01*
X108353128Y-84669387D01*
X108355657Y-84673046D01*
X108482297Y-84856279D01*
X108502124Y-84884967D01*
X108608230Y-84999751D01*
X108676384Y-85073479D01*
X108680010Y-85077402D01*
X108683464Y-85080214D01*
X108879778Y-85240039D01*
X108879782Y-85240042D01*
X108883235Y-85242853D01*
X109107745Y-85378019D01*
X109220545Y-85425784D01*
X109344962Y-85478468D01*
X109344966Y-85478469D01*
X109349060Y-85480203D01*
X109353352Y-85481341D01*
X109353355Y-85481342D01*
X109454125Y-85508061D01*
X109602365Y-85547366D01*
X109606789Y-85547890D01*
X109606791Y-85547890D01*
X109757572Y-85565736D01*
X109862607Y-85578167D01*
X110124592Y-85571993D01*
X110128986Y-85571262D01*
X110128993Y-85571261D01*
X110378692Y-85529700D01*
X110378696Y-85529699D01*
X110383094Y-85528967D01*
X110547061Y-85477111D01*
X110628709Y-85451289D01*
X110628711Y-85451288D01*
X110632955Y-85449946D01*
X110636966Y-85448020D01*
X110636971Y-85448018D01*
X110865169Y-85338439D01*
X110865170Y-85338438D01*
X110869188Y-85336509D01*
X111013566Y-85240039D01*
X111083374Y-85193395D01*
X111083378Y-85193392D01*
X111087082Y-85190917D01*
X111090399Y-85187946D01*
X111090403Y-85187943D01*
X111129814Y-85152643D01*
X111193902Y-85122094D01*
X111213879Y-85120500D01*
X114821217Y-85120500D01*
X114821221Y-85120501D01*
X115048779Y-85120501D01*
X115060280Y-85118473D01*
X115099499Y-85111558D01*
X115110396Y-85110124D01*
X115156202Y-85106116D01*
X115156210Y-85106115D01*
X115161692Y-85105635D01*
X115211436Y-85092306D01*
X115222164Y-85089928D01*
X115227454Y-85088995D01*
X115272880Y-85080985D01*
X115278045Y-85079105D01*
X115278053Y-85079103D01*
X115321267Y-85063374D01*
X115331752Y-85060068D01*
X115376180Y-85048164D01*
X115376186Y-85048162D01*
X115381496Y-85046739D01*
X115428174Y-85024973D01*
X115438327Y-85020768D01*
X115481539Y-85005040D01*
X115481540Y-85005040D01*
X115486715Y-85003156D01*
X115491481Y-85000404D01*
X115491484Y-85000403D01*
X115531323Y-84977402D01*
X115541054Y-84972336D01*
X115587734Y-84950568D01*
X115629924Y-84921027D01*
X115639170Y-84915136D01*
X115683786Y-84889377D01*
X115723235Y-84856275D01*
X115731952Y-84849586D01*
X115769636Y-84823200D01*
X115774139Y-84820047D01*
X115935047Y-84659139D01*
X115935049Y-84659136D01*
X117044136Y-83550049D01*
X117044139Y-83550047D01*
X117205047Y-83389139D01*
X117234589Y-83346947D01*
X117241279Y-83338230D01*
X117270838Y-83303003D01*
X117274377Y-83298786D01*
X117300136Y-83254170D01*
X117306027Y-83244924D01*
X117335568Y-83202734D01*
X117357336Y-83156054D01*
X117362402Y-83146323D01*
X117385403Y-83106484D01*
X117385404Y-83106481D01*
X117388156Y-83101715D01*
X117405768Y-83053327D01*
X117409974Y-83043171D01*
X117431739Y-82996496D01*
X117433162Y-82991186D01*
X117433164Y-82991180D01*
X117445068Y-82946752D01*
X117448374Y-82936267D01*
X117464103Y-82893053D01*
X117464105Y-82893045D01*
X117465985Y-82887880D01*
X117474928Y-82837164D01*
X117477307Y-82826433D01*
X117489211Y-82782005D01*
X117490635Y-82776692D01*
X117491115Y-82771210D01*
X117491116Y-82771202D01*
X117495124Y-82725396D01*
X117496558Y-82714499D01*
X117504545Y-82669200D01*
X117505501Y-82663779D01*
X117505501Y-82436221D01*
X117505500Y-82436215D01*
X117505500Y-75112188D01*
X117528035Y-75040278D01*
X117534231Y-75031364D01*
X117620614Y-74907075D01*
X117698687Y-74736549D01*
X117711200Y-74709218D01*
X117711201Y-74709216D01*
X117713537Y-74704113D01*
X117769051Y-74487902D01*
X117780500Y-74347138D01*
X117780500Y-72972862D01*
X117779632Y-72962183D01*
X117772567Y-72875328D01*
X117769051Y-72832098D01*
X117713537Y-72615887D01*
X117697676Y-72581242D01*
X117634132Y-72442451D01*
X117623962Y-72372187D01*
X117634132Y-72337549D01*
X117711200Y-72169218D01*
X117711201Y-72169216D01*
X117713537Y-72164113D01*
X117769051Y-71947902D01*
X117780500Y-71807138D01*
X117780500Y-70432862D01*
X117769051Y-70292098D01*
X117713537Y-70075887D01*
X117634132Y-69902451D01*
X117623962Y-69832187D01*
X117634132Y-69797549D01*
X117711200Y-69629218D01*
X117711201Y-69629216D01*
X117713537Y-69624113D01*
X117769051Y-69407902D01*
X117776895Y-69311463D01*
X117780293Y-69269689D01*
X117780293Y-69269677D01*
X117780500Y-69267138D01*
X117780500Y-67892862D01*
X117769051Y-67752098D01*
X117713537Y-67535887D01*
X117634132Y-67362451D01*
X117623962Y-67292187D01*
X117634132Y-67257549D01*
X117711200Y-67089218D01*
X117711201Y-67089216D01*
X117713537Y-67084113D01*
X117769051Y-66867902D01*
X117778319Y-66753953D01*
X117780293Y-66729689D01*
X117780293Y-66729677D01*
X117780500Y-66727138D01*
X117780500Y-66196500D01*
X117800502Y-66128379D01*
X117854158Y-66081886D01*
X117906500Y-66070500D01*
X121411000Y-66070500D01*
X121479121Y-66090502D01*
X121525614Y-66144158D01*
X121537000Y-66196500D01*
X121537000Y-69703782D01*
X121514465Y-69775691D01*
X121490965Y-69809504D01*
X121461529Y-69851857D01*
X121446886Y-69872925D01*
X121353963Y-70075887D01*
X121298449Y-70292098D01*
X121287000Y-70432862D01*
X121287000Y-71807138D01*
X121298449Y-71947902D01*
X121353963Y-72164113D01*
X121446886Y-72367075D01*
X121490966Y-72430497D01*
X121501108Y-72445090D01*
X121523561Y-72512443D01*
X121506035Y-72581242D01*
X121501110Y-72588907D01*
X121485906Y-72610782D01*
X121455091Y-72655120D01*
X121446886Y-72666925D01*
X121430756Y-72702157D01*
X121365901Y-72843813D01*
X121353963Y-72869887D01*
X121298449Y-73086098D01*
X121287000Y-73226862D01*
X121287000Y-74601138D01*
X121298449Y-74741902D01*
X121353963Y-74958113D01*
X121446886Y-75161075D01*
X121450086Y-75165679D01*
X121450087Y-75165681D01*
X121564444Y-75330218D01*
X121574283Y-75344375D01*
X121732125Y-75502217D01*
X121736731Y-75505418D01*
X121736733Y-75505420D01*
X121910819Y-75626413D01*
X121915425Y-75629614D01*
X122021605Y-75678227D01*
X122113282Y-75720200D01*
X122113284Y-75720201D01*
X122118387Y-75722537D01*
X122334598Y-75778051D01*
X122398732Y-75783267D01*
X122472811Y-75789293D01*
X122472823Y-75789293D01*
X122475362Y-75789500D01*
X123399638Y-75789500D01*
X123402177Y-75789293D01*
X123402189Y-75789293D01*
X123476268Y-75783267D01*
X123540402Y-75778051D01*
X123756613Y-75722537D01*
X123761716Y-75720201D01*
X123761718Y-75720200D01*
X123853395Y-75678227D01*
X123959575Y-75629614D01*
X123964181Y-75626413D01*
X124138267Y-75505420D01*
X124138269Y-75505418D01*
X124142875Y-75502217D01*
X124300717Y-75344375D01*
X124384035Y-75224496D01*
X124439337Y-75179974D01*
X124509931Y-75172419D01*
X124573403Y-75204228D01*
X124590964Y-75224495D01*
X124611123Y-75253499D01*
X124614465Y-75258308D01*
X124637000Y-75330218D01*
X124637000Y-78250204D01*
X124616998Y-78318325D01*
X124600095Y-78339299D01*
X115068799Y-87870595D01*
X115006487Y-87904621D01*
X114979704Y-87907500D01*
X113854184Y-87907500D01*
X113851397Y-87907749D01*
X113851391Y-87907749D01*
X113769555Y-87915053D01*
X113733913Y-87918234D01*
X113538530Y-87974259D01*
X113358404Y-88068427D01*
X113353462Y-88072458D01*
X113353460Y-88072459D01*
X113345265Y-88079143D01*
X113279834Y-88106697D01*
X113265629Y-88107500D01*
X110958371Y-88107500D01*
X110890250Y-88087498D01*
X110878735Y-88079143D01*
X110870540Y-88072459D01*
X110870538Y-88072458D01*
X110865596Y-88068427D01*
X110685470Y-87974259D01*
X110490087Y-87918234D01*
X110454445Y-87915053D01*
X110372609Y-87907749D01*
X110372603Y-87907749D01*
X110369816Y-87907500D01*
X107054184Y-87907500D01*
X107051397Y-87907749D01*
X107051391Y-87907749D01*
X106969555Y-87915053D01*
X106933913Y-87918234D01*
X106738530Y-87974259D01*
X106558404Y-88068427D01*
X106553461Y-88072458D01*
X106553460Y-88072459D01*
X106435919Y-88168323D01*
X106400891Y-88196891D01*
X106396862Y-88201831D01*
X106374510Y-88229238D01*
X106272427Y-88354404D01*
X106178259Y-88534530D01*
X106122234Y-88729913D01*
X106121701Y-88735885D01*
X106121701Y-88735886D01*
X106112799Y-88835634D01*
X106111500Y-88850184D01*
X106111500Y-89965816D01*
X106111749Y-89968603D01*
X106111749Y-89968609D01*
X106115285Y-90008228D01*
X106122234Y-90086087D01*
X106178259Y-90281470D01*
X106272427Y-90461596D01*
X106400891Y-90619109D01*
X106405831Y-90623138D01*
X106535021Y-90728502D01*
X106558404Y-90747573D01*
X106738530Y-90841741D01*
X106933913Y-90897766D01*
X106965545Y-90900589D01*
X107051391Y-90908251D01*
X107051397Y-90908251D01*
X107054184Y-90908500D01*
X110369816Y-90908500D01*
X110372603Y-90908251D01*
X110372609Y-90908251D01*
X110458455Y-90900589D01*
X110490087Y-90897766D01*
X110685470Y-90841741D01*
X110865596Y-90747573D01*
X110878735Y-90736857D01*
X110944166Y-90709303D01*
X110958371Y-90708500D01*
X113265629Y-90708500D01*
X113333750Y-90728502D01*
X113345265Y-90736857D01*
X113358404Y-90747573D01*
X113538530Y-90841741D01*
X113733913Y-90897766D01*
X113765545Y-90900589D01*
X113851391Y-90908251D01*
X113851397Y-90908251D01*
X113854184Y-90908500D01*
X117169816Y-90908500D01*
X117172603Y-90908251D01*
X117172609Y-90908251D01*
X117258455Y-90900589D01*
X117290087Y-90897766D01*
X117485470Y-90841741D01*
X117665596Y-90747573D01*
X117688980Y-90728502D01*
X117818169Y-90623138D01*
X117823109Y-90619109D01*
X117951573Y-90461596D01*
X118045741Y-90281470D01*
X118101766Y-90086087D01*
X118108715Y-90008228D01*
X118112251Y-89968609D01*
X118112251Y-89968603D01*
X118112500Y-89965816D01*
X118112500Y-88850184D01*
X118112250Y-88847381D01*
X118112203Y-88846330D01*
X118129151Y-88777386D01*
X118148983Y-88751623D01*
X122280937Y-84619669D01*
X131452001Y-84619669D01*
X131452371Y-84626490D01*
X131457895Y-84677352D01*
X131461521Y-84692604D01*
X131506676Y-84813054D01*
X131515214Y-84828649D01*
X131591715Y-84930724D01*
X131604276Y-84943285D01*
X131706351Y-85019786D01*
X131721946Y-85028324D01*
X131842394Y-85073478D01*
X131857649Y-85077105D01*
X131908514Y-85082631D01*
X131915328Y-85083000D01*
X132537885Y-85083000D01*
X132553124Y-85078525D01*
X132554329Y-85077135D01*
X132556000Y-85069452D01*
X132556000Y-85064884D01*
X133064000Y-85064884D01*
X133068475Y-85080123D01*
X133069865Y-85081328D01*
X133077548Y-85082999D01*
X133704669Y-85082999D01*
X133711490Y-85082629D01*
X133762352Y-85077105D01*
X133777604Y-85073479D01*
X133898054Y-85028324D01*
X133913649Y-85019786D01*
X134015724Y-84943285D01*
X134028285Y-84930724D01*
X134104786Y-84828649D01*
X134113324Y-84813054D01*
X134158478Y-84692606D01*
X134162105Y-84677351D01*
X134167631Y-84626486D01*
X134168000Y-84619672D01*
X134168000Y-83997115D01*
X134163525Y-83981876D01*
X134162135Y-83980671D01*
X134154452Y-83979000D01*
X133082115Y-83979000D01*
X133066876Y-83983475D01*
X133065671Y-83984865D01*
X133064000Y-83992548D01*
X133064000Y-85064884D01*
X132556000Y-85064884D01*
X132556000Y-83997115D01*
X132551525Y-83981876D01*
X132550135Y-83980671D01*
X132542452Y-83979000D01*
X131470116Y-83979000D01*
X131454877Y-83983475D01*
X131453672Y-83984865D01*
X131452001Y-83992548D01*
X131452001Y-84619669D01*
X122280937Y-84619669D01*
X125678880Y-81221726D01*
X130955688Y-81221726D01*
X130965977Y-81483582D01*
X131013058Y-81741376D01*
X131095994Y-81989965D01*
X131125517Y-82049050D01*
X131175018Y-82148116D01*
X131213128Y-82224387D01*
X131215657Y-82228046D01*
X131359527Y-82436209D01*
X131362124Y-82439967D01*
X131432983Y-82516621D01*
X131464784Y-82551023D01*
X131496337Y-82614623D01*
X131490242Y-82680781D01*
X131461522Y-82757391D01*
X131457895Y-82772649D01*
X131452369Y-82823514D01*
X131452000Y-82830328D01*
X131452000Y-83452885D01*
X131456475Y-83468124D01*
X131457865Y-83469329D01*
X131465548Y-83471000D01*
X134149884Y-83471000D01*
X134165123Y-83466525D01*
X134166328Y-83465135D01*
X134167999Y-83457452D01*
X134167999Y-82830331D01*
X134167629Y-82823510D01*
X134162105Y-82772648D01*
X134158478Y-82757394D01*
X134131026Y-82684164D01*
X134125843Y-82613357D01*
X134152557Y-82558860D01*
X134308038Y-82373893D01*
X134308045Y-82373883D01*
X134310910Y-82370475D01*
X134449586Y-82148116D01*
X134456249Y-82133046D01*
X134553749Y-81912503D01*
X134555547Y-81908436D01*
X134626681Y-81656216D01*
X134649280Y-81487962D01*
X134661139Y-81399673D01*
X134661140Y-81399665D01*
X134661566Y-81396491D01*
X134665227Y-81280000D01*
X134646719Y-81018596D01*
X134591563Y-80762408D01*
X134572610Y-80711032D01*
X134502401Y-80520724D01*
X134500860Y-80516547D01*
X134376420Y-80285920D01*
X134343283Y-80241055D01*
X134223370Y-80078706D01*
X134220726Y-80075126D01*
X134130490Y-79983461D01*
X134096956Y-79920884D01*
X134102577Y-79850110D01*
X134109762Y-79834562D01*
X134113322Y-79828059D01*
X134158478Y-79707606D01*
X134162105Y-79692351D01*
X134167631Y-79641486D01*
X134168000Y-79634672D01*
X134168000Y-79012115D01*
X134163525Y-78996876D01*
X134162135Y-78995671D01*
X134154452Y-78994000D01*
X131470116Y-78994000D01*
X131454877Y-78998475D01*
X131453672Y-78999865D01*
X131452001Y-79007548D01*
X131452001Y-79634669D01*
X131452371Y-79641490D01*
X131457895Y-79692352D01*
X131461521Y-79707604D01*
X131506677Y-79828058D01*
X131509715Y-79833606D01*
X131524884Y-79902963D01*
X131500148Y-79969511D01*
X131486166Y-79985285D01*
X131441043Y-80028330D01*
X131441039Y-80028335D01*
X131437816Y-80031409D01*
X131435060Y-80034905D01*
X131350470Y-80142208D01*
X131275578Y-80237208D01*
X131273346Y-80241050D01*
X131273343Y-80241055D01*
X131196744Y-80372930D01*
X131143955Y-80463813D01*
X131142290Y-80467925D01*
X131142287Y-80467930D01*
X131085727Y-80607570D01*
X131045574Y-80706703D01*
X130982399Y-80961032D01*
X130955688Y-81221726D01*
X125678880Y-81221726D01*
X126989317Y-79911289D01*
X126995832Y-79905218D01*
X127041131Y-79865910D01*
X127041133Y-79865908D01*
X127045164Y-79862410D01*
X127113753Y-79778760D01*
X127114877Y-79777408D01*
X127181190Y-79698798D01*
X127181192Y-79698796D01*
X127184634Y-79694715D01*
X127187341Y-79690111D01*
X127189946Y-79686431D01*
X127192477Y-79682749D01*
X127195862Y-79678620D01*
X127249380Y-79584601D01*
X127250225Y-79583142D01*
X127302376Y-79494432D01*
X127302380Y-79494423D01*
X127305084Y-79489824D01*
X127306976Y-79484831D01*
X127308910Y-79480794D01*
X127310801Y-79476702D01*
X127313439Y-79472067D01*
X127350363Y-79370347D01*
X127350935Y-79368805D01*
X127389290Y-79267567D01*
X127390312Y-79262333D01*
X127391531Y-79258055D01*
X127392714Y-79253672D01*
X127394534Y-79248656D01*
X127413779Y-79142228D01*
X127414104Y-79140500D01*
X127433820Y-79039538D01*
X127433820Y-79039537D01*
X127434843Y-79034299D01*
X127434969Y-79028964D01*
X127435545Y-79023660D01*
X127435920Y-79023701D01*
X127435989Y-79023025D01*
X127435619Y-79022983D01*
X127436087Y-79018864D01*
X127436826Y-79014775D01*
X127438000Y-78989881D01*
X127438000Y-78901807D01*
X127438035Y-78898839D01*
X127440316Y-78802029D01*
X127440442Y-78796692D01*
X127439336Y-78789155D01*
X127438000Y-78770860D01*
X127438000Y-75440500D01*
X127458002Y-75372379D01*
X127511658Y-75325886D01*
X127564000Y-75314500D01*
X129161704Y-75314500D01*
X129229825Y-75334502D01*
X129250799Y-75351405D01*
X131051211Y-77151817D01*
X131057282Y-77158332D01*
X131087416Y-77193058D01*
X131100090Y-77207664D01*
X131183792Y-77276295D01*
X131185043Y-77277335D01*
X131214732Y-77302380D01*
X131263710Y-77343698D01*
X131263715Y-77343702D01*
X131267784Y-77347134D01*
X131272378Y-77349835D01*
X131275959Y-77352370D01*
X131279748Y-77354974D01*
X131283880Y-77358362D01*
X131377885Y-77411872D01*
X131379344Y-77412717D01*
X131432390Y-77443902D01*
X131461058Y-77466993D01*
X131491786Y-77500234D01*
X131523339Y-77563833D01*
X131515498Y-77634396D01*
X131509781Y-77646273D01*
X131506678Y-77651940D01*
X131461522Y-77772394D01*
X131457895Y-77787649D01*
X131452369Y-77838514D01*
X131452000Y-77845328D01*
X131452000Y-78467885D01*
X131456475Y-78483124D01*
X131457865Y-78484329D01*
X131465548Y-78486000D01*
X134149884Y-78486000D01*
X134165123Y-78481525D01*
X134166328Y-78480135D01*
X134167999Y-78472452D01*
X134167999Y-77845331D01*
X134167629Y-77838510D01*
X134162105Y-77787648D01*
X134158479Y-77772396D01*
X134113323Y-77651942D01*
X134111760Y-77649088D01*
X134111070Y-77645934D01*
X134110172Y-77643538D01*
X134110518Y-77643408D01*
X134096591Y-77579730D01*
X134121328Y-77513182D01*
X134135893Y-77497261D01*
X134135873Y-77497242D01*
X134136530Y-77496564D01*
X134138210Y-77494728D01*
X134142287Y-77491076D01*
X134208896Y-77411835D01*
X134308043Y-77293886D01*
X134308045Y-77293884D01*
X134310910Y-77290475D01*
X134449586Y-77068116D01*
X134451778Y-77063159D01*
X134553749Y-76832503D01*
X134555547Y-76828436D01*
X134626681Y-76576216D01*
X134631855Y-76537696D01*
X134661139Y-76319673D01*
X134661140Y-76319665D01*
X134661566Y-76316491D01*
X134665227Y-76200000D01*
X134646719Y-75938596D01*
X134591563Y-75682408D01*
X134572087Y-75629614D01*
X134502401Y-75440724D01*
X134500860Y-75436547D01*
X134376420Y-75205920D01*
X134372121Y-75200099D01*
X134225735Y-75001907D01*
X134201353Y-74935228D01*
X134216890Y-74865953D01*
X134230636Y-74845973D01*
X134261761Y-74808945D01*
X134310910Y-74750475D01*
X134338549Y-74706157D01*
X134391567Y-74658942D01*
X134461697Y-74647886D01*
X134526672Y-74676499D01*
X134534555Y-74683740D01*
X135060595Y-75209780D01*
X135094621Y-75272092D01*
X135097500Y-75298875D01*
X135097500Y-86981125D01*
X135077498Y-87049246D01*
X135060595Y-87070220D01*
X134260220Y-87870595D01*
X134197908Y-87904621D01*
X134171125Y-87907500D01*
X132904184Y-87907500D01*
X132901397Y-87907749D01*
X132901391Y-87907749D01*
X132819555Y-87915053D01*
X132783913Y-87918234D01*
X132588530Y-87974259D01*
X132408404Y-88068427D01*
X132403462Y-88072458D01*
X132403460Y-88072459D01*
X132395265Y-88079143D01*
X132329834Y-88106697D01*
X132315629Y-88107500D01*
X130008371Y-88107500D01*
X129940250Y-88087498D01*
X129928735Y-88079143D01*
X129920540Y-88072459D01*
X129920538Y-88072458D01*
X129915596Y-88068427D01*
X129735470Y-87974259D01*
X129540087Y-87918234D01*
X129504445Y-87915053D01*
X129422609Y-87907749D01*
X129422603Y-87907749D01*
X129419816Y-87907500D01*
X126104184Y-87907500D01*
X126101397Y-87907749D01*
X126101391Y-87907749D01*
X126019555Y-87915053D01*
X125983913Y-87918234D01*
X125788530Y-87974259D01*
X125608404Y-88068427D01*
X125603461Y-88072458D01*
X125603460Y-88072459D01*
X125485919Y-88168323D01*
X125450891Y-88196891D01*
X125446862Y-88201831D01*
X125424510Y-88229238D01*
X125322427Y-88354404D01*
X125228259Y-88534530D01*
X125172234Y-88729913D01*
X125171701Y-88735885D01*
X125171701Y-88735886D01*
X125162799Y-88835634D01*
X125161500Y-88850184D01*
X125161500Y-89965816D01*
X125161749Y-89968603D01*
X125161749Y-89968609D01*
X125165285Y-90008228D01*
X125172234Y-90086087D01*
X125228259Y-90281470D01*
X125322427Y-90461596D01*
X125450891Y-90619109D01*
X125455831Y-90623138D01*
X125585021Y-90728502D01*
X125608404Y-90747573D01*
X125788530Y-90841741D01*
X125983913Y-90897766D01*
X126015545Y-90900589D01*
X126101391Y-90908251D01*
X126101397Y-90908251D01*
X126104184Y-90908500D01*
X129419816Y-90908500D01*
X129422603Y-90908251D01*
X129422609Y-90908251D01*
X129508455Y-90900589D01*
X129540087Y-90897766D01*
X129735470Y-90841741D01*
X129915596Y-90747573D01*
X129928735Y-90736857D01*
X129994166Y-90709303D01*
X130008371Y-90708500D01*
X132315629Y-90708500D01*
X132383750Y-90728502D01*
X132395265Y-90736857D01*
X132408404Y-90747573D01*
X132588530Y-90841741D01*
X132783913Y-90897766D01*
X132815545Y-90900589D01*
X132901391Y-90908251D01*
X132901397Y-90908251D01*
X132904184Y-90908500D01*
X136219816Y-90908500D01*
X136222603Y-90908251D01*
X136222609Y-90908251D01*
X136308455Y-90900589D01*
X136340087Y-90897766D01*
X136535470Y-90841741D01*
X136715596Y-90747573D01*
X136738980Y-90728502D01*
X136868169Y-90623138D01*
X136873109Y-90619109D01*
X137001573Y-90461596D01*
X137095741Y-90281470D01*
X137151766Y-90086087D01*
X137158715Y-90008228D01*
X137162251Y-89968609D01*
X137162251Y-89968603D01*
X137162500Y-89965816D01*
X137162500Y-88850184D01*
X137161202Y-88835634D01*
X137152299Y-88735885D01*
X137151766Y-88729913D01*
X137152524Y-88729845D01*
X137159236Y-88663900D01*
X137186821Y-88622364D01*
X137237137Y-88572048D01*
X137237139Y-88572047D01*
X137398047Y-88411139D01*
X137427589Y-88368947D01*
X137434279Y-88360230D01*
X137467377Y-88320786D01*
X137493136Y-88276170D01*
X137499027Y-88266924D01*
X137528568Y-88224734D01*
X137550336Y-88178054D01*
X137555402Y-88168323D01*
X137578403Y-88128484D01*
X137578404Y-88128481D01*
X137581156Y-88123715D01*
X137598768Y-88075327D01*
X137602974Y-88065171D01*
X137622414Y-88023481D01*
X137624739Y-88018496D01*
X137626162Y-88013186D01*
X137626164Y-88013180D01*
X137638068Y-87968752D01*
X137641374Y-87958267D01*
X137657103Y-87915053D01*
X137657105Y-87915045D01*
X137658985Y-87909880D01*
X137667928Y-87859164D01*
X137670307Y-87848433D01*
X137682211Y-87804005D01*
X137683635Y-87798692D01*
X137684115Y-87793210D01*
X137684116Y-87793202D01*
X137688124Y-87747396D01*
X137689558Y-87736499D01*
X137697545Y-87691200D01*
X137698501Y-87685779D01*
X137698501Y-87458221D01*
X137698500Y-87458215D01*
X137698500Y-74821785D01*
X137698501Y-74821779D01*
X137698501Y-74594221D01*
X137694518Y-74571632D01*
X137689558Y-74543501D01*
X137688124Y-74532604D01*
X137684116Y-74486798D01*
X137684115Y-74486790D01*
X137683635Y-74481308D01*
X137670306Y-74431564D01*
X137667928Y-74420836D01*
X137659940Y-74375537D01*
X137658985Y-74370120D01*
X137657105Y-74364955D01*
X137657103Y-74364947D01*
X137641374Y-74321733D01*
X137638068Y-74311248D01*
X137626164Y-74266820D01*
X137626162Y-74266814D01*
X137624739Y-74261504D01*
X137602973Y-74214826D01*
X137598768Y-74204673D01*
X137583039Y-74161456D01*
X137583035Y-74161447D01*
X137581156Y-74156285D01*
X137555405Y-74111683D01*
X137550330Y-74101934D01*
X137530893Y-74060252D01*
X137528568Y-74055266D01*
X137499023Y-74013069D01*
X137493127Y-74003814D01*
X137470127Y-73963978D01*
X137470125Y-73963975D01*
X137467376Y-73959214D01*
X137434269Y-73919758D01*
X137427593Y-73911058D01*
X137398047Y-73868861D01*
X137237139Y-73707953D01*
X137237136Y-73707951D01*
X134699717Y-71170532D01*
X134665691Y-71108220D01*
X134663127Y-71090336D01*
X134647034Y-70863045D01*
X134646719Y-70858596D01*
X134591563Y-70602408D01*
X134500860Y-70356547D01*
X134376420Y-70125920D01*
X134343484Y-70081328D01*
X134225735Y-69921907D01*
X134201353Y-69855228D01*
X134216890Y-69785953D01*
X134230636Y-69765973D01*
X134282913Y-69703782D01*
X134310910Y-69670475D01*
X134449586Y-69448116D01*
X134465065Y-69413105D01*
X134553749Y-69212503D01*
X134555547Y-69208436D01*
X134626681Y-68956216D01*
X134649280Y-68787962D01*
X134661139Y-68699673D01*
X134661140Y-68699665D01*
X134661566Y-68696491D01*
X134665227Y-68580000D01*
X134646719Y-68318596D01*
X134591563Y-68062408D01*
X134587536Y-68051490D01*
X134502401Y-67820724D01*
X134500860Y-67816547D01*
X134376420Y-67585920D01*
X134343484Y-67541328D01*
X134225735Y-67381907D01*
X134201353Y-67315228D01*
X134216890Y-67245953D01*
X134230636Y-67225973D01*
X134261761Y-67188945D01*
X134310910Y-67130475D01*
X134449586Y-66908116D01*
X134454214Y-66897649D01*
X134553749Y-66672503D01*
X134555547Y-66668436D01*
X134626681Y-66416216D01*
X134649280Y-66247962D01*
X134661139Y-66159673D01*
X134661140Y-66159665D01*
X134661566Y-66156491D01*
X134661954Y-66144158D01*
X134665126Y-66043222D01*
X134665126Y-66043217D01*
X134665227Y-66040000D01*
X134646719Y-65778596D01*
X134591563Y-65522408D01*
X134572610Y-65471032D01*
X134502401Y-65280724D01*
X134500860Y-65276547D01*
X134376420Y-65045920D01*
X134373774Y-65042337D01*
X134225735Y-64841907D01*
X134201353Y-64775228D01*
X134216890Y-64705953D01*
X134230636Y-64685973D01*
X134265497Y-64644500D01*
X134310910Y-64590475D01*
X134449586Y-64368116D01*
X134489917Y-64276890D01*
X134553749Y-64132503D01*
X134555547Y-64128436D01*
X134626681Y-63876216D01*
X134649280Y-63707962D01*
X134661139Y-63619673D01*
X134661140Y-63619665D01*
X134661566Y-63616491D01*
X134663051Y-63569232D01*
X134665126Y-63503222D01*
X134665126Y-63503217D01*
X134665227Y-63500000D01*
X134663068Y-63469499D01*
X134647034Y-63243045D01*
X134646719Y-63238596D01*
X134591563Y-62982408D01*
X134577758Y-62944986D01*
X134502401Y-62740724D01*
X134500860Y-62736547D01*
X134376420Y-62505920D01*
X134369366Y-62496369D01*
X134225735Y-62301907D01*
X134201353Y-62235228D01*
X134216890Y-62165953D01*
X134230636Y-62145973D01*
X134297642Y-62066259D01*
X134310910Y-62050475D01*
X134437766Y-61847069D01*
X142096501Y-61847069D01*
X142096871Y-61853890D01*
X142102395Y-61904752D01*
X142106021Y-61920004D01*
X142151176Y-62040454D01*
X142159714Y-62056049D01*
X142236215Y-62158124D01*
X142248776Y-62170685D01*
X142350851Y-62247186D01*
X142366446Y-62255724D01*
X142486894Y-62300878D01*
X142502149Y-62304505D01*
X142553014Y-62310031D01*
X142559828Y-62310400D01*
X143932385Y-62310400D01*
X143947624Y-62305925D01*
X143948829Y-62304535D01*
X143950500Y-62296852D01*
X143950500Y-62292284D01*
X144458500Y-62292284D01*
X144462975Y-62307523D01*
X144464365Y-62308728D01*
X144472048Y-62310399D01*
X145849169Y-62310399D01*
X145855990Y-62310029D01*
X145906852Y-62304505D01*
X145922104Y-62300879D01*
X146042554Y-62255724D01*
X146058149Y-62247186D01*
X146160224Y-62170685D01*
X146172785Y-62158124D01*
X146249286Y-62056049D01*
X146257824Y-62040454D01*
X146302978Y-61920006D01*
X146306605Y-61904751D01*
X146312131Y-61853886D01*
X146312500Y-61847072D01*
X146312500Y-61847069D01*
X148896501Y-61847069D01*
X148896871Y-61853890D01*
X148902395Y-61904752D01*
X148906021Y-61920004D01*
X148951176Y-62040454D01*
X148959714Y-62056049D01*
X149036215Y-62158124D01*
X149048776Y-62170685D01*
X149150851Y-62247186D01*
X149166446Y-62255724D01*
X149286894Y-62300878D01*
X149302149Y-62304505D01*
X149353014Y-62310031D01*
X149359828Y-62310400D01*
X150732385Y-62310400D01*
X150747624Y-62305925D01*
X150748829Y-62304535D01*
X150750500Y-62296852D01*
X150750500Y-62292284D01*
X151258500Y-62292284D01*
X151262975Y-62307523D01*
X151264365Y-62308728D01*
X151272048Y-62310399D01*
X152649169Y-62310399D01*
X152655990Y-62310029D01*
X152706852Y-62304505D01*
X152722104Y-62300879D01*
X152842554Y-62255724D01*
X152858149Y-62247186D01*
X152960224Y-62170685D01*
X152972785Y-62158124D01*
X153049286Y-62056049D01*
X153057824Y-62040454D01*
X153102978Y-61920006D01*
X153106605Y-61904751D01*
X153112131Y-61853886D01*
X153112500Y-61847072D01*
X153112500Y-61574515D01*
X153108025Y-61559276D01*
X153106635Y-61558071D01*
X153098952Y-61556400D01*
X151276615Y-61556400D01*
X151261376Y-61560875D01*
X151260171Y-61562265D01*
X151258500Y-61569948D01*
X151258500Y-62292284D01*
X150750500Y-62292284D01*
X150750500Y-61574515D01*
X150746025Y-61559276D01*
X150744635Y-61558071D01*
X150736952Y-61556400D01*
X148914616Y-61556400D01*
X148899377Y-61560875D01*
X148898172Y-61562265D01*
X148896501Y-61569948D01*
X148896501Y-61847069D01*
X146312500Y-61847069D01*
X146312500Y-61574515D01*
X146308025Y-61559276D01*
X146306635Y-61558071D01*
X146298952Y-61556400D01*
X144476615Y-61556400D01*
X144461376Y-61560875D01*
X144460171Y-61562265D01*
X144458500Y-61569948D01*
X144458500Y-62292284D01*
X143950500Y-62292284D01*
X143950500Y-61574515D01*
X143946025Y-61559276D01*
X143944635Y-61558071D01*
X143936952Y-61556400D01*
X142114616Y-61556400D01*
X142099377Y-61560875D01*
X142098172Y-61562265D01*
X142096501Y-61569948D01*
X142096501Y-61847069D01*
X134437766Y-61847069D01*
X134449586Y-61828116D01*
X134456249Y-61813046D01*
X134553749Y-61592503D01*
X134555547Y-61588436D01*
X134626681Y-61336216D01*
X134649280Y-61167962D01*
X134661139Y-61079673D01*
X134661140Y-61079665D01*
X134661566Y-61076491D01*
X134662539Y-61045524D01*
X134663018Y-61030285D01*
X142096500Y-61030285D01*
X142100975Y-61045524D01*
X142102365Y-61046729D01*
X142110048Y-61048400D01*
X143932385Y-61048400D01*
X143947624Y-61043925D01*
X143948829Y-61042535D01*
X143950500Y-61034852D01*
X143950500Y-61030285D01*
X144458500Y-61030285D01*
X144462975Y-61045524D01*
X144464365Y-61046729D01*
X144472048Y-61048400D01*
X146294384Y-61048400D01*
X146309623Y-61043925D01*
X146310828Y-61042535D01*
X146312499Y-61034852D01*
X146312499Y-61030285D01*
X148896500Y-61030285D01*
X148900975Y-61045524D01*
X148902365Y-61046729D01*
X148910048Y-61048400D01*
X150732385Y-61048400D01*
X150747624Y-61043925D01*
X150748829Y-61042535D01*
X150750500Y-61034852D01*
X150750500Y-61030285D01*
X151258500Y-61030285D01*
X151262975Y-61045524D01*
X151264365Y-61046729D01*
X151272048Y-61048400D01*
X153094384Y-61048400D01*
X153109623Y-61043925D01*
X153110828Y-61042535D01*
X153112499Y-61034852D01*
X153112499Y-60757731D01*
X153112129Y-60750910D01*
X153106605Y-60700048D01*
X153102979Y-60684796D01*
X153057824Y-60564346D01*
X153049286Y-60548751D01*
X152972785Y-60446676D01*
X152960224Y-60434115D01*
X152858149Y-60357614D01*
X152842554Y-60349076D01*
X152722106Y-60303922D01*
X152706851Y-60300295D01*
X152655986Y-60294769D01*
X152649172Y-60294400D01*
X151276615Y-60294400D01*
X151261376Y-60298875D01*
X151260171Y-60300265D01*
X151258500Y-60307948D01*
X151258500Y-61030285D01*
X150750500Y-61030285D01*
X150750500Y-60312516D01*
X150746025Y-60297277D01*
X150744635Y-60296072D01*
X150736952Y-60294401D01*
X149359831Y-60294401D01*
X149353010Y-60294771D01*
X149302148Y-60300295D01*
X149286896Y-60303921D01*
X149166446Y-60349076D01*
X149150851Y-60357614D01*
X149048776Y-60434115D01*
X149036215Y-60446676D01*
X148959714Y-60548751D01*
X148951176Y-60564346D01*
X148906022Y-60684794D01*
X148902395Y-60700049D01*
X148896869Y-60750914D01*
X148896500Y-60757728D01*
X148896500Y-61030285D01*
X146312499Y-61030285D01*
X146312499Y-60757731D01*
X146312129Y-60750910D01*
X146306605Y-60700048D01*
X146302979Y-60684796D01*
X146257824Y-60564346D01*
X146249286Y-60548751D01*
X146172785Y-60446676D01*
X146160224Y-60434115D01*
X146058149Y-60357614D01*
X146042554Y-60349076D01*
X145922106Y-60303922D01*
X145906851Y-60300295D01*
X145855986Y-60294769D01*
X145849172Y-60294400D01*
X144476615Y-60294400D01*
X144461376Y-60298875D01*
X144460171Y-60300265D01*
X144458500Y-60307948D01*
X144458500Y-61030285D01*
X143950500Y-61030285D01*
X143950500Y-60312516D01*
X143946025Y-60297277D01*
X143944635Y-60296072D01*
X143936952Y-60294401D01*
X142559831Y-60294401D01*
X142553010Y-60294771D01*
X142502148Y-60300295D01*
X142486896Y-60303921D01*
X142366446Y-60349076D01*
X142350851Y-60357614D01*
X142248776Y-60434115D01*
X142236215Y-60446676D01*
X142159714Y-60548751D01*
X142151176Y-60564346D01*
X142106022Y-60684794D01*
X142102395Y-60700049D01*
X142096869Y-60750914D01*
X142096500Y-60757728D01*
X142096500Y-61030285D01*
X134663018Y-61030285D01*
X134665126Y-60963222D01*
X134665126Y-60963217D01*
X134665227Y-60960000D01*
X134646719Y-60698596D01*
X134591563Y-60442408D01*
X134572610Y-60391032D01*
X134502401Y-60200724D01*
X134500860Y-60196547D01*
X134376420Y-59965920D01*
X134373774Y-59962337D01*
X134225735Y-59761907D01*
X134201353Y-59695228D01*
X134216890Y-59625953D01*
X134230636Y-59605973D01*
X134305933Y-59516396D01*
X134310910Y-59510475D01*
X134449586Y-59288116D01*
X134453937Y-59278276D01*
X134553749Y-59052503D01*
X134555547Y-59048436D01*
X134626681Y-58796216D01*
X134639346Y-58701922D01*
X134661139Y-58539673D01*
X134661140Y-58539665D01*
X134661566Y-58536491D01*
X134665227Y-58420000D01*
X134664345Y-58407535D01*
X134647034Y-58163045D01*
X134646719Y-58158596D01*
X134591563Y-57902408D01*
X134572610Y-57851032D01*
X134502401Y-57660724D01*
X134500860Y-57656547D01*
X134376420Y-57425920D01*
X134373775Y-57422338D01*
X134373768Y-57422328D01*
X134342326Y-57379759D01*
X134317943Y-57313081D01*
X134333480Y-57243805D01*
X134384004Y-57193927D01*
X134443677Y-57178900D01*
X139220104Y-57178900D01*
X139288225Y-57198902D01*
X139309199Y-57215805D01*
X140347611Y-58254217D01*
X140353682Y-58260732D01*
X140396490Y-58310064D01*
X140400615Y-58313446D01*
X140480185Y-58378689D01*
X140481535Y-58379813D01*
X140564184Y-58449533D01*
X140568789Y-58452240D01*
X140572498Y-58454866D01*
X140576154Y-58457379D01*
X140580280Y-58460762D01*
X140674305Y-58514284D01*
X140675801Y-58515149D01*
X140769076Y-58569983D01*
X140774060Y-58571871D01*
X140778043Y-58573780D01*
X140782189Y-58575695D01*
X140786833Y-58578339D01*
X140863507Y-58606170D01*
X140888540Y-58615257D01*
X140890190Y-58615869D01*
X140910548Y-58623582D01*
X140991333Y-58654189D01*
X140996566Y-58655211D01*
X141000925Y-58656453D01*
X141005230Y-58657614D01*
X141010244Y-58659434D01*
X141116780Y-58678698D01*
X141118391Y-58679001D01*
X141224600Y-58699742D01*
X141229936Y-58699868D01*
X141235238Y-58700444D01*
X141235205Y-58700750D01*
X141235877Y-58700818D01*
X141235911Y-58700519D01*
X141240042Y-58700988D01*
X141244125Y-58701726D01*
X141248269Y-58701921D01*
X141248274Y-58701922D01*
X141267531Y-58702830D01*
X141267538Y-58702830D01*
X141269019Y-58702900D01*
X141357109Y-58702900D01*
X141360078Y-58702935D01*
X141462207Y-58705342D01*
X141467486Y-58704567D01*
X141467489Y-58704567D01*
X141468701Y-58704389D01*
X141469744Y-58704236D01*
X141488039Y-58702900D01*
X142136497Y-58702900D01*
X142194872Y-58717238D01*
X142231030Y-58736141D01*
X142426413Y-58792166D01*
X142458045Y-58794989D01*
X142543891Y-58802651D01*
X142543897Y-58802651D01*
X142546684Y-58802900D01*
X145862316Y-58802900D01*
X145865103Y-58802651D01*
X145865109Y-58802651D01*
X145950955Y-58794989D01*
X145982587Y-58792166D01*
X146177970Y-58736141D01*
X146223693Y-58712238D01*
X146282067Y-58697900D01*
X148926933Y-58697900D01*
X148985307Y-58712238D01*
X149031030Y-58736141D01*
X149226413Y-58792166D01*
X149258045Y-58794989D01*
X149343891Y-58802651D01*
X149343897Y-58802651D01*
X149346684Y-58802900D01*
X152662316Y-58802900D01*
X152665103Y-58802651D01*
X152665109Y-58802651D01*
X152750955Y-58794989D01*
X152782587Y-58792166D01*
X152977970Y-58736141D01*
X153030125Y-58708875D01*
X153099760Y-58695041D01*
X153165821Y-58721051D01*
X153207333Y-58778647D01*
X153214500Y-58820537D01*
X153214501Y-59212068D01*
X153214871Y-59218890D01*
X153220395Y-59269752D01*
X153224021Y-59285004D01*
X153269176Y-59405454D01*
X153277714Y-59421049D01*
X153354215Y-59523124D01*
X153366776Y-59535685D01*
X153468851Y-59612186D01*
X153484446Y-59620724D01*
X153604894Y-59665878D01*
X153620149Y-59669505D01*
X153671014Y-59675031D01*
X153677828Y-59675400D01*
X155050385Y-59675400D01*
X155065624Y-59670925D01*
X155066829Y-59669535D01*
X155068500Y-59661852D01*
X155068500Y-59657284D01*
X155576500Y-59657284D01*
X155580975Y-59672523D01*
X155582365Y-59673728D01*
X155590048Y-59675399D01*
X156967169Y-59675399D01*
X156973990Y-59675029D01*
X157024852Y-59669505D01*
X157040104Y-59665879D01*
X157160554Y-59620724D01*
X157176149Y-59612186D01*
X157278224Y-59535685D01*
X157290785Y-59523124D01*
X157367286Y-59421049D01*
X157375824Y-59405454D01*
X157420978Y-59285006D01*
X157424605Y-59269751D01*
X157430131Y-59218886D01*
X157430500Y-59212072D01*
X157430500Y-59212069D01*
X160014501Y-59212069D01*
X160014871Y-59218890D01*
X160020395Y-59269752D01*
X160024021Y-59285004D01*
X160069176Y-59405454D01*
X160077714Y-59421049D01*
X160154215Y-59523124D01*
X160166776Y-59535685D01*
X160268851Y-59612186D01*
X160284446Y-59620724D01*
X160404894Y-59665878D01*
X160420149Y-59669505D01*
X160471014Y-59675031D01*
X160477828Y-59675400D01*
X161850385Y-59675400D01*
X161865624Y-59670925D01*
X161866829Y-59669535D01*
X161868500Y-59661852D01*
X161868500Y-59657284D01*
X162376500Y-59657284D01*
X162380975Y-59672523D01*
X162382365Y-59673728D01*
X162390048Y-59675399D01*
X163767169Y-59675399D01*
X163773990Y-59675029D01*
X163824852Y-59669505D01*
X163840104Y-59665879D01*
X163960554Y-59620724D01*
X163976149Y-59612186D01*
X164078224Y-59535685D01*
X164090785Y-59523124D01*
X164167286Y-59421049D01*
X164175824Y-59405454D01*
X164220978Y-59285006D01*
X164224605Y-59269751D01*
X164230131Y-59218886D01*
X164230500Y-59212072D01*
X164230500Y-58939515D01*
X164226025Y-58924276D01*
X164224635Y-58923071D01*
X164216952Y-58921400D01*
X162394615Y-58921400D01*
X162379376Y-58925875D01*
X162378171Y-58927265D01*
X162376500Y-58934948D01*
X162376500Y-59657284D01*
X161868500Y-59657284D01*
X161868500Y-58939515D01*
X161864025Y-58924276D01*
X161862635Y-58923071D01*
X161854952Y-58921400D01*
X160032616Y-58921400D01*
X160017377Y-58925875D01*
X160016172Y-58927265D01*
X160014501Y-58934948D01*
X160014501Y-59212069D01*
X157430500Y-59212069D01*
X157430500Y-58939515D01*
X157426025Y-58924276D01*
X157424635Y-58923071D01*
X157416952Y-58921400D01*
X155594615Y-58921400D01*
X155579376Y-58925875D01*
X155578171Y-58927265D01*
X155576500Y-58934948D01*
X155576500Y-59657284D01*
X155068500Y-59657284D01*
X155068500Y-58395285D01*
X155576500Y-58395285D01*
X155580975Y-58410524D01*
X155582365Y-58411729D01*
X155590048Y-58413400D01*
X157412384Y-58413400D01*
X157427623Y-58408925D01*
X157428828Y-58407535D01*
X157430499Y-58399852D01*
X157430499Y-58395285D01*
X160014500Y-58395285D01*
X160018975Y-58410524D01*
X160020365Y-58411729D01*
X160028048Y-58413400D01*
X161850385Y-58413400D01*
X161865624Y-58408925D01*
X161866829Y-58407535D01*
X161868500Y-58399852D01*
X161868500Y-58395285D01*
X162376500Y-58395285D01*
X162380975Y-58410524D01*
X162382365Y-58411729D01*
X162390048Y-58413400D01*
X164212384Y-58413400D01*
X164227623Y-58408925D01*
X164228828Y-58407535D01*
X164230499Y-58399852D01*
X164230499Y-58122731D01*
X164230129Y-58115910D01*
X164224605Y-58065048D01*
X164220979Y-58049796D01*
X164175824Y-57929346D01*
X164167286Y-57913751D01*
X164090785Y-57811676D01*
X164078224Y-57799115D01*
X163976149Y-57722614D01*
X163960554Y-57714076D01*
X163840106Y-57668922D01*
X163824851Y-57665295D01*
X163773986Y-57659769D01*
X163767172Y-57659400D01*
X162394615Y-57659400D01*
X162379376Y-57663875D01*
X162378171Y-57665265D01*
X162376500Y-57672948D01*
X162376500Y-58395285D01*
X161868500Y-58395285D01*
X161868500Y-57677516D01*
X161864025Y-57662277D01*
X161862635Y-57661072D01*
X161854952Y-57659401D01*
X160477831Y-57659401D01*
X160471010Y-57659771D01*
X160420148Y-57665295D01*
X160404896Y-57668921D01*
X160284446Y-57714076D01*
X160268851Y-57722614D01*
X160166776Y-57799115D01*
X160154215Y-57811676D01*
X160077714Y-57913751D01*
X160069176Y-57929346D01*
X160024022Y-58049794D01*
X160020395Y-58065049D01*
X160014869Y-58115914D01*
X160014500Y-58122728D01*
X160014500Y-58395285D01*
X157430499Y-58395285D01*
X157430499Y-58122731D01*
X157430129Y-58115910D01*
X157424605Y-58065048D01*
X157420979Y-58049796D01*
X157375824Y-57929346D01*
X157367286Y-57913751D01*
X157290785Y-57811676D01*
X157278224Y-57799115D01*
X157176149Y-57722614D01*
X157160554Y-57714076D01*
X157040106Y-57668922D01*
X157024851Y-57665295D01*
X156973986Y-57659769D01*
X156967172Y-57659400D01*
X155594615Y-57659400D01*
X155579376Y-57663875D01*
X155578171Y-57665265D01*
X155576500Y-57672948D01*
X155576500Y-58395285D01*
X155068500Y-58395285D01*
X155068500Y-57677516D01*
X155064025Y-57662277D01*
X155062635Y-57661072D01*
X155054952Y-57659401D01*
X153731000Y-57659401D01*
X153662879Y-57639399D01*
X153616386Y-57585743D01*
X153605000Y-57533401D01*
X153605000Y-56744584D01*
X153603289Y-56725407D01*
X153594799Y-56630286D01*
X153594266Y-56624313D01*
X153538241Y-56428930D01*
X153535284Y-56423273D01*
X153535282Y-56423269D01*
X153495757Y-56347666D01*
X153481922Y-56278030D01*
X153507932Y-56211970D01*
X153565527Y-56170458D01*
X153618618Y-56163789D01*
X153661889Y-56167651D01*
X153661899Y-56167651D01*
X153664684Y-56167900D01*
X156980316Y-56167900D01*
X156983103Y-56167651D01*
X156983109Y-56167651D01*
X157068955Y-56159989D01*
X157100587Y-56157166D01*
X157295970Y-56101141D01*
X157332128Y-56082238D01*
X157390503Y-56067900D01*
X160054497Y-56067900D01*
X160112872Y-56082238D01*
X160149030Y-56101141D01*
X160344413Y-56157166D01*
X160376045Y-56159989D01*
X160461891Y-56167651D01*
X160461897Y-56167651D01*
X160464684Y-56167900D01*
X163780316Y-56167900D01*
X163783103Y-56167651D01*
X163783109Y-56167651D01*
X163868955Y-56159989D01*
X163900587Y-56157166D01*
X164095970Y-56101141D01*
X164276096Y-56006973D01*
X164433609Y-55878509D01*
X164494783Y-55803502D01*
X164558041Y-55725940D01*
X164558042Y-55725939D01*
X164562073Y-55720996D01*
X164656241Y-55540870D01*
X164712266Y-55345487D01*
X164715089Y-55313855D01*
X164722751Y-55228009D01*
X164722751Y-55228003D01*
X164723000Y-55225216D01*
X164723000Y-54109584D01*
X164712266Y-53989313D01*
X164656241Y-53793930D01*
X164577788Y-53643864D01*
X164565029Y-53619458D01*
X164565028Y-53619457D01*
X164562073Y-53613804D01*
X164486914Y-53521649D01*
X164437638Y-53461231D01*
X164433609Y-53456291D01*
X164276096Y-53327827D01*
X164095970Y-53233659D01*
X163900587Y-53177634D01*
X163868955Y-53174811D01*
X163783109Y-53167149D01*
X163783103Y-53167149D01*
X163780316Y-53166900D01*
X160464684Y-53166900D01*
X160461897Y-53167149D01*
X160461891Y-53167149D01*
X160376045Y-53174811D01*
X160344413Y-53177634D01*
X160149030Y-53233659D01*
X160112872Y-53252562D01*
X160054497Y-53266900D01*
X157390503Y-53266900D01*
X157332128Y-53252562D01*
X157295970Y-53233659D01*
X157100587Y-53177634D01*
X157068955Y-53174811D01*
X156983109Y-53167149D01*
X156983103Y-53167149D01*
X156980316Y-53166900D01*
X153664684Y-53166900D01*
X153661897Y-53167149D01*
X153661891Y-53167149D01*
X153576045Y-53174811D01*
X153544413Y-53177634D01*
X153349030Y-53233659D01*
X153312872Y-53252562D01*
X153254497Y-53266900D01*
X153089696Y-53266900D01*
X153021575Y-53246898D01*
X153000601Y-53229995D01*
X152057189Y-52286583D01*
X152051118Y-52280068D01*
X152011810Y-52234769D01*
X152011808Y-52234767D01*
X152008310Y-52230736D01*
X151928931Y-52165649D01*
X151924660Y-52162147D01*
X151923308Y-52161023D01*
X151844698Y-52094710D01*
X151844696Y-52094708D01*
X151840615Y-52091266D01*
X151836011Y-52088559D01*
X151832331Y-52085954D01*
X151828649Y-52083423D01*
X151824520Y-52080038D01*
X151730501Y-52026520D01*
X151729042Y-52025675D01*
X151640328Y-51973522D01*
X151640323Y-51973519D01*
X151635724Y-51970816D01*
X151630739Y-51968928D01*
X151626745Y-51967014D01*
X151622599Y-51965098D01*
X151617967Y-51962461D01*
X151612958Y-51960643D01*
X151612952Y-51960640D01*
X151516242Y-51925536D01*
X151514623Y-51924935D01*
X151413467Y-51886611D01*
X151408225Y-51885587D01*
X151403840Y-51884338D01*
X151399571Y-51883186D01*
X151394556Y-51881366D01*
X151288056Y-51862108D01*
X151286471Y-51861811D01*
X151180200Y-51841057D01*
X151174863Y-51840931D01*
X151169561Y-51840355D01*
X151169602Y-51839977D01*
X151168925Y-51839909D01*
X151168883Y-51840281D01*
X151164764Y-51839813D01*
X151160675Y-51839074D01*
X151156531Y-51838879D01*
X151156526Y-51838878D01*
X151137269Y-51837970D01*
X151137262Y-51837970D01*
X151135781Y-51837900D01*
X151047708Y-51837900D01*
X151044740Y-51837865D01*
X151041885Y-51837798D01*
X150942593Y-51835458D01*
X150937314Y-51836233D01*
X150937311Y-51836233D01*
X150936099Y-51836411D01*
X150935056Y-51836564D01*
X150916761Y-51837900D01*
X134567994Y-51837900D01*
X134499873Y-51817898D01*
X134453380Y-51764242D01*
X134443276Y-51693968D01*
X134452753Y-51660953D01*
X134553749Y-51432503D01*
X134555547Y-51428436D01*
X134626681Y-51176216D01*
X134633000Y-51129167D01*
X134661139Y-50919673D01*
X134661140Y-50919665D01*
X134661566Y-50916491D01*
X134665227Y-50800000D01*
X134646719Y-50538596D01*
X134591563Y-50282408D01*
X134586341Y-50268251D01*
X134502401Y-50040724D01*
X134500860Y-50036547D01*
X134376420Y-49805920D01*
X134373774Y-49802337D01*
X134225735Y-49601907D01*
X134201353Y-49535228D01*
X134216890Y-49465953D01*
X134230636Y-49445973D01*
X134308045Y-49353883D01*
X134310910Y-49350475D01*
X134449586Y-49128116D01*
X134456249Y-49113046D01*
X134553749Y-48892503D01*
X134555547Y-48888436D01*
X134626681Y-48636216D01*
X134649280Y-48467962D01*
X134661139Y-48379673D01*
X134661140Y-48379665D01*
X134661566Y-48376491D01*
X134665227Y-48260000D01*
X134646719Y-47998596D01*
X134591563Y-47742408D01*
X134587621Y-47731721D01*
X134502401Y-47500724D01*
X134500860Y-47496547D01*
X134495454Y-47486527D01*
X134460098Y-47421002D01*
X134376420Y-47265920D01*
X134364824Y-47250220D01*
X134225735Y-47061907D01*
X134201353Y-46995228D01*
X134216890Y-46925953D01*
X134230636Y-46905973D01*
X134308045Y-46813883D01*
X134310910Y-46810475D01*
X134449586Y-46588116D01*
X134456249Y-46573046D01*
X134553749Y-46352503D01*
X134555547Y-46348436D01*
X134626681Y-46096216D01*
X134633830Y-46042993D01*
X134661139Y-45839673D01*
X134661140Y-45839665D01*
X134661566Y-45836491D01*
X134665227Y-45720000D01*
X134646719Y-45458596D01*
X134591563Y-45202408D01*
X134572589Y-45150975D01*
X134502401Y-44960724D01*
X134500860Y-44956547D01*
X134376420Y-44725920D01*
X134220726Y-44515126D01*
X134195800Y-44489806D01*
X134162265Y-44427230D01*
X134167885Y-44356456D01*
X134189141Y-44320338D01*
X134308038Y-44178893D01*
X134308045Y-44178883D01*
X134310910Y-44175475D01*
X134449586Y-43953116D01*
X134460343Y-43928786D01*
X134553749Y-43717503D01*
X134555547Y-43713436D01*
X134626681Y-43461216D01*
X134642309Y-43344865D01*
X134661139Y-43204673D01*
X134661140Y-43204665D01*
X134661566Y-43201491D01*
X134665227Y-43085000D01*
X134663620Y-43062309D01*
X134678760Y-42992946D01*
X134700210Y-42964314D01*
X135354134Y-42310390D01*
X135354139Y-42310387D01*
X135515047Y-42149479D01*
X135544599Y-42107274D01*
X135551266Y-42098585D01*
X135584376Y-42059126D01*
X135587125Y-42054364D01*
X135587129Y-42054359D01*
X135610127Y-42014526D01*
X135616023Y-42005271D01*
X135645568Y-41963074D01*
X135667330Y-41916406D01*
X135672405Y-41906657D01*
X135695406Y-41866818D01*
X135698156Y-41862055D01*
X135700035Y-41856893D01*
X135700039Y-41856884D01*
X135715768Y-41813667D01*
X135719974Y-41803511D01*
X135741739Y-41756836D01*
X135743162Y-41751526D01*
X135743164Y-41751520D01*
X135755068Y-41707092D01*
X135758374Y-41696607D01*
X135774103Y-41653393D01*
X135774105Y-41653385D01*
X135775985Y-41648220D01*
X135784928Y-41597504D01*
X135787307Y-41586773D01*
X135799211Y-41542345D01*
X135800635Y-41537032D01*
X135801115Y-41531550D01*
X135801116Y-41531542D01*
X135805124Y-41485736D01*
X135806558Y-41474839D01*
X135814545Y-41429540D01*
X135815501Y-41424119D01*
X135815501Y-41196561D01*
X135815500Y-41196555D01*
X135815500Y-19306500D01*
X135835502Y-19238379D01*
X135889158Y-19191886D01*
X135941500Y-19180500D01*
X137289704Y-19180500D01*
X137357825Y-19200502D01*
X137378799Y-19217405D01*
X143088595Y-24927201D01*
X143122621Y-24989513D01*
X143125500Y-25016296D01*
X143125500Y-41601592D01*
X143125185Y-41610489D01*
X143120573Y-41675625D01*
X143123686Y-41707092D01*
X143124888Y-41719239D01*
X143125500Y-41731644D01*
X143125500Y-47121673D01*
X143125185Y-47130570D01*
X143120573Y-47195706D01*
X143128685Y-47277701D01*
X143131222Y-47303344D01*
X143131381Y-47305071D01*
X143140531Y-47412904D01*
X143141871Y-47418068D01*
X143142631Y-47422514D01*
X143143448Y-47426923D01*
X143143973Y-47432225D01*
X143172624Y-47536598D01*
X143173048Y-47538186D01*
X143176857Y-47552862D01*
X143198821Y-47637486D01*
X143200240Y-47642955D01*
X143202431Y-47647818D01*
X143203905Y-47652004D01*
X143205475Y-47656270D01*
X143206888Y-47661419D01*
X143252723Y-47759489D01*
X143253386Y-47760936D01*
X143258300Y-47771844D01*
X143293717Y-47850466D01*
X143297857Y-47859657D01*
X143300833Y-47864078D01*
X143303028Y-47868021D01*
X143305265Y-47871910D01*
X143307521Y-47876738D01*
X143310563Y-47881123D01*
X143369154Y-47965581D01*
X143370142Y-47967026D01*
X143430591Y-48056813D01*
X143434268Y-48060667D01*
X143437617Y-48064833D01*
X143437262Y-48065118D01*
X143437688Y-48065642D01*
X143438042Y-48065361D01*
X143440630Y-48068612D01*
X143442995Y-48072021D01*
X143445785Y-48075088D01*
X143445788Y-48075091D01*
X143458761Y-48089349D01*
X143458773Y-48089362D01*
X143459767Y-48090454D01*
X143522009Y-48152696D01*
X143524084Y-48154819D01*
X143594645Y-48228786D01*
X143598930Y-48231974D01*
X143598931Y-48231975D01*
X143600764Y-48233339D01*
X143614646Y-48245333D01*
X145597130Y-50227817D01*
X145603201Y-50234332D01*
X145622102Y-50256113D01*
X145646009Y-50283664D01*
X145650140Y-50287051D01*
X145729659Y-50352253D01*
X145731011Y-50353377D01*
X145750582Y-50369886D01*
X145813704Y-50423134D01*
X145818308Y-50425841D01*
X145821988Y-50428446D01*
X145825670Y-50430977D01*
X145829799Y-50434362D01*
X145923818Y-50487880D01*
X145925277Y-50488725D01*
X146013987Y-50540876D01*
X146013996Y-50540880D01*
X146018595Y-50543584D01*
X146023588Y-50545476D01*
X146027625Y-50547410D01*
X146031717Y-50549301D01*
X146036352Y-50551939D01*
X146138072Y-50588863D01*
X146139614Y-50589435D01*
X146240852Y-50627790D01*
X146246087Y-50628812D01*
X146250329Y-50630021D01*
X146254742Y-50631212D01*
X146259763Y-50633034D01*
X146366238Y-50652288D01*
X146367881Y-50652597D01*
X146474119Y-50673343D01*
X146479454Y-50673469D01*
X146484758Y-50674045D01*
X146484717Y-50674423D01*
X146485394Y-50674491D01*
X146485436Y-50674119D01*
X146489555Y-50674587D01*
X146493644Y-50675326D01*
X146497788Y-50675521D01*
X146497793Y-50675522D01*
X146517050Y-50676430D01*
X146517057Y-50676430D01*
X146518538Y-50676500D01*
X146572286Y-50676500D01*
X146640407Y-50696502D01*
X146651825Y-50704779D01*
X146761235Y-50793853D01*
X146916797Y-50887509D01*
X146959603Y-50913280D01*
X146985745Y-50929019D01*
X147098545Y-50976784D01*
X147222962Y-51029468D01*
X147222966Y-51029469D01*
X147227060Y-51031203D01*
X147231352Y-51032341D01*
X147231355Y-51032342D01*
X147332125Y-51059061D01*
X147480365Y-51098366D01*
X147484789Y-51098890D01*
X147484791Y-51098890D01*
X147635572Y-51116736D01*
X147740607Y-51129167D01*
X148002592Y-51122993D01*
X148006986Y-51122262D01*
X148006993Y-51122261D01*
X148256692Y-51080700D01*
X148256696Y-51080699D01*
X148261094Y-51079967D01*
X148488771Y-51007962D01*
X148506709Y-51002289D01*
X148506711Y-51002288D01*
X148510955Y-51000946D01*
X148514966Y-50999020D01*
X148514971Y-50999018D01*
X148743169Y-50889439D01*
X148743170Y-50889438D01*
X148747188Y-50887509D01*
X148891564Y-50791040D01*
X148961380Y-50744391D01*
X148961384Y-50744388D01*
X148965082Y-50741917D01*
X149160287Y-50567076D01*
X149180487Y-50543045D01*
X149326043Y-50369886D01*
X149326045Y-50369884D01*
X149328910Y-50366475D01*
X149467586Y-50144116D01*
X149483742Y-50107573D01*
X149571749Y-49908503D01*
X149573547Y-49904436D01*
X149644681Y-49652216D01*
X149671593Y-49451851D01*
X149679139Y-49395673D01*
X149679140Y-49395665D01*
X149679566Y-49392491D01*
X149680871Y-49350973D01*
X149683126Y-49279222D01*
X149683126Y-49279217D01*
X149683227Y-49276000D01*
X149671690Y-49113046D01*
X149665034Y-49019045D01*
X149664719Y-49014596D01*
X149609563Y-48758408D01*
X149597460Y-48725599D01*
X149520401Y-48516724D01*
X149518860Y-48512547D01*
X149394420Y-48281920D01*
X149357531Y-48231975D01*
X149252602Y-48089913D01*
X149238726Y-48071126D01*
X149148490Y-47979461D01*
X149114956Y-47916884D01*
X149120577Y-47846110D01*
X149127762Y-47830562D01*
X149131322Y-47824059D01*
X149176478Y-47703606D01*
X149180105Y-47688351D01*
X149185631Y-47637486D01*
X149186000Y-47630672D01*
X149186000Y-47008115D01*
X149181525Y-46992876D01*
X149180135Y-46991671D01*
X149172452Y-46990000D01*
X146488116Y-46990000D01*
X146443607Y-47003069D01*
X146433120Y-47009808D01*
X146362123Y-47009806D01*
X146308531Y-46978006D01*
X145963405Y-46632880D01*
X145929379Y-46570568D01*
X145926500Y-46543785D01*
X145926500Y-45339063D01*
X145946502Y-45270942D01*
X146000158Y-45224449D01*
X146070432Y-45214345D01*
X146132391Y-45241629D01*
X146169785Y-45272290D01*
X146171135Y-45273413D01*
X146253784Y-45343133D01*
X146258389Y-45345840D01*
X146262098Y-45348466D01*
X146265754Y-45350979D01*
X146269880Y-45354362D01*
X146363905Y-45407884D01*
X146365401Y-45408749D01*
X146458676Y-45463583D01*
X146463658Y-45465471D01*
X146467653Y-45467385D01*
X146469631Y-45468299D01*
X146470578Y-45469128D01*
X146475844Y-45471605D01*
X146475876Y-45471623D01*
X146475070Y-45473056D01*
X146523073Y-45515038D01*
X146542763Y-45583249D01*
X146527284Y-45643180D01*
X146524679Y-45647939D01*
X146479522Y-45768394D01*
X146475895Y-45783649D01*
X146470369Y-45834514D01*
X146470000Y-45841328D01*
X146470000Y-46463885D01*
X146474475Y-46479124D01*
X146475865Y-46480329D01*
X146483548Y-46482000D01*
X149167884Y-46482000D01*
X149183123Y-46477525D01*
X149184328Y-46476135D01*
X149185999Y-46468452D01*
X149185999Y-45841331D01*
X149185629Y-45834510D01*
X149180105Y-45783648D01*
X149176479Y-45768396D01*
X149131323Y-45647942D01*
X149129760Y-45645088D01*
X149129070Y-45641934D01*
X149128172Y-45639538D01*
X149128518Y-45639408D01*
X149114591Y-45575730D01*
X149139328Y-45509182D01*
X149153893Y-45493261D01*
X149153873Y-45493242D01*
X149154530Y-45492564D01*
X149156210Y-45490728D01*
X149160287Y-45487076D01*
X149187888Y-45454241D01*
X149326043Y-45289886D01*
X149326045Y-45289884D01*
X149328910Y-45286475D01*
X149467586Y-45064116D01*
X149573547Y-44824436D01*
X149644681Y-44572216D01*
X149667289Y-44403895D01*
X149679139Y-44315673D01*
X149679140Y-44315665D01*
X149679566Y-44312491D01*
X149681594Y-44247963D01*
X149683126Y-44199222D01*
X149683126Y-44199217D01*
X149683227Y-44196000D01*
X149682098Y-44180047D01*
X149665034Y-43939045D01*
X149664719Y-43934596D01*
X149609563Y-43678408D01*
X149518860Y-43432547D01*
X149394420Y-43201920D01*
X149391732Y-43198280D01*
X149241370Y-42994706D01*
X149238726Y-42991126D01*
X149054884Y-42804374D01*
X148906953Y-42691477D01*
X148864936Y-42634249D01*
X148860528Y-42563389D01*
X148881072Y-42517788D01*
X148993009Y-42362011D01*
X148998313Y-42353183D01*
X149092670Y-42162267D01*
X149096469Y-42152672D01*
X149158377Y-41948910D01*
X149160555Y-41938837D01*
X149161986Y-41927962D01*
X149159775Y-41913778D01*
X149146617Y-41910000D01*
X147700000Y-41910000D01*
X147631879Y-41889998D01*
X147585386Y-41836342D01*
X147574000Y-41784000D01*
X147574000Y-41528000D01*
X147594002Y-41459879D01*
X147647658Y-41413386D01*
X147700000Y-41402000D01*
X149146344Y-41402000D01*
X149159875Y-41398027D01*
X149161180Y-41388947D01*
X149119214Y-41221875D01*
X149115894Y-41212124D01*
X149030972Y-41016814D01*
X149026105Y-41007739D01*
X148910426Y-40828926D01*
X148904136Y-40820757D01*
X148890528Y-40805803D01*
X148859475Y-40741958D01*
X148867869Y-40671459D01*
X148913719Y-40616237D01*
X148961374Y-40584395D01*
X148961378Y-40584392D01*
X148965082Y-40581917D01*
X149160287Y-40407076D01*
X149270496Y-40275967D01*
X149326043Y-40209886D01*
X149326045Y-40209884D01*
X149328910Y-40206475D01*
X149467586Y-39984116D01*
X149497405Y-39916668D01*
X149571749Y-39748503D01*
X149573547Y-39744436D01*
X149644681Y-39492216D01*
X149649855Y-39453696D01*
X149679139Y-39235673D01*
X149679140Y-39235665D01*
X149679566Y-39232491D01*
X149679667Y-39229280D01*
X149683126Y-39119222D01*
X149683126Y-39119217D01*
X149683227Y-39116000D01*
X149664719Y-38854596D01*
X149609563Y-38598408D01*
X149591640Y-38549824D01*
X149520401Y-38356724D01*
X149518860Y-38352547D01*
X149394420Y-38121920D01*
X149391774Y-38118337D01*
X149243735Y-37917907D01*
X149219353Y-37851228D01*
X149234890Y-37781953D01*
X149248636Y-37761973D01*
X149326045Y-37669883D01*
X149328910Y-37666475D01*
X149467586Y-37444116D01*
X149497000Y-37377584D01*
X149571749Y-37208503D01*
X149573547Y-37204436D01*
X149644681Y-36952216D01*
X149664022Y-36808220D01*
X149679139Y-36695673D01*
X149679140Y-36695665D01*
X149679566Y-36692491D01*
X149680193Y-36672539D01*
X149683126Y-36579222D01*
X149683126Y-36579217D01*
X149683227Y-36576000D01*
X149664719Y-36314596D01*
X149609563Y-36058408D01*
X149600571Y-36034032D01*
X149520401Y-35816724D01*
X149518860Y-35812547D01*
X149394420Y-35581920D01*
X149391774Y-35578337D01*
X149243735Y-35377907D01*
X149219353Y-35311228D01*
X149234890Y-35241953D01*
X149248636Y-35221973D01*
X149326045Y-35129883D01*
X149328910Y-35126475D01*
X149467586Y-34904116D01*
X149492865Y-34846937D01*
X149571749Y-34668503D01*
X149573547Y-34664436D01*
X149644681Y-34412216D01*
X149663937Y-34268852D01*
X149679139Y-34155673D01*
X149679140Y-34155665D01*
X149679566Y-34152491D01*
X149680681Y-34117004D01*
X149683126Y-34039222D01*
X149683126Y-34039217D01*
X149683227Y-34036000D01*
X149664719Y-33774596D01*
X149609563Y-33518408D01*
X149589013Y-33462703D01*
X149520401Y-33276724D01*
X149518860Y-33272547D01*
X149394420Y-33041920D01*
X149371337Y-33010667D01*
X149241370Y-32834706D01*
X149238726Y-32831126D01*
X149054884Y-32644374D01*
X148986336Y-32592060D01*
X148850107Y-32488093D01*
X148850103Y-32488090D01*
X148846562Y-32485388D01*
X148617917Y-32357340D01*
X148613768Y-32355735D01*
X148613764Y-32355733D01*
X148408348Y-32276264D01*
X148373512Y-32262787D01*
X148369191Y-32261785D01*
X148369183Y-32261783D01*
X148186879Y-32219528D01*
X148118221Y-32203614D01*
X147857141Y-32181002D01*
X147852706Y-32181246D01*
X147852702Y-32181246D01*
X147599921Y-32195157D01*
X147599914Y-32195158D01*
X147595478Y-32195402D01*
X147338456Y-32246527D01*
X147334246Y-32248005D01*
X147334244Y-32248006D01*
X147250842Y-32277295D01*
X147091201Y-32333357D01*
X147087250Y-32335410D01*
X147087244Y-32335412D01*
X147013127Y-32373913D01*
X146858647Y-32454159D01*
X146855032Y-32456742D01*
X146855026Y-32456746D01*
X146649055Y-32603935D01*
X146649051Y-32603938D01*
X146645434Y-32606523D01*
X146455816Y-32787409D01*
X146453060Y-32790905D01*
X146318023Y-32962200D01*
X146293578Y-32993208D01*
X146291346Y-32997050D01*
X146291343Y-32997055D01*
X146226200Y-33109207D01*
X146161955Y-33219813D01*
X146160284Y-33218843D01*
X146117734Y-33265349D01*
X146049098Y-33283504D01*
X145981542Y-33261670D01*
X145936515Y-33206779D01*
X145926500Y-33157550D01*
X145926500Y-31045710D01*
X145946502Y-30977589D01*
X146000158Y-30931096D01*
X146070432Y-30920992D01*
X146132136Y-30948067D01*
X146266404Y-31057573D01*
X146446530Y-31151741D01*
X146641913Y-31207766D01*
X146673545Y-31210589D01*
X146759391Y-31218251D01*
X146759397Y-31218251D01*
X146762184Y-31218500D01*
X147877816Y-31218500D01*
X147880603Y-31218251D01*
X147880609Y-31218251D01*
X147966455Y-31210589D01*
X147998087Y-31207766D01*
X148191398Y-31152335D01*
X148191400Y-31152335D01*
X148193470Y-31151741D01*
X148193581Y-31152127D01*
X148260569Y-31145757D01*
X148325770Y-31180376D01*
X149749328Y-32603935D01*
X151053218Y-33907825D01*
X151059289Y-33914340D01*
X151092512Y-33952626D01*
X151102090Y-33963664D01*
X151106221Y-33967051D01*
X151185707Y-34032226D01*
X151187059Y-34033350D01*
X151222404Y-34063165D01*
X151269785Y-34103134D01*
X151274383Y-34105837D01*
X151278034Y-34108422D01*
X151281752Y-34110977D01*
X151285880Y-34114362D01*
X151379899Y-34167880D01*
X151381358Y-34168725D01*
X151470068Y-34220876D01*
X151470077Y-34220880D01*
X151474676Y-34223584D01*
X151479669Y-34225476D01*
X151483706Y-34227410D01*
X151487798Y-34229301D01*
X151492433Y-34231939D01*
X151594153Y-34268863D01*
X151595695Y-34269435D01*
X151696933Y-34307790D01*
X151702167Y-34308812D01*
X151706445Y-34310031D01*
X151710828Y-34311214D01*
X151715844Y-34313034D01*
X151784551Y-34325458D01*
X151822272Y-34332279D01*
X151824000Y-34332604D01*
X151912421Y-34349871D01*
X151967822Y-34375822D01*
X152084778Y-34471039D01*
X152084782Y-34471042D01*
X152088235Y-34473853D01*
X152092057Y-34476154D01*
X152271526Y-34584203D01*
X152312745Y-34609019D01*
X152323533Y-34613587D01*
X152549962Y-34709468D01*
X152549966Y-34709469D01*
X152554060Y-34711203D01*
X152558352Y-34712341D01*
X152558355Y-34712342D01*
X152659125Y-34739061D01*
X152807365Y-34778366D01*
X152811789Y-34778890D01*
X152811791Y-34778890D01*
X152962572Y-34796736D01*
X153067607Y-34809167D01*
X153329592Y-34802993D01*
X153333986Y-34802262D01*
X153333993Y-34802261D01*
X153583692Y-34760700D01*
X153583696Y-34760699D01*
X153588094Y-34759967D01*
X153752061Y-34708111D01*
X153833709Y-34682289D01*
X153833711Y-34682288D01*
X153837955Y-34680946D01*
X153841966Y-34679020D01*
X153841971Y-34679018D01*
X154070169Y-34569439D01*
X154070170Y-34569438D01*
X154074188Y-34567509D01*
X154218566Y-34471039D01*
X154288380Y-34424391D01*
X154288384Y-34424388D01*
X154292082Y-34421917D01*
X154487287Y-34247076D01*
X154507034Y-34223584D01*
X154641881Y-34063165D01*
X161402866Y-34063165D01*
X161437952Y-34320970D01*
X161510758Y-34570757D01*
X161619686Y-34807039D01*
X161622246Y-34810944D01*
X161622249Y-34810949D01*
X161759775Y-35020712D01*
X161759779Y-35020717D01*
X161762341Y-35024625D01*
X161815818Y-35084541D01*
X161918187Y-35199235D01*
X161935591Y-35218735D01*
X162135629Y-35385105D01*
X162358061Y-35520080D01*
X162362375Y-35521889D01*
X162362377Y-35521890D01*
X162593686Y-35618886D01*
X162593691Y-35618888D01*
X162598001Y-35620695D01*
X162602533Y-35621846D01*
X162602536Y-35621847D01*
X162714820Y-35650363D01*
X162850177Y-35684739D01*
X163066286Y-35706500D01*
X163221044Y-35706500D01*
X163223369Y-35706327D01*
X163223375Y-35706327D01*
X163409814Y-35692472D01*
X163409818Y-35692471D01*
X163414466Y-35692126D01*
X163668232Y-35634705D01*
X163698077Y-35623099D01*
X163906370Y-35542098D01*
X163906372Y-35542097D01*
X163910723Y-35540405D01*
X163916585Y-35537055D01*
X164073385Y-35447436D01*
X164136612Y-35411299D01*
X164340936Y-35250223D01*
X164519208Y-35060714D01*
X164667511Y-34846937D01*
X164686395Y-34808644D01*
X164780521Y-34617775D01*
X164780522Y-34617772D01*
X164782586Y-34613587D01*
X164861906Y-34365792D01*
X164894144Y-34167843D01*
X164902977Y-34113606D01*
X164902977Y-34113605D01*
X164903728Y-34108994D01*
X164905817Y-33949451D01*
X164907073Y-33853512D01*
X164907073Y-33853509D01*
X164907134Y-33848835D01*
X164872048Y-33591030D01*
X164799242Y-33341243D01*
X164795081Y-33332216D01*
X164743262Y-33219813D01*
X164690314Y-33104961D01*
X164687751Y-33101051D01*
X164550225Y-32891288D01*
X164550221Y-32891283D01*
X164547659Y-32887375D01*
X164374409Y-32693265D01*
X164174371Y-32526895D01*
X163951939Y-32391920D01*
X163947623Y-32390110D01*
X163716314Y-32293114D01*
X163716309Y-32293112D01*
X163711999Y-32291305D01*
X163707467Y-32290154D01*
X163707464Y-32290153D01*
X163541385Y-32247975D01*
X163459823Y-32227261D01*
X163243714Y-32205500D01*
X163088956Y-32205500D01*
X163086631Y-32205673D01*
X163086625Y-32205673D01*
X162900186Y-32219528D01*
X162900182Y-32219529D01*
X162895534Y-32219874D01*
X162641768Y-32277295D01*
X162637416Y-32278987D01*
X162637414Y-32278988D01*
X162403630Y-32369902D01*
X162403628Y-32369903D01*
X162399277Y-32371595D01*
X162395223Y-32373912D01*
X162395221Y-32373913D01*
X162359467Y-32394348D01*
X162173388Y-32500701D01*
X161969064Y-32661777D01*
X161790792Y-32851286D01*
X161713848Y-32962200D01*
X161661030Y-33038337D01*
X161642489Y-33065063D01*
X161640423Y-33069253D01*
X161640421Y-33069256D01*
X161540170Y-33272547D01*
X161527414Y-33298413D01*
X161525992Y-33302856D01*
X161525991Y-33302858D01*
X161515222Y-33336501D01*
X161448094Y-33546208D01*
X161406272Y-33803006D01*
X161406211Y-33807683D01*
X161403085Y-34046475D01*
X161402866Y-34063165D01*
X154641881Y-34063165D01*
X154653043Y-34049886D01*
X154653045Y-34049884D01*
X154655910Y-34046475D01*
X154794586Y-33824116D01*
X154816479Y-33774596D01*
X154898749Y-33588503D01*
X154900547Y-33584436D01*
X154971681Y-33332216D01*
X154981156Y-33261670D01*
X155006139Y-33075673D01*
X155006140Y-33075665D01*
X155006566Y-33072491D01*
X155006668Y-33069256D01*
X155010126Y-32959222D01*
X155010126Y-32959217D01*
X155010227Y-32956000D01*
X155007162Y-32912703D01*
X154992034Y-32699045D01*
X154991719Y-32694596D01*
X154936563Y-32438408D01*
X154920309Y-32394348D01*
X154847401Y-32196724D01*
X154845860Y-32192547D01*
X154721420Y-31961920D01*
X154654601Y-31871453D01*
X154568370Y-31754706D01*
X154565726Y-31751126D01*
X154381884Y-31564374D01*
X154313336Y-31512060D01*
X154177107Y-31408093D01*
X154177103Y-31408090D01*
X154173562Y-31405388D01*
X153944917Y-31277340D01*
X153940768Y-31275735D01*
X153940764Y-31275733D01*
X153777163Y-31212441D01*
X153700512Y-31182787D01*
X153696191Y-31181785D01*
X153696183Y-31181783D01*
X153528069Y-31142817D01*
X153445221Y-31123614D01*
X153184141Y-31101002D01*
X153179706Y-31101246D01*
X153179702Y-31101246D01*
X152926921Y-31115157D01*
X152926914Y-31115158D01*
X152922478Y-31115402D01*
X152665456Y-31166527D01*
X152449888Y-31242229D01*
X152378990Y-31245927D01*
X152319047Y-31212441D01*
X150004332Y-28897726D01*
X151300688Y-28897726D01*
X151310977Y-29159582D01*
X151358058Y-29417376D01*
X151440994Y-29665965D01*
X151472003Y-29728023D01*
X151520018Y-29824116D01*
X151558128Y-29900387D01*
X151707124Y-30115967D01*
X151754615Y-30167342D01*
X151828321Y-30247076D01*
X151885010Y-30308402D01*
X151888464Y-30311214D01*
X152084778Y-30471039D01*
X152084782Y-30471042D01*
X152088235Y-30473853D01*
X152092057Y-30476154D01*
X152271526Y-30584203D01*
X152312745Y-30609019D01*
X152375818Y-30635727D01*
X152549962Y-30709468D01*
X152549966Y-30709469D01*
X152554060Y-30711203D01*
X152558352Y-30712341D01*
X152558355Y-30712342D01*
X152659125Y-30739061D01*
X152807365Y-30778366D01*
X152811789Y-30778890D01*
X152811791Y-30778890D01*
X152962572Y-30796736D01*
X153067607Y-30809167D01*
X153329592Y-30802993D01*
X153333986Y-30802262D01*
X153333993Y-30802261D01*
X153583692Y-30760700D01*
X153583696Y-30760699D01*
X153588094Y-30759967D01*
X153752061Y-30708111D01*
X153833709Y-30682289D01*
X153833711Y-30682288D01*
X153837955Y-30680946D01*
X153841966Y-30679020D01*
X153841971Y-30679018D01*
X154070169Y-30569439D01*
X154070170Y-30569438D01*
X154074188Y-30567509D01*
X154218566Y-30471039D01*
X154288380Y-30424391D01*
X154288384Y-30424388D01*
X154292082Y-30421917D01*
X154487287Y-30247076D01*
X154594742Y-30119243D01*
X154653043Y-30049886D01*
X154653045Y-30049884D01*
X154655910Y-30046475D01*
X154794586Y-29824116D01*
X154820335Y-29765874D01*
X154898749Y-29588503D01*
X154900547Y-29584436D01*
X154971681Y-29332216D01*
X154994280Y-29163962D01*
X155006139Y-29075673D01*
X155006140Y-29075665D01*
X155006566Y-29072491D01*
X155008512Y-29010562D01*
X155010126Y-28959222D01*
X155010126Y-28959217D01*
X155010227Y-28956000D01*
X155007162Y-28912703D01*
X154992034Y-28699045D01*
X154991719Y-28694596D01*
X154936563Y-28438408D01*
X154924289Y-28405136D01*
X154847401Y-28196724D01*
X154845860Y-28192547D01*
X154721420Y-27961920D01*
X154688283Y-27917055D01*
X154568370Y-27754706D01*
X154565726Y-27751126D01*
X154381884Y-27564374D01*
X154313336Y-27512060D01*
X154177107Y-27408093D01*
X154177103Y-27408090D01*
X154173562Y-27405388D01*
X153944917Y-27277340D01*
X153940768Y-27275735D01*
X153940764Y-27275733D01*
X153755466Y-27204047D01*
X153700512Y-27182787D01*
X153696191Y-27181785D01*
X153696183Y-27181783D01*
X153528069Y-27142817D01*
X153445221Y-27123614D01*
X153184141Y-27101002D01*
X153179706Y-27101246D01*
X153179702Y-27101246D01*
X152926921Y-27115157D01*
X152926914Y-27115158D01*
X152922478Y-27115402D01*
X152665456Y-27166527D01*
X152661246Y-27168005D01*
X152661244Y-27168006D01*
X152558615Y-27204047D01*
X152418201Y-27253357D01*
X152414250Y-27255410D01*
X152414244Y-27255412D01*
X152286894Y-27321566D01*
X152185647Y-27374159D01*
X152182032Y-27376742D01*
X152182026Y-27376746D01*
X151976055Y-27523935D01*
X151976051Y-27523938D01*
X151972434Y-27526523D01*
X151782816Y-27707409D01*
X151780060Y-27710905D01*
X151659973Y-27863236D01*
X151620578Y-27913208D01*
X151618346Y-27917050D01*
X151618343Y-27917055D01*
X151557648Y-28021550D01*
X151488955Y-28139813D01*
X151487290Y-28143925D01*
X151487287Y-28143930D01*
X151407239Y-28341559D01*
X151390574Y-28382703D01*
X151327399Y-28637032D01*
X151300688Y-28897726D01*
X150004332Y-28897726D01*
X149872789Y-28766183D01*
X149866718Y-28759668D01*
X149827410Y-28714369D01*
X149827408Y-28714367D01*
X149823910Y-28710336D01*
X149740260Y-28641747D01*
X149738908Y-28640623D01*
X149660298Y-28574310D01*
X149660296Y-28574308D01*
X149656215Y-28570866D01*
X149651611Y-28568159D01*
X149647931Y-28565554D01*
X149644249Y-28563023D01*
X149640120Y-28559638D01*
X149546101Y-28506120D01*
X149544642Y-28505275D01*
X149455928Y-28453122D01*
X149455923Y-28453119D01*
X149451324Y-28450416D01*
X149446339Y-28448528D01*
X149442345Y-28446614D01*
X149438199Y-28444698D01*
X149433567Y-28442061D01*
X149428558Y-28440243D01*
X149428552Y-28440240D01*
X149331842Y-28405136D01*
X149330223Y-28404535D01*
X149229067Y-28366211D01*
X149223825Y-28365187D01*
X149219440Y-28363938D01*
X149215171Y-28362786D01*
X149210156Y-28360966D01*
X149103656Y-28341708D01*
X149102071Y-28341411D01*
X148995800Y-28320657D01*
X148990463Y-28320531D01*
X148985161Y-28319955D01*
X148985202Y-28319577D01*
X148984525Y-28319509D01*
X148984483Y-28319881D01*
X148980364Y-28319413D01*
X148976275Y-28318674D01*
X148972131Y-28318479D01*
X148972126Y-28318478D01*
X148952869Y-28317570D01*
X148952862Y-28317570D01*
X148951381Y-28317500D01*
X148863308Y-28317500D01*
X148860340Y-28317465D01*
X148857485Y-28317398D01*
X148758193Y-28315058D01*
X148752914Y-28315833D01*
X148752911Y-28315833D01*
X148751699Y-28316011D01*
X148750656Y-28316164D01*
X148732361Y-28317500D01*
X148288003Y-28317500D01*
X148229628Y-28303162D01*
X148193470Y-28284259D01*
X147998087Y-28228234D01*
X147966455Y-28225411D01*
X147880609Y-28217749D01*
X147880603Y-28217749D01*
X147877816Y-28217500D01*
X146762184Y-28217500D01*
X146759397Y-28217749D01*
X146759391Y-28217749D01*
X146673545Y-28225411D01*
X146641913Y-28228234D01*
X146446530Y-28284259D01*
X146336926Y-28341559D01*
X146293379Y-28364325D01*
X146266404Y-28378427D01*
X146261461Y-28382458D01*
X146261460Y-28382459D01*
X146132136Y-28487933D01*
X146066704Y-28515487D01*
X145996763Y-28503291D01*
X145944517Y-28455219D01*
X145926500Y-28390290D01*
X145926500Y-26219710D01*
X145946502Y-26151589D01*
X146000158Y-26105096D01*
X146070432Y-26094992D01*
X146132136Y-26122067D01*
X146266404Y-26231573D01*
X146446530Y-26325741D01*
X146641913Y-26381766D01*
X146673545Y-26384589D01*
X146759391Y-26392251D01*
X146759397Y-26392251D01*
X146762184Y-26392500D01*
X147877816Y-26392500D01*
X147880603Y-26392251D01*
X147880609Y-26392251D01*
X147966455Y-26384589D01*
X147998087Y-26381766D01*
X148193470Y-26325741D01*
X148229628Y-26306838D01*
X148288003Y-26292500D01*
X151820673Y-26292500D01*
X151888794Y-26312502D01*
X151900223Y-26320787D01*
X151914719Y-26332589D01*
X152024442Y-26421917D01*
X152088235Y-26473853D01*
X152092057Y-26476154D01*
X152271526Y-26584203D01*
X152312745Y-26609019D01*
X152425545Y-26656784D01*
X152549962Y-26709468D01*
X152549966Y-26709469D01*
X152554060Y-26711203D01*
X152558352Y-26712341D01*
X152558355Y-26712342D01*
X152659125Y-26739061D01*
X152807365Y-26778366D01*
X152811789Y-26778890D01*
X152811791Y-26778890D01*
X152952766Y-26795575D01*
X153067607Y-26809167D01*
X153329592Y-26802993D01*
X153333986Y-26802262D01*
X153333993Y-26802261D01*
X153583692Y-26760700D01*
X153583696Y-26760699D01*
X153588094Y-26759967D01*
X153752061Y-26708111D01*
X153833709Y-26682289D01*
X153833711Y-26682288D01*
X153837955Y-26680946D01*
X153841966Y-26679020D01*
X153841971Y-26679018D01*
X154070169Y-26569439D01*
X154070170Y-26569438D01*
X154074188Y-26567509D01*
X154218567Y-26471038D01*
X154288380Y-26424391D01*
X154288384Y-26424388D01*
X154292082Y-26421917D01*
X154487287Y-26247076D01*
X154548328Y-26174459D01*
X154653043Y-26049886D01*
X154653045Y-26049884D01*
X154655910Y-26046475D01*
X154794586Y-25824116D01*
X154838213Y-25725435D01*
X154898749Y-25588503D01*
X154900547Y-25584436D01*
X154971681Y-25332216D01*
X154978233Y-25283433D01*
X155006139Y-25075673D01*
X155006140Y-25075665D01*
X155006566Y-25072491D01*
X155009174Y-24989513D01*
X155010126Y-24959222D01*
X155010126Y-24959217D01*
X155010227Y-24956000D01*
X154991719Y-24694596D01*
X154936563Y-24438408D01*
X154911414Y-24370237D01*
X154847401Y-24196724D01*
X154845860Y-24192547D01*
X154776049Y-24063165D01*
X161402866Y-24063165D01*
X161437952Y-24320970D01*
X161510758Y-24570757D01*
X161619686Y-24807039D01*
X161622246Y-24810944D01*
X161622249Y-24810949D01*
X161759775Y-25020712D01*
X161759779Y-25020717D01*
X161762341Y-25024625D01*
X161935591Y-25218735D01*
X162135629Y-25385105D01*
X162358061Y-25520080D01*
X162362375Y-25521889D01*
X162362377Y-25521890D01*
X162593686Y-25618886D01*
X162593691Y-25618888D01*
X162598001Y-25620695D01*
X162602533Y-25621846D01*
X162602536Y-25621847D01*
X162720852Y-25651895D01*
X162850177Y-25684739D01*
X163066286Y-25706500D01*
X163221044Y-25706500D01*
X163223369Y-25706327D01*
X163223375Y-25706327D01*
X163409814Y-25692472D01*
X163409818Y-25692471D01*
X163414466Y-25692126D01*
X163668232Y-25634705D01*
X163672586Y-25633012D01*
X163906370Y-25542098D01*
X163906372Y-25542097D01*
X163910723Y-25540405D01*
X163946285Y-25520080D01*
X163994038Y-25492786D01*
X164136612Y-25411299D01*
X164340936Y-25250223D01*
X164519208Y-25060714D01*
X164645019Y-24879359D01*
X164664846Y-24850779D01*
X164664848Y-24850776D01*
X164667511Y-24846937D01*
X164669579Y-24842744D01*
X164780521Y-24617775D01*
X164780522Y-24617772D01*
X164782586Y-24613587D01*
X164787591Y-24597953D01*
X164860483Y-24370237D01*
X164861906Y-24365792D01*
X164903728Y-24108994D01*
X164905602Y-23965842D01*
X164907073Y-23853512D01*
X164907073Y-23853509D01*
X164907134Y-23848835D01*
X164872048Y-23591030D01*
X164799242Y-23341243D01*
X164690314Y-23104961D01*
X164687751Y-23101051D01*
X164550225Y-22891288D01*
X164550221Y-22891283D01*
X164547659Y-22887375D01*
X164374409Y-22693265D01*
X164174371Y-22526895D01*
X163951939Y-22391920D01*
X163947623Y-22390110D01*
X163716314Y-22293114D01*
X163716309Y-22293112D01*
X163711999Y-22291305D01*
X163707467Y-22290154D01*
X163707464Y-22290153D01*
X163582185Y-22258337D01*
X163459823Y-22227261D01*
X163243714Y-22205500D01*
X163088956Y-22205500D01*
X163086631Y-22205673D01*
X163086625Y-22205673D01*
X162900186Y-22219528D01*
X162900182Y-22219529D01*
X162895534Y-22219874D01*
X162641768Y-22277295D01*
X162637416Y-22278987D01*
X162637414Y-22278988D01*
X162403630Y-22369902D01*
X162403628Y-22369903D01*
X162399277Y-22371595D01*
X162395223Y-22373912D01*
X162395221Y-22373913D01*
X162359467Y-22394348D01*
X162173388Y-22500701D01*
X161969064Y-22661777D01*
X161790792Y-22851286D01*
X161642489Y-23065063D01*
X161640423Y-23069253D01*
X161640421Y-23069256D01*
X161548620Y-23255412D01*
X161527414Y-23298413D01*
X161448094Y-23546208D01*
X161406272Y-23803006D01*
X161405626Y-23852365D01*
X161403344Y-24026684D01*
X161402866Y-24063165D01*
X154776049Y-24063165D01*
X154721420Y-23961920D01*
X154674697Y-23898661D01*
X154568370Y-23754706D01*
X154565726Y-23751126D01*
X154381884Y-23564374D01*
X154276435Y-23483898D01*
X154177107Y-23408093D01*
X154177103Y-23408090D01*
X154173562Y-23405388D01*
X153944917Y-23277340D01*
X153940768Y-23275735D01*
X153940764Y-23275733D01*
X153793196Y-23218644D01*
X153700512Y-23182787D01*
X153696191Y-23181785D01*
X153696183Y-23181783D01*
X153528069Y-23142817D01*
X153445221Y-23123614D01*
X153184141Y-23101002D01*
X153179706Y-23101246D01*
X153179702Y-23101246D01*
X152926921Y-23115157D01*
X152926914Y-23115158D01*
X152922478Y-23115402D01*
X152665456Y-23166527D01*
X152661246Y-23168005D01*
X152661244Y-23168006D01*
X152516497Y-23218838D01*
X152418201Y-23253357D01*
X152414250Y-23255410D01*
X152414244Y-23255412D01*
X152331464Y-23298413D01*
X152185647Y-23374159D01*
X152182032Y-23376742D01*
X152182026Y-23376746D01*
X152054308Y-23468015D01*
X151981050Y-23491500D01*
X148288003Y-23491500D01*
X148229628Y-23477162D01*
X148217336Y-23470736D01*
X148193470Y-23458259D01*
X147998087Y-23402234D01*
X147966455Y-23399411D01*
X147880609Y-23391749D01*
X147880603Y-23391749D01*
X147877816Y-23391500D01*
X146762184Y-23391500D01*
X146759397Y-23391749D01*
X146759391Y-23391749D01*
X146673545Y-23399411D01*
X146641913Y-23402234D01*
X146446530Y-23458259D01*
X146266404Y-23552427D01*
X146261461Y-23556458D01*
X146261460Y-23556459D01*
X146196353Y-23609559D01*
X146108891Y-23680891D01*
X146104862Y-23685831D01*
X146003511Y-23810100D01*
X145944956Y-23850248D01*
X145873991Y-23852365D01*
X145813147Y-23815780D01*
X145790986Y-23782214D01*
X145756338Y-23705297D01*
X145754143Y-23700424D01*
X145751157Y-23695989D01*
X145748943Y-23692011D01*
X145746738Y-23688176D01*
X145744479Y-23683343D01*
X145682800Y-23594434D01*
X145681819Y-23592999D01*
X145680494Y-23591030D01*
X145621409Y-23503268D01*
X145617728Y-23499410D01*
X145614383Y-23495249D01*
X145614677Y-23495013D01*
X145614251Y-23494491D01*
X145613961Y-23494722D01*
X145611368Y-23491465D01*
X145609005Y-23488059D01*
X145606216Y-23484994D01*
X145606212Y-23484989D01*
X145593242Y-23470736D01*
X145592233Y-23469627D01*
X145529991Y-23407385D01*
X145527916Y-23405262D01*
X145470379Y-23344948D01*
X145457355Y-23331295D01*
X145451236Y-23326742D01*
X145437354Y-23314748D01*
X142188606Y-20066000D01*
X148266457Y-20066000D01*
X148266727Y-20070119D01*
X148281429Y-20294422D01*
X148286609Y-20373460D01*
X148287413Y-20377500D01*
X148287413Y-20377503D01*
X148344204Y-20663008D01*
X148346720Y-20675659D01*
X148445762Y-20967427D01*
X148462400Y-21001165D01*
X148561347Y-21201809D01*
X148582040Y-21243771D01*
X148753222Y-21499964D01*
X148755936Y-21503058D01*
X148755940Y-21503064D01*
X148924086Y-21694796D01*
X148956380Y-21731620D01*
X148959469Y-21734329D01*
X149184936Y-21932060D01*
X149184942Y-21932064D01*
X149188036Y-21934778D01*
X149444229Y-22105960D01*
X149447928Y-22107784D01*
X149447933Y-22107787D01*
X149516702Y-22141700D01*
X149720573Y-22242238D01*
X149724478Y-22243564D01*
X149724479Y-22243564D01*
X150008434Y-22339954D01*
X150008437Y-22339955D01*
X150012341Y-22341280D01*
X150016380Y-22342083D01*
X150016386Y-22342085D01*
X150310497Y-22400587D01*
X150310500Y-22400587D01*
X150314540Y-22401391D01*
X150318651Y-22401660D01*
X150318655Y-22401661D01*
X150543010Y-22416366D01*
X150543019Y-22416366D01*
X150545059Y-22416500D01*
X150698941Y-22416500D01*
X150700981Y-22416366D01*
X150700990Y-22416366D01*
X150925345Y-22401661D01*
X150925349Y-22401660D01*
X150929460Y-22401391D01*
X150933500Y-22400587D01*
X150933503Y-22400587D01*
X151227614Y-22342085D01*
X151227620Y-22342083D01*
X151231659Y-22341280D01*
X151235563Y-22339955D01*
X151235566Y-22339954D01*
X151519521Y-22243564D01*
X151519522Y-22243564D01*
X151523427Y-22242238D01*
X151727298Y-22141700D01*
X151796067Y-22107787D01*
X151796072Y-22107784D01*
X151799771Y-22105960D01*
X152055964Y-21934778D01*
X152059058Y-21932064D01*
X152059064Y-21932060D01*
X152284531Y-21734329D01*
X152287620Y-21731620D01*
X152319914Y-21694796D01*
X152488060Y-21503064D01*
X152488064Y-21503058D01*
X152490778Y-21499964D01*
X152503073Y-21481564D01*
X152659666Y-21247205D01*
X152659667Y-21247204D01*
X152661960Y-21243772D01*
X152665997Y-21235587D01*
X152781600Y-21001165D01*
X152798238Y-20967427D01*
X152897280Y-20675659D01*
X152899797Y-20663008D01*
X152956587Y-20377503D01*
X152956587Y-20377500D01*
X152957391Y-20373460D01*
X152962572Y-20294422D01*
X152977273Y-20070119D01*
X152977543Y-20066000D01*
X152957391Y-19758540D01*
X152949308Y-19717903D01*
X152898085Y-19460386D01*
X152898083Y-19460380D01*
X152897280Y-19456341D01*
X152872515Y-19383384D01*
X152799564Y-19168479D01*
X152799564Y-19168478D01*
X152798238Y-19164573D01*
X152733828Y-19033962D01*
X152663787Y-18891933D01*
X152663784Y-18891928D01*
X152661960Y-18888229D01*
X152490778Y-18632036D01*
X152488064Y-18628942D01*
X152488060Y-18628936D01*
X152290329Y-18403469D01*
X152287620Y-18400380D01*
X152284531Y-18397671D01*
X152059064Y-18199940D01*
X152059058Y-18199936D01*
X152055964Y-18197222D01*
X151799771Y-18026040D01*
X151796072Y-18024216D01*
X151796067Y-18024213D01*
X151615343Y-17935090D01*
X151523427Y-17889762D01*
X151456184Y-17866936D01*
X151235566Y-17792046D01*
X151235563Y-17792045D01*
X151231659Y-17790720D01*
X151227620Y-17789917D01*
X151227614Y-17789915D01*
X150933503Y-17731413D01*
X150933500Y-17731413D01*
X150929460Y-17730609D01*
X150925349Y-17730340D01*
X150925345Y-17730339D01*
X150700990Y-17715634D01*
X150700981Y-17715634D01*
X150698941Y-17715500D01*
X150545059Y-17715500D01*
X150543019Y-17715634D01*
X150543010Y-17715634D01*
X150318655Y-17730339D01*
X150318651Y-17730340D01*
X150314540Y-17730609D01*
X150310500Y-17731413D01*
X150310497Y-17731413D01*
X150016386Y-17789915D01*
X150016380Y-17789917D01*
X150012341Y-17790720D01*
X150008437Y-17792045D01*
X150008434Y-17792046D01*
X149787816Y-17866936D01*
X149720573Y-17889762D01*
X149628657Y-17935090D01*
X149447933Y-18024213D01*
X149447928Y-18024216D01*
X149444229Y-18026040D01*
X149188036Y-18197222D01*
X149184942Y-18199936D01*
X149184936Y-18199940D01*
X148959469Y-18397671D01*
X148956380Y-18400380D01*
X148953671Y-18403469D01*
X148755940Y-18628936D01*
X148755936Y-18628942D01*
X148753222Y-18632036D01*
X148750933Y-18635462D01*
X148750929Y-18635467D01*
X148665581Y-18763200D01*
X148582040Y-18888228D01*
X148580216Y-18891927D01*
X148580213Y-18891932D01*
X148526597Y-19000655D01*
X148445762Y-19164573D01*
X148444436Y-19168478D01*
X148444436Y-19168479D01*
X148371486Y-19383384D01*
X148346720Y-19456341D01*
X148345917Y-19460380D01*
X148345915Y-19460386D01*
X148294692Y-19717903D01*
X148286609Y-19758540D01*
X148266457Y-20066000D01*
X142188606Y-20066000D01*
X138950789Y-16828183D01*
X138944718Y-16821668D01*
X138905410Y-16776369D01*
X138905408Y-16776367D01*
X138901910Y-16772336D01*
X138830480Y-16713767D01*
X138818260Y-16703747D01*
X138816908Y-16702623D01*
X138738298Y-16636310D01*
X138738296Y-16636308D01*
X138734215Y-16632866D01*
X138729611Y-16630159D01*
X138725931Y-16627554D01*
X138722249Y-16625023D01*
X138718120Y-16621638D01*
X138624101Y-16568120D01*
X138622642Y-16567275D01*
X138533928Y-16515122D01*
X138533923Y-16515119D01*
X138529324Y-16512416D01*
X138524339Y-16510528D01*
X138520345Y-16508614D01*
X138516199Y-16506698D01*
X138511567Y-16504061D01*
X138506558Y-16502243D01*
X138506552Y-16502240D01*
X138409842Y-16467136D01*
X138408223Y-16466535D01*
X138307067Y-16428211D01*
X138301825Y-16427187D01*
X138297440Y-16425938D01*
X138293171Y-16424786D01*
X138288156Y-16422966D01*
X138181656Y-16403708D01*
X138180071Y-16403411D01*
X138073800Y-16382657D01*
X138068463Y-16382531D01*
X138063161Y-16381955D01*
X138063202Y-16381577D01*
X138062525Y-16381509D01*
X138062483Y-16381881D01*
X138058364Y-16381413D01*
X138054275Y-16380674D01*
X138050131Y-16380479D01*
X138050126Y-16380478D01*
X138030869Y-16379570D01*
X138030862Y-16379570D01*
X138029381Y-16379500D01*
X137941308Y-16379500D01*
X137938340Y-16379465D01*
X137935485Y-16379398D01*
X137836193Y-16377058D01*
X137830914Y-16377833D01*
X137830911Y-16377833D01*
X137829699Y-16378011D01*
X137828656Y-16378164D01*
X137810361Y-16379500D01*
X109020408Y-16379500D01*
X109011511Y-16379185D01*
X108983250Y-16377184D01*
X108951702Y-16374950D01*
X108951700Y-16374950D01*
X108946375Y-16374573D01*
X108838700Y-16385225D01*
X108837010Y-16385381D01*
X108729177Y-16394531D01*
X108724013Y-16395871D01*
X108719567Y-16396631D01*
X108715159Y-16397448D01*
X108709856Y-16397973D01*
X108605509Y-16426617D01*
X108603887Y-16427050D01*
X108592120Y-16430104D01*
X108504299Y-16452897D01*
X108504295Y-16452898D01*
X108499126Y-16454240D01*
X108494255Y-16456434D01*
X108490042Y-16457918D01*
X108485814Y-16459474D01*
X108480661Y-16460888D01*
X108382603Y-16506717D01*
X108381103Y-16507406D01*
X108282424Y-16551857D01*
X108277989Y-16554843D01*
X108274011Y-16557057D01*
X108270176Y-16559262D01*
X108265343Y-16561521D01*
X108182495Y-16618996D01*
X108176452Y-16623188D01*
X108175018Y-16624168D01*
X108085268Y-16684591D01*
X108081410Y-16688272D01*
X108077249Y-16691617D01*
X108077013Y-16691323D01*
X108076491Y-16691749D01*
X108076722Y-16692039D01*
X108073465Y-16694632D01*
X108070059Y-16696995D01*
X108066994Y-16699784D01*
X108066989Y-16699788D01*
X108055484Y-16710258D01*
X108051627Y-16713767D01*
X107989385Y-16776009D01*
X107987262Y-16778084D01*
X107913295Y-16848645D01*
X107910107Y-16852930D01*
X107910106Y-16852931D01*
X107908742Y-16854764D01*
X107896748Y-16868646D01*
X106879183Y-17886211D01*
X106872668Y-17892282D01*
X106823336Y-17935090D01*
X106819949Y-17939221D01*
X106754747Y-18018740D01*
X106753623Y-18020092D01*
X106746671Y-18028334D01*
X106683866Y-18102785D01*
X106681159Y-18107389D01*
X106678554Y-18111069D01*
X106676023Y-18114751D01*
X106672638Y-18118880D01*
X106619120Y-18212899D01*
X106618275Y-18214358D01*
X106566122Y-18303072D01*
X106566119Y-18303077D01*
X106563416Y-18307676D01*
X106561528Y-18312661D01*
X106559614Y-18316655D01*
X106557698Y-18320801D01*
X106555061Y-18325433D01*
X106553243Y-18330442D01*
X106553240Y-18330448D01*
X106518136Y-18427158D01*
X106517535Y-18428777D01*
X106479211Y-18529933D01*
X106478187Y-18535175D01*
X106476938Y-18539560D01*
X106475786Y-18543829D01*
X106473966Y-18548844D01*
X106473017Y-18554094D01*
X106454720Y-18655282D01*
X106454411Y-18656929D01*
X106447868Y-18690434D01*
X106435798Y-18752238D01*
X106409778Y-18807720D01*
X106344627Y-18887604D01*
X106250459Y-19067730D01*
X106194434Y-19263113D01*
X106193901Y-19269086D01*
X106191153Y-19299881D01*
X106183700Y-19383384D01*
X106183700Y-21199016D01*
X106194434Y-21319287D01*
X106250459Y-21514670D01*
X106344627Y-21694796D01*
X106348658Y-21699739D01*
X106348659Y-21699740D01*
X106469062Y-21847369D01*
X106473091Y-21852309D01*
X106478031Y-21856338D01*
X106577019Y-21937070D01*
X106630604Y-21980773D01*
X106810730Y-22074941D01*
X107006113Y-22130966D01*
X107037745Y-22133789D01*
X107123591Y-22141451D01*
X107123597Y-22141451D01*
X107126384Y-22141700D01*
X108942016Y-22141700D01*
X108944803Y-22141451D01*
X108944809Y-22141451D01*
X109030655Y-22133789D01*
X109062287Y-22130966D01*
X109257670Y-22074941D01*
X109437796Y-21980773D01*
X109491382Y-21937070D01*
X109590369Y-21856338D01*
X109595309Y-21852309D01*
X109599338Y-21847369D01*
X109719741Y-21699740D01*
X109719742Y-21699739D01*
X109723773Y-21694796D01*
X109793770Y-21560905D01*
X109843055Y-21509804D01*
X109912145Y-21493460D01*
X109969003Y-21510494D01*
X109980958Y-21517480D01*
X109990242Y-21521929D01*
X110189201Y-21597903D01*
X110199099Y-21600779D01*
X110302450Y-21621806D01*
X110316499Y-21620610D01*
X110320200Y-21610265D01*
X110320200Y-20163200D01*
X110340202Y-20095079D01*
X110393858Y-20048586D01*
X110446200Y-20037200D01*
X110702200Y-20037200D01*
X110770321Y-20057202D01*
X110816814Y-20110858D01*
X110828200Y-20163200D01*
X110828200Y-21609717D01*
X110832264Y-21623559D01*
X110845678Y-21625593D01*
X110852384Y-21624734D01*
X110862462Y-21622592D01*
X111066455Y-21561391D01*
X111076042Y-21557633D01*
X111267295Y-21463939D01*
X111276145Y-21458664D01*
X111403332Y-21367943D01*
X111470406Y-21344669D01*
X111539414Y-21361353D01*
X111588448Y-21412697D01*
X111602500Y-21470522D01*
X111602500Y-42716125D01*
X111582498Y-42784246D01*
X111565595Y-42805220D01*
X111523094Y-42847721D01*
X111460782Y-42881747D01*
X111389967Y-42876682D01*
X111333131Y-42834135D01*
X111308320Y-42767615D01*
X111307999Y-42758626D01*
X111307999Y-42190331D01*
X111307629Y-42183510D01*
X111302105Y-42132648D01*
X111298479Y-42117396D01*
X111253324Y-41996946D01*
X111244786Y-41981351D01*
X111168285Y-41879276D01*
X111155724Y-41866715D01*
X111053649Y-41790214D01*
X111038054Y-41781676D01*
X110917606Y-41736522D01*
X110902351Y-41732895D01*
X110851486Y-41727369D01*
X110844672Y-41727000D01*
X110222115Y-41727000D01*
X110206876Y-41731475D01*
X110205671Y-41732865D01*
X110204000Y-41740548D01*
X110204000Y-43213000D01*
X110183998Y-43281121D01*
X110130342Y-43327614D01*
X110078000Y-43339000D01*
X108610116Y-43339000D01*
X108594877Y-43343475D01*
X108593672Y-43344865D01*
X108592001Y-43352548D01*
X108592001Y-43979669D01*
X108592371Y-43986490D01*
X108597895Y-44037352D01*
X108601521Y-44052604D01*
X108646677Y-44173058D01*
X108649715Y-44178606D01*
X108664884Y-44247963D01*
X108640148Y-44314511D01*
X108626166Y-44330285D01*
X108581043Y-44373330D01*
X108581039Y-44373335D01*
X108577816Y-44376409D01*
X108415578Y-44582208D01*
X108283955Y-44808813D01*
X108282290Y-44812925D01*
X108282287Y-44812930D01*
X108225703Y-44952629D01*
X108185574Y-45051703D01*
X108122399Y-45306032D01*
X108095688Y-45566726D01*
X108095863Y-45571177D01*
X108101711Y-45720000D01*
X108105977Y-45828582D01*
X108108003Y-45839673D01*
X108146263Y-46049167D01*
X108153058Y-46086376D01*
X108235994Y-46334965D01*
X108353128Y-46569387D01*
X108397011Y-46632880D01*
X108491449Y-46769521D01*
X108502124Y-46784967D01*
X108525855Y-46810638D01*
X108557406Y-46874237D01*
X108549565Y-46944800D01*
X108532279Y-46974171D01*
X108418338Y-47118705D01*
X108418328Y-47118719D01*
X108415578Y-47122208D01*
X108413346Y-47126050D01*
X108413343Y-47126055D01*
X108286186Y-47344972D01*
X108283955Y-47348813D01*
X108282290Y-47352925D01*
X108282287Y-47352930D01*
X108195486Y-47567232D01*
X108185574Y-47591703D01*
X108122399Y-47846032D01*
X108095688Y-48106726D01*
X108095863Y-48111177D01*
X108101711Y-48260000D01*
X108105977Y-48368582D01*
X108153058Y-48626376D01*
X108235994Y-48874965D01*
X108294804Y-48992662D01*
X108315018Y-49033116D01*
X108353128Y-49109387D01*
X108502124Y-49324967D01*
X108525855Y-49350638D01*
X108557406Y-49414237D01*
X108549565Y-49484800D01*
X108532279Y-49514171D01*
X108418338Y-49658705D01*
X108418328Y-49658719D01*
X108415578Y-49662208D01*
X108413346Y-49666050D01*
X108413343Y-49666055D01*
X108362432Y-49753705D01*
X108283955Y-49888813D01*
X108282290Y-49892925D01*
X108282287Y-49892930D01*
X108245749Y-49983138D01*
X108185574Y-50131703D01*
X108122399Y-50386032D01*
X108095688Y-50646726D01*
X108097644Y-50696502D01*
X108101711Y-50800000D01*
X108105977Y-50908582D01*
X108108003Y-50919673D01*
X108146263Y-51129167D01*
X108153058Y-51166376D01*
X108235994Y-51414965D01*
X108261038Y-51465085D01*
X108340636Y-51624386D01*
X108353128Y-51649387D01*
X108355657Y-51653046D01*
X108485114Y-51840355D01*
X108502124Y-51864967D01*
X108525855Y-51890638D01*
X108557406Y-51954237D01*
X108549565Y-52024800D01*
X108532279Y-52054171D01*
X108418338Y-52198705D01*
X108418328Y-52198719D01*
X108415578Y-52202208D01*
X108413346Y-52206050D01*
X108413343Y-52206055D01*
X108384711Y-52255349D01*
X108283955Y-52428813D01*
X108282290Y-52432925D01*
X108282287Y-52432930D01*
X108187248Y-52667570D01*
X108185574Y-52671703D01*
X108122399Y-52926032D01*
X108095688Y-53186726D01*
X108098052Y-53246898D01*
X108103484Y-53385124D01*
X108105977Y-53448582D01*
X108153058Y-53706376D01*
X108235994Y-53954965D01*
X108353128Y-54189387D01*
X108502124Y-54404967D01*
X108525855Y-54430638D01*
X108557406Y-54494237D01*
X108549565Y-54564800D01*
X108532279Y-54594171D01*
X108418338Y-54738705D01*
X108418328Y-54738719D01*
X108415578Y-54742208D01*
X108413346Y-54746050D01*
X108413343Y-54746055D01*
X108358004Y-54841328D01*
X108283955Y-54968813D01*
X108282290Y-54972925D01*
X108282287Y-54972930D01*
X108187248Y-55207570D01*
X108185574Y-55211703D01*
X108122399Y-55466032D01*
X108095688Y-55726726D01*
X108105977Y-55988582D01*
X108153058Y-56246376D01*
X108235994Y-56494965D01*
X108294804Y-56612662D01*
X108342393Y-56707902D01*
X108353128Y-56729387D01*
X108355657Y-56733046D01*
X108479307Y-56911953D01*
X108502124Y-56944967D01*
X108525855Y-56970638D01*
X108557406Y-57034237D01*
X108549565Y-57104800D01*
X108532279Y-57134171D01*
X108418338Y-57278705D01*
X108418328Y-57278719D01*
X108415578Y-57282208D01*
X108413346Y-57286050D01*
X108413343Y-57286055D01*
X108326653Y-57435303D01*
X108283955Y-57508813D01*
X108282290Y-57512925D01*
X108282287Y-57512930D01*
X108188673Y-57744051D01*
X108185574Y-57751703D01*
X108122399Y-58006032D01*
X108095688Y-58266726D01*
X108097391Y-58310064D01*
X108103081Y-58454866D01*
X108105977Y-58528582D01*
X108121861Y-58615557D01*
X108137433Y-58700818D01*
X108153058Y-58786376D01*
X108235994Y-59034965D01*
X108353128Y-59269387D01*
X108502124Y-59484967D01*
X108525855Y-59510638D01*
X108557406Y-59574237D01*
X108549565Y-59644800D01*
X108532279Y-59674171D01*
X108418338Y-59818705D01*
X108418328Y-59818719D01*
X108415578Y-59822208D01*
X108413346Y-59826050D01*
X108413343Y-59826055D01*
X108362432Y-59913705D01*
X108283955Y-60048813D01*
X108282290Y-60052925D01*
X108282287Y-60052930D01*
X108245476Y-60143813D01*
X108185574Y-60291703D01*
X108122399Y-60546032D01*
X108095688Y-60806726D01*
X108095863Y-60811177D01*
X108104954Y-61042535D01*
X108105977Y-61068582D01*
X108153058Y-61326376D01*
X108235994Y-61574965D01*
X108353128Y-61809387D01*
X108355657Y-61813046D01*
X108484523Y-61999500D01*
X108502124Y-62024967D01*
X108525855Y-62050638D01*
X108557406Y-62114237D01*
X108549565Y-62184800D01*
X108532279Y-62214171D01*
X108418340Y-62358703D01*
X108418333Y-62358713D01*
X108416060Y-62361596D01*
X108416057Y-62361599D01*
X108415578Y-62362207D01*
X108415445Y-62362102D01*
X108361937Y-62406109D01*
X108291426Y-62414401D01*
X108223466Y-62379281D01*
X107509405Y-61665220D01*
X107475379Y-61602908D01*
X107472500Y-61576125D01*
X107472500Y-58025791D01*
X107472501Y-58025767D01*
X107472501Y-57798221D01*
X107464968Y-57755500D01*
X107463558Y-57747501D01*
X107462124Y-57736604D01*
X107458116Y-57690798D01*
X107458115Y-57690790D01*
X107457635Y-57685308D01*
X107444306Y-57635564D01*
X107441928Y-57624836D01*
X107438221Y-57603813D01*
X107432985Y-57574120D01*
X107431105Y-57568955D01*
X107431103Y-57568947D01*
X107415374Y-57525733D01*
X107412068Y-57515248D01*
X107400164Y-57470820D01*
X107400162Y-57470814D01*
X107398739Y-57465504D01*
X107376973Y-57418826D01*
X107372768Y-57408673D01*
X107357040Y-57365461D01*
X107357040Y-57365460D01*
X107355156Y-57360285D01*
X107348721Y-57349138D01*
X107329402Y-57315677D01*
X107324336Y-57305946D01*
X107302568Y-57259266D01*
X107273027Y-57217076D01*
X107267136Y-57207830D01*
X107241377Y-57163214D01*
X107208275Y-57123765D01*
X107201586Y-57115048D01*
X107194411Y-57104800D01*
X107172047Y-57072861D01*
X107011139Y-56911953D01*
X107011136Y-56911951D01*
X98028049Y-47928864D01*
X98028047Y-47928861D01*
X97867139Y-47767953D01*
X97824947Y-47738411D01*
X97816230Y-47731721D01*
X97802331Y-47720058D01*
X97776786Y-47698623D01*
X97732170Y-47672864D01*
X97722924Y-47666973D01*
X97680734Y-47637432D01*
X97634054Y-47615664D01*
X97624323Y-47610598D01*
X97584484Y-47587597D01*
X97584481Y-47587596D01*
X97579715Y-47584844D01*
X97548155Y-47573357D01*
X97531327Y-47567232D01*
X97521171Y-47563026D01*
X97474496Y-47541261D01*
X97469186Y-47539838D01*
X97469180Y-47539836D01*
X97424752Y-47527932D01*
X97414267Y-47524626D01*
X97371053Y-47508897D01*
X97371045Y-47508895D01*
X97365880Y-47507015D01*
X97315165Y-47498072D01*
X97304433Y-47495693D01*
X97292998Y-47492629D01*
X97254692Y-47482365D01*
X97249210Y-47481885D01*
X97249202Y-47481884D01*
X97203396Y-47477876D01*
X97192499Y-47476442D01*
X97153280Y-47469527D01*
X97141779Y-47467499D01*
X96914221Y-47467499D01*
X96914217Y-47467500D01*
X89368371Y-47467500D01*
X89300250Y-47447498D01*
X89288735Y-47439143D01*
X89280540Y-47432459D01*
X89280538Y-47432458D01*
X89275596Y-47428427D01*
X89261394Y-47421002D01*
X89235662Y-47407550D01*
X89095470Y-47334259D01*
X88900087Y-47278234D01*
X88868455Y-47275411D01*
X88782609Y-47267749D01*
X88782603Y-47267749D01*
X88779816Y-47267500D01*
X85464184Y-47267500D01*
X85461397Y-47267749D01*
X85461391Y-47267749D01*
X85375545Y-47275411D01*
X85343913Y-47278234D01*
X85148530Y-47334259D01*
X85008338Y-47407550D01*
X84982607Y-47421002D01*
X84968404Y-47428427D01*
X84963462Y-47432458D01*
X84963460Y-47432459D01*
X84955265Y-47439143D01*
X84889834Y-47466697D01*
X84875629Y-47467500D01*
X82568371Y-47467500D01*
X82500250Y-47447498D01*
X82488735Y-47439143D01*
X82480540Y-47432459D01*
X82480538Y-47432458D01*
X82475596Y-47428427D01*
X82461394Y-47421002D01*
X82435662Y-47407550D01*
X82295470Y-47334259D01*
X82100087Y-47278234D01*
X82068455Y-47275411D01*
X81982609Y-47267749D01*
X81982603Y-47267749D01*
X81979816Y-47267500D01*
X78664184Y-47267500D01*
X78661397Y-47267749D01*
X78661391Y-47267749D01*
X78575545Y-47275411D01*
X78543913Y-47278234D01*
X78348530Y-47334259D01*
X78208338Y-47407550D01*
X78182607Y-47421002D01*
X78168404Y-47428427D01*
X78163461Y-47432458D01*
X78163460Y-47432459D01*
X78030055Y-47541261D01*
X78010891Y-47556891D01*
X78006862Y-47561831D01*
X77891234Y-47703606D01*
X77882427Y-47714404D01*
X77788259Y-47894530D01*
X77732234Y-48089913D01*
X77730336Y-48111177D01*
X77721858Y-48206177D01*
X77721500Y-48210184D01*
X77721500Y-49325816D01*
X77721749Y-49328603D01*
X77721749Y-49328609D01*
X77723701Y-49350475D01*
X77732234Y-49446087D01*
X77788259Y-49641470D01*
X77882427Y-49821596D01*
X78010891Y-49979109D01*
X78015831Y-49983138D01*
X78145021Y-50088502D01*
X78168404Y-50107573D01*
X78348530Y-50201741D01*
X78543913Y-50257766D01*
X78575545Y-50260589D01*
X78661391Y-50268251D01*
X78661397Y-50268251D01*
X78664184Y-50268500D01*
X81979816Y-50268500D01*
X81982603Y-50268251D01*
X81982609Y-50268251D01*
X82068455Y-50260589D01*
X82100087Y-50257766D01*
X82295470Y-50201741D01*
X82475596Y-50107573D01*
X82488735Y-50096857D01*
X82554166Y-50069303D01*
X82568371Y-50068500D01*
X84875629Y-50068500D01*
X84943750Y-50088502D01*
X84955265Y-50096857D01*
X84968404Y-50107573D01*
X85148530Y-50201741D01*
X85343913Y-50257766D01*
X85375545Y-50260589D01*
X85461391Y-50268251D01*
X85461397Y-50268251D01*
X85464184Y-50268500D01*
X88779816Y-50268500D01*
X88782603Y-50268251D01*
X88782609Y-50268251D01*
X88868455Y-50260589D01*
X88900087Y-50257766D01*
X89095470Y-50201741D01*
X89275596Y-50107573D01*
X89288735Y-50096857D01*
X89354166Y-50069303D01*
X89368371Y-50068500D01*
X96437125Y-50068500D01*
X96505246Y-50088502D01*
X96526220Y-50105405D01*
X99388220Y-52967405D01*
X99422246Y-53029717D01*
X99417181Y-53100532D01*
X99374634Y-53157368D01*
X99308114Y-53182179D01*
X99299125Y-53182500D01*
X89356000Y-53182500D01*
X89287879Y-53162498D01*
X89241386Y-53108842D01*
X89230000Y-53056500D01*
X89230000Y-53040115D01*
X89225525Y-53024876D01*
X89224135Y-53023671D01*
X89216452Y-53022000D01*
X85032116Y-53022000D01*
X85016877Y-53026475D01*
X85015672Y-53027865D01*
X85014001Y-53035548D01*
X85014001Y-53056500D01*
X84993999Y-53124621D01*
X84940343Y-53171114D01*
X84888001Y-53182500D01*
X82556000Y-53182500D01*
X82487879Y-53162498D01*
X82441386Y-53108842D01*
X82430000Y-53056500D01*
X82430000Y-53040115D01*
X82425525Y-53024876D01*
X82424135Y-53023671D01*
X82416452Y-53022000D01*
X78232116Y-53022000D01*
X78216877Y-53026475D01*
X78215672Y-53027865D01*
X78214001Y-53035548D01*
X78214001Y-53312669D01*
X78214371Y-53319490D01*
X78219895Y-53370352D01*
X78223521Y-53385604D01*
X78268676Y-53506054D01*
X78277214Y-53521649D01*
X78353715Y-53623724D01*
X78366276Y-53636285D01*
X78468351Y-53712786D01*
X78483948Y-53721325D01*
X78534570Y-53740302D01*
X78591335Y-53782943D01*
X78616035Y-53849504D01*
X78600828Y-53918853D01*
X78579436Y-53947379D01*
X77930220Y-54596595D01*
X77867908Y-54630621D01*
X77841125Y-54633500D01*
X76574184Y-54633500D01*
X76571397Y-54633749D01*
X76571391Y-54633749D01*
X76485545Y-54641411D01*
X76453913Y-54644234D01*
X76258530Y-54700259D01*
X76078404Y-54794427D01*
X76073462Y-54798458D01*
X76073460Y-54798459D01*
X76065265Y-54805143D01*
X75999834Y-54832697D01*
X75985629Y-54833500D01*
X73678371Y-54833500D01*
X73610250Y-54813498D01*
X73598735Y-54805143D01*
X73590540Y-54798459D01*
X73590538Y-54798458D01*
X73585596Y-54794427D01*
X73405470Y-54700259D01*
X73210087Y-54644234D01*
X73178455Y-54641411D01*
X73092609Y-54633749D01*
X73092603Y-54633749D01*
X73089816Y-54633500D01*
X69774184Y-54633500D01*
X69771397Y-54633749D01*
X69771391Y-54633749D01*
X69685545Y-54641411D01*
X69653913Y-54644234D01*
X69458530Y-54700259D01*
X69278404Y-54794427D01*
X69273461Y-54798458D01*
X69273460Y-54798459D01*
X69227569Y-54835887D01*
X69120891Y-54922891D01*
X68992427Y-55080404D01*
X68898259Y-55260530D01*
X68842234Y-55455913D01*
X68841701Y-55461886D01*
X68835200Y-55534732D01*
X68831500Y-55576184D01*
X68831500Y-56691816D01*
X68056000Y-56691816D01*
X68056000Y-52495885D01*
X78214000Y-52495885D01*
X78218475Y-52511124D01*
X78219865Y-52512329D01*
X78227548Y-52514000D01*
X80049885Y-52514000D01*
X80065124Y-52509525D01*
X80066329Y-52508135D01*
X80068000Y-52500452D01*
X80068000Y-52495885D01*
X80576000Y-52495885D01*
X80580475Y-52511124D01*
X80581865Y-52512329D01*
X80589548Y-52514000D01*
X82411884Y-52514000D01*
X82427123Y-52509525D01*
X82428328Y-52508135D01*
X82429999Y-52500452D01*
X82429999Y-52495885D01*
X85014000Y-52495885D01*
X85018475Y-52511124D01*
X85019865Y-52512329D01*
X85027548Y-52514000D01*
X86849885Y-52514000D01*
X86865124Y-52509525D01*
X86866329Y-52508135D01*
X86868000Y-52500452D01*
X86868000Y-52495885D01*
X87376000Y-52495885D01*
X87380475Y-52511124D01*
X87381865Y-52512329D01*
X87389548Y-52514000D01*
X89211884Y-52514000D01*
X89227123Y-52509525D01*
X89228328Y-52508135D01*
X89229999Y-52500452D01*
X89229999Y-52223331D01*
X89229629Y-52216510D01*
X89224105Y-52165648D01*
X89220479Y-52150396D01*
X89175324Y-52029946D01*
X89166786Y-52014351D01*
X89090285Y-51912276D01*
X89077724Y-51899715D01*
X88975649Y-51823214D01*
X88960054Y-51814676D01*
X88839606Y-51769522D01*
X88824351Y-51765895D01*
X88773486Y-51760369D01*
X88766672Y-51760000D01*
X87394115Y-51760000D01*
X87378876Y-51764475D01*
X87377671Y-51765865D01*
X87376000Y-51773548D01*
X87376000Y-52495885D01*
X86868000Y-52495885D01*
X86868000Y-51778116D01*
X86863525Y-51762877D01*
X86862135Y-51761672D01*
X86854452Y-51760001D01*
X85477331Y-51760001D01*
X85470510Y-51760371D01*
X85419648Y-51765895D01*
X85404396Y-51769521D01*
X85283946Y-51814676D01*
X85268351Y-51823214D01*
X85166276Y-51899715D01*
X85153715Y-51912276D01*
X85077214Y-52014351D01*
X85068676Y-52029946D01*
X85023522Y-52150394D01*
X85019895Y-52165649D01*
X85014369Y-52216514D01*
X85014000Y-52223328D01*
X85014000Y-52495885D01*
X82429999Y-52495885D01*
X82429999Y-52223331D01*
X82429629Y-52216510D01*
X82424105Y-52165648D01*
X82420479Y-52150396D01*
X82375324Y-52029946D01*
X82366786Y-52014351D01*
X82290285Y-51912276D01*
X82277724Y-51899715D01*
X82175649Y-51823214D01*
X82160054Y-51814676D01*
X82039606Y-51769522D01*
X82024351Y-51765895D01*
X81973486Y-51760369D01*
X81966672Y-51760000D01*
X80594115Y-51760000D01*
X80578876Y-51764475D01*
X80577671Y-51765865D01*
X80576000Y-51773548D01*
X80576000Y-52495885D01*
X80068000Y-52495885D01*
X80068000Y-51778116D01*
X80063525Y-51762877D01*
X80062135Y-51761672D01*
X80054452Y-51760001D01*
X78677331Y-51760001D01*
X78670510Y-51760371D01*
X78619648Y-51765895D01*
X78604396Y-51769521D01*
X78483946Y-51814676D01*
X78468351Y-51823214D01*
X78366276Y-51899715D01*
X78353715Y-51912276D01*
X78277214Y-52014351D01*
X78268676Y-52029946D01*
X78223522Y-52150394D01*
X78219895Y-52165649D01*
X78214369Y-52216514D01*
X78214000Y-52223328D01*
X78214000Y-52495885D01*
X68056000Y-52495885D01*
X68056000Y-42812885D01*
X108592000Y-42812885D01*
X108596475Y-42828124D01*
X108597865Y-42829329D01*
X108605548Y-42831000D01*
X109677885Y-42831000D01*
X109693124Y-42826525D01*
X109694329Y-42825135D01*
X109696000Y-42817452D01*
X109696000Y-41745116D01*
X109691525Y-41729877D01*
X109690135Y-41728672D01*
X109682452Y-41727001D01*
X109055331Y-41727001D01*
X109048510Y-41727371D01*
X108997648Y-41732895D01*
X108982396Y-41736521D01*
X108861946Y-41781676D01*
X108846351Y-41790214D01*
X108744276Y-41866715D01*
X108731715Y-41879276D01*
X108655214Y-41981351D01*
X108646676Y-41996946D01*
X108601522Y-42117394D01*
X108597895Y-42132649D01*
X108592369Y-42183514D01*
X108592000Y-42190328D01*
X108592000Y-42812885D01*
X68056000Y-42812885D01*
X68056000Y-37094502D01*
X70070880Y-37094502D01*
X70082002Y-37377584D01*
X70132900Y-37656275D01*
X70134309Y-37660498D01*
X70203340Y-37867409D01*
X70222558Y-37925014D01*
X70349187Y-38178439D01*
X70510261Y-38411493D01*
X70702565Y-38619527D01*
X70706019Y-38622339D01*
X70918807Y-38795575D01*
X70918811Y-38795578D01*
X70922264Y-38798389D01*
X71164972Y-38944512D01*
X71169067Y-38946246D01*
X71169069Y-38946247D01*
X71421747Y-39053242D01*
X71421754Y-39053244D01*
X71425848Y-39054978D01*
X71525992Y-39081531D01*
X71695389Y-39126446D01*
X71695393Y-39126447D01*
X71699686Y-39127585D01*
X71704095Y-39128107D01*
X71704101Y-39128108D01*
X71861453Y-39146732D01*
X71981023Y-39160884D01*
X72264245Y-39154209D01*
X72268643Y-39153477D01*
X72539310Y-39108426D01*
X72539314Y-39108425D01*
X72543700Y-39107695D01*
X72547941Y-39106354D01*
X72547944Y-39106353D01*
X72809568Y-39023612D01*
X72809570Y-39023611D01*
X72813814Y-39022269D01*
X72817825Y-39020343D01*
X72817830Y-39020341D01*
X73065178Y-38901566D01*
X73065179Y-38901565D01*
X73069197Y-38899636D01*
X73129946Y-38859045D01*
X73301045Y-38744721D01*
X73301049Y-38744718D01*
X73304753Y-38742243D01*
X73515781Y-38553230D01*
X73698073Y-38336368D01*
X73847989Y-38095985D01*
X73962540Y-37836876D01*
X74039439Y-37564212D01*
X74055063Y-37447890D01*
X74076725Y-37286615D01*
X74076726Y-37286607D01*
X74077152Y-37283433D01*
X74079635Y-37204436D01*
X74081009Y-37160722D01*
X74081009Y-37160717D01*
X74081110Y-37157500D01*
X74061101Y-36874907D01*
X74047704Y-36812677D01*
X74002411Y-36602300D01*
X74002411Y-36602298D01*
X74001475Y-36597953D01*
X73903420Y-36332163D01*
X73896342Y-36319045D01*
X73771006Y-36086756D01*
X73768893Y-36082840D01*
X73600578Y-35854960D01*
X73554054Y-35807699D01*
X73433471Y-35685208D01*
X73401834Y-35653070D01*
X73398294Y-35650369D01*
X73398288Y-35650363D01*
X73180167Y-35483898D01*
X73180163Y-35483895D01*
X73176626Y-35481196D01*
X73046651Y-35408407D01*
X72933337Y-35344948D01*
X72933332Y-35344945D01*
X72929447Y-35342770D01*
X72925289Y-35341162D01*
X72925284Y-35341159D01*
X72669385Y-35242159D01*
X72669379Y-35242157D01*
X72665230Y-35240552D01*
X72660898Y-35239548D01*
X72660895Y-35239547D01*
X72556040Y-35215243D01*
X72389247Y-35176582D01*
X72107003Y-35152137D01*
X72102568Y-35152381D01*
X72102564Y-35152381D01*
X71828573Y-35167460D01*
X71828566Y-35167461D01*
X71824130Y-35167705D01*
X71700478Y-35192301D01*
X71550646Y-35222104D01*
X71550641Y-35222105D01*
X71546274Y-35222974D01*
X71542071Y-35224450D01*
X71283184Y-35315364D01*
X71283181Y-35315365D01*
X71278976Y-35316842D01*
X71275023Y-35318895D01*
X71275017Y-35318898D01*
X71174475Y-35371126D01*
X71027572Y-35447436D01*
X71023957Y-35450019D01*
X71023951Y-35450023D01*
X70976548Y-35483898D01*
X70797076Y-35612151D01*
X70793849Y-35615229D01*
X70793847Y-35615231D01*
X70642286Y-35759813D01*
X70592088Y-35807699D01*
X70416699Y-36030180D01*
X70386112Y-36082840D01*
X70276641Y-36271307D01*
X70276638Y-36271313D01*
X70274407Y-36275154D01*
X70168052Y-36537732D01*
X70166981Y-36542045D01*
X70166979Y-36542050D01*
X70133295Y-36677654D01*
X70099755Y-36812677D01*
X70099301Y-36817105D01*
X70099301Y-36817107D01*
X70076733Y-37037376D01*
X70070880Y-37094502D01*
X68056000Y-37094502D01*
X68056000Y-35099226D01*
X74471188Y-35099226D01*
X74471363Y-35103677D01*
X74479681Y-35315364D01*
X74481477Y-35361082D01*
X74528558Y-35618876D01*
X74529967Y-35623099D01*
X74590529Y-35804624D01*
X74611494Y-35867465D01*
X74613487Y-35871453D01*
X74719111Y-36082840D01*
X74728628Y-36101887D01*
X74877624Y-36317467D01*
X75055510Y-36509902D01*
X75058964Y-36512714D01*
X75255278Y-36672539D01*
X75255282Y-36672542D01*
X75258735Y-36675353D01*
X75483245Y-36810519D01*
X75596045Y-36858284D01*
X75720462Y-36910968D01*
X75720466Y-36910969D01*
X75724560Y-36912703D01*
X75728852Y-36913841D01*
X75728855Y-36913842D01*
X75977351Y-36979730D01*
X76038070Y-37016523D01*
X76069258Y-37080303D01*
X76070961Y-37096575D01*
X76078303Y-37283433D01*
X76082002Y-37377584D01*
X76132900Y-37656275D01*
X76134309Y-37660498D01*
X76203340Y-37867409D01*
X76222558Y-37925014D01*
X76349187Y-38178439D01*
X76510261Y-38411493D01*
X76702565Y-38619527D01*
X76706019Y-38622339D01*
X76918807Y-38795575D01*
X76918811Y-38795578D01*
X76922264Y-38798389D01*
X77164972Y-38944512D01*
X77169067Y-38946246D01*
X77169069Y-38946247D01*
X77421747Y-39053242D01*
X77421754Y-39053244D01*
X77425848Y-39054978D01*
X77525992Y-39081531D01*
X77695389Y-39126446D01*
X77695393Y-39126447D01*
X77699686Y-39127585D01*
X77704095Y-39128107D01*
X77704101Y-39128108D01*
X77861453Y-39146732D01*
X77981023Y-39160884D01*
X78264245Y-39154209D01*
X78268643Y-39153477D01*
X78539310Y-39108426D01*
X78539314Y-39108425D01*
X78543700Y-39107695D01*
X78547941Y-39106354D01*
X78547944Y-39106353D01*
X78809568Y-39023612D01*
X78809570Y-39023611D01*
X78813814Y-39022269D01*
X78817825Y-39020343D01*
X78817830Y-39020341D01*
X79065178Y-38901566D01*
X79065179Y-38901565D01*
X79069197Y-38899636D01*
X79129946Y-38859045D01*
X79301045Y-38744721D01*
X79301049Y-38744718D01*
X79304753Y-38742243D01*
X79515781Y-38553230D01*
X79698073Y-38336368D01*
X79847989Y-38095985D01*
X79962540Y-37836876D01*
X80039439Y-37564212D01*
X80055063Y-37447890D01*
X80076725Y-37286615D01*
X80076726Y-37286607D01*
X80077152Y-37283433D01*
X80079635Y-37204436D01*
X80081009Y-37160722D01*
X80081009Y-37160717D01*
X80081110Y-37157500D01*
X80061101Y-36874907D01*
X80047704Y-36812677D01*
X80002411Y-36602300D01*
X80002411Y-36602298D01*
X80001475Y-36597953D01*
X79903420Y-36332163D01*
X79896342Y-36319045D01*
X79771006Y-36086756D01*
X79768893Y-36082840D01*
X79600578Y-35854960D01*
X79554054Y-35807699D01*
X79433471Y-35685208D01*
X79401834Y-35653070D01*
X79398294Y-35650369D01*
X79398288Y-35650363D01*
X79180167Y-35483898D01*
X79180163Y-35483895D01*
X79176626Y-35481196D01*
X79046651Y-35408407D01*
X78933337Y-35344948D01*
X78933332Y-35344945D01*
X78929447Y-35342770D01*
X78925289Y-35341162D01*
X78925284Y-35341159D01*
X78669385Y-35242159D01*
X78669379Y-35242157D01*
X78665230Y-35240552D01*
X78660898Y-35239548D01*
X78660895Y-35239547D01*
X78556040Y-35215243D01*
X78389247Y-35176582D01*
X78288013Y-35167814D01*
X78221872Y-35142009D01*
X78180182Y-35084541D01*
X78173200Y-35051183D01*
X78162534Y-34900545D01*
X78162219Y-34896096D01*
X78107063Y-34639908D01*
X78095668Y-34609019D01*
X78017901Y-34398224D01*
X78016360Y-34394047D01*
X77891920Y-34163420D01*
X77858783Y-34118555D01*
X77738870Y-33956206D01*
X77736226Y-33952626D01*
X77552384Y-33765874D01*
X77483836Y-33713560D01*
X77347607Y-33609593D01*
X77347603Y-33609590D01*
X77344062Y-33606888D01*
X77115417Y-33478840D01*
X77111268Y-33477235D01*
X77111264Y-33477233D01*
X76963696Y-33420144D01*
X76871012Y-33384287D01*
X76866691Y-33383285D01*
X76866683Y-33383283D01*
X76698569Y-33344317D01*
X76615721Y-33325114D01*
X76354641Y-33302502D01*
X76350206Y-33302746D01*
X76350202Y-33302746D01*
X76097421Y-33316657D01*
X76097414Y-33316658D01*
X76092978Y-33316902D01*
X75835956Y-33368027D01*
X75831746Y-33369505D01*
X75831744Y-33369506D01*
X75686997Y-33420338D01*
X75588701Y-33454857D01*
X75584750Y-33456910D01*
X75584744Y-33456912D01*
X75474409Y-33514227D01*
X75356147Y-33575659D01*
X75352532Y-33578242D01*
X75352526Y-33578246D01*
X75146555Y-33725435D01*
X75146551Y-33725438D01*
X75142934Y-33728023D01*
X74953316Y-33908909D01*
X74950560Y-33912405D01*
X74795583Y-34108994D01*
X74791078Y-34114708D01*
X74788846Y-34118550D01*
X74788843Y-34118555D01*
X74673961Y-34316339D01*
X74659455Y-34341313D01*
X74657790Y-34345425D01*
X74657787Y-34345430D01*
X74567836Y-34567509D01*
X74561074Y-34584203D01*
X74497899Y-34838532D01*
X74471188Y-35099226D01*
X68056000Y-35099226D01*
X68056000Y-31099226D01*
X74471188Y-31099226D01*
X74473267Y-31152127D01*
X74478187Y-31277340D01*
X74481477Y-31361082D01*
X74528558Y-31618876D01*
X74611494Y-31867465D01*
X74660650Y-31965842D01*
X74690518Y-32025616D01*
X74728628Y-32101887D01*
X74731157Y-32105546D01*
X74860793Y-32293114D01*
X74877624Y-32317467D01*
X74983730Y-32432251D01*
X75047005Y-32500701D01*
X75055510Y-32509902D01*
X75058964Y-32512714D01*
X75255278Y-32672539D01*
X75255282Y-32672542D01*
X75258735Y-32675353D01*
X75483245Y-32810519D01*
X75571471Y-32847878D01*
X75720462Y-32910968D01*
X75720466Y-32910969D01*
X75724560Y-32912703D01*
X75728852Y-32913841D01*
X75728855Y-32913842D01*
X75829625Y-32940561D01*
X75977865Y-32979866D01*
X75982289Y-32980390D01*
X75982291Y-32980390D01*
X76090593Y-32993208D01*
X76238107Y-33010667D01*
X76500092Y-33004493D01*
X76504486Y-33003762D01*
X76504493Y-33003761D01*
X76754192Y-32962200D01*
X76754196Y-32962199D01*
X76758594Y-32961467D01*
X76992870Y-32887375D01*
X77004209Y-32883789D01*
X77004211Y-32883788D01*
X77008455Y-32882446D01*
X77012466Y-32880520D01*
X77012471Y-32880518D01*
X77240669Y-32770939D01*
X77240670Y-32770938D01*
X77244688Y-32769009D01*
X77431218Y-32644374D01*
X77458880Y-32625891D01*
X77458884Y-32625888D01*
X77462582Y-32623417D01*
X77657787Y-32448576D01*
X77669849Y-32434227D01*
X77823543Y-32251386D01*
X77823545Y-32251384D01*
X77826410Y-32247975D01*
X77965086Y-32025616D01*
X78033241Y-31871453D01*
X78069249Y-31790003D01*
X78071047Y-31785936D01*
X78142181Y-31533716D01*
X78159054Y-31408093D01*
X78176639Y-31277173D01*
X78176640Y-31277165D01*
X78177066Y-31273991D01*
X78177167Y-31270780D01*
X78180626Y-31160722D01*
X78180626Y-31160717D01*
X78180727Y-31157500D01*
X78162219Y-30896096D01*
X78107063Y-30639908D01*
X78095668Y-30609019D01*
X78017901Y-30398224D01*
X78016360Y-30394047D01*
X77891920Y-30163420D01*
X77858783Y-30118555D01*
X77738870Y-29956206D01*
X77736226Y-29952626D01*
X77552384Y-29765874D01*
X77421472Y-29665965D01*
X77347607Y-29609593D01*
X77347603Y-29609590D01*
X77344062Y-29606888D01*
X77115417Y-29478840D01*
X77111268Y-29477235D01*
X77111264Y-29477233D01*
X76945220Y-29412996D01*
X76871012Y-29384287D01*
X76866691Y-29383285D01*
X76866683Y-29383283D01*
X76664848Y-29336501D01*
X76615721Y-29325114D01*
X76354641Y-29302502D01*
X76350206Y-29302746D01*
X76350202Y-29302746D01*
X76097421Y-29316657D01*
X76097414Y-29316658D01*
X76092978Y-29316902D01*
X75835956Y-29368027D01*
X75831746Y-29369505D01*
X75831744Y-29369506D01*
X75707903Y-29412996D01*
X75588701Y-29454857D01*
X75584750Y-29456910D01*
X75584744Y-29456912D01*
X75457394Y-29523066D01*
X75356147Y-29575659D01*
X75352532Y-29578242D01*
X75352526Y-29578246D01*
X75146555Y-29725435D01*
X75146551Y-29725438D01*
X75142934Y-29728023D01*
X75103256Y-29765874D01*
X74958414Y-29904046D01*
X74953316Y-29908909D01*
X74950560Y-29912405D01*
X74847851Y-30042692D01*
X74791078Y-30114708D01*
X74788846Y-30118550D01*
X74788843Y-30118555D01*
X74716171Y-30243669D01*
X74659455Y-30341313D01*
X74657790Y-30345425D01*
X74657787Y-30345430D01*
X74568839Y-30565033D01*
X74561074Y-30584203D01*
X74497899Y-30838532D01*
X74471188Y-31099226D01*
X68056000Y-31099226D01*
X68056000Y-25094502D01*
X70070880Y-25094502D01*
X70071055Y-25098954D01*
X70081685Y-25369506D01*
X70082002Y-25377584D01*
X70132900Y-25656275D01*
X70222558Y-25925014D01*
X70224550Y-25929001D01*
X70224551Y-25929003D01*
X70321020Y-26122067D01*
X70349187Y-26178439D01*
X70510261Y-26411493D01*
X70513283Y-26414762D01*
X70692852Y-26609019D01*
X70702565Y-26619527D01*
X70706019Y-26622339D01*
X70918807Y-26795575D01*
X70918811Y-26795578D01*
X70922264Y-26798389D01*
X71164972Y-26944512D01*
X71169067Y-26946246D01*
X71169069Y-26946247D01*
X71421747Y-27053242D01*
X71421754Y-27053244D01*
X71425848Y-27054978D01*
X71525992Y-27081531D01*
X71695389Y-27126446D01*
X71695393Y-27126447D01*
X71699686Y-27127585D01*
X71704095Y-27128107D01*
X71704101Y-27128108D01*
X71861453Y-27146732D01*
X71981023Y-27160884D01*
X72264245Y-27154209D01*
X72282395Y-27151188D01*
X72539310Y-27108426D01*
X72539314Y-27108425D01*
X72543700Y-27107695D01*
X72547941Y-27106354D01*
X72547944Y-27106353D01*
X72570479Y-27099226D01*
X74471188Y-27099226D01*
X74471814Y-27115157D01*
X74478187Y-27277340D01*
X74481477Y-27361082D01*
X74528558Y-27618876D01*
X74611494Y-27867465D01*
X74660650Y-27965842D01*
X74690518Y-28025616D01*
X74728628Y-28101887D01*
X74731157Y-28105546D01*
X74854673Y-28284259D01*
X74877624Y-28317467D01*
X74937928Y-28382703D01*
X75051627Y-28505701D01*
X75055510Y-28509902D01*
X75058964Y-28512714D01*
X75255278Y-28672539D01*
X75255282Y-28672542D01*
X75258735Y-28675353D01*
X75262557Y-28677654D01*
X75411884Y-28767556D01*
X75483245Y-28810519D01*
X75596045Y-28858284D01*
X75720462Y-28910968D01*
X75720466Y-28910969D01*
X75724560Y-28912703D01*
X75728852Y-28913841D01*
X75728855Y-28913842D01*
X75829625Y-28940561D01*
X75977865Y-28979866D01*
X75982289Y-28980390D01*
X75982291Y-28980390D01*
X76133072Y-28998236D01*
X76238107Y-29010667D01*
X76500092Y-29004493D01*
X76504486Y-29003762D01*
X76504493Y-29003761D01*
X76754192Y-28962200D01*
X76754196Y-28962199D01*
X76758594Y-28961467D01*
X76922561Y-28909611D01*
X77004209Y-28883789D01*
X77004211Y-28883788D01*
X77008455Y-28882446D01*
X77012466Y-28880520D01*
X77012471Y-28880518D01*
X77240669Y-28770939D01*
X77240670Y-28770938D01*
X77244688Y-28769009D01*
X77401241Y-28664404D01*
X77458880Y-28625891D01*
X77458884Y-28625888D01*
X77462582Y-28623417D01*
X77657787Y-28448576D01*
X77662676Y-28442760D01*
X77823543Y-28251386D01*
X77823545Y-28251384D01*
X77826410Y-28247975D01*
X77965086Y-28025616D01*
X78033241Y-27871453D01*
X78069249Y-27790003D01*
X78071047Y-27785936D01*
X78142181Y-27533716D01*
X78159054Y-27408093D01*
X78176639Y-27277173D01*
X78176640Y-27277165D01*
X78177066Y-27273991D01*
X78177167Y-27270782D01*
X78177432Y-27267572D01*
X78178409Y-27267653D01*
X78199286Y-27204047D01*
X78254382Y-27159270D01*
X78282395Y-27151188D01*
X78450366Y-27123230D01*
X78543700Y-27107695D01*
X78547941Y-27106354D01*
X78547944Y-27106353D01*
X78809568Y-27023612D01*
X78809570Y-27023611D01*
X78813814Y-27022269D01*
X78817825Y-27020343D01*
X78817830Y-27020341D01*
X79065178Y-26901566D01*
X79065179Y-26901565D01*
X79069197Y-26899636D01*
X79204594Y-26809167D01*
X79301045Y-26744721D01*
X79301049Y-26744718D01*
X79304753Y-26742243D01*
X79515781Y-26553230D01*
X79698073Y-26336368D01*
X79706546Y-26322783D01*
X79813311Y-26151589D01*
X79847989Y-26095985D01*
X79962540Y-25836876D01*
X80039439Y-25564212D01*
X80063496Y-25385105D01*
X80076725Y-25286615D01*
X80076726Y-25286607D01*
X80077152Y-25283433D01*
X80078303Y-25246821D01*
X80081009Y-25160722D01*
X80081009Y-25160717D01*
X80081110Y-25157500D01*
X80061101Y-24874907D01*
X80055907Y-24850779D01*
X80002411Y-24602300D01*
X80002411Y-24602298D01*
X80001475Y-24597953D01*
X79903420Y-24332163D01*
X79828088Y-24192547D01*
X79771006Y-24086756D01*
X79768893Y-24082840D01*
X79600578Y-23854960D01*
X79595940Y-23850248D01*
X79429221Y-23680891D01*
X79401834Y-23653070D01*
X79398294Y-23650369D01*
X79398288Y-23650363D01*
X79180167Y-23483898D01*
X79180163Y-23483895D01*
X79176626Y-23481196D01*
X79112679Y-23445384D01*
X78933337Y-23344948D01*
X78933332Y-23344945D01*
X78929447Y-23342770D01*
X78925289Y-23341162D01*
X78925284Y-23341159D01*
X78669385Y-23242159D01*
X78669379Y-23242157D01*
X78665230Y-23240552D01*
X78660898Y-23239548D01*
X78660895Y-23239547D01*
X78585641Y-23222104D01*
X78389247Y-23176582D01*
X78107003Y-23152137D01*
X78102568Y-23152381D01*
X78102564Y-23152381D01*
X77828573Y-23167460D01*
X77828566Y-23167461D01*
X77824130Y-23167705D01*
X77686243Y-23195132D01*
X77550646Y-23222104D01*
X77550641Y-23222105D01*
X77546274Y-23222974D01*
X77542071Y-23224450D01*
X77283184Y-23315364D01*
X77283181Y-23315365D01*
X77278976Y-23316842D01*
X77275023Y-23318895D01*
X77275017Y-23318898D01*
X77223341Y-23345742D01*
X77027572Y-23447436D01*
X77023957Y-23450019D01*
X77023951Y-23450023D01*
X76949443Y-23503268D01*
X76797076Y-23612151D01*
X76793849Y-23615229D01*
X76793847Y-23615231D01*
X76597008Y-23803006D01*
X76592088Y-23807699D01*
X76416699Y-24030180D01*
X76352663Y-24140427D01*
X76276641Y-24271307D01*
X76276638Y-24271313D01*
X76274407Y-24275154D01*
X76272737Y-24279277D01*
X76206520Y-24442760D01*
X76168052Y-24537732D01*
X76166981Y-24542045D01*
X76166979Y-24542050D01*
X76127981Y-24699045D01*
X76099755Y-24812677D01*
X76099301Y-24817105D01*
X76099301Y-24817107D01*
X76084740Y-24959222D01*
X76070880Y-25094502D01*
X76071055Y-25098954D01*
X76075496Y-25212009D01*
X76058183Y-25280863D01*
X76006394Y-25329426D01*
X75974176Y-25340533D01*
X75835956Y-25368027D01*
X75831746Y-25369505D01*
X75831744Y-25369506D01*
X75720971Y-25408407D01*
X75588701Y-25454857D01*
X75584750Y-25456910D01*
X75584744Y-25456912D01*
X75467815Y-25517652D01*
X75356147Y-25575659D01*
X75352532Y-25578242D01*
X75352526Y-25578246D01*
X75146555Y-25725435D01*
X75146551Y-25725438D01*
X75142934Y-25728023D01*
X74953316Y-25908909D01*
X74950560Y-25912405D01*
X74847851Y-26042692D01*
X74791078Y-26114708D01*
X74788846Y-26118550D01*
X74788843Y-26118555D01*
X74730088Y-26219710D01*
X74659455Y-26341313D01*
X74657790Y-26345425D01*
X74657787Y-26345430D01*
X74574999Y-26549824D01*
X74561074Y-26584203D01*
X74497899Y-26838532D01*
X74471188Y-27099226D01*
X72570479Y-27099226D01*
X72809568Y-27023612D01*
X72809570Y-27023611D01*
X72813814Y-27022269D01*
X72817825Y-27020343D01*
X72817830Y-27020341D01*
X73065178Y-26901566D01*
X73065179Y-26901565D01*
X73069197Y-26899636D01*
X73204594Y-26809167D01*
X73301045Y-26744721D01*
X73301049Y-26744718D01*
X73304753Y-26742243D01*
X73515781Y-26553230D01*
X73698073Y-26336368D01*
X73706546Y-26322783D01*
X73813311Y-26151589D01*
X73847989Y-26095985D01*
X73962540Y-25836876D01*
X74039439Y-25564212D01*
X74063496Y-25385105D01*
X74076725Y-25286615D01*
X74076726Y-25286607D01*
X74077152Y-25283433D01*
X74078303Y-25246821D01*
X74081009Y-25160722D01*
X74081009Y-25160717D01*
X74081110Y-25157500D01*
X74061101Y-24874907D01*
X74055907Y-24850779D01*
X74002411Y-24602300D01*
X74002411Y-24602298D01*
X74001475Y-24597953D01*
X73903420Y-24332163D01*
X73828088Y-24192547D01*
X73771006Y-24086756D01*
X73768893Y-24082840D01*
X73600578Y-23854960D01*
X73595940Y-23850248D01*
X73429221Y-23680891D01*
X73401834Y-23653070D01*
X73398294Y-23650369D01*
X73398288Y-23650363D01*
X73180167Y-23483898D01*
X73180163Y-23483895D01*
X73176626Y-23481196D01*
X73112679Y-23445384D01*
X72933337Y-23344948D01*
X72933332Y-23344945D01*
X72929447Y-23342770D01*
X72925289Y-23341162D01*
X72925284Y-23341159D01*
X72669385Y-23242159D01*
X72669379Y-23242157D01*
X72665230Y-23240552D01*
X72660898Y-23239548D01*
X72660895Y-23239547D01*
X72585641Y-23222104D01*
X72389247Y-23176582D01*
X72107003Y-23152137D01*
X72102568Y-23152381D01*
X72102564Y-23152381D01*
X71828573Y-23167460D01*
X71828566Y-23167461D01*
X71824130Y-23167705D01*
X71686243Y-23195132D01*
X71550646Y-23222104D01*
X71550641Y-23222105D01*
X71546274Y-23222974D01*
X71542071Y-23224450D01*
X71283184Y-23315364D01*
X71283181Y-23315365D01*
X71278976Y-23316842D01*
X71275023Y-23318895D01*
X71275017Y-23318898D01*
X71223341Y-23345742D01*
X71027572Y-23447436D01*
X71023957Y-23450019D01*
X71023951Y-23450023D01*
X70949443Y-23503268D01*
X70797076Y-23612151D01*
X70793849Y-23615229D01*
X70793847Y-23615231D01*
X70597008Y-23803006D01*
X70592088Y-23807699D01*
X70416699Y-24030180D01*
X70352663Y-24140427D01*
X70276641Y-24271307D01*
X70276638Y-24271313D01*
X70274407Y-24275154D01*
X70272737Y-24279277D01*
X70206520Y-24442760D01*
X70168052Y-24537732D01*
X70166981Y-24542045D01*
X70166979Y-24542050D01*
X70127981Y-24699045D01*
X70099755Y-24812677D01*
X70099301Y-24817105D01*
X70099301Y-24817107D01*
X70084740Y-24959222D01*
X70070880Y-25094502D01*
X68056000Y-25094502D01*
X68056000Y-19304000D01*
X79178457Y-19304000D01*
X79198609Y-19611460D01*
X79199413Y-19615500D01*
X79199413Y-19615503D01*
X79230031Y-19769427D01*
X79258720Y-19913659D01*
X79260045Y-19917563D01*
X79260046Y-19917566D01*
X79310433Y-20066000D01*
X79357762Y-20205427D01*
X79359586Y-20209125D01*
X79438598Y-20369345D01*
X79494040Y-20481771D01*
X79665222Y-20737964D01*
X79667936Y-20741058D01*
X79667940Y-20741064D01*
X79678036Y-20752576D01*
X79868380Y-20969620D01*
X79871469Y-20972329D01*
X80096936Y-21170060D01*
X80096942Y-21170064D01*
X80100036Y-21172778D01*
X80356229Y-21343960D01*
X80359928Y-21345784D01*
X80359933Y-21345787D01*
X80425036Y-21377892D01*
X80632573Y-21480238D01*
X80636478Y-21481564D01*
X80636479Y-21481564D01*
X80920434Y-21577954D01*
X80920437Y-21577955D01*
X80924341Y-21579280D01*
X80928380Y-21580083D01*
X80928386Y-21580085D01*
X81222497Y-21638587D01*
X81222500Y-21638587D01*
X81226540Y-21639391D01*
X81230651Y-21639660D01*
X81230655Y-21639661D01*
X81455010Y-21654366D01*
X81455019Y-21654366D01*
X81457059Y-21654500D01*
X81610941Y-21654500D01*
X81612981Y-21654366D01*
X81612990Y-21654366D01*
X81837345Y-21639661D01*
X81837349Y-21639660D01*
X81841460Y-21639391D01*
X81845500Y-21638587D01*
X81845503Y-21638587D01*
X82139614Y-21580085D01*
X82139620Y-21580083D01*
X82143659Y-21579280D01*
X82147563Y-21577955D01*
X82147566Y-21577954D01*
X82431521Y-21481564D01*
X82431522Y-21481564D01*
X82435427Y-21480238D01*
X82642964Y-21377892D01*
X82708067Y-21345787D01*
X82708072Y-21345784D01*
X82711771Y-21343960D01*
X82967964Y-21172778D01*
X82971058Y-21170064D01*
X82971064Y-21170060D01*
X83196531Y-20972329D01*
X83199620Y-20969620D01*
X83389964Y-20752576D01*
X83400060Y-20741064D01*
X83400064Y-20741058D01*
X83402778Y-20737964D01*
X83441799Y-20679566D01*
X83571666Y-20485205D01*
X83571667Y-20485204D01*
X83573960Y-20481772D01*
X83608924Y-20410873D01*
X83645763Y-20336171D01*
X83710238Y-20205427D01*
X83757567Y-20066000D01*
X83807954Y-19917566D01*
X83807955Y-19917563D01*
X83809280Y-19913659D01*
X83837970Y-19769427D01*
X83868587Y-19615503D01*
X83868587Y-19615500D01*
X83869391Y-19611460D01*
X83889543Y-19304000D01*
X83881448Y-19180500D01*
X83869661Y-19000655D01*
X83869660Y-19000651D01*
X83869391Y-18996540D01*
X83848847Y-18893259D01*
X83810085Y-18698386D01*
X83810083Y-18698380D01*
X83809280Y-18694341D01*
X83759891Y-18548844D01*
X83711564Y-18406479D01*
X83711564Y-18406478D01*
X83710238Y-18402573D01*
X83645828Y-18271962D01*
X83575787Y-18129933D01*
X83575784Y-18129928D01*
X83573960Y-18126229D01*
X83402778Y-17870036D01*
X83400064Y-17866942D01*
X83400060Y-17866936D01*
X83202329Y-17641469D01*
X83199620Y-17638380D01*
X83196531Y-17635671D01*
X82971064Y-17437940D01*
X82971058Y-17437936D01*
X82967964Y-17435222D01*
X82711771Y-17264040D01*
X82708072Y-17262216D01*
X82708067Y-17262213D01*
X82566038Y-17192172D01*
X82435427Y-17127762D01*
X82431521Y-17126436D01*
X82147566Y-17030046D01*
X82147563Y-17030045D01*
X82143659Y-17028720D01*
X82139620Y-17027917D01*
X82139614Y-17027915D01*
X81845503Y-16969413D01*
X81845500Y-16969413D01*
X81841460Y-16968609D01*
X81837349Y-16968340D01*
X81837345Y-16968339D01*
X81612990Y-16953634D01*
X81612981Y-16953634D01*
X81610941Y-16953500D01*
X81457059Y-16953500D01*
X81455019Y-16953634D01*
X81455010Y-16953634D01*
X81230655Y-16968339D01*
X81230651Y-16968340D01*
X81226540Y-16968609D01*
X81222500Y-16969413D01*
X81222497Y-16969413D01*
X80928386Y-17027915D01*
X80928380Y-17027917D01*
X80924341Y-17028720D01*
X80920437Y-17030045D01*
X80920434Y-17030046D01*
X80636479Y-17126436D01*
X80632573Y-17127762D01*
X80501962Y-17192172D01*
X80359933Y-17262213D01*
X80359928Y-17262216D01*
X80356229Y-17264040D01*
X80100036Y-17435222D01*
X80096942Y-17437936D01*
X80096936Y-17437940D01*
X79871469Y-17635671D01*
X79868380Y-17638380D01*
X79865671Y-17641469D01*
X79667940Y-17866936D01*
X79667936Y-17866942D01*
X79665222Y-17870036D01*
X79662933Y-17873462D01*
X79662929Y-17873467D01*
X79624093Y-17931590D01*
X79494040Y-18126228D01*
X79492216Y-18129927D01*
X79492213Y-18129932D01*
X79457689Y-18199940D01*
X79357762Y-18402573D01*
X79356436Y-18406478D01*
X79356436Y-18406479D01*
X79308110Y-18548844D01*
X79258720Y-18694341D01*
X79257917Y-18698380D01*
X79257915Y-18698386D01*
X79219153Y-18893259D01*
X79198609Y-18996540D01*
X79198340Y-19000651D01*
X79198339Y-19000655D01*
X79186552Y-19180500D01*
X79178457Y-19304000D01*
X68056000Y-19304000D01*
X68056000Y-15731000D01*
X68076002Y-15662879D01*
X68129658Y-15616386D01*
X68182000Y-15605000D01*
X165371000Y-15605000D01*
X165439121Y-15625002D01*
G37*
%TD.AperFunction*%
%TD*%
M02*
