%TF.GenerationSoftware,KiCad,Pcbnew,6.0.2+dfsg-1*%
%TF.CreationDate,2023-02-12T20:47:08+01:00*%
%TF.ProjectId,picopico,7069636f-7069-4636-9f2e-6b696361645f,rev?*%
%TF.SameCoordinates,Original*%
%TF.FileFunction,Soldermask,Bot*%
%TF.FilePolarity,Negative*%
%FSLAX46Y46*%
G04 Gerber Fmt 4.6, Leading zero omitted, Abs format (unit mm)*
G04 Created by KiCad (PCBNEW 6.0.2+dfsg-1) date 2023-02-12 20:47:08*
%MOMM*%
%LPD*%
G01*
G04 APERTURE LIST*
%ADD10C,2.700000*%
%ADD11C,2.000000*%
%ADD12C,1.700000*%
%ADD13C,1.500000*%
%ADD14R,1.700000X1.700000*%
%ADD15O,1.700000X1.700000*%
%ADD16C,1.524000*%
%ADD17R,1.000000X1.000000*%
G04 APERTURE END LIST*
D10*
%TO.C,H5*%
X81788000Y-91186000D03*
%TD*%
%TO.C,H2*%
X81534000Y-19304000D03*
%TD*%
%TO.C,H3*%
X150622000Y-20066000D03*
%TD*%
%TO.C,H1*%
X153924000Y-91440000D03*
%TD*%
D11*
%TO.C,SW1*%
X72075500Y-37157500D03*
X78075500Y-25157500D03*
X72075500Y-25157500D03*
X78075500Y-37157500D03*
D12*
X76325500Y-27157500D03*
X76325500Y-31157500D03*
X76325500Y-35157500D03*
%TD*%
D13*
%TO.C,U2*%
X163155000Y-33956000D03*
X163155000Y-23956000D03*
D12*
X153155000Y-24956000D03*
X153155000Y-28956000D03*
X153155000Y-32956000D03*
%TD*%
D14*
%TO.C,J2*%
X108034200Y-20291200D03*
D15*
X110574200Y-20291200D03*
X113114200Y-20291200D03*
X115654200Y-20291200D03*
X118194200Y-20291200D03*
X120734200Y-20291200D03*
X123274200Y-20291200D03*
X125814200Y-20291200D03*
%TD*%
D12*
%TO.C,J1*%
X147828000Y-34036000D03*
D15*
X147828000Y-36576000D03*
X147828000Y-39116000D03*
X147828000Y-41656000D03*
X147828000Y-44196000D03*
D14*
X147828000Y-46736000D03*
D15*
X147828000Y-49276000D03*
D16*
X162843000Y-37916000D03*
X162773000Y-42926000D03*
%TD*%
D17*
%TO.C,TP4*%
X86615500Y-31093000D03*
%TD*%
D15*
%TO.C,U1*%
X132810000Y-43085000D03*
X132810000Y-45720000D03*
X132810000Y-48260000D03*
X132810000Y-50800000D03*
X132810000Y-53340000D03*
X132810000Y-55880000D03*
X132810000Y-58420000D03*
X132810000Y-60960000D03*
X132810000Y-63500000D03*
X132810000Y-66040000D03*
X132810000Y-68580000D03*
X132810000Y-71120000D03*
X132810000Y-73660000D03*
X132810000Y-76200000D03*
D14*
X132810000Y-78740000D03*
D15*
X132810000Y-81280000D03*
D14*
X132810000Y-83725000D03*
D15*
X109950000Y-83725000D03*
X109950000Y-81185000D03*
X109950000Y-78645000D03*
D14*
X109950000Y-76105000D03*
D15*
X109950000Y-73565000D03*
X109950000Y-71025000D03*
X109950000Y-68485000D03*
X109950000Y-65945000D03*
X109950000Y-63405000D03*
X109950000Y-60865000D03*
X109950000Y-58325000D03*
X109950000Y-55785000D03*
X109950000Y-53245000D03*
X109950000Y-50705000D03*
X109950000Y-48165000D03*
D12*
X109950000Y-45625000D03*
D14*
X109950000Y-43085000D03*
%TD*%
D17*
%TO.C,TP3*%
X86615500Y-26013000D03*
%TD*%
M02*
