%TF.GenerationSoftware,KiCad,Pcbnew,6.0.2+dfsg-1*%
%TF.CreationDate,2023-04-19T23:44:20+02:00*%
%TF.ProjectId,picopico,7069636f-7069-4636-9f2e-6b696361645f,rev?*%
%TF.SameCoordinates,Original*%
%TF.FileFunction,Soldermask,Top*%
%TF.FilePolarity,Negative*%
%FSLAX46Y46*%
G04 Gerber Fmt 4.6, Leading zero omitted, Abs format (unit mm)*
G04 Created by KiCad (PCBNEW 6.0.2+dfsg-1) date 2023-04-19 23:44:20*
%MOMM*%
%LPD*%
G01*
G04 APERTURE LIST*
G04 Aperture macros list*
%AMRoundRect*
0 Rectangle with rounded corners*
0 $1 Rounding radius*
0 $2 $3 $4 $5 $6 $7 $8 $9 X,Y pos of 4 corners*
0 Add a 4 corners polygon primitive as box body*
4,1,4,$2,$3,$4,$5,$6,$7,$8,$9,$2,$3,0*
0 Add four circle primitives for the rounded corners*
1,1,$1+$1,$2,$3*
1,1,$1+$1,$4,$5*
1,1,$1+$1,$6,$7*
1,1,$1+$1,$8,$9*
0 Add four rect primitives between the rounded corners*
20,1,$1+$1,$2,$3,$4,$5,0*
20,1,$1+$1,$4,$5,$6,$7,0*
20,1,$1+$1,$6,$7,$8,$9,0*
20,1,$1+$1,$8,$9,$2,$3,0*%
%AMRotRect*
0 Rectangle, with rotation*
0 The origin of the aperture is its center*
0 $1 length*
0 $2 width*
0 $3 Rotation angle, in degrees counterclockwise*
0 Add horizontal line*
21,1,$1,$2,0,0,$3*%
G04 Aperture macros list end*
%ADD10RoundRect,0.381000X0.381000X-0.762000X0.381000X0.762000X-0.381000X0.762000X-0.381000X-0.762000X0*%
%ADD11RotRect,2.000000X1.000000X225.000000*%
%ADD12RoundRect,0.250000X0.400000X0.625000X-0.400000X0.625000X-0.400000X-0.625000X0.400000X-0.625000X0*%
%ADD13RoundRect,0.100000X0.100000X-0.130000X0.100000X0.130000X-0.100000X0.130000X-0.100000X-0.130000X0*%
%ADD14C,2.200000*%
%ADD15C,0.800000*%
%ADD16R,0.900000X1.700000*%
%ADD17R,0.800000X1.100000*%
%ADD18RoundRect,0.250000X0.159099X-0.724784X0.724784X-0.159099X-0.159099X0.724784X-0.724784X0.159099X0*%
%ADD19RoundRect,0.250000X-0.400000X-0.625000X0.400000X-0.625000X0.400000X0.625000X-0.400000X0.625000X0*%
%ADD20R,0.400000X5.000000*%
%ADD21RotRect,2.000000X1.000000X45.000000*%
%ADD22R,1.000000X2.000000*%
%ADD23RotRect,2.000000X1.000000X135.000000*%
%ADD24RotRect,2.000000X1.000000X315.000000*%
%ADD25RoundRect,0.250000X-0.724784X-0.159099X-0.159099X-0.724784X0.724784X0.159099X0.159099X0.724784X0*%
%ADD26C,1.800000*%
%ADD27C,1.500000*%
%ADD28C,0.600000*%
%ADD29C,1.700000*%
%ADD30O,1.350000X1.700000*%
%ADD31O,1.100000X1.500000*%
G04 APERTURE END LIST*
D10*
%TO.C,LS1*%
X152802000Y-59685000D03*
X152802000Y-56985000D03*
%TD*%
D11*
%TO.C,SW_B1*%
X92489333Y-44961755D03*
X97297659Y-40153429D03*
X89660906Y-42133328D03*
X94469232Y-37325002D03*
%TD*%
D12*
%TO.C,R5*%
X143562000Y-36127000D03*
X140462000Y-36127000D03*
%TD*%
D13*
%TO.C,R13*%
X116802000Y-37030000D03*
X116802000Y-36390000D03*
%TD*%
D14*
%TO.C,H5*%
X77102000Y-62610000D03*
%TD*%
%TO.C,H2*%
X76708000Y-18288000D03*
%TD*%
D15*
%TO.C,SW7*%
X91079400Y-59978000D03*
D16*
X92779400Y-59978000D03*
X89379400Y-59978000D03*
D17*
X91079400Y-58338000D03*
%TD*%
D18*
%TO.C,R2*%
X76698100Y-39094232D03*
X78890132Y-36902200D03*
%TD*%
D19*
%TO.C,R7*%
X89452000Y-56110000D03*
X92552000Y-56110000D03*
%TD*%
D13*
%TO.C,R15*%
X118602000Y-37030000D03*
X118602000Y-36390000D03*
%TD*%
D20*
%TO.C,J2*%
X114702000Y-29300000D03*
X115202000Y-29300000D03*
X115702000Y-29300000D03*
X116202000Y-29300000D03*
X116702000Y-29300000D03*
X117202000Y-29300000D03*
X117702000Y-29300000D03*
X118202000Y-29300000D03*
X118702000Y-29300000D03*
X119202000Y-29300000D03*
X119702000Y-29300000D03*
X120202000Y-29300000D03*
X120702000Y-29300000D03*
X121202000Y-29300000D03*
%TD*%
D21*
%TO.C,SW_T1*%
X77206973Y-42621203D03*
X82015299Y-37812877D03*
X84843726Y-40641304D03*
X80035400Y-45449630D03*
%TD*%
D14*
%TO.C,H3*%
X138802000Y-18310000D03*
%TD*%
D13*
%TO.C,R16*%
X119402000Y-37030000D03*
X119402000Y-36390000D03*
%TD*%
%TO.C,R17*%
X120202000Y-37030000D03*
X120202000Y-36390000D03*
%TD*%
D22*
%TO.C,SW6*%
X147602000Y-36211000D03*
X147602000Y-43011000D03*
X151602000Y-36211000D03*
X151602000Y-43011000D03*
%TD*%
%TO.C,SW5*%
X139510000Y-39767000D03*
X139510000Y-46567000D03*
X143510000Y-46567000D03*
X143510000Y-39767000D03*
%TD*%
D23*
%TO.C,SW3*%
X88487703Y-51132959D03*
X83679377Y-46324633D03*
X91316130Y-48304532D03*
X86507804Y-43496206D03*
%TD*%
D18*
%TO.C,R3*%
X95494100Y-46079232D03*
X97686132Y-43887200D03*
%TD*%
D24*
%TO.C,SW_L1*%
X85979000Y-31640674D03*
X90787326Y-36449000D03*
X83150573Y-34469101D03*
X87958899Y-39277427D03*
%TD*%
D25*
%TO.C,R4*%
X82540100Y-49094200D03*
X84732132Y-51286232D03*
%TD*%
D14*
%TO.C,H1*%
X153802000Y-63410000D03*
%TD*%
D19*
%TO.C,R8*%
X82215400Y-56110000D03*
X85315400Y-56110000D03*
%TD*%
D25*
%TO.C,R1*%
X89144100Y-30933200D03*
X91336132Y-33125232D03*
%TD*%
D13*
%TO.C,R14*%
X117702000Y-37030000D03*
X117702000Y-36390000D03*
%TD*%
D15*
%TO.C,SW8*%
X83842800Y-59978600D03*
D16*
X85542800Y-59978600D03*
X82142800Y-59978600D03*
D17*
X83842800Y-58338600D03*
%TD*%
D12*
%TO.C,R6*%
X150039000Y-32698000D03*
X146939000Y-32698000D03*
%TD*%
D26*
%TO.C,SW1*%
X75651000Y-32285000D03*
X75651000Y-24085000D03*
D27*
X75651000Y-30185000D03*
X75651000Y-28185000D03*
X75651000Y-26185000D03*
%TD*%
D28*
%TO.C,U1*%
X116598800Y-49160000D03*
X116598800Y-47760000D03*
X116596199Y-50663555D03*
X118098800Y-49160000D03*
X115195245Y-46261572D03*
X115198800Y-49160000D03*
X113698286Y-49163040D03*
X113698286Y-47762087D03*
X118098800Y-47760000D03*
X115198800Y-50660000D03*
X116598800Y-46260000D03*
X115198800Y-47760000D03*
%TD*%
D27*
%TO.C,U2*%
X152233000Y-30908000D03*
X152233000Y-20908000D03*
D29*
X142233000Y-29908000D03*
X142233000Y-25908000D03*
X142233000Y-21908000D03*
%TD*%
D30*
%TO.C,J3*%
X88050000Y-16284000D03*
D31*
X88360000Y-19284000D03*
X93200000Y-19284000D03*
D30*
X93510000Y-16284000D03*
%TD*%
M02*
