%TF.GenerationSoftware,KiCad,Pcbnew,6.0.2+dfsg-1*%
%TF.CreationDate,2023-04-19T23:44:20+02:00*%
%TF.ProjectId,picopico,7069636f-7069-4636-9f2e-6b696361645f,rev?*%
%TF.SameCoordinates,Original*%
%TF.FileFunction,Legend,Top*%
%TF.FilePolarity,Positive*%
%FSLAX46Y46*%
G04 Gerber Fmt 4.6, Leading zero omitted, Abs format (unit mm)*
G04 Created by KiCad (PCBNEW 6.0.2+dfsg-1) date 2023-04-19 23:44:20*
%MOMM*%
%LPD*%
G01*
G04 APERTURE LIST*
G04 Aperture macros list*
%AMRoundRect*
0 Rectangle with rounded corners*
0 $1 Rounding radius*
0 $2 $3 $4 $5 $6 $7 $8 $9 X,Y pos of 4 corners*
0 Add a 4 corners polygon primitive as box body*
4,1,4,$2,$3,$4,$5,$6,$7,$8,$9,$2,$3,0*
0 Add four circle primitives for the rounded corners*
1,1,$1+$1,$2,$3*
1,1,$1+$1,$4,$5*
1,1,$1+$1,$6,$7*
1,1,$1+$1,$8,$9*
0 Add four rect primitives between the rounded corners*
20,1,$1+$1,$2,$3,$4,$5,0*
20,1,$1+$1,$4,$5,$6,$7,0*
20,1,$1+$1,$6,$7,$8,$9,0*
20,1,$1+$1,$8,$9,$2,$3,0*%
%AMRotRect*
0 Rectangle, with rotation*
0 The origin of the aperture is its center*
0 $1 length*
0 $2 width*
0 $3 Rotation angle, in degrees counterclockwise*
0 Add horizontal line*
21,1,$1,$2,0,0,$3*%
G04 Aperture macros list end*
%ADD10C,0.141247*%
%ADD11C,0.150000*%
%ADD12C,0.050000*%
%ADD13C,0.120000*%
%ADD14RoundRect,0.381000X0.381000X-0.762000X0.381000X0.762000X-0.381000X0.762000X-0.381000X-0.762000X0*%
%ADD15RotRect,2.000000X1.000000X225.000000*%
%ADD16RoundRect,0.250000X0.400000X0.625000X-0.400000X0.625000X-0.400000X-0.625000X0.400000X-0.625000X0*%
%ADD17RoundRect,0.100000X0.100000X-0.130000X0.100000X0.130000X-0.100000X0.130000X-0.100000X-0.130000X0*%
%ADD18C,2.200000*%
%ADD19C,0.800000*%
%ADD20R,0.900000X1.700000*%
%ADD21R,0.800000X1.100000*%
%ADD22RoundRect,0.250000X0.159099X-0.724784X0.724784X-0.159099X-0.159099X0.724784X-0.724784X0.159099X0*%
%ADD23RoundRect,0.250000X-0.400000X-0.625000X0.400000X-0.625000X0.400000X0.625000X-0.400000X0.625000X0*%
%ADD24R,0.400000X5.000000*%
%ADD25RotRect,2.000000X1.000000X45.000000*%
%ADD26R,1.000000X2.000000*%
%ADD27RotRect,2.000000X1.000000X135.000000*%
%ADD28RotRect,2.000000X1.000000X315.000000*%
%ADD29RoundRect,0.250000X-0.724784X-0.159099X-0.159099X-0.724784X0.724784X0.159099X0.159099X0.724784X0*%
%ADD30C,1.800000*%
%ADD31C,1.500000*%
%ADD32C,0.600000*%
%ADD33C,1.700000*%
%ADD34O,1.350000X1.700000*%
%ADD35O,1.100000X1.500000*%
G04 APERTURE END LIST*
D10*
X90307009Y-24003623D02*
X90307009Y-24003623D01*
X80643123Y-24512252D02*
X79625873Y-24512252D01*
X81151748Y-22477746D02*
X81151748Y-22477746D01*
X80643123Y-22477746D02*
X80643123Y-22986375D01*
X85729379Y-21969119D02*
X87255255Y-21969119D01*
X93358761Y-22477746D02*
X93358761Y-22986375D01*
X89289757Y-22477746D02*
X88781132Y-22477746D01*
X88272505Y-22477746D02*
X88272505Y-21969119D01*
X92341511Y-24512252D02*
X92341511Y-24512252D01*
X82677625Y-22477746D02*
X82677625Y-22477746D01*
X82169000Y-21969123D02*
X82169000Y-21969123D01*
X88781132Y-24003623D02*
X88781132Y-24003623D01*
X91832884Y-23495000D02*
X91832884Y-23495000D01*
X85220753Y-23494996D02*
X85220753Y-22477746D01*
X93358761Y-23494996D02*
X93358761Y-24003623D01*
X84712127Y-21969119D02*
X84712127Y-21969119D01*
X94884638Y-24512252D02*
X94884638Y-24512252D01*
X93358761Y-22986375D02*
X93358761Y-22986375D01*
X87763882Y-24512252D02*
X87763882Y-24512252D01*
X84712127Y-24003623D02*
X84712127Y-24512252D01*
X87255255Y-22477746D02*
X86238003Y-22477746D01*
X84712127Y-24512252D02*
X84712127Y-24512252D01*
X93358761Y-23494996D02*
X93358761Y-23494996D01*
X94884638Y-21969123D02*
X94884638Y-24512252D01*
X86238003Y-22477746D02*
X86238003Y-24003623D01*
X85220753Y-22477746D02*
X85220753Y-22477746D01*
X94376011Y-23749313D02*
X94376011Y-23494996D01*
X82677625Y-21969119D02*
X82677625Y-21969119D01*
X87255255Y-24003623D02*
X87255255Y-24003623D01*
X83186251Y-24003623D02*
X83186251Y-24003623D01*
X88272505Y-22477746D02*
X88272505Y-22477746D01*
X90815632Y-23495000D02*
X90815632Y-23240688D01*
X82677625Y-24003623D02*
X83186251Y-24003623D01*
X80643123Y-24512252D02*
X80643123Y-24512252D01*
X87763880Y-22477746D02*
X87763880Y-22477746D01*
X90307009Y-21969119D02*
X90307009Y-24003623D01*
X83186251Y-24003623D02*
X83186251Y-22477746D01*
X81151748Y-22732061D02*
X81151748Y-22477746D01*
X79625873Y-24512252D02*
X79625872Y-23495000D01*
X84712127Y-22477746D02*
X84712127Y-22477746D01*
X91832884Y-22986375D02*
X91832884Y-22986375D01*
X81151748Y-22986375D02*
X81151748Y-22732061D01*
X79625872Y-22477748D02*
X80134498Y-22477748D01*
X83186251Y-22477746D02*
X83186251Y-22477746D01*
X80134498Y-22477748D02*
X80134498Y-22477748D01*
X90815632Y-22986375D02*
X91832884Y-22986375D01*
X94376011Y-24003623D02*
X94376011Y-24003623D01*
X94376011Y-22477746D02*
X94376011Y-22477746D01*
X81151748Y-22477746D02*
X80643123Y-22477746D01*
X85220753Y-24512252D02*
X85220753Y-24512252D01*
X93358761Y-24003623D02*
X94376011Y-24003623D01*
X87255255Y-22477746D02*
X87255255Y-22477746D01*
X80643123Y-22986375D02*
X81151748Y-22986375D01*
X80643123Y-23495000D02*
X80643123Y-23495000D01*
X82677625Y-24512252D02*
X82677625Y-24512252D01*
X94376011Y-22986375D02*
X94376011Y-22986375D01*
X86238003Y-22477746D02*
X86238003Y-22477746D01*
X93358761Y-22986375D02*
X94376011Y-22986375D01*
X84712127Y-24003623D02*
X84712127Y-24003623D01*
X85729379Y-22477746D02*
X85729379Y-22477746D01*
X87763880Y-23494996D02*
X87763880Y-22477746D01*
X90307009Y-24003623D02*
X89798384Y-24003623D01*
X92341511Y-22986375D02*
X92850136Y-22986375D01*
X94884638Y-24512252D02*
X92341511Y-24512252D01*
X89798384Y-24003623D02*
X89798384Y-24512252D01*
X82677625Y-24257936D02*
X82677625Y-24003623D01*
X84203501Y-24003623D02*
X84203501Y-24003623D01*
X80643123Y-22477746D02*
X80643123Y-22477746D01*
X84203501Y-22477746D02*
X84203501Y-24003623D01*
X80643123Y-23495000D02*
X80643123Y-24512252D01*
X89798384Y-24512252D02*
X87763882Y-24512252D01*
X79625872Y-23495000D02*
X79625872Y-22477748D01*
X92850136Y-22986375D02*
X92850136Y-21969123D01*
X84712127Y-21969119D02*
X84712127Y-22477746D01*
X80134498Y-22477748D02*
X80134498Y-21969123D01*
X82677625Y-24512252D02*
X82677625Y-24257936D01*
X90815632Y-22986375D02*
X90815632Y-22986375D01*
X80134498Y-21969123D02*
X82169000Y-21969123D01*
X87255255Y-21969119D02*
X87255255Y-22477746D01*
X87763880Y-22477746D02*
X88272505Y-22477746D01*
X88781132Y-22477746D02*
X88781132Y-24003623D01*
X89289757Y-24003623D02*
X89289757Y-22477746D01*
X94884638Y-21969123D02*
X94884638Y-21969123D01*
X94376011Y-23494996D02*
X93358761Y-23494996D01*
X90815632Y-23240688D02*
X90815632Y-22986375D01*
X82169000Y-23495000D02*
X82169000Y-23495000D01*
X87763882Y-24512252D02*
X87763880Y-23494996D01*
X87255255Y-24003623D02*
X87255255Y-24512252D01*
X94376011Y-22986375D02*
X94376011Y-22732061D01*
X88272505Y-21969119D02*
X88272505Y-21969119D01*
X94376011Y-24003623D02*
X94376011Y-23749313D01*
X94376011Y-23494996D02*
X94376011Y-23494996D01*
X82677625Y-21969119D02*
X84712127Y-21969119D01*
X83186251Y-22477746D02*
X82677625Y-22477746D01*
X88781132Y-24003623D02*
X89289757Y-24003623D01*
X82677625Y-24003623D02*
X82677625Y-24003623D01*
X91832884Y-23495000D02*
X90815632Y-23495000D01*
X89798384Y-24512252D02*
X89798384Y-24512252D01*
X84203501Y-22477746D02*
X84203501Y-22477746D01*
X90815632Y-23495000D02*
X90815632Y-23495000D01*
X94376011Y-22732061D02*
X94376011Y-22477746D01*
X92850136Y-22986375D02*
X92850136Y-22986375D01*
X93358761Y-22477746D02*
X93358761Y-22477746D01*
X86238003Y-24003623D02*
X86238003Y-24003623D01*
X84203501Y-24003623D02*
X84712127Y-24003623D01*
X87255255Y-21969119D02*
X87255255Y-21969119D01*
X86238003Y-24003623D02*
X87255255Y-24003623D01*
X79625873Y-24512252D02*
X79625873Y-24512252D01*
X84712127Y-22477746D02*
X84203501Y-22477746D01*
X85220753Y-22477746D02*
X85729379Y-22477746D01*
X80134498Y-21969123D02*
X80134498Y-21969123D01*
X82169000Y-23495000D02*
X80643123Y-23495000D01*
X88272505Y-21969119D02*
X90307009Y-21969119D01*
X91832884Y-22986375D02*
X91832884Y-23495000D01*
X87255255Y-24512252D02*
X85220753Y-24512252D01*
X88781132Y-22477746D02*
X88781132Y-22477746D01*
X79625872Y-22477748D02*
X79625872Y-22477748D01*
X92341511Y-24512252D02*
X92341511Y-23749313D01*
X89798384Y-24003623D02*
X89798384Y-24003623D01*
X85729379Y-21969119D02*
X85729379Y-21969119D01*
X82677625Y-22477746D02*
X82677625Y-21969119D01*
X92850136Y-21969123D02*
X92850136Y-21969123D01*
X82169000Y-21969123D02*
X82169000Y-23495000D01*
X85729379Y-22477746D02*
X85729379Y-21969119D01*
X92341511Y-22986375D02*
X92341511Y-22986375D01*
X89289757Y-24003623D02*
X89289757Y-24003623D01*
X94376011Y-22477746D02*
X93358761Y-22477746D01*
X89289757Y-22477746D02*
X89289757Y-22477746D01*
X90307009Y-21969119D02*
X90307009Y-21969119D01*
X92341511Y-23749313D02*
X92341511Y-22986375D01*
X84712127Y-24512252D02*
X82677625Y-24512252D01*
X92850136Y-21969123D02*
X94884638Y-21969123D01*
X93358761Y-24003623D02*
X93358761Y-24003623D01*
X89289757Y-22477746D02*
X89289757Y-22477746D01*
X81151748Y-22986375D02*
X81151748Y-22986375D01*
X87255255Y-24512252D02*
X87255255Y-24512252D01*
X85220753Y-24512252D02*
X85220753Y-23494996D01*
X80643123Y-22986375D02*
X80643123Y-22986375D01*
D11*
X141545904Y-49507166D02*
X142022095Y-49507166D01*
X141450666Y-49792880D02*
X141784000Y-48792880D01*
X142117333Y-49792880D01*
X89582952Y-62814761D02*
X89725809Y-62862380D01*
X89963904Y-62862380D01*
X90059142Y-62814761D01*
X90106761Y-62767142D01*
X90154380Y-62671904D01*
X90154380Y-62576666D01*
X90106761Y-62481428D01*
X90059142Y-62433809D01*
X89963904Y-62386190D01*
X89773428Y-62338571D01*
X89678190Y-62290952D01*
X89630571Y-62243333D01*
X89582952Y-62148095D01*
X89582952Y-62052857D01*
X89630571Y-61957619D01*
X89678190Y-61910000D01*
X89773428Y-61862380D01*
X90011523Y-61862380D01*
X90154380Y-61910000D01*
X90440095Y-62195714D02*
X90821047Y-62195714D01*
X90582952Y-61862380D02*
X90582952Y-62719523D01*
X90630571Y-62814761D01*
X90725809Y-62862380D01*
X90821047Y-62862380D01*
X91582952Y-62862380D02*
X91582952Y-62338571D01*
X91535333Y-62243333D01*
X91440095Y-62195714D01*
X91249619Y-62195714D01*
X91154380Y-62243333D01*
X91582952Y-62814761D02*
X91487714Y-62862380D01*
X91249619Y-62862380D01*
X91154380Y-62814761D01*
X91106761Y-62719523D01*
X91106761Y-62624285D01*
X91154380Y-62529047D01*
X91249619Y-62481428D01*
X91487714Y-62481428D01*
X91582952Y-62433809D01*
X92059142Y-62862380D02*
X92059142Y-62195714D01*
X92059142Y-62386190D02*
X92106761Y-62290952D01*
X92154380Y-62243333D01*
X92249619Y-62195714D01*
X92344857Y-62195714D01*
X92535333Y-62195714D02*
X92916285Y-62195714D01*
X92678190Y-61862380D02*
X92678190Y-62719523D01*
X92725809Y-62814761D01*
X92821047Y-62862380D01*
X92916285Y-62862380D01*
X149873428Y-45967071D02*
X150016285Y-46014690D01*
X150063904Y-46062309D01*
X150111523Y-46157547D01*
X150111523Y-46300404D01*
X150063904Y-46395642D01*
X150016285Y-46443261D01*
X149921047Y-46490880D01*
X149540095Y-46490880D01*
X149540095Y-45490880D01*
X149873428Y-45490880D01*
X149968666Y-45538500D01*
X150016285Y-45586119D01*
X150063904Y-45681357D01*
X150063904Y-45776595D01*
X150016285Y-45871833D01*
X149968666Y-45919452D01*
X149873428Y-45967071D01*
X149540095Y-45967071D01*
X81882952Y-62914761D02*
X82025809Y-62962380D01*
X82263904Y-62962380D01*
X82359142Y-62914761D01*
X82406761Y-62867142D01*
X82454380Y-62771904D01*
X82454380Y-62676666D01*
X82406761Y-62581428D01*
X82359142Y-62533809D01*
X82263904Y-62486190D01*
X82073428Y-62438571D01*
X81978190Y-62390952D01*
X81930571Y-62343333D01*
X81882952Y-62248095D01*
X81882952Y-62152857D01*
X81930571Y-62057619D01*
X81978190Y-62010000D01*
X82073428Y-61962380D01*
X82311523Y-61962380D01*
X82454380Y-62010000D01*
X83263904Y-62914761D02*
X83168666Y-62962380D01*
X82978190Y-62962380D01*
X82882952Y-62914761D01*
X82835333Y-62819523D01*
X82835333Y-62438571D01*
X82882952Y-62343333D01*
X82978190Y-62295714D01*
X83168666Y-62295714D01*
X83263904Y-62343333D01*
X83311523Y-62438571D01*
X83311523Y-62533809D01*
X82835333Y-62629047D01*
X83882952Y-62962380D02*
X83787714Y-62914761D01*
X83740095Y-62819523D01*
X83740095Y-61962380D01*
X84644857Y-62914761D02*
X84549619Y-62962380D01*
X84359142Y-62962380D01*
X84263904Y-62914761D01*
X84216285Y-62819523D01*
X84216285Y-62438571D01*
X84263904Y-62343333D01*
X84359142Y-62295714D01*
X84549619Y-62295714D01*
X84644857Y-62343333D01*
X84692476Y-62438571D01*
X84692476Y-62533809D01*
X84216285Y-62629047D01*
X85549619Y-62914761D02*
X85454380Y-62962380D01*
X85263904Y-62962380D01*
X85168666Y-62914761D01*
X85121047Y-62867142D01*
X85073428Y-62771904D01*
X85073428Y-62486190D01*
X85121047Y-62390952D01*
X85168666Y-62343333D01*
X85263904Y-62295714D01*
X85454380Y-62295714D01*
X85549619Y-62343333D01*
X85835333Y-62295714D02*
X86216285Y-62295714D01*
X85978190Y-61962380D02*
X85978190Y-62819523D01*
X86025809Y-62914761D01*
X86121047Y-62962380D01*
X86216285Y-62962380D01*
%TO.C,LS1*%
X154173428Y-57365952D02*
X154173428Y-56604047D01*
X154273428Y-59865952D02*
X154273428Y-59104047D01*
X154654380Y-59485000D02*
X153892476Y-59485000D01*
%TO.C,SW_B1*%
X92457142Y-43730715D02*
X92591829Y-43663371D01*
X92760188Y-43495013D01*
X92793859Y-43393997D01*
X92793859Y-43326654D01*
X92760188Y-43225639D01*
X92692844Y-43158295D01*
X92591829Y-43124623D01*
X92524485Y-43124623D01*
X92423470Y-43158295D01*
X92255111Y-43259310D01*
X92154096Y-43292982D01*
X92086753Y-43292982D01*
X91985737Y-43259310D01*
X91918394Y-43191967D01*
X91884722Y-43090952D01*
X91884722Y-43023608D01*
X91918394Y-42922593D01*
X92086753Y-42754234D01*
X92221440Y-42686891D01*
X92423470Y-42417517D02*
X93298936Y-42956265D01*
X92928546Y-42316501D01*
X93568310Y-42686891D01*
X93029562Y-41811425D01*
X93905027Y-42484860D02*
X94443775Y-41946112D01*
X94410104Y-41104318D02*
X94544791Y-41036975D01*
X94612134Y-41036975D01*
X94713149Y-41070646D01*
X94814165Y-41171662D01*
X94847836Y-41272677D01*
X94847836Y-41340020D01*
X94814165Y-41441036D01*
X94544791Y-41710410D01*
X93837684Y-41003303D01*
X94073386Y-40767601D01*
X94174401Y-40733929D01*
X94241745Y-40733929D01*
X94342760Y-40767601D01*
X94410104Y-40834944D01*
X94443775Y-40935959D01*
X94443775Y-41003303D01*
X94410104Y-41104318D01*
X94174401Y-41340020D01*
X95622287Y-40632914D02*
X95218226Y-41036975D01*
X95420256Y-40834944D02*
X94713149Y-40127837D01*
X94746821Y-40296196D01*
X94746821Y-40430883D01*
X94713149Y-40531898D01*
%TO.C,R5*%
X141845333Y-36584880D02*
X141512000Y-36108690D01*
X141273904Y-36584880D02*
X141273904Y-35584880D01*
X141654857Y-35584880D01*
X141750095Y-35632500D01*
X141797714Y-35680119D01*
X141845333Y-35775357D01*
X141845333Y-35918214D01*
X141797714Y-36013452D01*
X141750095Y-36061071D01*
X141654857Y-36108690D01*
X141273904Y-36108690D01*
X142750095Y-35584880D02*
X142273904Y-35584880D01*
X142226285Y-36061071D01*
X142273904Y-36013452D01*
X142369142Y-35965833D01*
X142607238Y-35965833D01*
X142702476Y-36013452D01*
X142750095Y-36061071D01*
X142797714Y-36156309D01*
X142797714Y-36394404D01*
X142750095Y-36489642D01*
X142702476Y-36537261D01*
X142607238Y-36584880D01*
X142369142Y-36584880D01*
X142273904Y-36537261D01*
X142226285Y-36489642D01*
%TO.C,R2*%
X77926030Y-38410732D02*
X77353610Y-38309717D01*
X77521969Y-38814793D02*
X76814862Y-38107687D01*
X77084236Y-37838312D01*
X77185251Y-37804641D01*
X77252595Y-37804641D01*
X77353610Y-37838312D01*
X77454625Y-37939328D01*
X77488297Y-38040343D01*
X77488297Y-38107687D01*
X77454625Y-38208702D01*
X77185251Y-38478076D01*
X77555641Y-37501595D02*
X77555641Y-37434251D01*
X77589312Y-37333236D01*
X77757671Y-37164877D01*
X77858687Y-37131206D01*
X77926030Y-37131206D01*
X78027045Y-37164877D01*
X78094389Y-37232221D01*
X78161732Y-37366908D01*
X78161732Y-38175030D01*
X78599465Y-37737297D01*
%TO.C,R7*%
X90835333Y-56689380D02*
X90502000Y-56213190D01*
X90263904Y-56689380D02*
X90263904Y-55689380D01*
X90644857Y-55689380D01*
X90740095Y-55737000D01*
X90787714Y-55784619D01*
X90835333Y-55879857D01*
X90835333Y-56022714D01*
X90787714Y-56117952D01*
X90740095Y-56165571D01*
X90644857Y-56213190D01*
X90263904Y-56213190D01*
X91168666Y-55689380D02*
X91835333Y-55689380D01*
X91406761Y-56689380D01*
%TO.C,J2*%
X118035333Y-19947619D02*
X118035333Y-19233333D01*
X118082952Y-19090476D01*
X118178190Y-18995238D01*
X118321047Y-18947619D01*
X118416285Y-18947619D01*
X117606761Y-19852380D02*
X117559142Y-19900000D01*
X117463904Y-19947619D01*
X117225809Y-19947619D01*
X117130571Y-19900000D01*
X117082952Y-19852380D01*
X117035333Y-19757142D01*
X117035333Y-19661904D01*
X117082952Y-19519047D01*
X117654380Y-18947619D01*
X117035333Y-18947619D01*
D12*
X114244857Y-28009523D02*
X114359142Y-28009523D01*
X114302000Y-28009523D02*
X114302000Y-28209523D01*
X114321047Y-28180952D01*
X114340095Y-28161904D01*
X114359142Y-28152380D01*
X121640095Y-27909523D02*
X121754380Y-27909523D01*
X121697238Y-27909523D02*
X121697238Y-28109523D01*
X121716285Y-28080952D01*
X121735333Y-28061904D01*
X121754380Y-28052380D01*
X121468666Y-28042857D02*
X121468666Y-27909523D01*
X121516285Y-28119047D02*
X121563904Y-27976190D01*
X121440095Y-27976190D01*
D11*
%TO.C,SW_T1*%
X79572615Y-42663629D02*
X79707302Y-42596286D01*
X79875661Y-42427927D01*
X79909333Y-42326912D01*
X79909333Y-42259568D01*
X79875661Y-42158553D01*
X79808318Y-42091210D01*
X79707302Y-42057538D01*
X79639959Y-42057538D01*
X79538944Y-42091210D01*
X79370585Y-42192225D01*
X79269570Y-42225897D01*
X79202226Y-42225897D01*
X79101211Y-42192225D01*
X79033867Y-42124881D01*
X79000196Y-42023866D01*
X79000196Y-41956523D01*
X79033867Y-41855507D01*
X79202226Y-41687149D01*
X79336913Y-41619805D01*
X79538944Y-41350431D02*
X80414409Y-41889179D01*
X80044020Y-41249416D01*
X80683783Y-41619805D01*
X80145035Y-40744340D01*
X81020501Y-41417775D02*
X81559249Y-40879027D01*
X80852142Y-40037233D02*
X81256203Y-39633172D01*
X81761279Y-40542309D02*
X81054172Y-39835202D01*
X82569401Y-39734187D02*
X82165340Y-40138248D01*
X82367371Y-39936218D02*
X81660264Y-39229111D01*
X81693936Y-39397470D01*
X81693936Y-39532157D01*
X81660264Y-39633172D01*
%TO.C,SW6*%
X149304761Y-40606333D02*
X149352380Y-40463476D01*
X149352380Y-40225380D01*
X149304761Y-40130142D01*
X149257142Y-40082523D01*
X149161904Y-40034904D01*
X149066666Y-40034904D01*
X148971428Y-40082523D01*
X148923809Y-40130142D01*
X148876190Y-40225380D01*
X148828571Y-40415857D01*
X148780952Y-40511095D01*
X148733333Y-40558714D01*
X148638095Y-40606333D01*
X148542857Y-40606333D01*
X148447619Y-40558714D01*
X148400000Y-40511095D01*
X148352380Y-40415857D01*
X148352380Y-40177761D01*
X148400000Y-40034904D01*
X148352380Y-39701571D02*
X149352380Y-39463476D01*
X148638095Y-39273000D01*
X149352380Y-39082523D01*
X148352380Y-38844428D01*
X148352380Y-38034904D02*
X148352380Y-38225380D01*
X148400000Y-38320619D01*
X148447619Y-38368238D01*
X148590476Y-38463476D01*
X148780952Y-38511095D01*
X149161904Y-38511095D01*
X149257142Y-38463476D01*
X149304761Y-38415857D01*
X149352380Y-38320619D01*
X149352380Y-38130142D01*
X149304761Y-38034904D01*
X149257142Y-37987285D01*
X149161904Y-37939666D01*
X148923809Y-37939666D01*
X148828571Y-37987285D01*
X148780952Y-38034904D01*
X148733333Y-38130142D01*
X148733333Y-38320619D01*
X148780952Y-38415857D01*
X148828571Y-38463476D01*
X148923809Y-38511095D01*
%TO.C,SW5*%
X141212761Y-44162333D02*
X141260380Y-44019476D01*
X141260380Y-43781380D01*
X141212761Y-43686142D01*
X141165142Y-43638523D01*
X141069904Y-43590904D01*
X140974666Y-43590904D01*
X140879428Y-43638523D01*
X140831809Y-43686142D01*
X140784190Y-43781380D01*
X140736571Y-43971857D01*
X140688952Y-44067095D01*
X140641333Y-44114714D01*
X140546095Y-44162333D01*
X140450857Y-44162333D01*
X140355619Y-44114714D01*
X140308000Y-44067095D01*
X140260380Y-43971857D01*
X140260380Y-43733761D01*
X140308000Y-43590904D01*
X140260380Y-43257571D02*
X141260380Y-43019476D01*
X140546095Y-42829000D01*
X141260380Y-42638523D01*
X140260380Y-42400428D01*
X140260380Y-41543285D02*
X140260380Y-42019476D01*
X140736571Y-42067095D01*
X140688952Y-42019476D01*
X140641333Y-41924238D01*
X140641333Y-41686142D01*
X140688952Y-41590904D01*
X140736571Y-41543285D01*
X140831809Y-41495666D01*
X141069904Y-41495666D01*
X141165142Y-41543285D01*
X141212761Y-41590904D01*
X141260380Y-41686142D01*
X141260380Y-41924238D01*
X141212761Y-42019476D01*
X141165142Y-42067095D01*
%TO.C,SW3*%
X87991381Y-48228568D02*
X87924038Y-48093881D01*
X87755679Y-47925522D01*
X87654664Y-47891850D01*
X87587320Y-47891850D01*
X87486305Y-47925522D01*
X87418962Y-47992865D01*
X87385290Y-48093881D01*
X87385290Y-48161224D01*
X87418962Y-48262239D01*
X87519977Y-48430598D01*
X87553649Y-48531613D01*
X87553649Y-48598957D01*
X87519977Y-48699972D01*
X87452633Y-48767316D01*
X87351618Y-48800987D01*
X87284275Y-48800987D01*
X87183259Y-48767316D01*
X87014901Y-48598957D01*
X86947557Y-48464270D01*
X86678183Y-48262239D02*
X87216931Y-47386774D01*
X86577168Y-47757163D01*
X86947557Y-47117400D01*
X86072092Y-47656148D01*
X85870061Y-47454117D02*
X85432328Y-47016385D01*
X85937405Y-46982713D01*
X85836389Y-46881698D01*
X85802718Y-46780682D01*
X85802718Y-46713339D01*
X85836389Y-46612324D01*
X86004748Y-46443965D01*
X86105763Y-46410293D01*
X86173107Y-46410293D01*
X86274122Y-46443965D01*
X86476153Y-46645995D01*
X86509824Y-46747011D01*
X86509824Y-46814354D01*
%TO.C,R3*%
X96849030Y-45522732D02*
X96276610Y-45421717D01*
X96444969Y-45926793D02*
X95737862Y-45219687D01*
X96007236Y-44950312D01*
X96108251Y-44916641D01*
X96175595Y-44916641D01*
X96276610Y-44950312D01*
X96377625Y-45051328D01*
X96411297Y-45152343D01*
X96411297Y-45219687D01*
X96377625Y-45320702D01*
X96108251Y-45590076D01*
X96377625Y-44579923D02*
X96815358Y-44142190D01*
X96849030Y-44647267D01*
X96950045Y-44546251D01*
X97051061Y-44512580D01*
X97118404Y-44512580D01*
X97219419Y-44546251D01*
X97387778Y-44714610D01*
X97421450Y-44815625D01*
X97421450Y-44882969D01*
X97387778Y-44983984D01*
X97185748Y-45186015D01*
X97084732Y-45219687D01*
X97017389Y-45219687D01*
%TO.C,SW_L1*%
X85919737Y-33989480D02*
X85987080Y-34124167D01*
X86155439Y-34292526D01*
X86256454Y-34326198D01*
X86323798Y-34326198D01*
X86424813Y-34292526D01*
X86492156Y-34225183D01*
X86525828Y-34124167D01*
X86525828Y-34056824D01*
X86492156Y-33955809D01*
X86391141Y-33787450D01*
X86357469Y-33686435D01*
X86357469Y-33619091D01*
X86391141Y-33518076D01*
X86458485Y-33450732D01*
X86559500Y-33417061D01*
X86626843Y-33417061D01*
X86727859Y-33450732D01*
X86896217Y-33619091D01*
X86963561Y-33753778D01*
X87232935Y-33955809D02*
X86694187Y-34831274D01*
X87333950Y-34460885D01*
X86963561Y-35100648D01*
X87839027Y-34561900D01*
X87165591Y-35437366D02*
X87704340Y-35976114D01*
X88276759Y-36413847D02*
X87940042Y-36077129D01*
X88647149Y-35370022D01*
X88882851Y-37019938D02*
X88478790Y-36615877D01*
X88680820Y-36817908D02*
X89387927Y-36110801D01*
X89219568Y-36144473D01*
X89084881Y-36144473D01*
X88983866Y-36110801D01*
%TO.C,R4*%
X83255267Y-50367031D02*
X83356282Y-49794611D01*
X82851206Y-49962970D02*
X83558312Y-49255863D01*
X83827687Y-49525237D01*
X83861358Y-49626252D01*
X83861358Y-49693596D01*
X83827687Y-49794611D01*
X83726671Y-49895626D01*
X83625656Y-49929298D01*
X83558312Y-49929298D01*
X83457297Y-49895626D01*
X83187923Y-49626252D01*
X84332763Y-50501718D02*
X83861358Y-50973123D01*
X84433778Y-50063985D02*
X83760343Y-50400703D01*
X84198076Y-50838436D01*
%TO.C,R8*%
X83624733Y-56562380D02*
X83291400Y-56086190D01*
X83053304Y-56562380D02*
X83053304Y-55562380D01*
X83434257Y-55562380D01*
X83529495Y-55610000D01*
X83577114Y-55657619D01*
X83624733Y-55752857D01*
X83624733Y-55895714D01*
X83577114Y-55990952D01*
X83529495Y-56038571D01*
X83434257Y-56086190D01*
X83053304Y-56086190D01*
X84196161Y-55990952D02*
X84100923Y-55943333D01*
X84053304Y-55895714D01*
X84005685Y-55800476D01*
X84005685Y-55752857D01*
X84053304Y-55657619D01*
X84100923Y-55610000D01*
X84196161Y-55562380D01*
X84386638Y-55562380D01*
X84481876Y-55610000D01*
X84529495Y-55657619D01*
X84577114Y-55752857D01*
X84577114Y-55800476D01*
X84529495Y-55895714D01*
X84481876Y-55943333D01*
X84386638Y-55990952D01*
X84196161Y-55990952D01*
X84100923Y-56038571D01*
X84053304Y-56086190D01*
X84005685Y-56181428D01*
X84005685Y-56371904D01*
X84053304Y-56467142D01*
X84100923Y-56514761D01*
X84196161Y-56562380D01*
X84386638Y-56562380D01*
X84481876Y-56514761D01*
X84529495Y-56467142D01*
X84577114Y-56371904D01*
X84577114Y-56181428D01*
X84529495Y-56086190D01*
X84481876Y-56038571D01*
X84386638Y-55990952D01*
%TO.C,R1*%
X89859267Y-32333030D02*
X89960282Y-31760610D01*
X89455206Y-31928969D02*
X90162312Y-31221862D01*
X90431687Y-31491236D01*
X90465358Y-31592251D01*
X90465358Y-31659595D01*
X90431687Y-31760610D01*
X90330671Y-31861625D01*
X90229656Y-31895297D01*
X90162312Y-31895297D01*
X90061297Y-31861625D01*
X89791923Y-31592251D01*
X90532702Y-33006465D02*
X90128641Y-32602404D01*
X90330671Y-32804435D02*
X91037778Y-32097328D01*
X90869419Y-32131000D01*
X90734732Y-32130999D01*
X90633717Y-32097328D01*
%TO.C,R6*%
X148322333Y-33155880D02*
X147989000Y-32679690D01*
X147750904Y-33155880D02*
X147750904Y-32155880D01*
X148131857Y-32155880D01*
X148227095Y-32203500D01*
X148274714Y-32251119D01*
X148322333Y-32346357D01*
X148322333Y-32489214D01*
X148274714Y-32584452D01*
X148227095Y-32632071D01*
X148131857Y-32679690D01*
X147750904Y-32679690D01*
X149179476Y-32155880D02*
X148989000Y-32155880D01*
X148893761Y-32203500D01*
X148846142Y-32251119D01*
X148750904Y-32393976D01*
X148703285Y-32584452D01*
X148703285Y-32965404D01*
X148750904Y-33060642D01*
X148798523Y-33108261D01*
X148893761Y-33155880D01*
X149084238Y-33155880D01*
X149179476Y-33108261D01*
X149227095Y-33060642D01*
X149274714Y-32965404D01*
X149274714Y-32727309D01*
X149227095Y-32632071D01*
X149179476Y-32584452D01*
X149084238Y-32536833D01*
X148893761Y-32536833D01*
X148798523Y-32584452D01*
X148750904Y-32632071D01*
X148703285Y-32727309D01*
D13*
%TO.C,LS1*%
X151102000Y-58385000D02*
G75*
G03*
X151102000Y-58385000I-7500000J0D01*
G01*
%TO.C,SW_B1*%
X98040121Y-40966602D02*
X97898700Y-40825180D01*
X93302506Y-45704217D02*
X98040121Y-40966602D01*
X93302506Y-45704217D02*
X93161084Y-45562796D01*
X96696618Y-39623099D02*
X94999562Y-37926042D01*
X93656059Y-36582540D02*
X88918444Y-41320155D01*
X91959003Y-44360714D02*
X90261947Y-42663658D01*
X88918444Y-41320155D02*
X89059865Y-41461576D01*
X93656059Y-36582540D02*
X93797481Y-36723961D01*
%TO.C,R5*%
X142739064Y-35217000D02*
X141284936Y-35217000D01*
X142739064Y-37037000D02*
X141284936Y-37037000D01*
%TO.C,SW7*%
X92729400Y-61088000D02*
X92729400Y-61378000D01*
X92729400Y-61378000D02*
X89429400Y-61378000D01*
X92729400Y-58878000D02*
X92729400Y-58588000D01*
X89429400Y-58588000D02*
X89429400Y-58878000D01*
X92729400Y-58588000D02*
X91729400Y-58588000D01*
X89429400Y-61378000D02*
X89429400Y-61088000D01*
X89429400Y-58588000D02*
X90429400Y-58588000D01*
%TO.C,R2*%
X76636537Y-37868861D02*
X77664761Y-36840637D01*
X77923471Y-39155795D02*
X78951695Y-38127571D01*
%TO.C,R7*%
X90274936Y-57020000D02*
X91729064Y-57020000D01*
X90274936Y-55200000D02*
X91729064Y-55200000D01*
%TO.C,J2*%
X135002000Y-63830000D02*
X101002000Y-63830000D01*
X101002000Y-63830000D02*
X101002000Y-18000000D01*
X101002000Y-18000000D02*
X135002000Y-18000000D01*
X135002000Y-18000000D02*
X135002000Y-63830000D01*
%TO.C,SW_T1*%
X77808014Y-43151533D02*
X79505070Y-44848590D01*
X85586188Y-41454477D02*
X85444767Y-41313056D01*
X81202126Y-37070415D02*
X81343548Y-37211836D01*
X80848573Y-46192092D02*
X80707151Y-46050671D01*
X82545629Y-38413918D02*
X84242685Y-40110974D01*
X76464511Y-41808030D02*
X76605932Y-41949452D01*
X81202126Y-37070415D02*
X76464511Y-41808030D01*
X80848573Y-46192092D02*
X85586188Y-41454477D01*
%TO.C,SW6*%
X146502000Y-36261000D02*
X146502000Y-42961000D01*
X146502000Y-42961000D02*
X146702000Y-42961000D01*
X152702000Y-42961000D02*
X152502000Y-42961000D01*
X152702000Y-42961000D02*
X152702000Y-36261000D01*
X152702000Y-36261000D02*
X152502000Y-36261000D01*
X148402000Y-42961000D02*
X150802000Y-42961000D01*
X146502000Y-36261000D02*
X146702000Y-36261000D01*
X148402000Y-36261000D02*
X150802000Y-36261000D01*
%TO.C,SW5*%
X144610000Y-39817000D02*
X144410000Y-39817000D01*
X138410000Y-46517000D02*
X138610000Y-46517000D01*
X138410000Y-39817000D02*
X138610000Y-39817000D01*
X144610000Y-46517000D02*
X144410000Y-46517000D01*
X144610000Y-46517000D02*
X144610000Y-39817000D01*
X140310000Y-46517000D02*
X142710000Y-46517000D01*
X140310000Y-39817000D02*
X142710000Y-39817000D01*
X138410000Y-39817000D02*
X138410000Y-46517000D01*
%TO.C,SW3*%
X92058592Y-47491359D02*
X91917171Y-47632781D01*
X87674530Y-51875421D02*
X87815952Y-51734000D01*
X82936915Y-47137806D02*
X87674530Y-51875421D01*
X89018033Y-50531918D02*
X90715090Y-48834862D01*
X84280418Y-45794303D02*
X85977474Y-44097247D01*
X87320977Y-42753744D02*
X87179556Y-42895165D01*
X82936915Y-47137806D02*
X83078336Y-46996384D01*
X92058592Y-47491359D02*
X87320977Y-42753744D01*
%TO.C,R3*%
X96719471Y-46140795D02*
X97747695Y-45112571D01*
X95432537Y-44853861D02*
X96460761Y-43825637D01*
%TO.C,SW_L1*%
X91529788Y-35635827D02*
X91388367Y-35777249D01*
X85448670Y-32241715D02*
X83751613Y-33938771D01*
X82408111Y-35282274D02*
X82549532Y-35140852D01*
X87145726Y-40019889D02*
X87287147Y-39878468D01*
X82408111Y-35282274D02*
X87145726Y-40019889D01*
X91529788Y-35635827D02*
X86792173Y-30898212D01*
X90186285Y-36979330D02*
X88489229Y-38676386D01*
X86792173Y-30898212D02*
X86650751Y-31039633D01*
%TO.C,R4*%
X82478537Y-50319571D02*
X83506761Y-51347795D01*
X83765471Y-49032637D02*
X84793695Y-50060861D01*
%TO.C,R8*%
X83038336Y-55200000D02*
X84492464Y-55200000D01*
X83038336Y-57020000D02*
X84492464Y-57020000D01*
%TO.C,R1*%
X89082537Y-32158571D02*
X90110761Y-33186795D01*
X90369471Y-30871637D02*
X91397695Y-31899861D01*
%TO.C,SW8*%
X82192800Y-58588600D02*
X83192800Y-58588600D01*
X85492800Y-61088600D02*
X85492800Y-61378600D01*
X85492800Y-58588600D02*
X84492800Y-58588600D01*
X82192800Y-61378600D02*
X82192800Y-61088600D01*
X85492800Y-61378600D02*
X82192800Y-61378600D01*
X82192800Y-58588600D02*
X82192800Y-58878600D01*
X85492800Y-58878600D02*
X85492800Y-58588600D01*
%TO.C,R6*%
X149216064Y-33608000D02*
X147761936Y-33608000D01*
X149216064Y-31788000D02*
X147761936Y-31788000D01*
%TD*%
%LPC*%
D14*
%TO.C,LS1*%
X152802000Y-59685000D03*
X152802000Y-56985000D03*
%TD*%
D15*
%TO.C,SW_B1*%
X92489333Y-44961755D03*
X97297659Y-40153429D03*
X89660906Y-42133328D03*
X94469232Y-37325002D03*
%TD*%
D16*
%TO.C,R5*%
X143562000Y-36127000D03*
X140462000Y-36127000D03*
%TD*%
D17*
%TO.C,R13*%
X116802000Y-37030000D03*
X116802000Y-36390000D03*
%TD*%
D18*
%TO.C,H5*%
X77102000Y-62610000D03*
%TD*%
%TO.C,H2*%
X76708000Y-18288000D03*
%TD*%
D19*
%TO.C,SW7*%
X91079400Y-59978000D03*
D20*
X92779400Y-59978000D03*
X89379400Y-59978000D03*
D21*
X91079400Y-58338000D03*
%TD*%
D22*
%TO.C,R2*%
X76698100Y-39094232D03*
X78890132Y-36902200D03*
%TD*%
D23*
%TO.C,R7*%
X89452000Y-56110000D03*
X92552000Y-56110000D03*
%TD*%
D17*
%TO.C,R15*%
X118602000Y-37030000D03*
X118602000Y-36390000D03*
%TD*%
D24*
%TO.C,J2*%
X114702000Y-29300000D03*
X115202000Y-29300000D03*
X115702000Y-29300000D03*
X116202000Y-29300000D03*
X116702000Y-29300000D03*
X117202000Y-29300000D03*
X117702000Y-29300000D03*
X118202000Y-29300000D03*
X118702000Y-29300000D03*
X119202000Y-29300000D03*
X119702000Y-29300000D03*
X120202000Y-29300000D03*
X120702000Y-29300000D03*
X121202000Y-29300000D03*
%TD*%
D25*
%TO.C,SW_T1*%
X77206973Y-42621203D03*
X82015299Y-37812877D03*
X84843726Y-40641304D03*
X80035400Y-45449630D03*
%TD*%
D18*
%TO.C,H3*%
X138802000Y-18310000D03*
%TD*%
D17*
%TO.C,R16*%
X119402000Y-37030000D03*
X119402000Y-36390000D03*
%TD*%
%TO.C,R17*%
X120202000Y-37030000D03*
X120202000Y-36390000D03*
%TD*%
D26*
%TO.C,SW6*%
X147602000Y-36211000D03*
X147602000Y-43011000D03*
X151602000Y-36211000D03*
X151602000Y-43011000D03*
%TD*%
%TO.C,SW5*%
X139510000Y-39767000D03*
X139510000Y-46567000D03*
X143510000Y-46567000D03*
X143510000Y-39767000D03*
%TD*%
D27*
%TO.C,SW3*%
X88487703Y-51132959D03*
X83679377Y-46324633D03*
X91316130Y-48304532D03*
X86507804Y-43496206D03*
%TD*%
D22*
%TO.C,R3*%
X95494100Y-46079232D03*
X97686132Y-43887200D03*
%TD*%
D28*
%TO.C,SW_L1*%
X85979000Y-31640674D03*
X90787326Y-36449000D03*
X83150573Y-34469101D03*
X87958899Y-39277427D03*
%TD*%
D29*
%TO.C,R4*%
X82540100Y-49094200D03*
X84732132Y-51286232D03*
%TD*%
D18*
%TO.C,H1*%
X153802000Y-63410000D03*
%TD*%
D23*
%TO.C,R8*%
X82215400Y-56110000D03*
X85315400Y-56110000D03*
%TD*%
D29*
%TO.C,R1*%
X89144100Y-30933200D03*
X91336132Y-33125232D03*
%TD*%
D17*
%TO.C,R14*%
X117702000Y-37030000D03*
X117702000Y-36390000D03*
%TD*%
D19*
%TO.C,SW8*%
X83842800Y-59978600D03*
D20*
X85542800Y-59978600D03*
X82142800Y-59978600D03*
D21*
X83842800Y-58338600D03*
%TD*%
D16*
%TO.C,R6*%
X150039000Y-32698000D03*
X146939000Y-32698000D03*
%TD*%
D30*
%TO.C,SW1*%
X75651000Y-32285000D03*
X75651000Y-24085000D03*
D31*
X75651000Y-30185000D03*
X75651000Y-28185000D03*
X75651000Y-26185000D03*
%TD*%
D32*
%TO.C,U1*%
X116598800Y-49160000D03*
X116598800Y-47760000D03*
X116596199Y-50663555D03*
X118098800Y-49160000D03*
X115195245Y-46261572D03*
X115198800Y-49160000D03*
X113698286Y-49163040D03*
X113698286Y-47762087D03*
X118098800Y-47760000D03*
X115198800Y-50660000D03*
X116598800Y-46260000D03*
X115198800Y-47760000D03*
%TD*%
D31*
%TO.C,U2*%
X152233000Y-30908000D03*
X152233000Y-20908000D03*
D33*
X142233000Y-29908000D03*
X142233000Y-25908000D03*
X142233000Y-21908000D03*
%TD*%
D34*
%TO.C,J3*%
X88050000Y-16284000D03*
D35*
X88360000Y-19284000D03*
X93200000Y-19284000D03*
D34*
X93510000Y-16284000D03*
%TD*%
M02*
