%TF.GenerationSoftware,KiCad,Pcbnew,6.0.2+dfsg-1*%
%TF.CreationDate,2023-04-19T23:44:20+02:00*%
%TF.ProjectId,picopico,7069636f-7069-4636-9f2e-6b696361645f,rev?*%
%TF.SameCoordinates,Original*%
%TF.FileFunction,Copper,L1,Top*%
%TF.FilePolarity,Positive*%
%FSLAX46Y46*%
G04 Gerber Fmt 4.6, Leading zero omitted, Abs format (unit mm)*
G04 Created by KiCad (PCBNEW 6.0.2+dfsg-1) date 2023-04-19 23:44:20*
%MOMM*%
%LPD*%
G01*
G04 APERTURE LIST*
G04 Aperture macros list*
%AMRoundRect*
0 Rectangle with rounded corners*
0 $1 Rounding radius*
0 $2 $3 $4 $5 $6 $7 $8 $9 X,Y pos of 4 corners*
0 Add a 4 corners polygon primitive as box body*
4,1,4,$2,$3,$4,$5,$6,$7,$8,$9,$2,$3,0*
0 Add four circle primitives for the rounded corners*
1,1,$1+$1,$2,$3*
1,1,$1+$1,$4,$5*
1,1,$1+$1,$6,$7*
1,1,$1+$1,$8,$9*
0 Add four rect primitives between the rounded corners*
20,1,$1+$1,$2,$3,$4,$5,0*
20,1,$1+$1,$4,$5,$6,$7,0*
20,1,$1+$1,$6,$7,$8,$9,0*
20,1,$1+$1,$8,$9,$2,$3,0*%
%AMRotRect*
0 Rectangle, with rotation*
0 The origin of the aperture is its center*
0 $1 length*
0 $2 width*
0 $3 Rotation angle, in degrees counterclockwise*
0 Add horizontal line*
21,1,$1,$2,0,0,$3*%
G04 Aperture macros list end*
%ADD10C,0.300000*%
%TA.AperFunction,NonConductor*%
%ADD11C,0.300000*%
%TD*%
%TA.AperFunction,NonConductor*%
%ADD12C,0.200000*%
%TD*%
%TA.AperFunction,SMDPad,CuDef*%
%ADD13RoundRect,0.381000X0.381000X-0.762000X0.381000X0.762000X-0.381000X0.762000X-0.381000X-0.762000X0*%
%TD*%
%TA.AperFunction,SMDPad,CuDef*%
%ADD14RotRect,2.000000X1.000000X225.000000*%
%TD*%
%TA.AperFunction,SMDPad,CuDef*%
%ADD15RoundRect,0.250000X0.400000X0.625000X-0.400000X0.625000X-0.400000X-0.625000X0.400000X-0.625000X0*%
%TD*%
%TA.AperFunction,SMDPad,CuDef*%
%ADD16RoundRect,0.100000X0.100000X-0.130000X0.100000X0.130000X-0.100000X0.130000X-0.100000X-0.130000X0*%
%TD*%
%TA.AperFunction,SMDPad,CuDef*%
%ADD17R,0.900000X1.700000*%
%TD*%
%TA.AperFunction,SMDPad,CuDef*%
%ADD18R,0.800000X1.100000*%
%TD*%
%TA.AperFunction,SMDPad,CuDef*%
%ADD19RoundRect,0.250000X0.159099X-0.724784X0.724784X-0.159099X-0.159099X0.724784X-0.724784X0.159099X0*%
%TD*%
%TA.AperFunction,SMDPad,CuDef*%
%ADD20RoundRect,0.250000X-0.400000X-0.625000X0.400000X-0.625000X0.400000X0.625000X-0.400000X0.625000X0*%
%TD*%
%TA.AperFunction,SMDPad,CuDef*%
%ADD21R,0.400000X5.000000*%
%TD*%
%TA.AperFunction,SMDPad,CuDef*%
%ADD22RotRect,2.000000X1.000000X45.000000*%
%TD*%
%TA.AperFunction,SMDPad,CuDef*%
%ADD23R,1.000000X2.000000*%
%TD*%
%TA.AperFunction,SMDPad,CuDef*%
%ADD24RotRect,2.000000X1.000000X135.000000*%
%TD*%
%TA.AperFunction,SMDPad,CuDef*%
%ADD25RotRect,2.000000X1.000000X315.000000*%
%TD*%
%TA.AperFunction,SMDPad,CuDef*%
%ADD26RoundRect,0.250000X-0.724784X-0.159099X-0.159099X-0.724784X0.724784X0.159099X0.159099X0.724784X0*%
%TD*%
%TA.AperFunction,WasherPad*%
%ADD27C,1.800000*%
%TD*%
%TA.AperFunction,ComponentPad*%
%ADD28C,1.500000*%
%TD*%
%TA.AperFunction,ComponentPad*%
%ADD29C,0.600000*%
%TD*%
%TA.AperFunction,WasherPad*%
%ADD30C,1.500000*%
%TD*%
%TA.AperFunction,ComponentPad*%
%ADD31C,1.700000*%
%TD*%
%TA.AperFunction,ComponentPad*%
%ADD32O,1.350000X1.700000*%
%TD*%
%TA.AperFunction,ComponentPad*%
%ADD33O,1.100000X1.500000*%
%TD*%
%TA.AperFunction,ViaPad*%
%ADD34C,0.800000*%
%TD*%
%TA.AperFunction,ViaPad*%
%ADD35C,1.000000*%
%TD*%
%TA.AperFunction,Conductor*%
%ADD36C,0.600000*%
%TD*%
%TA.AperFunction,Conductor*%
%ADD37C,0.400000*%
%TD*%
%TA.AperFunction,Conductor*%
%ADD38C,0.800000*%
%TD*%
G04 APERTURE END LIST*
D10*
D11*
X71808267Y-34515223D02*
X71807842Y-33800937D01*
X71093514Y-33729934D01*
X71164985Y-33801320D01*
X71236499Y-33944134D01*
X71236711Y-34301277D01*
X71165368Y-34444177D01*
X71093982Y-34515648D01*
X70951167Y-34587161D01*
X70594024Y-34587374D01*
X70451125Y-34516030D01*
X70379654Y-34444644D01*
X70308140Y-34301829D01*
X70307928Y-33944687D01*
X70379271Y-33801787D01*
X70450657Y-33730316D01*
X71665793Y-35158165D02*
X71737264Y-35229551D01*
X71808777Y-35372365D01*
X71808990Y-35729508D01*
X71737646Y-35872408D01*
X71666260Y-35943879D01*
X71523445Y-36015392D01*
X71380588Y-36015477D01*
X71166260Y-35944176D01*
X70308607Y-35087544D01*
X70309160Y-36016115D01*
X70381013Y-36730358D02*
X70309585Y-36730400D01*
X70166685Y-36659057D01*
X70095214Y-36587671D01*
X70310435Y-38158972D02*
X70309925Y-37301829D01*
X70310180Y-37730400D02*
X71810180Y-37729508D01*
X71595809Y-37586778D01*
X71452867Y-37444006D01*
X71381353Y-37301192D01*
X71810987Y-39086650D02*
X71811072Y-39229508D01*
X71739728Y-39372407D01*
X71668342Y-39443878D01*
X71525528Y-39515392D01*
X71239856Y-39586990D01*
X70882713Y-39587203D01*
X70596956Y-39515944D01*
X70454057Y-39444601D01*
X70382586Y-39373215D01*
X70311072Y-39230400D01*
X70310987Y-39087543D01*
X70382331Y-38944643D01*
X70453717Y-38873172D01*
X70596532Y-38801659D01*
X70882203Y-38730060D01*
X71239346Y-38729848D01*
X71525103Y-38801106D01*
X71668002Y-38872450D01*
X71739473Y-38943836D01*
X71810987Y-39086650D01*
X71812092Y-40943793D02*
X71811667Y-40229507D01*
X71097339Y-40158504D01*
X71168810Y-40229890D01*
X71240323Y-40372705D01*
X71240536Y-40729847D01*
X71169192Y-40872747D01*
X71097806Y-40944218D01*
X70954992Y-41015732D01*
X70597849Y-41015944D01*
X70454949Y-40944600D01*
X70383478Y-40873214D01*
X70311965Y-40730400D01*
X70311752Y-40373257D01*
X70383096Y-40230357D01*
X70454482Y-40158886D01*
X71812687Y-41943793D02*
X71812772Y-42086650D01*
X71741428Y-42229550D01*
X71670042Y-42301021D01*
X71527228Y-42372534D01*
X71241556Y-42444133D01*
X70884413Y-42444345D01*
X70598656Y-42373087D01*
X70455757Y-42301743D01*
X70384286Y-42230357D01*
X70312772Y-42087542D01*
X70312687Y-41944685D01*
X70384031Y-41801786D01*
X70455417Y-41730315D01*
X70598231Y-41658801D01*
X70883903Y-41587203D01*
X71241046Y-41586990D01*
X71526803Y-41658249D01*
X71669702Y-41729592D01*
X71741173Y-41800978D01*
X71812687Y-41943793D01*
X70314047Y-44230399D02*
X71314047Y-44229804D01*
X71171190Y-44229889D02*
X71242661Y-44301275D01*
X71314174Y-44444090D01*
X71314302Y-44658376D01*
X71242958Y-44801275D01*
X71100144Y-44872789D01*
X70314429Y-44873256D01*
X71100144Y-44872789D02*
X71243043Y-44944132D01*
X71314557Y-45086947D01*
X71314684Y-45301233D01*
X71243341Y-45444132D01*
X71100526Y-45515646D01*
X70314812Y-45516113D01*
X70315237Y-46230399D02*
X71315237Y-46229804D01*
X71172380Y-46229889D02*
X71243851Y-46301275D01*
X71315364Y-46444090D01*
X71315492Y-46658375D01*
X71244148Y-46801275D01*
X71101334Y-46872788D01*
X70315619Y-46873256D01*
X71101334Y-46872788D02*
X71244233Y-46944132D01*
X71315747Y-47086947D01*
X71315874Y-47301232D01*
X71244531Y-47444132D01*
X71101716Y-47515645D01*
X70316002Y-47516113D01*
D12*
X72271000Y-14605297D02*
X68588574Y-14607488D01*
X72302000Y-66710297D02*
X68619574Y-66712488D01*
X69174994Y-14607139D02*
X69205994Y-66712139D01*
X69174994Y-14607139D02*
X69205994Y-66712139D01*
X69174994Y-14607139D02*
X68589244Y-15733991D01*
X69174994Y-14607139D02*
X69762085Y-15733294D01*
X69205994Y-66712139D02*
X69791744Y-65585287D01*
X69205994Y-66712139D02*
X68618903Y-65585984D01*
D10*
D11*
X110763742Y-71484028D02*
X110620885Y-71412600D01*
X110549457Y-71341171D01*
X110478028Y-71198314D01*
X110478028Y-71126885D01*
X110549457Y-70984028D01*
X110620885Y-70912600D01*
X110763742Y-70841171D01*
X111049457Y-70841171D01*
X111192314Y-70912600D01*
X111263742Y-70984028D01*
X111335171Y-71126885D01*
X111335171Y-71198314D01*
X111263742Y-71341171D01*
X111192314Y-71412600D01*
X111049457Y-71484028D01*
X110763742Y-71484028D01*
X110620885Y-71555457D01*
X110549457Y-71626885D01*
X110478028Y-71769742D01*
X110478028Y-72055457D01*
X110549457Y-72198314D01*
X110620885Y-72269742D01*
X110763742Y-72341171D01*
X111049457Y-72341171D01*
X111192314Y-72269742D01*
X111263742Y-72198314D01*
X111335171Y-72055457D01*
X111335171Y-71769742D01*
X111263742Y-71626885D01*
X111192314Y-71555457D01*
X111049457Y-71484028D01*
X111835171Y-70841171D02*
X112763742Y-70841171D01*
X112263742Y-71412600D01*
X112478028Y-71412600D01*
X112620885Y-71484028D01*
X112692314Y-71555457D01*
X112763742Y-71698314D01*
X112763742Y-72055457D01*
X112692314Y-72198314D01*
X112620885Y-72269742D01*
X112478028Y-72341171D01*
X112049457Y-72341171D01*
X111906600Y-72269742D01*
X111835171Y-72198314D01*
X113478028Y-72269742D02*
X113478028Y-72341171D01*
X113406600Y-72484028D01*
X113335171Y-72555457D01*
X114763742Y-70841171D02*
X114478028Y-70841171D01*
X114335171Y-70912600D01*
X114263742Y-70984028D01*
X114120885Y-71198314D01*
X114049457Y-71484028D01*
X114049457Y-72055457D01*
X114120885Y-72198314D01*
X114192314Y-72269742D01*
X114335171Y-72341171D01*
X114620885Y-72341171D01*
X114763742Y-72269742D01*
X114835171Y-72198314D01*
X114906600Y-72055457D01*
X114906600Y-71698314D01*
X114835171Y-71555457D01*
X114763742Y-71484028D01*
X114620885Y-71412600D01*
X114335171Y-71412600D01*
X114192314Y-71484028D01*
X114120885Y-71555457D01*
X114049457Y-71698314D01*
X115620885Y-72341171D02*
X115906600Y-72341171D01*
X116049457Y-72269742D01*
X116120885Y-72198314D01*
X116263742Y-71984028D01*
X116335171Y-71698314D01*
X116335171Y-71126885D01*
X116263742Y-70984028D01*
X116192314Y-70912600D01*
X116049457Y-70841171D01*
X115763742Y-70841171D01*
X115620885Y-70912600D01*
X115549457Y-70984028D01*
X115478028Y-71126885D01*
X115478028Y-71484028D01*
X115549457Y-71626885D01*
X115620885Y-71698314D01*
X115763742Y-71769742D01*
X116049457Y-71769742D01*
X116192314Y-71698314D01*
X116263742Y-71626885D01*
X116335171Y-71484028D01*
X116835171Y-70841171D02*
X117763742Y-70841171D01*
X117263742Y-71412600D01*
X117478028Y-71412600D01*
X117620885Y-71484028D01*
X117692314Y-71555457D01*
X117763742Y-71698314D01*
X117763742Y-72055457D01*
X117692314Y-72198314D01*
X117620885Y-72269742D01*
X117478028Y-72341171D01*
X117049457Y-72341171D01*
X116906600Y-72269742D01*
X116835171Y-72198314D01*
X118692314Y-70841171D02*
X118835171Y-70841171D01*
X118978028Y-70912600D01*
X119049457Y-70984028D01*
X119120885Y-71126885D01*
X119192314Y-71412600D01*
X119192314Y-71769742D01*
X119120885Y-72055457D01*
X119049457Y-72198314D01*
X118978028Y-72269742D01*
X118835171Y-72341171D01*
X118692314Y-72341171D01*
X118549457Y-72269742D01*
X118478028Y-72198314D01*
X118406600Y-72055457D01*
X118335171Y-71769742D01*
X118335171Y-71412600D01*
X118406600Y-71126885D01*
X118478028Y-70984028D01*
X118549457Y-70912600D01*
X118692314Y-70841171D01*
X120978028Y-72341171D02*
X120978028Y-71341171D01*
X120978028Y-71484028D02*
X121049457Y-71412600D01*
X121192314Y-71341171D01*
X121406600Y-71341171D01*
X121549457Y-71412600D01*
X121620885Y-71555457D01*
X121620885Y-72341171D01*
X121620885Y-71555457D02*
X121692314Y-71412600D01*
X121835171Y-71341171D01*
X122049457Y-71341171D01*
X122192314Y-71412600D01*
X122263742Y-71555457D01*
X122263742Y-72341171D01*
X122978028Y-72341171D02*
X122978028Y-71341171D01*
X122978028Y-71484028D02*
X123049457Y-71412600D01*
X123192314Y-71341171D01*
X123406600Y-71341171D01*
X123549457Y-71412600D01*
X123620885Y-71555457D01*
X123620885Y-72341171D01*
X123620885Y-71555457D02*
X123692314Y-71412600D01*
X123835171Y-71341171D01*
X124049457Y-71341171D01*
X124192314Y-71412600D01*
X124263742Y-71555457D01*
X124263742Y-72341171D01*
D12*
X156802000Y-66854000D02*
X156802000Y-70496420D01*
X73109000Y-66854000D02*
X73109000Y-70496420D01*
X156802000Y-69910000D02*
X73109000Y-69910000D01*
X156802000Y-69910000D02*
X73109000Y-69910000D01*
X156802000Y-69910000D02*
X155675496Y-69323579D01*
X156802000Y-69910000D02*
X155675496Y-70496421D01*
X73109000Y-69910000D02*
X74235504Y-70496421D01*
X73109000Y-69910000D02*
X74235504Y-69323579D01*
D13*
%TO.P,LS1,1,1*%
%TO.N,Net-(LS1-Pad1)*%
X152802000Y-59685000D03*
%TO.P,LS1,2,2*%
%TO.N,Net-(LS1-Pad2)*%
X152802000Y-56985000D03*
%TD*%
D14*
%TO.P,SW_B1,1,1*%
%TO.N,/SW_BOT*%
X92489333Y-44961755D03*
X97297659Y-40153429D03*
%TO.P,SW_B1,2,2*%
%TO.N,GND*%
X89660906Y-42133328D03*
X94469232Y-37325002D03*
%TD*%
D15*
%TO.P,R5,1*%
%TO.N,/SW_A*%
X143562000Y-36127000D03*
%TO.P,R5,2*%
%TO.N,+3.3V*%
X140462000Y-36127000D03*
%TD*%
D16*
%TO.P,R13,1*%
%TO.N,/RESET*%
X116802000Y-37030000D03*
%TO.P,R13,2*%
%TO.N,Net-(J2-Pad6)*%
X116802000Y-36390000D03*
%TD*%
D17*
%TO.P,SW7,1,1*%
%TO.N,GND*%
X92779400Y-59978000D03*
%TO.P,SW7,2,2*%
%TO.N,/SW_START*%
X89379400Y-59978000D03*
D18*
%TO.P,SW7,3*%
%TO.N,N/C*%
X91079400Y-58338000D03*
%TD*%
D19*
%TO.P,R2,1*%
%TO.N,+3.3V*%
X76698100Y-39094232D03*
%TO.P,R2,2*%
%TO.N,/SW_T*%
X78890132Y-36902200D03*
%TD*%
D20*
%TO.P,R7,1*%
%TO.N,/SW_START*%
X89452000Y-56110000D03*
%TO.P,R7,2*%
%TO.N,+3.3V*%
X92552000Y-56110000D03*
%TD*%
D16*
%TO.P,R15,1*%
%TO.N,/SDA*%
X118602000Y-37030000D03*
%TO.P,R15,2*%
%TO.N,Net-(J2-Pad8)*%
X118602000Y-36390000D03*
%TD*%
D21*
%TO.P,J2,1,Pin_1*%
%TO.N,unconnected-(J2-Pad1)*%
X114702000Y-29300000D03*
%TO.P,J2,2,Pin_2*%
%TO.N,GND*%
X115202000Y-29300000D03*
%TO.P,J2,3,Pin_3*%
X115702000Y-29300000D03*
%TO.P,J2,4,Pin_4*%
%TO.N,+3.3V*%
X116202000Y-29300000D03*
%TO.P,J2,5,Pin_5*%
%TO.N,GND*%
X116702000Y-29300000D03*
%TO.P,J2,6,Pin_6*%
%TO.N,Net-(J2-Pad6)*%
X117202000Y-29300000D03*
%TO.P,J2,7,Pin_7*%
%TO.N,Net-(J2-Pad7)*%
X117702000Y-29300000D03*
%TO.P,J2,8,Pin_8*%
%TO.N,Net-(J2-Pad8)*%
X118202000Y-29300000D03*
%TO.P,J2,9,Pin_9*%
%TO.N,Net-(J2-Pad9)*%
X118702000Y-29300000D03*
%TO.P,J2,10,Pin_10*%
%TO.N,+3.3V*%
X119202000Y-29300000D03*
%TO.P,J2,11,Pin_11*%
X119702000Y-29300000D03*
%TO.P,J2,12,Pin_12*%
%TO.N,Net-(J2-Pad12)*%
X120202000Y-29300000D03*
%TO.P,J2,13,Pin_13*%
%TO.N,GND*%
X120702000Y-29300000D03*
%TO.P,J2,14,Pin_14*%
%TO.N,unconnected-(J2-Pad14)*%
X121202000Y-29300000D03*
%TD*%
D22*
%TO.P,SW_T1,1,1*%
%TO.N,/SW_T*%
X77206973Y-42621203D03*
X82015299Y-37812877D03*
%TO.P,SW_T1,2,2*%
%TO.N,GND*%
X84843726Y-40641304D03*
X80035400Y-45449630D03*
%TD*%
D16*
%TO.P,R16,1*%
%TO.N,/SCK*%
X119402000Y-37030000D03*
%TO.P,R16,2*%
%TO.N,Net-(J2-Pad9)*%
X119402000Y-36390000D03*
%TD*%
%TO.P,R17,1*%
%TO.N,/CS*%
X120202000Y-37030000D03*
%TO.P,R17,2*%
%TO.N,Net-(J2-Pad12)*%
X120202000Y-36390000D03*
%TD*%
D23*
%TO.P,SW6,1,1*%
%TO.N,GND*%
X147602000Y-36211000D03*
X147602000Y-43011000D03*
%TO.P,SW6,2,2*%
%TO.N,/SW_B*%
X151602000Y-36211000D03*
X151602000Y-43011000D03*
%TD*%
%TO.P,SW5,1,1*%
%TO.N,GND*%
X139510000Y-39767000D03*
X139510000Y-46567000D03*
%TO.P,SW5,2,2*%
%TO.N,/SW_A*%
X143510000Y-46567000D03*
X143510000Y-39767000D03*
%TD*%
D24*
%TO.P,SW3,1,1*%
%TO.N,/SW_R*%
X88487703Y-51132959D03*
X83679377Y-46324633D03*
%TO.P,SW3,2,2*%
%TO.N,GND*%
X91316130Y-48304532D03*
X86507804Y-43496206D03*
%TD*%
D19*
%TO.P,R3,1*%
%TO.N,+3.3V*%
X95494100Y-46079232D03*
%TO.P,R3,2*%
%TO.N,/SW_BOT*%
X97686132Y-43887200D03*
%TD*%
D25*
%TO.P,SW_L1,1,1*%
%TO.N,/SW_L*%
X85979000Y-31640674D03*
X90787326Y-36449000D03*
%TO.P,SW_L1,2,2*%
%TO.N,GND*%
X83150573Y-34469101D03*
X87958899Y-39277427D03*
%TD*%
D26*
%TO.P,R4,1*%
%TO.N,+3.3V*%
X82540100Y-49094200D03*
%TO.P,R4,2*%
%TO.N,/SW_R*%
X84732132Y-51286232D03*
%TD*%
D20*
%TO.P,R8,1*%
%TO.N,/SW_SEL*%
X82215400Y-56110000D03*
%TO.P,R8,2*%
%TO.N,+3.3V*%
X85315400Y-56110000D03*
%TD*%
D26*
%TO.P,R1,1*%
%TO.N,+3.3V*%
X89144100Y-30933200D03*
%TO.P,R1,2*%
%TO.N,/SW_L*%
X91336132Y-33125232D03*
%TD*%
D16*
%TO.P,R14,1*%
%TO.N,/DC{slash}RS*%
X117702000Y-37030000D03*
%TO.P,R14,2*%
%TO.N,Net-(J2-Pad7)*%
X117702000Y-36390000D03*
%TD*%
D17*
%TO.P,SW8,1,1*%
%TO.N,GND*%
X85542800Y-59978600D03*
%TO.P,SW8,2,2*%
%TO.N,/SW_SEL*%
X82142800Y-59978600D03*
D18*
%TO.P,SW8,3*%
%TO.N,N/C*%
X83842800Y-58338600D03*
%TD*%
D15*
%TO.P,R6,1*%
%TO.N,/SW_B*%
X150039000Y-32698000D03*
%TO.P,R6,2*%
%TO.N,+3.3V*%
X146939000Y-32698000D03*
%TD*%
D27*
%TO.P,SW1,*%
%TO.N,*%
X75651000Y-32285000D03*
X75651000Y-24085000D03*
D28*
%TO.P,SW1,1,A*%
%TO.N,/VIN*%
X75651000Y-30185000D03*
%TO.P,SW1,2,B*%
%TO.N,+BATT*%
X75651000Y-28185000D03*
%TO.P,SW1,3,C*%
%TO.N,unconnected-(SW1-Pad3)*%
X75651000Y-26185000D03*
%TD*%
D29*
%TO.P,U1,39,GND_THERMAL*%
%TO.N,GND*%
X116598800Y-49160000D03*
X116598800Y-47760000D03*
X116596199Y-50663555D03*
X118098800Y-49160000D03*
X115195245Y-46261572D03*
X115198800Y-49160000D03*
X113698286Y-49163040D03*
X113698286Y-47762087D03*
X118098800Y-47760000D03*
X115198800Y-50660000D03*
X116598800Y-46260000D03*
X115198800Y-47760000D03*
%TD*%
D30*
%TO.P,U2,*%
%TO.N,*%
X152233000Y-30908000D03*
X152233000Y-20908000D03*
D31*
%TO.P,U2,1,1*%
%TO.N,Net-(LS1-Pad1)*%
X142233000Y-29908000D03*
%TO.P,U2,2,2*%
%TO.N,Net-(U2-Pad2)*%
X142233000Y-25908000D03*
%TO.P,U2,3,3*%
%TO.N,unconnected-(U2-Pad3)*%
X142233000Y-21908000D03*
%TD*%
D32*
%TO.P,J3,6,Shield*%
%TO.N,GND*%
X88050000Y-16284000D03*
D33*
X88360000Y-19284000D03*
X93200000Y-19284000D03*
D32*
X93510000Y-16284000D03*
%TD*%
D34*
%TO.N,+3.3V*%
X89281000Y-29337000D03*
D35*
X137302000Y-33810000D03*
D34*
X93980000Y-47371000D03*
X110236000Y-54991000D03*
X108027000Y-28985000D03*
D35*
X96774000Y-28321000D03*
X82352000Y-51760000D03*
D34*
X86902000Y-56110000D03*
X94602000Y-56110000D03*
X140002000Y-48766011D03*
X105902000Y-28310000D03*
D35*
X76962000Y-46228000D03*
%TO.N,GND*%
X95631000Y-17145000D03*
D34*
X113102000Y-32720000D03*
X106807000Y-36449000D03*
D35*
X96774000Y-32131000D03*
D34*
X120652000Y-24710000D03*
X88646000Y-36195000D03*
D35*
X96266000Y-20193000D03*
D34*
X134252000Y-41910000D03*
X108102000Y-30135000D03*
X111887000Y-33528000D03*
D35*
X84201000Y-43942000D03*
D34*
X129902000Y-42510000D03*
D35*
%TO.N,/SW_A*%
X128651000Y-44831000D03*
D34*
%TO.N,/SW_START*%
X106402000Y-49710000D03*
%TO.N,/SCK*%
X124702000Y-49810000D03*
%TO.N,/SDA*%
X124587000Y-53721000D03*
%TO.N,/RESET*%
X110102000Y-37235000D03*
%TO.N,/DC{slash}RS*%
X124587000Y-54991000D03*
%TO.N,/CS*%
X124714000Y-47371000D03*
D35*
%TO.N,/SW_R*%
X106402000Y-46110000D03*
%TO.N,/SW_L*%
X106402000Y-43610000D03*
%TO.N,/SW_T*%
X106402000Y-47410000D03*
%TO.N,/SW_B*%
X128524000Y-38481000D03*
D34*
%TO.N,/SW_SEL*%
X106402000Y-48610000D03*
D35*
%TO.N,/SW_BOT*%
X106402000Y-44810000D03*
D34*
%TO.N,/RX*%
X112952000Y-50010000D03*
D35*
X96774000Y-29591000D03*
D34*
X105177000Y-40335000D03*
D35*
%TO.N,/TX*%
X96774000Y-30861000D03*
D34*
X111927000Y-50185000D03*
X103729932Y-40182068D03*
%TO.N,/FLASH_MODE*%
X110736000Y-39751000D03*
D35*
X105537000Y-38989000D03*
D34*
%TO.N,Net-(LS1-Pad1)*%
X150952000Y-47610000D03*
%TO.N,Net-(LS1-Pad2)*%
X152852000Y-47510000D03*
%TD*%
D36*
%TO.N,+3.3V*%
X145477000Y-34160000D02*
X146939000Y-32698000D01*
D37*
X118002000Y-24510000D02*
X119202000Y-25710000D01*
D38*
X93980000Y-47371000D02*
X94202332Y-47371000D01*
D37*
X114802000Y-24510000D02*
X118802000Y-24510000D01*
X116202000Y-29300000D02*
X116202000Y-25110000D01*
D36*
X99695000Y-28321000D02*
X96774000Y-28321000D01*
X137302000Y-33810000D02*
X139619000Y-36127000D01*
D37*
X116202000Y-25110000D02*
X116802000Y-24510000D01*
X118802000Y-24510000D02*
X119702489Y-25410489D01*
D36*
X88773000Y-29845000D02*
X88773000Y-30562100D01*
D38*
X82540100Y-51571900D02*
X82540100Y-49094200D01*
X82352000Y-51760000D02*
X82540100Y-51571900D01*
D36*
X132977500Y-55790511D02*
X111035511Y-55790511D01*
X105902000Y-28310000D02*
X99706000Y-28310000D01*
D38*
X79619100Y-49094200D02*
X82540100Y-49094200D01*
D36*
X142429000Y-34160000D02*
X145477000Y-34160000D01*
D37*
X119702489Y-29299511D02*
X119702000Y-29300000D01*
D36*
X140462000Y-36127000D02*
X142429000Y-34160000D01*
D38*
X76698100Y-39094232D02*
X75508116Y-40284216D01*
D37*
X114802000Y-24510000D02*
X110302000Y-29010000D01*
D38*
X94202332Y-47371000D02*
X95494100Y-46079232D01*
D36*
X94602000Y-56110000D02*
X92552000Y-56110000D01*
D38*
X75508116Y-40284216D02*
X75508116Y-44983216D01*
D36*
X88773000Y-30562100D02*
X89144100Y-30933200D01*
D38*
X75508116Y-44983216D02*
X79619100Y-49094200D01*
D37*
X119202000Y-25710000D02*
X119202000Y-29300000D01*
D36*
X99706000Y-28310000D02*
X99695000Y-28321000D01*
X86902000Y-56110000D02*
X85315400Y-56110000D01*
D37*
X108052000Y-29010000D02*
X108027000Y-28985000D01*
X119702489Y-25410489D02*
X119702489Y-29299511D01*
D36*
X139619000Y-36127000D02*
X140462000Y-36127000D01*
X111035511Y-55790511D02*
X110236000Y-54991000D01*
X89281000Y-29337000D02*
X88773000Y-29845000D01*
X140002000Y-48766011D02*
X132977500Y-55790511D01*
D37*
X110302000Y-29010000D02*
X108052000Y-29010000D01*
%TO.N,GND*%
X115702000Y-31310000D02*
X115702000Y-32210000D01*
D36*
X84945326Y-40565104D02*
X80137000Y-45373430D01*
X87958899Y-39277427D02*
X83150573Y-34469101D01*
D37*
X113112000Y-32710000D02*
X115202000Y-32710000D01*
X116702000Y-32099022D02*
X116091022Y-32710000D01*
X120702000Y-29300000D02*
X120702000Y-24810000D01*
D36*
X89660906Y-42133328D02*
X94469232Y-37325002D01*
D37*
X120702000Y-24810000D02*
X120602000Y-24710000D01*
X116091022Y-32710000D02*
X115202000Y-32710000D01*
X115202000Y-31310000D02*
X115202000Y-32710000D01*
D36*
X91263655Y-48162997D02*
X86455329Y-43354671D01*
D37*
X116702000Y-29300000D02*
X116702000Y-32099022D01*
X113102000Y-32720000D02*
X113112000Y-32710000D01*
X115702000Y-32210000D02*
X115202000Y-32710000D01*
D36*
%TO.N,/SW_A*%
X143562000Y-46229000D02*
X143562000Y-39429000D01*
X143510000Y-36179000D02*
X143562000Y-36127000D01*
X136958511Y-47966511D02*
X142110489Y-47966511D01*
X143510000Y-39767000D02*
X143510000Y-36179000D01*
X142110489Y-47966511D02*
X143510000Y-46567000D01*
X133823000Y-44831000D02*
X136958511Y-47966511D01*
X128651000Y-44831000D02*
X133823000Y-44831000D01*
%TO.N,/SW_START*%
X102002000Y-54110000D02*
X92956000Y-54110000D01*
X92956000Y-54110000D02*
X92230520Y-54835480D01*
X92230520Y-54835480D02*
X90726520Y-54835480D01*
X89452000Y-56110000D02*
X89452000Y-59905400D01*
X89452000Y-59905400D02*
X89379400Y-59978000D01*
X106402000Y-49710000D02*
X102002000Y-54110000D01*
X90726520Y-54835480D02*
X89452000Y-56110000D01*
D37*
%TO.N,/SCK*%
X119402000Y-44510000D02*
X119402000Y-37110000D01*
X124702000Y-49810000D02*
X119402000Y-44510000D01*
%TO.N,/SDA*%
X118602000Y-45056786D02*
X119402000Y-45856786D01*
X119402000Y-52110000D02*
X121013000Y-53721000D01*
X119402000Y-45856786D02*
X119402000Y-52110000D01*
X118602000Y-37110000D02*
X118602000Y-45056786D01*
X121013000Y-53721000D02*
X124587000Y-53721000D01*
%TO.N,/RESET*%
X110102000Y-37235000D02*
X116597000Y-37235000D01*
X116597000Y-37235000D02*
X116802000Y-37030000D01*
%TO.N,/DC{slash}RS*%
X118718321Y-52432749D02*
X121276572Y-54991000D01*
X117702000Y-44960000D02*
X118718321Y-45976321D01*
X121276572Y-54991000D02*
X124587000Y-54991000D01*
X118718321Y-45976321D02*
X118718321Y-52432749D01*
X117702000Y-36975000D02*
X117702000Y-44963214D01*
%TO.N,/CS*%
X120202000Y-42859000D02*
X120202000Y-37110000D01*
X124714000Y-47371000D02*
X120202000Y-42859000D01*
D36*
%TO.N,/SW_R*%
X88140420Y-51286232D02*
X88435228Y-50991424D01*
X106402000Y-46110000D02*
X98289000Y-46110000D01*
X83626902Y-46183098D02*
X88435228Y-50991424D01*
X93266041Y-51132959D02*
X88487703Y-51132959D01*
X98289000Y-46110000D02*
X93266041Y-51132959D01*
X84732132Y-51286232D02*
X88140420Y-51286232D01*
%TO.N,/SW_L*%
X99441000Y-39751000D02*
X95123000Y-35433000D01*
X91803326Y-35433000D02*
X90787326Y-36449000D01*
X95123000Y-35433000D02*
X91803326Y-35433000D01*
X85979000Y-31640674D02*
X90787326Y-36449000D01*
X106402000Y-43610000D02*
X104659500Y-43610000D01*
X104659500Y-43610000D02*
X100800500Y-39751000D01*
X100800500Y-39751000D02*
X99441000Y-39751000D01*
X90787326Y-33674038D02*
X91336132Y-33125232D01*
X90787326Y-36449000D02*
X90787326Y-33674038D01*
%TO.N,/SW_T*%
X82116899Y-37736677D02*
X79724609Y-37736677D01*
X79724609Y-37736677D02*
X78890132Y-36902200D01*
X81412000Y-52710000D02*
X73787000Y-45085000D01*
X106402000Y-47410000D02*
X98386000Y-47410000D01*
X73787000Y-39751000D02*
X76635800Y-36902200D01*
X93086000Y-52710000D02*
X81412000Y-52710000D01*
X76635800Y-36902200D02*
X78890132Y-36902200D01*
X77308573Y-42545003D02*
X82116899Y-37736677D01*
X98386000Y-47410000D02*
X93086000Y-52710000D01*
X73787000Y-45085000D02*
X73787000Y-39751000D01*
%TO.N,/SW_B*%
X130681000Y-38481000D02*
X128524000Y-38481000D01*
X151602000Y-34261000D02*
X150039000Y-32698000D01*
X137952000Y-31210000D02*
X130681000Y-38481000D01*
X151602000Y-43011000D02*
X151602000Y-36211000D01*
X151602000Y-36211000D02*
X151602000Y-34261000D01*
X150039000Y-32698000D02*
X148551000Y-31210000D01*
X148551000Y-31210000D02*
X137952000Y-31210000D01*
%TO.N,/SW_SEL*%
X82142800Y-56182600D02*
X82215400Y-56110000D01*
X84914920Y-53410480D02*
X101301520Y-53410480D01*
X106102000Y-48610000D02*
X106402000Y-48610000D01*
X82215400Y-56110000D02*
X84914920Y-53410480D01*
X82142800Y-59158600D02*
X82142800Y-56182600D01*
X101301520Y-53410480D02*
X106102000Y-48610000D01*
%TO.N,/SW_BOT*%
X103611000Y-44810000D02*
X102688200Y-43887200D01*
X92489333Y-44961755D02*
X97297659Y-40153429D01*
X97686132Y-40541902D02*
X97297659Y-40153429D01*
X106402000Y-44810000D02*
X103611000Y-44810000D01*
X102688200Y-43887200D02*
X97686132Y-43887200D01*
X97686132Y-43887200D02*
X97686132Y-40541902D01*
%TO.N,/RX*%
X110602000Y-40710000D02*
X105552000Y-40710000D01*
X101219000Y-29591000D02*
X96774000Y-29591000D01*
X112183000Y-42291000D02*
X110602000Y-40710000D01*
X104394000Y-39552000D02*
X104394000Y-32766000D01*
X112183000Y-49241000D02*
X112183000Y-42291000D01*
X104394000Y-32766000D02*
X101219000Y-29591000D01*
X105177000Y-40335000D02*
X104394000Y-39552000D01*
X112952000Y-50010000D02*
X112183000Y-49241000D01*
X105552000Y-40710000D02*
X105177000Y-40335000D01*
%TO.N,/TX*%
X110102000Y-41760000D02*
X105307865Y-41760000D01*
X110612730Y-42270730D02*
X110102000Y-41760000D01*
X105307865Y-41760000D02*
X103729932Y-40182068D01*
X103251000Y-33147000D02*
X100965000Y-30861000D01*
X110612730Y-48870730D02*
X110612730Y-42270730D01*
X103729932Y-40182068D02*
X103251000Y-39703135D01*
X111927000Y-50185000D02*
X110612730Y-48870730D01*
X100965000Y-30861000D02*
X96774000Y-30861000D01*
X103251000Y-39703135D02*
X103251000Y-33147000D01*
%TO.N,/FLASH_MODE*%
X105537000Y-38989000D02*
X106299000Y-39751000D01*
X106299000Y-39751000D02*
X110736000Y-39751000D01*
%TO.N,Net-(LS1-Pad1)*%
X152802000Y-59685000D02*
X150952000Y-57835000D01*
X150952000Y-57835000D02*
X150952000Y-47610000D01*
D37*
%TO.N,Net-(LS1-Pad2)*%
X152727000Y-56716000D02*
X152703000Y-56740000D01*
D36*
X152802000Y-47560000D02*
X152802000Y-56985000D01*
D37*
X152852000Y-47510000D02*
X152802000Y-47560000D01*
D36*
X152852000Y-56760000D02*
X152902000Y-56810000D01*
D37*
%TO.N,Net-(J2-Pad6)*%
X117202000Y-32310000D02*
X117202000Y-29300000D01*
X116802000Y-32710000D02*
X117202000Y-32310000D01*
X116802000Y-36290000D02*
X116802000Y-32710000D01*
%TO.N,Net-(J2-Pad7)*%
X117702000Y-29300000D02*
X117702000Y-36235000D01*
%TO.N,Net-(J2-Pad8)*%
X118202489Y-31952363D02*
X118202001Y-31952851D01*
X118202000Y-31110000D02*
X118202489Y-31110489D01*
X118202001Y-31952851D02*
X118202001Y-32366669D01*
X118202000Y-29300000D02*
X118202000Y-31110000D01*
X118202489Y-31110489D02*
X118202489Y-31952363D01*
X118602000Y-32766668D02*
X118602000Y-36390000D01*
X118202001Y-32366669D02*
X118602000Y-32766668D01*
%TO.N,Net-(J2-Pad9)*%
X118702000Y-32160240D02*
X118702000Y-29300000D01*
X119402000Y-32860240D02*
X118702000Y-32160240D01*
X119402000Y-36390000D02*
X119402000Y-32910000D01*
%TO.N,Net-(J2-Pad12)*%
X120202000Y-36390000D02*
X120202000Y-29300000D01*
%TD*%
%TA.AperFunction,Conductor*%
%TO.N,GND*%
G36*
X154240383Y-15088989D02*
G01*
X154277662Y-15095569D01*
X154284037Y-15094446D01*
X154284039Y-15094446D01*
X154298629Y-15091876D01*
X154317287Y-15090983D01*
X154570598Y-15110971D01*
X154582073Y-15112792D01*
X154862111Y-15180110D01*
X154873145Y-15183699D01*
X155139205Y-15294022D01*
X155149547Y-15299298D01*
X155395055Y-15449904D01*
X155404441Y-15456730D01*
X155539366Y-15572096D01*
X155623349Y-15643905D01*
X155631559Y-15652125D01*
X155818470Y-15871254D01*
X155825293Y-15880658D01*
X155914023Y-16025689D01*
X155975603Y-16126344D01*
X155980869Y-16136701D01*
X156090867Y-16402877D01*
X156094448Y-16413929D01*
X156161429Y-16694044D01*
X156163236Y-16705521D01*
X156166986Y-16753785D01*
X156178957Y-16907836D01*
X156182921Y-16958852D01*
X156182005Y-16977511D01*
X156179417Y-16992096D01*
X156179417Y-16992103D01*
X156178287Y-16998473D01*
X156179405Y-17004850D01*
X156185338Y-17038706D01*
X156186446Y-17050812D01*
X156609765Y-64103625D01*
X156609793Y-64106792D01*
X156608629Y-64120546D01*
X156603691Y-64148026D01*
X156603691Y-64148031D01*
X156602546Y-64154403D01*
X156606187Y-64175456D01*
X156607024Y-64194077D01*
X156586361Y-64447464D01*
X156584527Y-64458867D01*
X156516687Y-64738990D01*
X156513101Y-64749968D01*
X156402502Y-65016122D01*
X156397251Y-65026409D01*
X156246590Y-65272107D01*
X156239803Y-65281452D01*
X156052738Y-65500726D01*
X156044579Y-65508900D01*
X155825685Y-65696386D01*
X155816354Y-65703192D01*
X155570949Y-65854339D01*
X155560673Y-65859610D01*
X155294737Y-65970733D01*
X155283765Y-65974341D01*
X155003774Y-66042732D01*
X154992375Y-66044588D01*
X154860503Y-66055604D01*
X154739030Y-66065751D01*
X154720401Y-66064949D01*
X154705731Y-66062441D01*
X154705730Y-66062441D01*
X154699348Y-66061350D01*
X154692981Y-66062507D01*
X154692980Y-66062507D01*
X154663501Y-66067864D01*
X154650271Y-66069056D01*
X75359809Y-66069056D01*
X75345194Y-66067598D01*
X75314895Y-66061493D01*
X75293649Y-66064709D01*
X75275072Y-66065161D01*
X75019194Y-66039066D01*
X75007952Y-66037033D01*
X74726156Y-65963190D01*
X74715353Y-65959447D01*
X74448292Y-65843079D01*
X74438195Y-65837716D01*
X74221478Y-65700156D01*
X74192241Y-65681598D01*
X74183094Y-65674745D01*
X74066093Y-65572079D01*
X73964135Y-65482614D01*
X73956151Y-65474434D01*
X73794946Y-65281452D01*
X73769393Y-65250863D01*
X73762764Y-65241550D01*
X73612674Y-64991881D01*
X73607558Y-64981657D01*
X73511056Y-64744619D01*
X73497713Y-64711843D01*
X73494234Y-64700956D01*
X73476958Y-64627819D01*
X73427264Y-64417450D01*
X73425503Y-64406156D01*
X73424127Y-64388389D01*
X73414373Y-64262510D01*
X73405635Y-64149727D01*
X73406538Y-64131161D01*
X73409145Y-64116376D01*
X73409145Y-64116374D01*
X73410269Y-64110000D01*
X73403677Y-64072614D01*
X73402553Y-64059768D01*
X73402479Y-62688587D01*
X75495167Y-62688587D01*
X75495728Y-62692296D01*
X75495728Y-62692297D01*
X75518954Y-62845870D01*
X75543788Y-63010081D01*
X75656061Y-63315231D01*
X75658032Y-63318410D01*
X75658035Y-63318416D01*
X75747378Y-63462510D01*
X75827401Y-63591573D01*
X76050807Y-63827819D01*
X76317154Y-64014317D01*
X76447251Y-64070615D01*
X76612126Y-64141963D01*
X76612130Y-64141964D01*
X76615561Y-64143449D01*
X76619223Y-64144214D01*
X76619226Y-64144215D01*
X76916530Y-64206325D01*
X76933839Y-64209941D01*
X76936667Y-64210089D01*
X76936673Y-64210090D01*
X76943544Y-64210450D01*
X76943558Y-64210450D01*
X76944505Y-64210500D01*
X77183260Y-64210500D01*
X77185117Y-64210311D01*
X77185124Y-64210311D01*
X77421754Y-64186275D01*
X77425485Y-64185896D01*
X77515430Y-64157709D01*
X77732180Y-64089784D01*
X77732183Y-64089783D01*
X77735756Y-64088663D01*
X78020138Y-63931027D01*
X78226678Y-63754000D01*
X108331000Y-63754000D01*
X126365000Y-63754000D01*
X126365000Y-63488587D01*
X152195167Y-63488587D01*
X152195728Y-63492296D01*
X152195728Y-63492297D01*
X152235307Y-63754000D01*
X152243788Y-63810081D01*
X152356061Y-64115231D01*
X152358032Y-64118410D01*
X152358035Y-64118416D01*
X152447378Y-64262510D01*
X152527401Y-64391573D01*
X152750807Y-64627819D01*
X152753872Y-64629965D01*
X152753873Y-64629966D01*
X152894720Y-64728588D01*
X153017154Y-64814317D01*
X153136617Y-64866013D01*
X153312126Y-64941963D01*
X153312130Y-64941964D01*
X153315561Y-64943449D01*
X153319223Y-64944214D01*
X153319226Y-64944215D01*
X153523864Y-64986966D01*
X153633839Y-65009941D01*
X153636667Y-65010089D01*
X153636673Y-65010090D01*
X153643544Y-65010450D01*
X153643558Y-65010450D01*
X153644505Y-65010500D01*
X153883260Y-65010500D01*
X153885117Y-65010311D01*
X153885124Y-65010311D01*
X154121754Y-64986275D01*
X154125485Y-64985896D01*
X154157748Y-64975785D01*
X154432180Y-64889784D01*
X154432183Y-64889783D01*
X154435756Y-64888663D01*
X154720138Y-64731027D01*
X154755223Y-64700956D01*
X154964168Y-64521867D01*
X154967014Y-64519428D01*
X154988936Y-64491167D01*
X155164001Y-64265476D01*
X155164004Y-64265472D01*
X155166301Y-64262510D01*
X155309856Y-63970767D01*
X155391816Y-63656117D01*
X155395199Y-63591573D01*
X155408637Y-63335158D01*
X155408637Y-63335155D01*
X155408833Y-63331413D01*
X155405854Y-63311716D01*
X155360773Y-63013626D01*
X155360772Y-63013622D01*
X155360212Y-63009919D01*
X155247939Y-62704769D01*
X155245968Y-62701590D01*
X155245965Y-62701584D01*
X155078573Y-62431611D01*
X155076599Y-62428427D01*
X154853193Y-62192181D01*
X154586846Y-62005683D01*
X154361770Y-61908284D01*
X154291874Y-61878037D01*
X154291870Y-61878036D01*
X154288439Y-61876551D01*
X154284777Y-61875786D01*
X154284774Y-61875785D01*
X153972942Y-61810640D01*
X153970161Y-61810059D01*
X153967333Y-61809911D01*
X153967327Y-61809910D01*
X153960456Y-61809550D01*
X153960442Y-61809550D01*
X153959495Y-61809500D01*
X153720740Y-61809500D01*
X153718883Y-61809689D01*
X153718876Y-61809689D01*
X153482246Y-61833725D01*
X153478515Y-61834104D01*
X153474938Y-61835225D01*
X153171820Y-61930216D01*
X153171817Y-61930217D01*
X153168244Y-61931337D01*
X152883862Y-62088973D01*
X152636986Y-62300572D01*
X152634690Y-62303532D01*
X152634688Y-62303534D01*
X152439999Y-62554524D01*
X152439996Y-62554528D01*
X152437699Y-62557490D01*
X152294144Y-62849233D01*
X152212184Y-63163883D01*
X152211988Y-63167622D01*
X152196534Y-63462510D01*
X152195167Y-63488587D01*
X126365000Y-63488587D01*
X126365000Y-57404000D01*
X108331000Y-57404000D01*
X108331000Y-63754000D01*
X78226678Y-63754000D01*
X78267014Y-63719428D01*
X78269312Y-63716466D01*
X78464001Y-63465476D01*
X78464004Y-63465472D01*
X78466301Y-63462510D01*
X78609856Y-63170767D01*
X78691816Y-62856117D01*
X78699915Y-62701584D01*
X78708637Y-62535158D01*
X78708637Y-62535155D01*
X78708833Y-62531413D01*
X78708272Y-62527703D01*
X78660773Y-62213626D01*
X78660772Y-62213622D01*
X78660212Y-62209919D01*
X78547939Y-61904769D01*
X78545968Y-61901590D01*
X78545965Y-61901584D01*
X78378573Y-61631611D01*
X78376599Y-61628427D01*
X78153193Y-61392181D01*
X78073363Y-61336283D01*
X77889921Y-61207836D01*
X77889920Y-61207835D01*
X77886846Y-61205683D01*
X77709755Y-61129049D01*
X77591874Y-61078037D01*
X77591870Y-61078036D01*
X77588439Y-61076551D01*
X77584777Y-61075786D01*
X77584774Y-61075785D01*
X77272942Y-61010640D01*
X77270161Y-61010059D01*
X77267333Y-61009911D01*
X77267327Y-61009910D01*
X77260456Y-61009550D01*
X77260442Y-61009550D01*
X77259495Y-61009500D01*
X77020740Y-61009500D01*
X77018883Y-61009689D01*
X77018876Y-61009689D01*
X76782246Y-61033725D01*
X76778515Y-61034104D01*
X76774938Y-61035225D01*
X76471820Y-61130216D01*
X76471817Y-61130217D01*
X76468244Y-61131337D01*
X76183862Y-61288973D01*
X76181018Y-61291411D01*
X76181016Y-61291412D01*
X76128296Y-61336599D01*
X75936986Y-61500572D01*
X75934690Y-61503532D01*
X75934688Y-61503534D01*
X75739999Y-61754524D01*
X75739996Y-61754528D01*
X75737699Y-61757490D01*
X75594144Y-62049233D01*
X75512184Y-62363883D01*
X75511988Y-62367622D01*
X75503599Y-62527703D01*
X75495167Y-62688587D01*
X73402479Y-62688587D01*
X73401574Y-46010308D01*
X73423245Y-45957981D01*
X73475570Y-45936304D01*
X73527900Y-45957978D01*
X80776669Y-53206747D01*
X80786927Y-53219585D01*
X80796120Y-53234155D01*
X80800069Y-53237643D01*
X80800071Y-53237645D01*
X80862509Y-53292788D01*
X80865849Y-53295927D01*
X80886606Y-53316684D01*
X80888713Y-53318263D01*
X80888714Y-53318264D01*
X80903777Y-53329553D01*
X80908375Y-53333296D01*
X80967988Y-53385944D01*
X80986224Y-53394506D01*
X80990657Y-53396587D01*
X81003587Y-53404356D01*
X81023628Y-53419376D01*
X81028564Y-53421226D01*
X81028567Y-53421228D01*
X81098091Y-53447291D01*
X81103564Y-53449597D01*
X81168789Y-53480220D01*
X81175550Y-53483394D01*
X81180759Y-53484205D01*
X81200291Y-53487246D01*
X81214884Y-53491074D01*
X81238336Y-53499866D01*
X81243590Y-53500256D01*
X81243593Y-53500257D01*
X81317642Y-53505759D01*
X81323545Y-53506437D01*
X81349636Y-53510500D01*
X81378683Y-53510500D01*
X81384167Y-53510703D01*
X81461753Y-53516469D01*
X81461756Y-53516469D01*
X81467006Y-53516859D01*
X81489162Y-53512129D01*
X81504604Y-53510500D01*
X83504170Y-53510500D01*
X83556496Y-53532174D01*
X83578170Y-53584500D01*
X83556496Y-53636826D01*
X82480496Y-54712826D01*
X82428170Y-54734500D01*
X81725726Y-54734500D01*
X81724005Y-54734663D01*
X81723998Y-54734663D01*
X81677666Y-54739043D01*
X81677665Y-54739043D01*
X81673182Y-54739467D01*
X81460252Y-54814242D01*
X81455806Y-54817526D01*
X81455804Y-54817527D01*
X81341093Y-54902254D01*
X81278722Y-54948322D01*
X81275436Y-54952771D01*
X81219528Y-55028465D01*
X81144642Y-55129852D01*
X81069867Y-55342782D01*
X81064900Y-55395326D01*
X81064900Y-56824674D01*
X81069867Y-56877218D01*
X81144642Y-57090148D01*
X81278722Y-57271678D01*
X81300145Y-57287501D01*
X81312265Y-57296453D01*
X81341478Y-57344975D01*
X81342300Y-57355977D01*
X81342300Y-58740634D01*
X81320626Y-58792960D01*
X81276490Y-58837096D01*
X81201896Y-58997063D01*
X81192300Y-59069953D01*
X81192301Y-60887246D01*
X81201896Y-60960137D01*
X81204288Y-60965266D01*
X81204288Y-60965267D01*
X81204927Y-60966638D01*
X81276490Y-61120104D01*
X81401296Y-61244910D01*
X81561263Y-61319504D01*
X81634153Y-61329100D01*
X82142695Y-61329100D01*
X82651446Y-61329099D01*
X82653853Y-61328782D01*
X82653855Y-61328782D01*
X82718725Y-61320243D01*
X82718727Y-61320243D01*
X82724337Y-61319504D01*
X82730754Y-61316512D01*
X82865059Y-61253884D01*
X82884304Y-61244910D01*
X83009110Y-61120104D01*
X83083704Y-60960137D01*
X83093300Y-60887247D01*
X83093300Y-60688600D01*
X83114974Y-60636274D01*
X83167300Y-60614600D01*
X83212347Y-60629892D01*
X83388665Y-60765185D01*
X83560509Y-60836365D01*
X83601793Y-60853465D01*
X83607722Y-60855921D01*
X83783782Y-60879100D01*
X83901818Y-60879100D01*
X84077878Y-60855921D01*
X84083808Y-60853465D01*
X84125091Y-60836365D01*
X84296935Y-60765185D01*
X84465754Y-60635646D01*
X84520460Y-60620987D01*
X84569509Y-60649306D01*
X84584801Y-60694354D01*
X84584801Y-60885697D01*
X84585118Y-60890535D01*
X84593801Y-60956495D01*
X84596932Y-60967238D01*
X84667516Y-61118606D01*
X84674828Y-61129049D01*
X84792351Y-61246572D01*
X84802794Y-61253884D01*
X84954161Y-61324467D01*
X84964906Y-61327599D01*
X85030866Y-61336283D01*
X85035701Y-61336600D01*
X85274081Y-61336600D01*
X85284489Y-61332289D01*
X85288800Y-61321881D01*
X85288800Y-61321880D01*
X85796800Y-61321880D01*
X85801111Y-61332288D01*
X85811519Y-61336599D01*
X86049897Y-61336599D01*
X86054735Y-61336282D01*
X86120695Y-61327599D01*
X86131438Y-61324468D01*
X86282806Y-61253884D01*
X86293249Y-61246572D01*
X86410772Y-61129049D01*
X86418084Y-61118606D01*
X86488667Y-60967239D01*
X86491799Y-60956494D01*
X86500483Y-60890534D01*
X86500800Y-60885699D01*
X86500800Y-60247319D01*
X86496489Y-60236911D01*
X86486081Y-60232600D01*
X85811519Y-60232600D01*
X85801111Y-60236911D01*
X85796800Y-60247319D01*
X85796800Y-61321880D01*
X85288800Y-61321880D01*
X85288800Y-59709881D01*
X85796800Y-59709881D01*
X85801111Y-59720289D01*
X85811519Y-59724600D01*
X86486080Y-59724600D01*
X86496488Y-59720289D01*
X86500799Y-59709881D01*
X86500799Y-59071503D01*
X86500482Y-59066665D01*
X86491799Y-59000705D01*
X86488668Y-58989962D01*
X86418084Y-58838594D01*
X86410772Y-58828151D01*
X86293249Y-58710628D01*
X86282806Y-58703316D01*
X86131439Y-58632733D01*
X86120694Y-58629601D01*
X86054734Y-58620917D01*
X86049899Y-58620600D01*
X85811519Y-58620600D01*
X85801111Y-58624911D01*
X85796800Y-58635319D01*
X85796800Y-59709881D01*
X85288800Y-59709881D01*
X85288800Y-58635320D01*
X85284489Y-58624912D01*
X85274081Y-58620601D01*
X85035703Y-58620601D01*
X85030865Y-58620918D01*
X84964905Y-58629601D01*
X84954160Y-58632733D01*
X84848573Y-58681968D01*
X84791990Y-58684438D01*
X84750233Y-58646174D01*
X84743300Y-58614901D01*
X84743299Y-57732383D01*
X84743299Y-57729954D01*
X84733704Y-57657063D01*
X84700378Y-57585595D01*
X84697908Y-57529011D01*
X84736171Y-57487254D01*
X84774409Y-57480649D01*
X84823998Y-57485337D01*
X84824005Y-57485337D01*
X84825726Y-57485500D01*
X85805074Y-57485500D01*
X85806795Y-57485337D01*
X85806802Y-57485337D01*
X85853134Y-57480957D01*
X85853135Y-57480957D01*
X85857618Y-57480533D01*
X86070548Y-57405758D01*
X86115900Y-57372261D01*
X86247629Y-57274964D01*
X86252078Y-57271678D01*
X86386158Y-57090148D01*
X86411622Y-57017637D01*
X86427431Y-56972619D01*
X86465218Y-56930430D01*
X86525569Y-56928771D01*
X86666922Y-56987321D01*
X86902000Y-57018270D01*
X86906808Y-57017637D01*
X87132270Y-56987954D01*
X87137078Y-56987321D01*
X87356135Y-56896585D01*
X87544244Y-56752244D01*
X87688585Y-56564135D01*
X87779321Y-56345078D01*
X87810270Y-56110000D01*
X87779321Y-55874922D01*
X87688585Y-55655865D01*
X87544244Y-55467756D01*
X87356135Y-55323415D01*
X87137078Y-55232679D01*
X86902000Y-55201730D01*
X86666922Y-55232679D01*
X86525569Y-55291229D01*
X86468932Y-55291229D01*
X86427431Y-55247381D01*
X86387990Y-55135070D01*
X86386158Y-55129852D01*
X86311273Y-55028465D01*
X86255364Y-54952771D01*
X86252078Y-54948322D01*
X86189707Y-54902254D01*
X86074996Y-54817527D01*
X86074994Y-54817526D01*
X86070548Y-54814242D01*
X85857618Y-54739467D01*
X85853135Y-54739043D01*
X85853134Y-54739043D01*
X85806802Y-54734663D01*
X85806795Y-54734663D01*
X85805074Y-54734500D01*
X84901630Y-54734500D01*
X84849304Y-54712826D01*
X84827630Y-54660500D01*
X84849304Y-54608174D01*
X85224824Y-54232654D01*
X85277150Y-54210980D01*
X90040290Y-54210980D01*
X90092616Y-54232654D01*
X90114290Y-54284980D01*
X90092616Y-54337306D01*
X89717096Y-54712826D01*
X89664770Y-54734500D01*
X88962326Y-54734500D01*
X88960605Y-54734663D01*
X88960598Y-54734663D01*
X88914266Y-54739043D01*
X88914265Y-54739043D01*
X88909782Y-54739467D01*
X88696852Y-54814242D01*
X88692406Y-54817526D01*
X88692404Y-54817527D01*
X88577693Y-54902254D01*
X88515322Y-54948322D01*
X88512036Y-54952771D01*
X88456128Y-55028465D01*
X88381242Y-55129852D01*
X88306467Y-55342782D01*
X88301500Y-55395326D01*
X88301500Y-56824674D01*
X88306467Y-56877218D01*
X88381242Y-57090148D01*
X88515322Y-57271678D01*
X88519771Y-57274964D01*
X88621465Y-57350077D01*
X88650678Y-57398599D01*
X88651500Y-57409601D01*
X88651500Y-58667434D01*
X88629826Y-58719760D01*
X88513090Y-58836496D01*
X88438496Y-58996463D01*
X88428900Y-59069353D01*
X88428901Y-60886646D01*
X88438496Y-60959537D01*
X88440888Y-60964666D01*
X88440888Y-60964667D01*
X88461794Y-61009500D01*
X88513090Y-61119504D01*
X88637896Y-61244310D01*
X88797863Y-61318904D01*
X88870753Y-61328500D01*
X89379295Y-61328500D01*
X89888046Y-61328499D01*
X89890453Y-61328182D01*
X89890455Y-61328182D01*
X89955325Y-61319643D01*
X89955327Y-61319643D01*
X89960937Y-61318904D01*
X89981422Y-61309352D01*
X90025124Y-61288973D01*
X90120904Y-61244310D01*
X90245710Y-61119504D01*
X90320304Y-60959537D01*
X90329900Y-60886647D01*
X90329900Y-60688000D01*
X90351574Y-60635674D01*
X90403900Y-60614000D01*
X90448947Y-60629292D01*
X90625265Y-60764585D01*
X90844322Y-60855321D01*
X91020382Y-60878500D01*
X91138418Y-60878500D01*
X91314478Y-60855321D01*
X91533535Y-60764585D01*
X91702354Y-60635046D01*
X91757060Y-60620387D01*
X91806109Y-60648706D01*
X91821401Y-60693754D01*
X91821401Y-60885097D01*
X91821718Y-60889935D01*
X91830401Y-60955895D01*
X91833532Y-60966638D01*
X91904116Y-61118006D01*
X91911428Y-61128449D01*
X92028951Y-61245972D01*
X92039394Y-61253284D01*
X92190761Y-61323867D01*
X92201506Y-61326999D01*
X92267466Y-61335683D01*
X92272301Y-61336000D01*
X92510681Y-61336000D01*
X92521089Y-61331689D01*
X92525400Y-61321281D01*
X92525400Y-61321280D01*
X93033400Y-61321280D01*
X93037711Y-61331688D01*
X93048119Y-61335999D01*
X93286497Y-61335999D01*
X93291335Y-61335682D01*
X93357295Y-61326999D01*
X93368038Y-61323868D01*
X93519406Y-61253284D01*
X93529849Y-61245972D01*
X93647372Y-61128449D01*
X93654684Y-61118006D01*
X93725267Y-60966639D01*
X93728399Y-60955894D01*
X93737083Y-60889934D01*
X93737400Y-60885099D01*
X93737400Y-60246719D01*
X93733089Y-60236311D01*
X93722681Y-60232000D01*
X93048119Y-60232000D01*
X93037711Y-60236311D01*
X93033400Y-60246719D01*
X93033400Y-61321280D01*
X92525400Y-61321280D01*
X92525400Y-59709281D01*
X93033400Y-59709281D01*
X93037711Y-59719689D01*
X93048119Y-59724000D01*
X93722680Y-59724000D01*
X93733088Y-59719689D01*
X93737399Y-59709281D01*
X93737399Y-59070903D01*
X93737082Y-59066065D01*
X93728399Y-59000105D01*
X93725268Y-58989362D01*
X93654684Y-58837994D01*
X93647372Y-58827551D01*
X93529849Y-58710028D01*
X93519406Y-58702716D01*
X93368039Y-58632133D01*
X93357294Y-58629001D01*
X93291334Y-58620317D01*
X93286499Y-58620000D01*
X93048119Y-58620000D01*
X93037711Y-58624311D01*
X93033400Y-58634719D01*
X93033400Y-59709281D01*
X92525400Y-59709281D01*
X92525400Y-58634720D01*
X92521089Y-58624312D01*
X92510681Y-58620001D01*
X92272303Y-58620001D01*
X92267465Y-58620318D01*
X92201505Y-58629001D01*
X92190760Y-58632133D01*
X92085173Y-58681368D01*
X92028590Y-58683838D01*
X91986833Y-58645574D01*
X91979900Y-58614301D01*
X91979899Y-57731783D01*
X91979899Y-57729354D01*
X91970304Y-57656463D01*
X91937271Y-57585623D01*
X91934801Y-57529039D01*
X91973064Y-57487282D01*
X92011302Y-57480677D01*
X92060598Y-57485337D01*
X92060605Y-57485337D01*
X92062326Y-57485500D01*
X93041674Y-57485500D01*
X93043395Y-57485337D01*
X93043402Y-57485337D01*
X93089734Y-57480957D01*
X93089735Y-57480957D01*
X93094218Y-57480533D01*
X93307148Y-57405758D01*
X93352500Y-57372261D01*
X93484229Y-57274964D01*
X93488678Y-57271678D01*
X93622758Y-57090148D01*
X93651897Y-57007171D01*
X93668469Y-56959981D01*
X93706256Y-56917792D01*
X93738289Y-56910500D01*
X94166740Y-56910500D01*
X94195058Y-56916133D01*
X94225569Y-56928771D01*
X94366922Y-56987321D01*
X94602000Y-57018270D01*
X94606808Y-57017637D01*
X94832270Y-56987954D01*
X94837078Y-56987321D01*
X95056135Y-56896585D01*
X95244244Y-56752244D01*
X95388585Y-56564135D01*
X95479321Y-56345078D01*
X95510270Y-56110000D01*
X95479321Y-55874922D01*
X95388585Y-55655865D01*
X95244244Y-55467756D01*
X95056135Y-55323415D01*
X94837078Y-55232679D01*
X94602000Y-55201730D01*
X94366922Y-55232679D01*
X94362442Y-55234535D01*
X94362441Y-55234535D01*
X94195058Y-55303867D01*
X94166740Y-55309500D01*
X93738289Y-55309500D01*
X93685963Y-55287826D01*
X93668469Y-55260019D01*
X93624590Y-55135070D01*
X93622758Y-55129852D01*
X93547872Y-55028464D01*
X93534218Y-54973498D01*
X93563431Y-54924976D01*
X93607396Y-54910500D01*
X101904012Y-54910500D01*
X101920341Y-54912325D01*
X101937141Y-54916126D01*
X102025538Y-54910642D01*
X102030120Y-54910500D01*
X102059481Y-54910500D01*
X102070396Y-54908937D01*
X102080733Y-54907457D01*
X102086639Y-54906852D01*
X102100951Y-54905964D01*
X102166001Y-54901928D01*
X102189552Y-54893425D01*
X102204191Y-54889775D01*
X102217148Y-54887920D01*
X102223768Y-54886972D01*
X102223769Y-54886972D01*
X102228984Y-54886225D01*
X102233781Y-54884044D01*
X102301378Y-54853310D01*
X102306878Y-54851071D01*
X102376716Y-54825859D01*
X102381677Y-54824068D01*
X102401901Y-54809293D01*
X102414925Y-54801683D01*
X102432921Y-54793501D01*
X102432924Y-54793499D01*
X102437721Y-54791318D01*
X102473221Y-54760730D01*
X102497956Y-54739417D01*
X102502606Y-54735725D01*
X102521624Y-54721830D01*
X102521626Y-54721828D01*
X102523941Y-54720137D01*
X102544487Y-54699591D01*
X102548509Y-54695857D01*
X102607439Y-54645080D01*
X102607440Y-54645079D01*
X102611431Y-54641640D01*
X102623752Y-54622632D01*
X102633522Y-54610556D01*
X105857739Y-51386339D01*
X114837769Y-51386339D01*
X114840089Y-51391942D01*
X114842981Y-51393866D01*
X114852402Y-51398360D01*
X115063255Y-51464235D01*
X115073558Y-51465905D01*
X115294429Y-51469952D01*
X115304782Y-51468663D01*
X115517908Y-51410558D01*
X115527487Y-51406413D01*
X115551197Y-51391856D01*
X115552620Y-51389894D01*
X116235168Y-51389894D01*
X116237488Y-51395497D01*
X116240380Y-51397421D01*
X116249801Y-51401915D01*
X116460654Y-51467790D01*
X116470957Y-51469460D01*
X116691828Y-51473507D01*
X116702181Y-51472218D01*
X116915307Y-51414113D01*
X116924886Y-51409968D01*
X116948596Y-51395411D01*
X116955211Y-51386289D01*
X116954356Y-51380923D01*
X116606606Y-51033173D01*
X116596199Y-51028862D01*
X116585792Y-51033173D01*
X116239479Y-51379486D01*
X116235168Y-51389894D01*
X115552620Y-51389894D01*
X115557812Y-51382734D01*
X115556957Y-51377368D01*
X115209207Y-51029618D01*
X115198800Y-51025307D01*
X115188393Y-51029618D01*
X114842080Y-51375931D01*
X114837769Y-51386339D01*
X105857739Y-51386339D01*
X106660264Y-50583814D01*
X106684271Y-50567773D01*
X106856135Y-50496585D01*
X107044244Y-50352244D01*
X107188585Y-50164135D01*
X107279321Y-49945078D01*
X107284614Y-49904878D01*
X107309637Y-49714808D01*
X107310270Y-49710000D01*
X107279321Y-49474922D01*
X107188585Y-49255865D01*
X107180590Y-49245446D01*
X107149592Y-49205048D01*
X107134933Y-49150341D01*
X107149592Y-49114952D01*
X107185630Y-49067986D01*
X107188585Y-49064135D01*
X107279321Y-48845078D01*
X107285074Y-48801384D01*
X107309637Y-48614808D01*
X107310270Y-48610000D01*
X107279321Y-48374922D01*
X107188585Y-48155865D01*
X107175322Y-48138580D01*
X107160664Y-48083873D01*
X107173937Y-48050351D01*
X107282580Y-47899158D01*
X107282580Y-47899157D01*
X107285184Y-47895534D01*
X107289814Y-47884018D01*
X107373843Y-47674987D01*
X107375506Y-47670850D01*
X107409627Y-47431107D01*
X107409848Y-47410000D01*
X107380756Y-47169595D01*
X107295159Y-46943068D01*
X107241367Y-46864801D01*
X107197655Y-46801199D01*
X107185879Y-46745800D01*
X107198546Y-46716103D01*
X107282580Y-46599158D01*
X107282580Y-46599157D01*
X107285184Y-46595534D01*
X107340030Y-46459101D01*
X107373843Y-46374987D01*
X107375506Y-46370850D01*
X107409627Y-46131107D01*
X107409848Y-46110000D01*
X107383462Y-45891954D01*
X107381292Y-45874024D01*
X107380756Y-45869595D01*
X107305509Y-45670458D01*
X107296735Y-45647238D01*
X107296734Y-45647236D01*
X107295159Y-45643068D01*
X107248322Y-45574920D01*
X107197655Y-45501199D01*
X107185879Y-45445800D01*
X107198546Y-45416103D01*
X107282580Y-45299158D01*
X107282580Y-45299157D01*
X107285184Y-45295534D01*
X107307622Y-45239719D01*
X107373843Y-45074987D01*
X107375506Y-45070850D01*
X107409627Y-44831107D01*
X107409848Y-44810000D01*
X107380756Y-44569595D01*
X107312354Y-44388574D01*
X107296735Y-44347238D01*
X107296734Y-44347236D01*
X107295159Y-44343068D01*
X107232784Y-44252312D01*
X107221008Y-44196913D01*
X107233675Y-44167216D01*
X107241291Y-44156618D01*
X107268647Y-44118548D01*
X107282580Y-44099158D01*
X107282580Y-44099157D01*
X107285184Y-44095534D01*
X107291947Y-44078712D01*
X107373843Y-43874987D01*
X107375506Y-43870850D01*
X107409627Y-43631107D01*
X107409848Y-43610000D01*
X107380756Y-43369595D01*
X107308292Y-43177824D01*
X107296735Y-43147238D01*
X107296734Y-43147236D01*
X107295159Y-43143068D01*
X107241522Y-43065026D01*
X107160529Y-42947180D01*
X107160527Y-42947178D01*
X107157998Y-42943498D01*
X107003358Y-42805718D01*
X106980527Y-42785376D01*
X106980524Y-42785374D01*
X106977193Y-42782406D01*
X106821363Y-42699899D01*
X106785261Y-42656259D01*
X106790591Y-42599873D01*
X106834231Y-42563771D01*
X106855990Y-42560500D01*
X109738230Y-42560500D01*
X109790556Y-42582174D01*
X109812230Y-42634500D01*
X109812230Y-48772742D01*
X109810405Y-48789071D01*
X109806604Y-48805871D01*
X109809314Y-48849559D01*
X109812088Y-48894268D01*
X109812230Y-48898850D01*
X109812230Y-48928211D01*
X109812603Y-48930815D01*
X109815273Y-48949463D01*
X109815878Y-48955369D01*
X109820802Y-49034731D01*
X109822592Y-49039689D01*
X109829304Y-49058280D01*
X109832955Y-49072921D01*
X109836505Y-49097714D01*
X109838686Y-49102511D01*
X109869420Y-49170108D01*
X109871659Y-49175608D01*
X109898662Y-49250407D01*
X109901774Y-49254666D01*
X109901774Y-49254667D01*
X109913436Y-49270630D01*
X109921047Y-49283655D01*
X109929229Y-49301651D01*
X109929231Y-49301654D01*
X109931412Y-49306451D01*
X109934852Y-49310443D01*
X109934853Y-49310445D01*
X109983313Y-49366686D01*
X109987005Y-49371336D01*
X110000900Y-49390354D01*
X110002593Y-49392671D01*
X110023139Y-49413217D01*
X110026873Y-49417239D01*
X110072715Y-49470441D01*
X110081090Y-49480161D01*
X110085512Y-49483028D01*
X110085513Y-49483028D01*
X110100098Y-49492482D01*
X110112174Y-49502252D01*
X111053186Y-50443264D01*
X111069227Y-50467270D01*
X111140415Y-50639135D01*
X111284756Y-50827244D01*
X111472865Y-50971585D01*
X111691922Y-51062321D01*
X111927000Y-51093270D01*
X111931808Y-51092637D01*
X112157270Y-51062954D01*
X112162078Y-51062321D01*
X112381135Y-50971585D01*
X112450617Y-50918270D01*
X112536274Y-50852543D01*
X112590981Y-50837884D01*
X112609641Y-50842884D01*
X112716922Y-50887321D01*
X112952000Y-50918270D01*
X112956808Y-50917637D01*
X113182270Y-50887954D01*
X113187078Y-50887321D01*
X113406135Y-50796585D01*
X113590323Y-50655253D01*
X114383235Y-50655253D01*
X114411878Y-50874295D01*
X114414685Y-50884347D01*
X114470039Y-51010149D01*
X114478177Y-51017940D01*
X114481726Y-51017863D01*
X114829182Y-50670407D01*
X114833493Y-50660000D01*
X115564107Y-50660000D01*
X115568418Y-50670407D01*
X115888869Y-50990858D01*
X115899277Y-50995169D01*
X115909685Y-50990858D01*
X116226581Y-50673962D01*
X116230892Y-50663555D01*
X116961506Y-50663555D01*
X116965817Y-50673962D01*
X117307886Y-51016031D01*
X117318294Y-51020342D01*
X117321989Y-51018812D01*
X117371567Y-50916483D01*
X117374740Y-50906540D01*
X117411789Y-50686323D01*
X117412299Y-50680636D01*
X117412473Y-50666417D01*
X117412103Y-50660727D01*
X117380444Y-50439657D01*
X117377517Y-50429649D01*
X117324784Y-50313672D01*
X117316552Y-50305982D01*
X117312857Y-50306108D01*
X116965817Y-50653148D01*
X116961506Y-50663555D01*
X116230892Y-50663555D01*
X116226581Y-50653148D01*
X115906130Y-50332697D01*
X115895722Y-50328386D01*
X115885314Y-50332697D01*
X115568418Y-50649593D01*
X115564107Y-50660000D01*
X114833493Y-50660000D01*
X114829182Y-50649593D01*
X114486960Y-50307371D01*
X114476552Y-50303060D01*
X114472999Y-50304531D01*
X114420401Y-50416561D01*
X114417349Y-50426544D01*
X114383363Y-50644821D01*
X114383235Y-50655253D01*
X113590323Y-50655253D01*
X113594244Y-50652244D01*
X113738585Y-50464135D01*
X113829321Y-50245078D01*
X113860270Y-50010000D01*
X113860900Y-50010083D01*
X113881311Y-49960807D01*
X113914173Y-49941739D01*
X114005389Y-49916871D01*
X114835778Y-49916871D01*
X114840115Y-49942104D01*
X115188393Y-50290382D01*
X115198800Y-50294693D01*
X115209207Y-50290382D01*
X115554708Y-49944881D01*
X115558647Y-49935372D01*
X116235746Y-49935372D01*
X116237514Y-49945659D01*
X116585792Y-50293937D01*
X116596199Y-50298248D01*
X116606606Y-50293937D01*
X116952107Y-49948436D01*
X116958191Y-49933748D01*
X116958191Y-49885670D01*
X116958260Y-49885547D01*
X116956957Y-49877368D01*
X116609207Y-49529618D01*
X116598800Y-49525307D01*
X116588393Y-49529618D01*
X116242080Y-49875931D01*
X116235746Y-49891222D01*
X116235746Y-49935372D01*
X115558647Y-49935372D01*
X115560783Y-49930216D01*
X115560782Y-49901385D01*
X115556957Y-49877368D01*
X115209207Y-49529618D01*
X115198800Y-49525307D01*
X115188393Y-49529618D01*
X114842080Y-49875931D01*
X114835779Y-49891143D01*
X114835778Y-49916871D01*
X114005389Y-49916871D01*
X114017394Y-49913598D01*
X114026973Y-49909453D01*
X114050683Y-49894896D01*
X114057298Y-49885774D01*
X114056443Y-49880408D01*
X113752875Y-49576839D01*
X113741116Y-49561515D01*
X113740441Y-49560346D01*
X113738585Y-49555865D01*
X113710338Y-49519052D01*
X113597199Y-49371607D01*
X113594244Y-49367756D01*
X113584591Y-49360349D01*
X113409983Y-49226367D01*
X113409979Y-49226365D01*
X113406135Y-49223415D01*
X113401654Y-49221559D01*
X113400490Y-49220887D01*
X113385163Y-49209127D01*
X113339076Y-49163040D01*
X114063593Y-49163040D01*
X114067904Y-49173447D01*
X114409973Y-49515516D01*
X114423275Y-49521026D01*
X114447585Y-49521026D01*
X114447532Y-49518609D01*
X114481726Y-49517863D01*
X114829182Y-49170407D01*
X114833493Y-49160000D01*
X115564107Y-49160000D01*
X115568418Y-49170407D01*
X115888392Y-49490381D01*
X115898800Y-49494692D01*
X115909208Y-49490381D01*
X116229182Y-49170407D01*
X116233493Y-49160000D01*
X116964107Y-49160000D01*
X116968418Y-49170407D01*
X117310487Y-49512476D01*
X117326362Y-49519052D01*
X117347542Y-49519052D01*
X117347532Y-49518608D01*
X117381727Y-49517862D01*
X117729182Y-49170407D01*
X117733493Y-49160000D01*
X117729182Y-49149593D01*
X117386960Y-48807371D01*
X117371833Y-48801105D01*
X117349777Y-48801105D01*
X117349786Y-48801384D01*
X117315458Y-48802553D01*
X116968418Y-49149593D01*
X116964107Y-49160000D01*
X116233493Y-49160000D01*
X116229182Y-49149593D01*
X115909208Y-48829619D01*
X115898800Y-48825308D01*
X115888392Y-48829619D01*
X115568418Y-49149593D01*
X115564107Y-49160000D01*
X114833493Y-49160000D01*
X114829182Y-49149593D01*
X114486960Y-48807371D01*
X114474443Y-48802186D01*
X114449196Y-48802186D01*
X114449272Y-48804424D01*
X114414944Y-48805593D01*
X114067904Y-49152633D01*
X114063593Y-49163040D01*
X113339076Y-49163040D01*
X113005174Y-48829139D01*
X112983500Y-48776813D01*
X112983500Y-48462563D01*
X113363117Y-48462563D01*
X113367428Y-48472971D01*
X113687879Y-48793422D01*
X113698286Y-48797733D01*
X113708693Y-48793422D01*
X114029144Y-48472971D01*
X114033455Y-48462563D01*
X114032393Y-48460000D01*
X114864108Y-48460000D01*
X114868419Y-48470408D01*
X115188393Y-48790382D01*
X115198800Y-48794693D01*
X115209207Y-48790382D01*
X115529181Y-48470408D01*
X115533492Y-48460000D01*
X116264108Y-48460000D01*
X116268419Y-48470408D01*
X116588393Y-48790382D01*
X116598800Y-48794693D01*
X116609207Y-48790382D01*
X116929181Y-48470408D01*
X116933492Y-48460000D01*
X116929181Y-48449592D01*
X116609207Y-48129618D01*
X116598800Y-48125307D01*
X116588393Y-48129618D01*
X116268419Y-48449592D01*
X116264108Y-48460000D01*
X115533492Y-48460000D01*
X115529181Y-48449592D01*
X115209207Y-48129618D01*
X115198800Y-48125307D01*
X115188393Y-48129618D01*
X114868419Y-48449592D01*
X114864108Y-48460000D01*
X114032393Y-48460000D01*
X114029144Y-48452155D01*
X113708694Y-48131705D01*
X113698286Y-48127394D01*
X113687878Y-48131705D01*
X113367428Y-48452155D01*
X113363117Y-48462563D01*
X112983500Y-48462563D01*
X112983500Y-48148314D01*
X113005174Y-48095988D01*
X113328668Y-47772494D01*
X113332979Y-47762087D01*
X114063593Y-47762087D01*
X114067904Y-47772494D01*
X114409973Y-48114563D01*
X114423968Y-48120360D01*
X114447571Y-48120360D01*
X114447533Y-48118608D01*
X114481727Y-48117862D01*
X114829182Y-47770407D01*
X114833493Y-47760000D01*
X115564107Y-47760000D01*
X115568418Y-47770407D01*
X115888392Y-48090381D01*
X115898800Y-48094692D01*
X115909208Y-48090381D01*
X116229182Y-47770407D01*
X116233493Y-47760000D01*
X116964107Y-47760000D01*
X116968418Y-47770407D01*
X117310487Y-48112476D01*
X117326362Y-48119052D01*
X117347542Y-48119052D01*
X117347532Y-48118608D01*
X117381727Y-48117862D01*
X117729182Y-47770407D01*
X117733493Y-47760000D01*
X117729182Y-47749593D01*
X117386960Y-47407371D01*
X117371833Y-47401105D01*
X117349777Y-47401105D01*
X117349786Y-47401384D01*
X117315458Y-47402553D01*
X116968418Y-47749593D01*
X116964107Y-47760000D01*
X116233493Y-47760000D01*
X116229182Y-47749593D01*
X115909208Y-47429619D01*
X115898800Y-47425308D01*
X115888392Y-47429619D01*
X115568418Y-47749593D01*
X115564107Y-47760000D01*
X114833493Y-47760000D01*
X114829182Y-47749593D01*
X114486960Y-47407371D01*
X114473737Y-47401894D01*
X114449218Y-47401893D01*
X114449272Y-47403471D01*
X114414944Y-47404640D01*
X114067904Y-47751680D01*
X114063593Y-47762087D01*
X113332979Y-47762087D01*
X113328668Y-47751680D01*
X113005174Y-47428186D01*
X112983500Y-47375860D01*
X112983500Y-47038634D01*
X113338646Y-47038634D01*
X113339601Y-47044191D01*
X113687879Y-47392469D01*
X113698286Y-47396780D01*
X113708693Y-47392469D01*
X114054194Y-47046968D01*
X114058505Y-47036560D01*
X114056268Y-47031158D01*
X114045113Y-47023928D01*
X114035638Y-47019549D01*
X113991945Y-47006482D01*
X114833126Y-47006482D01*
X114833968Y-47006337D01*
X114840115Y-47042104D01*
X115188393Y-47390382D01*
X115198800Y-47394693D01*
X115209207Y-47390382D01*
X115554708Y-47044881D01*
X115559905Y-47032335D01*
X115559905Y-47016871D01*
X116235778Y-47016871D01*
X116240115Y-47042104D01*
X116588393Y-47390382D01*
X116598800Y-47394693D01*
X116609207Y-47390382D01*
X116954708Y-47044881D01*
X116960783Y-47030216D01*
X116960782Y-47001385D01*
X116956957Y-46977368D01*
X116609207Y-46629618D01*
X116598800Y-46625307D01*
X116588393Y-46629618D01*
X116242080Y-46975931D01*
X116235779Y-46991143D01*
X116235778Y-47016871D01*
X115559905Y-47016871D01*
X115559905Y-47014445D01*
X115559078Y-47014577D01*
X115553402Y-46978940D01*
X115205652Y-46631190D01*
X115195245Y-46626879D01*
X115184838Y-46631190D01*
X114838525Y-46977503D01*
X114833126Y-46990537D01*
X114833126Y-47006482D01*
X113991945Y-47006482D01*
X113823997Y-46956255D01*
X113813673Y-46954712D01*
X113592770Y-46953363D01*
X113582431Y-46954780D01*
X113370032Y-47015483D01*
X113360501Y-47019747D01*
X113345147Y-47029434D01*
X113338646Y-47038634D01*
X112983500Y-47038634D01*
X112983500Y-46256825D01*
X114379680Y-46256825D01*
X114408323Y-46475867D01*
X114411130Y-46485919D01*
X114466484Y-46611721D01*
X114474622Y-46619512D01*
X114478171Y-46619435D01*
X114825627Y-46271979D01*
X114829938Y-46261572D01*
X115560552Y-46261572D01*
X115564863Y-46271980D01*
X115885828Y-46592945D01*
X115896236Y-46597256D01*
X115906644Y-46592945D01*
X116229182Y-46270407D01*
X116233493Y-46260000D01*
X116964107Y-46260000D01*
X116968418Y-46270407D01*
X117310487Y-46612476D01*
X117320895Y-46616787D01*
X117324590Y-46615257D01*
X117374168Y-46512928D01*
X117377341Y-46502985D01*
X117414390Y-46282768D01*
X117414900Y-46277081D01*
X117415074Y-46262862D01*
X117414704Y-46257172D01*
X117383045Y-46036102D01*
X117380118Y-46026094D01*
X117327385Y-45910117D01*
X117319153Y-45902427D01*
X117315458Y-45902553D01*
X116968418Y-46249593D01*
X116964107Y-46260000D01*
X116233493Y-46260000D01*
X116229182Y-46249592D01*
X115908217Y-45928627D01*
X115897809Y-45924316D01*
X115887401Y-45928627D01*
X115564863Y-46251165D01*
X115560552Y-46261572D01*
X114829938Y-46261572D01*
X114825627Y-46251165D01*
X114483405Y-45908943D01*
X114472997Y-45904632D01*
X114469444Y-45906103D01*
X114416846Y-46018133D01*
X114413794Y-46028116D01*
X114379808Y-46246393D01*
X114379680Y-46256825D01*
X112983500Y-46256825D01*
X112983500Y-45538119D01*
X114835605Y-45538119D01*
X114836560Y-45543676D01*
X115184838Y-45891954D01*
X115195245Y-45896265D01*
X115205652Y-45891954D01*
X115551153Y-45546453D01*
X115555256Y-45536547D01*
X116239160Y-45536547D01*
X116240115Y-45542104D01*
X116588393Y-45890382D01*
X116598800Y-45894693D01*
X116609207Y-45890382D01*
X116954708Y-45544881D01*
X116959019Y-45534473D01*
X116956782Y-45529071D01*
X116945627Y-45521841D01*
X116936152Y-45517462D01*
X116724511Y-45454168D01*
X116714187Y-45452625D01*
X116493284Y-45451276D01*
X116482945Y-45452693D01*
X116270546Y-45513396D01*
X116261015Y-45517660D01*
X116245661Y-45527347D01*
X116239160Y-45536547D01*
X115555256Y-45536547D01*
X115555464Y-45536045D01*
X115553227Y-45530643D01*
X115542072Y-45523413D01*
X115532597Y-45519034D01*
X115320956Y-45455740D01*
X115310632Y-45454197D01*
X115089729Y-45452848D01*
X115079390Y-45454265D01*
X114866991Y-45514968D01*
X114857460Y-45519232D01*
X114842106Y-45528919D01*
X114835605Y-45538119D01*
X112983500Y-45538119D01*
X112983500Y-42388994D01*
X112985325Y-42372663D01*
X112986321Y-42368260D01*
X112989127Y-42355860D01*
X112983642Y-42267446D01*
X112983500Y-42262864D01*
X112983500Y-42233519D01*
X112981209Y-42217521D01*
X112980458Y-42212275D01*
X112979853Y-42206367D01*
X112975967Y-42143736D01*
X112974929Y-42127000D01*
X112966896Y-42104747D01*
X112966426Y-42103446D01*
X112962776Y-42088810D01*
X112959972Y-42069232D01*
X112959225Y-42064016D01*
X112926304Y-41991610D01*
X112924072Y-41986125D01*
X112898860Y-41916286D01*
X112898858Y-41916282D01*
X112897068Y-41911324D01*
X112882295Y-41891101D01*
X112874684Y-41878077D01*
X112866501Y-41860080D01*
X112864318Y-41855279D01*
X112812406Y-41795032D01*
X112808718Y-41790386D01*
X112794823Y-41771366D01*
X112794819Y-41771361D01*
X112793137Y-41769059D01*
X112772591Y-41748513D01*
X112768857Y-41744491D01*
X112718080Y-41685561D01*
X112718079Y-41685560D01*
X112714640Y-41681569D01*
X112710217Y-41678702D01*
X112695632Y-41669248D01*
X112683556Y-41659478D01*
X111441099Y-40417021D01*
X111419425Y-40364695D01*
X111434717Y-40319647D01*
X111437952Y-40315432D01*
X111522585Y-40205135D01*
X111605394Y-40005215D01*
X111611465Y-39990559D01*
X111611465Y-39990558D01*
X111613321Y-39986078D01*
X111644270Y-39751000D01*
X111613321Y-39515922D01*
X111522585Y-39296865D01*
X111378244Y-39108756D01*
X111190135Y-38964415D01*
X110971078Y-38873679D01*
X110736000Y-38842730D01*
X110500922Y-38873679D01*
X110496442Y-38875535D01*
X110496441Y-38875535D01*
X110329058Y-38944867D01*
X110300740Y-38950500D01*
X106661230Y-38950500D01*
X106608904Y-38928826D01*
X106545813Y-38865735D01*
X106524675Y-38822299D01*
X106520452Y-38787397D01*
X106515756Y-38748595D01*
X106438124Y-38543146D01*
X106431735Y-38526238D01*
X106431734Y-38526236D01*
X106430159Y-38522068D01*
X106344073Y-38396812D01*
X106295529Y-38326180D01*
X106295527Y-38326178D01*
X106292998Y-38322498D01*
X106177788Y-38219849D01*
X106115527Y-38164376D01*
X106115524Y-38164374D01*
X106112193Y-38161406D01*
X105898180Y-38048093D01*
X105874907Y-38042247D01*
X105725590Y-38004741D01*
X105663317Y-37989099D01*
X105540486Y-37988456D01*
X105425619Y-37987854D01*
X105425616Y-37987854D01*
X105421161Y-37987831D01*
X105416826Y-37988872D01*
X105416824Y-37988872D01*
X105285775Y-38020334D01*
X105229835Y-38011474D01*
X105196545Y-37965654D01*
X105194500Y-37948379D01*
X105194500Y-32863988D01*
X105196325Y-32847656D01*
X105200126Y-32830859D01*
X105194642Y-32742462D01*
X105194500Y-32737880D01*
X105194500Y-32708519D01*
X105192602Y-32695262D01*
X105191457Y-32687267D01*
X105190852Y-32681361D01*
X105190231Y-32671346D01*
X105185928Y-32601999D01*
X105181932Y-32590930D01*
X105177424Y-32578441D01*
X105173776Y-32563807D01*
X105170973Y-32544239D01*
X105170225Y-32539016D01*
X105137301Y-32466603D01*
X105135069Y-32461118D01*
X105109858Y-32391283D01*
X105109857Y-32391281D01*
X105108067Y-32386323D01*
X105093294Y-32366102D01*
X105085686Y-32353084D01*
X105075318Y-32330279D01*
X105071878Y-32326287D01*
X105071875Y-32326282D01*
X105023403Y-32270028D01*
X105019709Y-32265376D01*
X105005824Y-32246369D01*
X105004137Y-32244059D01*
X104983591Y-32223513D01*
X104979857Y-32219491D01*
X104929080Y-32160561D01*
X104929079Y-32160560D01*
X104925640Y-32156569D01*
X104921217Y-32153702D01*
X104906632Y-32144248D01*
X104894556Y-32134478D01*
X101996904Y-29236826D01*
X101975230Y-29184500D01*
X101996904Y-29132174D01*
X102049230Y-29110500D01*
X105466740Y-29110500D01*
X105495058Y-29116133D01*
X105587984Y-29154624D01*
X105666922Y-29187321D01*
X105902000Y-29218270D01*
X105906808Y-29217637D01*
X106132270Y-29187954D01*
X106137078Y-29187321D01*
X106356135Y-29096585D01*
X106501556Y-28985000D01*
X107118730Y-28985000D01*
X107149679Y-29220078D01*
X107151535Y-29224558D01*
X107151535Y-29224559D01*
X107153424Y-29229120D01*
X107240415Y-29439135D01*
X107384756Y-29627244D01*
X107572865Y-29771585D01*
X107791922Y-29862321D01*
X108027000Y-29893270D01*
X108031808Y-29892637D01*
X108257270Y-29862954D01*
X108262078Y-29862321D01*
X108481135Y-29771585D01*
X108540814Y-29725792D01*
X108585862Y-29710500D01*
X110255996Y-29710500D01*
X110264695Y-29711013D01*
X110324252Y-29718062D01*
X110329694Y-29717068D01*
X110329697Y-29717068D01*
X110415873Y-29701329D01*
X110418166Y-29700947D01*
X110504837Y-29687917D01*
X110504839Y-29687916D01*
X110510302Y-29687095D01*
X110515284Y-29684703D01*
X110520574Y-29683075D01*
X110520715Y-29683534D01*
X110520949Y-29683458D01*
X110520793Y-29683003D01*
X110526024Y-29681212D01*
X110531467Y-29680218D01*
X110614125Y-29637281D01*
X110616196Y-29636246D01*
X110638648Y-29625465D01*
X110673873Y-29608550D01*
X110695202Y-29598308D01*
X110695203Y-29598307D01*
X110700187Y-29595914D01*
X110704249Y-29592159D01*
X110708823Y-29589050D01*
X110709090Y-29589444D01*
X110711415Y-29587810D01*
X110711151Y-29587419D01*
X110714646Y-29585064D01*
X110718394Y-29583117D01*
X110726244Y-29576412D01*
X110785867Y-29516789D01*
X110787937Y-29514798D01*
X110854866Y-29452929D01*
X110857644Y-29448147D01*
X110861103Y-29443829D01*
X110861119Y-29443842D01*
X110868806Y-29433850D01*
X115070482Y-25232174D01*
X115122808Y-25210500D01*
X115427500Y-25210500D01*
X115479826Y-25232174D01*
X115501500Y-25284500D01*
X115501500Y-26218000D01*
X115479826Y-26270326D01*
X115427500Y-26292000D01*
X115416719Y-26292000D01*
X115406311Y-26296311D01*
X115402000Y-26306719D01*
X115402000Y-26413534D01*
X115380326Y-26465860D01*
X115328000Y-26487534D01*
X115275674Y-26465860D01*
X115193504Y-26383690D01*
X115132820Y-26355393D01*
X115038668Y-26311488D01*
X115038664Y-26311487D01*
X115033537Y-26309096D01*
X115027924Y-26308357D01*
X115027900Y-26308350D01*
X115020289Y-26305673D01*
X114987281Y-26292001D01*
X114944903Y-26292001D01*
X114940065Y-26292318D01*
X114890316Y-26298867D01*
X114880658Y-26299500D01*
X114458600Y-26299501D01*
X114443354Y-26299501D01*
X114440947Y-26299818D01*
X114440945Y-26299818D01*
X114376075Y-26308357D01*
X114376073Y-26308357D01*
X114370463Y-26309096D01*
X114210496Y-26383690D01*
X114085690Y-26508496D01*
X114011096Y-26668463D01*
X114001500Y-26741353D01*
X114001501Y-31858646D01*
X114001818Y-31861053D01*
X114001818Y-31861055D01*
X114008588Y-31912482D01*
X114011096Y-31931537D01*
X114013488Y-31936666D01*
X114013488Y-31936667D01*
X114034440Y-31981598D01*
X114085690Y-32091504D01*
X114210496Y-32216310D01*
X114370463Y-32290904D01*
X114376076Y-32291643D01*
X114388511Y-32293280D01*
X114443353Y-32300500D01*
X114458591Y-32300500D01*
X114880651Y-32300499D01*
X114890308Y-32301132D01*
X114940067Y-32307683D01*
X114944901Y-32308000D01*
X114987281Y-32308000D01*
X115020301Y-32294323D01*
X115027914Y-32291646D01*
X115027925Y-32291643D01*
X115033537Y-32290904D01*
X115040469Y-32287672D01*
X115114421Y-32253187D01*
X115193504Y-32216310D01*
X115275674Y-32134140D01*
X115328000Y-32112466D01*
X115380326Y-32134140D01*
X115402000Y-32186466D01*
X115402000Y-32293280D01*
X115406311Y-32303688D01*
X115416719Y-32307999D01*
X115442459Y-32307999D01*
X115442487Y-32308000D01*
X115487281Y-32308000D01*
X115497689Y-32303689D01*
X115502000Y-32293281D01*
X115502000Y-32186466D01*
X115523674Y-32134140D01*
X115576000Y-32112466D01*
X115628326Y-32134140D01*
X115710496Y-32216310D01*
X115717318Y-32219491D01*
X115865332Y-32288512D01*
X115865336Y-32288513D01*
X115870463Y-32290904D01*
X115876076Y-32291643D01*
X115876100Y-32291650D01*
X115883711Y-32294327D01*
X115916719Y-32307999D01*
X115959097Y-32307999D01*
X115963935Y-32307682D01*
X116013685Y-32301133D01*
X116023343Y-32300500D01*
X116096019Y-32300500D01*
X116148345Y-32322174D01*
X116170019Y-32374500D01*
X116164581Y-32397948D01*
X116165826Y-32398342D01*
X116137731Y-32487178D01*
X116136995Y-32489383D01*
X116117959Y-32543591D01*
X116106136Y-32577257D01*
X116105919Y-32582782D01*
X116104882Y-32588217D01*
X116104415Y-32588128D01*
X116103926Y-32590930D01*
X116104388Y-32591020D01*
X116103581Y-32595160D01*
X116102310Y-32599180D01*
X116101500Y-32609472D01*
X116101500Y-32693808D01*
X116101443Y-32696713D01*
X116100176Y-32728976D01*
X116097867Y-32787737D01*
X116099285Y-32793086D01*
X116099892Y-32798580D01*
X116099871Y-32798582D01*
X116101500Y-32811081D01*
X116101500Y-36460500D01*
X116079826Y-36512826D01*
X116027500Y-36534500D01*
X110693442Y-36534500D01*
X110648394Y-36519208D01*
X110612980Y-36492034D01*
X110556135Y-36448415D01*
X110342452Y-36359905D01*
X110341559Y-36359535D01*
X110341558Y-36359535D01*
X110337078Y-36357679D01*
X110102000Y-36326730D01*
X109866922Y-36357679D01*
X109862442Y-36359535D01*
X109862441Y-36359535D01*
X109861548Y-36359905D01*
X109647865Y-36448415D01*
X109459756Y-36592756D01*
X109315415Y-36780865D01*
X109224679Y-36999922D01*
X109193730Y-37235000D01*
X109224679Y-37470078D01*
X109226535Y-37474558D01*
X109226535Y-37474559D01*
X109229244Y-37481099D01*
X109315415Y-37689135D01*
X109459756Y-37877244D01*
X109647865Y-38021585D01*
X109866922Y-38112321D01*
X110102000Y-38143270D01*
X110106808Y-38142637D01*
X110332270Y-38112954D01*
X110337078Y-38112321D01*
X110556135Y-38021585D01*
X110648394Y-37950792D01*
X110693442Y-37935500D01*
X116550996Y-37935500D01*
X116559694Y-37936013D01*
X116565218Y-37936667D01*
X116619252Y-37943062D01*
X116624694Y-37942068D01*
X116624697Y-37942068D01*
X116710873Y-37926329D01*
X116713166Y-37925947D01*
X116799837Y-37912917D01*
X116799839Y-37912916D01*
X116805302Y-37912095D01*
X116810284Y-37909703D01*
X116815574Y-37908075D01*
X116815715Y-37908534D01*
X116815949Y-37908458D01*
X116815793Y-37908003D01*
X116821025Y-37906212D01*
X116826467Y-37905218D01*
X116831374Y-37902669D01*
X116831377Y-37902668D01*
X116893388Y-37870456D01*
X116949814Y-37865570D01*
X116993169Y-37902013D01*
X117001500Y-37936125D01*
X117001500Y-44913996D01*
X117000987Y-44922694D01*
X116993938Y-44982252D01*
X116994931Y-44987689D01*
X116994931Y-44987691D01*
X117007936Y-45058902D01*
X117008318Y-45061194D01*
X117018759Y-45130637D01*
X117024905Y-45171516D01*
X117027297Y-45176498D01*
X117027298Y-45176501D01*
X117028593Y-45179197D01*
X117030963Y-45184983D01*
X117031782Y-45189467D01*
X117051309Y-45227057D01*
X117054300Y-45232815D01*
X117055339Y-45234895D01*
X117074835Y-45275496D01*
X117116086Y-45361401D01*
X117124305Y-45370292D01*
X117128401Y-45375466D01*
X117128883Y-45376394D01*
X117135588Y-45384244D01*
X117155913Y-45404569D01*
X117157927Y-45406664D01*
X117259071Y-45516080D01*
X117269864Y-45522349D01*
X117270658Y-45522810D01*
X117285817Y-45534473D01*
X117996147Y-46244804D01*
X118017821Y-46297130D01*
X118017821Y-46886912D01*
X117996147Y-46939238D01*
X117964156Y-46958063D01*
X117770546Y-47013396D01*
X117761015Y-47017660D01*
X117745661Y-47027347D01*
X117739160Y-47036547D01*
X117740115Y-47042104D01*
X117996147Y-47298136D01*
X118017821Y-47350462D01*
X118017821Y-48169538D01*
X117996147Y-48221864D01*
X117768419Y-48449592D01*
X117764108Y-48460000D01*
X117768419Y-48470408D01*
X117996147Y-48698136D01*
X118017821Y-48750462D01*
X118017821Y-49569538D01*
X117996147Y-49621864D01*
X117742080Y-49875931D01*
X117737769Y-49886339D01*
X117740089Y-49891942D01*
X117742981Y-49893866D01*
X117752402Y-49898360D01*
X117965888Y-49965058D01*
X118009370Y-50001350D01*
X118017821Y-50035691D01*
X118017821Y-52386745D01*
X118017308Y-52395443D01*
X118010259Y-52455001D01*
X118011253Y-52460443D01*
X118011253Y-52460446D01*
X118026992Y-52546622D01*
X118027374Y-52548915D01*
X118036555Y-52609980D01*
X118041226Y-52641051D01*
X118043618Y-52646033D01*
X118045246Y-52651323D01*
X118044787Y-52651464D01*
X118044863Y-52651698D01*
X118045318Y-52651542D01*
X118047109Y-52656773D01*
X118048103Y-52662216D01*
X118050653Y-52667125D01*
X118091036Y-52744866D01*
X118092075Y-52746945D01*
X118123969Y-52813363D01*
X118132407Y-52830936D01*
X118136162Y-52834998D01*
X118139271Y-52839572D01*
X118138877Y-52839839D01*
X118140511Y-52842164D01*
X118140902Y-52841900D01*
X118143257Y-52845395D01*
X118145204Y-52849143D01*
X118151909Y-52856993D01*
X118211532Y-52916616D01*
X118213523Y-52918686D01*
X118275392Y-52985615D01*
X118280174Y-52988393D01*
X118284492Y-52991852D01*
X118284479Y-52991868D01*
X118294471Y-52999555D01*
X120158601Y-54863685D01*
X120180275Y-54916011D01*
X120158601Y-54968337D01*
X120106275Y-54990011D01*
X111397741Y-54990011D01*
X111345415Y-54968337D01*
X111109814Y-54732736D01*
X111093773Y-54708729D01*
X111064152Y-54637217D01*
X111022585Y-54536865D01*
X110878244Y-54348756D01*
X110690135Y-54204415D01*
X110471078Y-54113679D01*
X110236000Y-54082730D01*
X110000922Y-54113679D01*
X109781865Y-54204415D01*
X109593756Y-54348756D01*
X109449415Y-54536865D01*
X109358679Y-54755922D01*
X109358046Y-54760730D01*
X109346152Y-54851071D01*
X109327730Y-54991000D01*
X109358679Y-55226078D01*
X109449415Y-55445135D01*
X109593756Y-55633244D01*
X109781865Y-55777585D01*
X109953729Y-55848773D01*
X109977736Y-55864814D01*
X110400180Y-56287258D01*
X110410438Y-56300096D01*
X110419631Y-56314666D01*
X110423580Y-56318154D01*
X110423582Y-56318156D01*
X110486020Y-56373299D01*
X110489360Y-56376438D01*
X110510117Y-56397195D01*
X110512224Y-56398774D01*
X110512225Y-56398775D01*
X110527288Y-56410064D01*
X110531886Y-56413807D01*
X110591499Y-56466455D01*
X110607595Y-56474012D01*
X110614168Y-56477098D01*
X110627098Y-56484867D01*
X110647139Y-56499887D01*
X110652075Y-56501737D01*
X110652078Y-56501739D01*
X110721602Y-56527802D01*
X110727075Y-56530108D01*
X110734984Y-56533821D01*
X110799061Y-56563905D01*
X110804270Y-56564716D01*
X110823802Y-56567757D01*
X110838395Y-56571585D01*
X110861847Y-56580377D01*
X110867101Y-56580767D01*
X110867104Y-56580768D01*
X110941153Y-56586270D01*
X110947056Y-56586948D01*
X110973147Y-56591011D01*
X111002194Y-56591011D01*
X111007678Y-56591214D01*
X111085264Y-56596980D01*
X111085267Y-56596980D01*
X111090517Y-56597370D01*
X111112673Y-56592640D01*
X111128115Y-56591011D01*
X132879512Y-56591011D01*
X132895841Y-56592836D01*
X132912641Y-56596637D01*
X133001038Y-56591153D01*
X133005620Y-56591011D01*
X133034981Y-56591011D01*
X133045896Y-56589448D01*
X133056233Y-56587968D01*
X133062139Y-56587363D01*
X133079754Y-56586270D01*
X133141501Y-56582439D01*
X133165052Y-56573936D01*
X133179691Y-56570286D01*
X133197354Y-56567757D01*
X133199268Y-56567483D01*
X133199269Y-56567483D01*
X133204484Y-56566736D01*
X133210205Y-56564135D01*
X133276878Y-56533821D01*
X133282378Y-56531582D01*
X133352216Y-56506370D01*
X133357177Y-56504579D01*
X133377401Y-56489804D01*
X133390425Y-56482194D01*
X133408421Y-56474012D01*
X133408424Y-56474010D01*
X133413221Y-56471829D01*
X133423510Y-56462964D01*
X133473456Y-56419928D01*
X133478106Y-56416236D01*
X133497124Y-56402341D01*
X133497126Y-56402339D01*
X133499441Y-56400648D01*
X133519987Y-56380102D01*
X133524009Y-56376368D01*
X133582939Y-56325591D01*
X133582940Y-56325590D01*
X133586931Y-56322151D01*
X133599252Y-56303143D01*
X133609022Y-56291067D01*
X140260264Y-49639825D01*
X140284271Y-49623784D01*
X140456135Y-49552596D01*
X140644244Y-49408255D01*
X140788585Y-49220146D01*
X140870073Y-49023415D01*
X140877465Y-49005570D01*
X140877465Y-49005569D01*
X140879321Y-49001089D01*
X140901667Y-48831351D01*
X140929986Y-48782303D01*
X140975034Y-48767011D01*
X142012501Y-48767011D01*
X142028830Y-48768836D01*
X142045630Y-48772637D01*
X142134027Y-48767153D01*
X142138609Y-48767011D01*
X142167970Y-48767011D01*
X142178885Y-48765448D01*
X142189222Y-48763968D01*
X142195128Y-48763363D01*
X142212743Y-48762270D01*
X142274490Y-48758439D01*
X142298041Y-48749936D01*
X142312680Y-48746286D01*
X142330343Y-48743757D01*
X142332257Y-48743483D01*
X142332258Y-48743483D01*
X142337473Y-48742736D01*
X142342270Y-48740555D01*
X142409867Y-48709821D01*
X142415367Y-48707582D01*
X142485205Y-48682370D01*
X142490166Y-48680579D01*
X142510390Y-48665804D01*
X142523414Y-48658194D01*
X142541410Y-48650012D01*
X142541413Y-48650010D01*
X142546210Y-48647829D01*
X142556499Y-48638964D01*
X142606445Y-48595928D01*
X142611095Y-48592236D01*
X142630113Y-48578341D01*
X142630115Y-48578339D01*
X142632430Y-48576648D01*
X142652976Y-48556102D01*
X142656998Y-48552368D01*
X142715928Y-48501591D01*
X142715929Y-48501590D01*
X142719920Y-48498151D01*
X142732241Y-48479143D01*
X142742011Y-48467067D01*
X143119904Y-48089174D01*
X143172230Y-48067500D01*
X144000575Y-48067499D01*
X144068646Y-48067499D01*
X144071053Y-48067182D01*
X144071055Y-48067182D01*
X144135925Y-48058643D01*
X144135927Y-48058643D01*
X144141537Y-48057904D01*
X144157735Y-48050351D01*
X144245569Y-48009393D01*
X144301504Y-47983310D01*
X144426310Y-47858504D01*
X144500904Y-47698537D01*
X144510500Y-47625647D01*
X144510500Y-47610000D01*
X150043730Y-47610000D01*
X150074679Y-47845078D01*
X150076535Y-47849558D01*
X150076535Y-47849559D01*
X150145867Y-48016942D01*
X150151500Y-48045260D01*
X150151500Y-57737012D01*
X150149675Y-57753341D01*
X150145874Y-57770141D01*
X150146201Y-57775407D01*
X150151358Y-57858538D01*
X150151500Y-57863120D01*
X150151500Y-57892481D01*
X150151873Y-57895085D01*
X150154543Y-57913733D01*
X150155148Y-57919639D01*
X150160072Y-57999001D01*
X150161862Y-58003959D01*
X150168574Y-58022550D01*
X150172225Y-58037191D01*
X150175775Y-58061984D01*
X150177956Y-58066781D01*
X150208690Y-58134378D01*
X150210929Y-58139878D01*
X150237932Y-58214677D01*
X150241044Y-58218936D01*
X150241044Y-58218937D01*
X150252706Y-58234900D01*
X150260317Y-58247925D01*
X150268499Y-58265921D01*
X150268501Y-58265924D01*
X150270682Y-58270721D01*
X150274122Y-58274713D01*
X150274123Y-58274715D01*
X150322583Y-58330956D01*
X150326275Y-58335606D01*
X150340170Y-58354624D01*
X150341863Y-58356941D01*
X150362409Y-58377487D01*
X150366143Y-58381508D01*
X150420360Y-58444431D01*
X150424782Y-58447298D01*
X150424783Y-58447298D01*
X150439368Y-58456752D01*
X150451444Y-58466522D01*
X151517826Y-59532904D01*
X151539500Y-59585230D01*
X151539501Y-60515488D01*
X151556896Y-60659244D01*
X151558647Y-60663666D01*
X151558647Y-60663667D01*
X151643818Y-60878783D01*
X151645804Y-60883800D01*
X151791825Y-61076175D01*
X151984200Y-61222196D01*
X151988890Y-61224053D01*
X151988892Y-61224054D01*
X152046961Y-61247045D01*
X152208756Y-61311104D01*
X152297814Y-61321881D01*
X152350295Y-61328232D01*
X152350298Y-61328232D01*
X152352511Y-61328500D01*
X152801899Y-61328500D01*
X153251488Y-61328499D01*
X153253701Y-61328231D01*
X153253705Y-61328231D01*
X153319717Y-61320243D01*
X153395244Y-61311104D01*
X153399667Y-61309353D01*
X153615108Y-61224054D01*
X153615110Y-61224053D01*
X153619800Y-61222196D01*
X153812175Y-61076175D01*
X153958196Y-60883800D01*
X153960183Y-60878783D01*
X154005159Y-60765185D01*
X154047104Y-60659244D01*
X154064500Y-60515489D01*
X154064499Y-58854512D01*
X154063102Y-58842962D01*
X154050719Y-58740634D01*
X154047104Y-58710756D01*
X154036684Y-58684438D01*
X153960054Y-58490892D01*
X153960053Y-58490890D01*
X153958196Y-58486200D01*
X153877388Y-58379739D01*
X153863016Y-58324957D01*
X153877388Y-58290260D01*
X153889188Y-58274715D01*
X153958196Y-58183800D01*
X154047104Y-57959244D01*
X154064500Y-57815489D01*
X154064499Y-56154512D01*
X154047104Y-56010756D01*
X153993324Y-55874922D01*
X153960054Y-55790892D01*
X153960053Y-55790890D01*
X153958196Y-55786200D01*
X153812175Y-55593825D01*
X153631760Y-55456882D01*
X153603185Y-55407982D01*
X153602500Y-55397939D01*
X153602500Y-48036281D01*
X153617792Y-47991233D01*
X153635630Y-47967986D01*
X153638585Y-47964135D01*
X153729321Y-47745078D01*
X153760270Y-47510000D01*
X153729321Y-47274922D01*
X153638585Y-47055865D01*
X153494244Y-46867756D01*
X153306135Y-46723415D01*
X153087078Y-46632679D01*
X152852000Y-46601730D01*
X152616922Y-46632679D01*
X152397865Y-46723415D01*
X152209756Y-46867756D01*
X152065415Y-47055865D01*
X151974679Y-47274922D01*
X151974046Y-47279730D01*
X151965679Y-47343284D01*
X151937360Y-47392333D01*
X151882653Y-47406992D01*
X151833604Y-47378673D01*
X151823945Y-47361943D01*
X151786044Y-47270441D01*
X151738585Y-47155865D01*
X151594244Y-46967756D01*
X151406135Y-46823415D01*
X151187078Y-46732679D01*
X150952000Y-46701730D01*
X150716922Y-46732679D01*
X150497865Y-46823415D01*
X150309756Y-46967756D01*
X150165415Y-47155865D01*
X150074679Y-47374922D01*
X150074046Y-47379730D01*
X150070457Y-47406992D01*
X150043730Y-47610000D01*
X144510500Y-47610000D01*
X144510499Y-45508354D01*
X144508547Y-45493525D01*
X144501643Y-45441075D01*
X144501643Y-45441073D01*
X144500904Y-45435463D01*
X144498512Y-45430332D01*
X144464041Y-45356411D01*
X144426310Y-45275496D01*
X144384174Y-45233360D01*
X144362500Y-45181034D01*
X144362500Y-44068097D01*
X146594001Y-44068097D01*
X146594318Y-44072935D01*
X146603001Y-44138895D01*
X146606132Y-44149638D01*
X146676716Y-44301006D01*
X146684028Y-44311449D01*
X146801551Y-44428972D01*
X146811994Y-44436284D01*
X146963361Y-44506867D01*
X146974106Y-44509999D01*
X147040066Y-44518683D01*
X147044901Y-44519000D01*
X147333281Y-44519000D01*
X147343689Y-44514689D01*
X147348000Y-44504281D01*
X147348000Y-44504280D01*
X147856000Y-44504280D01*
X147860311Y-44514688D01*
X147870719Y-44518999D01*
X148159097Y-44518999D01*
X148163935Y-44518682D01*
X148229895Y-44509999D01*
X148240638Y-44506868D01*
X148392006Y-44436284D01*
X148402449Y-44428972D01*
X148519972Y-44311449D01*
X148527284Y-44301006D01*
X148597867Y-44149639D01*
X148600999Y-44138894D01*
X148609683Y-44072934D01*
X148610000Y-44068099D01*
X148610000Y-43279719D01*
X148605689Y-43269311D01*
X148595281Y-43265000D01*
X147870719Y-43265000D01*
X147860311Y-43269311D01*
X147856000Y-43279719D01*
X147856000Y-44504280D01*
X147348000Y-44504280D01*
X147348000Y-43279719D01*
X147343689Y-43269311D01*
X147333281Y-43265000D01*
X146608720Y-43265000D01*
X146598312Y-43269311D01*
X146594001Y-43279719D01*
X146594001Y-44068097D01*
X144362500Y-44068097D01*
X144362500Y-42742281D01*
X146594000Y-42742281D01*
X146598311Y-42752689D01*
X146608719Y-42757000D01*
X147333281Y-42757000D01*
X147343689Y-42752689D01*
X147348000Y-42742281D01*
X147856000Y-42742281D01*
X147860311Y-42752689D01*
X147870719Y-42757000D01*
X148595280Y-42757000D01*
X148605688Y-42752689D01*
X148609999Y-42742281D01*
X148609999Y-41953903D01*
X148609682Y-41949065D01*
X148600999Y-41883105D01*
X148597868Y-41872362D01*
X148527284Y-41720994D01*
X148519972Y-41710551D01*
X148402449Y-41593028D01*
X148392006Y-41585716D01*
X148240639Y-41515133D01*
X148229894Y-41512001D01*
X148163934Y-41503317D01*
X148159099Y-41503000D01*
X147870719Y-41503000D01*
X147860311Y-41507311D01*
X147856000Y-41517719D01*
X147856000Y-42742281D01*
X147348000Y-42742281D01*
X147348000Y-41517720D01*
X147343689Y-41507312D01*
X147333281Y-41503001D01*
X147044903Y-41503001D01*
X147040065Y-41503318D01*
X146974105Y-41512001D01*
X146963362Y-41515132D01*
X146811994Y-41585716D01*
X146801551Y-41593028D01*
X146684028Y-41710551D01*
X146676716Y-41720994D01*
X146606133Y-41872361D01*
X146603001Y-41883106D01*
X146594317Y-41949066D01*
X146594000Y-41953901D01*
X146594000Y-42742281D01*
X144362500Y-42742281D01*
X144362500Y-41152966D01*
X144384174Y-41100640D01*
X144426310Y-41058504D01*
X144500904Y-40898537D01*
X144510500Y-40825647D01*
X144510499Y-38708354D01*
X144510066Y-38705065D01*
X144501643Y-38641075D01*
X144501643Y-38641073D01*
X144500904Y-38635463D01*
X144498512Y-38630332D01*
X144470809Y-38570924D01*
X144426310Y-38475496D01*
X144332174Y-38381360D01*
X144310500Y-38329034D01*
X144310500Y-37465008D01*
X144332174Y-37412682D01*
X144340535Y-37405484D01*
X144378358Y-37377548D01*
X144498678Y-37288678D01*
X144513879Y-37268097D01*
X146594001Y-37268097D01*
X146594318Y-37272935D01*
X146603001Y-37338895D01*
X146606132Y-37349638D01*
X146676716Y-37501006D01*
X146684028Y-37511449D01*
X146801551Y-37628972D01*
X146811994Y-37636284D01*
X146963361Y-37706867D01*
X146974106Y-37709999D01*
X147040066Y-37718683D01*
X147044901Y-37719000D01*
X147333281Y-37719000D01*
X147343689Y-37714689D01*
X147348000Y-37704281D01*
X147348000Y-37704280D01*
X147856000Y-37704280D01*
X147860311Y-37714688D01*
X147870719Y-37718999D01*
X148159097Y-37718999D01*
X148163935Y-37718682D01*
X148229895Y-37709999D01*
X148240638Y-37706868D01*
X148392006Y-37636284D01*
X148402449Y-37628972D01*
X148519972Y-37511449D01*
X148527284Y-37501006D01*
X148597867Y-37349639D01*
X148600999Y-37338894D01*
X148609683Y-37272934D01*
X148610000Y-37268099D01*
X148610000Y-36479719D01*
X148605689Y-36469311D01*
X148595281Y-36465000D01*
X147870719Y-36465000D01*
X147860311Y-36469311D01*
X147856000Y-36479719D01*
X147856000Y-37704280D01*
X147348000Y-37704280D01*
X147348000Y-36479719D01*
X147343689Y-36469311D01*
X147333281Y-36465000D01*
X146608720Y-36465000D01*
X146598312Y-36469311D01*
X146594001Y-36479719D01*
X146594001Y-37268097D01*
X144513879Y-37268097D01*
X144563644Y-37200721D01*
X144629473Y-37111596D01*
X144629474Y-37111594D01*
X144632758Y-37107148D01*
X144707533Y-36894218D01*
X144709991Y-36868214D01*
X144712337Y-36843402D01*
X144712337Y-36843395D01*
X144712500Y-36841674D01*
X144712500Y-35942281D01*
X146594000Y-35942281D01*
X146598311Y-35952689D01*
X146608719Y-35957000D01*
X147333281Y-35957000D01*
X147343689Y-35952689D01*
X147348000Y-35942281D01*
X147856000Y-35942281D01*
X147860311Y-35952689D01*
X147870719Y-35957000D01*
X148595280Y-35957000D01*
X148605688Y-35952689D01*
X148609999Y-35942281D01*
X148609999Y-35153903D01*
X148609682Y-35149065D01*
X148600999Y-35083105D01*
X148597868Y-35072362D01*
X148527284Y-34920994D01*
X148519972Y-34910551D01*
X148402449Y-34793028D01*
X148392006Y-34785716D01*
X148240639Y-34715133D01*
X148229894Y-34712001D01*
X148163934Y-34703317D01*
X148159099Y-34703000D01*
X147870719Y-34703000D01*
X147860311Y-34707311D01*
X147856000Y-34717719D01*
X147856000Y-35942281D01*
X147348000Y-35942281D01*
X147348000Y-34717720D01*
X147343689Y-34707312D01*
X147333281Y-34703001D01*
X147044903Y-34703001D01*
X147040065Y-34703318D01*
X146974105Y-34712001D01*
X146963362Y-34715132D01*
X146811994Y-34785716D01*
X146801551Y-34793028D01*
X146684028Y-34910551D01*
X146676716Y-34920994D01*
X146606133Y-35072361D01*
X146603001Y-35083106D01*
X146594317Y-35149066D01*
X146594000Y-35153901D01*
X146594000Y-35942281D01*
X144712500Y-35942281D01*
X144712500Y-35412326D01*
X144708677Y-35371877D01*
X144707957Y-35364266D01*
X144707957Y-35364265D01*
X144707533Y-35359782D01*
X144632758Y-35146852D01*
X144582247Y-35078465D01*
X144568593Y-35023498D01*
X144597806Y-34974976D01*
X144641771Y-34960500D01*
X145379012Y-34960500D01*
X145395341Y-34962325D01*
X145412141Y-34966126D01*
X145500538Y-34960642D01*
X145505120Y-34960500D01*
X145534481Y-34960500D01*
X145545396Y-34958937D01*
X145555733Y-34957457D01*
X145561639Y-34956852D01*
X145575951Y-34955964D01*
X145641001Y-34951928D01*
X145664552Y-34943425D01*
X145679191Y-34939775D01*
X145692148Y-34937920D01*
X145698768Y-34936972D01*
X145698769Y-34936972D01*
X145703984Y-34936225D01*
X145727876Y-34925362D01*
X145776378Y-34903310D01*
X145781878Y-34901071D01*
X145851716Y-34875859D01*
X145856677Y-34874068D01*
X145876901Y-34859293D01*
X145889925Y-34851683D01*
X145907921Y-34843501D01*
X145907924Y-34843499D01*
X145912721Y-34841318D01*
X145920603Y-34834527D01*
X145972956Y-34789417D01*
X145977606Y-34785725D01*
X145996624Y-34771830D01*
X145996626Y-34771828D01*
X145998941Y-34770137D01*
X146019487Y-34749591D01*
X146023509Y-34745857D01*
X146082439Y-34695080D01*
X146082440Y-34695079D01*
X146086431Y-34691640D01*
X146098752Y-34672632D01*
X146108522Y-34660556D01*
X146673904Y-34095174D01*
X146726230Y-34073500D01*
X147428674Y-34073500D01*
X147430395Y-34073337D01*
X147430402Y-34073337D01*
X147476734Y-34068957D01*
X147476735Y-34068957D01*
X147481218Y-34068533D01*
X147694148Y-33993758D01*
X147737660Y-33961620D01*
X147871229Y-33862964D01*
X147875678Y-33859678D01*
X147949010Y-33760394D01*
X148006473Y-33682596D01*
X148006474Y-33682594D01*
X148009758Y-33678148D01*
X148084533Y-33465218D01*
X148086356Y-33445933D01*
X148089337Y-33414402D01*
X148089337Y-33414395D01*
X148089500Y-33412674D01*
X148089500Y-32084500D01*
X148111174Y-32032174D01*
X148163500Y-32010500D01*
X148188770Y-32010500D01*
X148241096Y-32032174D01*
X148866826Y-32657904D01*
X148888500Y-32710230D01*
X148888500Y-33412674D01*
X148888663Y-33414395D01*
X148888663Y-33414402D01*
X148891644Y-33445933D01*
X148893467Y-33465218D01*
X148968242Y-33678148D01*
X148971526Y-33682594D01*
X148971527Y-33682596D01*
X149028990Y-33760394D01*
X149102322Y-33859678D01*
X149106771Y-33862964D01*
X149240341Y-33961620D01*
X149283852Y-33993758D01*
X149496782Y-34068533D01*
X149501265Y-34068957D01*
X149501266Y-34068957D01*
X149547598Y-34073337D01*
X149547605Y-34073337D01*
X149549326Y-34073500D01*
X150251770Y-34073500D01*
X150304096Y-34095174D01*
X150779826Y-34570904D01*
X150801500Y-34623230D01*
X150801500Y-34773034D01*
X150779826Y-34825360D01*
X150685690Y-34919496D01*
X150611096Y-35079463D01*
X150601500Y-35152353D01*
X150601501Y-37269646D01*
X150601818Y-37272053D01*
X150601818Y-37272055D01*
X150603421Y-37284229D01*
X150611096Y-37342537D01*
X150613488Y-37347666D01*
X150613488Y-37347667D01*
X150621564Y-37364986D01*
X150685690Y-37502504D01*
X150779826Y-37596640D01*
X150801500Y-37648966D01*
X150801500Y-41573034D01*
X150779826Y-41625360D01*
X150685690Y-41719496D01*
X150611096Y-41879463D01*
X150601500Y-41952353D01*
X150601501Y-44069646D01*
X150601818Y-44072053D01*
X150601818Y-44072055D01*
X150607099Y-44112169D01*
X150611096Y-44142537D01*
X150613488Y-44147666D01*
X150613488Y-44147667D01*
X150619366Y-44160273D01*
X150685690Y-44302504D01*
X150810496Y-44427310D01*
X150970463Y-44501904D01*
X151043353Y-44511500D01*
X151601884Y-44511500D01*
X152160646Y-44511499D01*
X152163053Y-44511182D01*
X152163055Y-44511182D01*
X152227925Y-44502643D01*
X152227927Y-44502643D01*
X152233537Y-44501904D01*
X152393504Y-44427310D01*
X152518310Y-44302504D01*
X152592904Y-44142537D01*
X152595354Y-44123931D01*
X152599637Y-44091395D01*
X152602500Y-44069647D01*
X152602499Y-41952354D01*
X152592904Y-41879463D01*
X152590512Y-41874332D01*
X152552486Y-41792786D01*
X152518310Y-41719496D01*
X152424174Y-41625360D01*
X152402500Y-41573034D01*
X152402500Y-37648966D01*
X152424174Y-37596640D01*
X152518310Y-37502504D01*
X152592904Y-37342537D01*
X152595213Y-37325002D01*
X152599562Y-37291964D01*
X152602500Y-37269647D01*
X152602499Y-35152354D01*
X152592904Y-35079463D01*
X152590512Y-35074332D01*
X152539679Y-34965322D01*
X152518310Y-34919496D01*
X152424174Y-34825360D01*
X152402500Y-34773034D01*
X152402500Y-34358994D01*
X152404325Y-34342663D01*
X152406962Y-34331007D01*
X152408127Y-34325860D01*
X152402642Y-34237446D01*
X152402500Y-34232864D01*
X152402500Y-34203519D01*
X152399458Y-34182276D01*
X152398853Y-34176368D01*
X152396332Y-34135740D01*
X152393929Y-34096999D01*
X152385426Y-34073445D01*
X152381777Y-34058810D01*
X152378973Y-34039235D01*
X152378972Y-34039231D01*
X152378225Y-34034016D01*
X152376045Y-34029221D01*
X152376044Y-34029218D01*
X152345309Y-33961620D01*
X152343070Y-33956119D01*
X152317860Y-33886286D01*
X152317859Y-33886284D01*
X152316068Y-33881323D01*
X152301293Y-33861099D01*
X152293683Y-33848075D01*
X152285501Y-33830079D01*
X152285499Y-33830076D01*
X152283318Y-33825279D01*
X152261838Y-33800349D01*
X152231417Y-33765044D01*
X152227725Y-33760394D01*
X152213830Y-33741376D01*
X152213828Y-33741374D01*
X152212137Y-33739059D01*
X152191591Y-33718513D01*
X152187857Y-33714491D01*
X152137080Y-33655561D01*
X152137079Y-33655560D01*
X152133640Y-33651569D01*
X152127159Y-33647368D01*
X152114632Y-33639248D01*
X152102556Y-33629478D01*
X151211174Y-32738096D01*
X151189500Y-32685770D01*
X151189500Y-31983326D01*
X151185090Y-31936668D01*
X151184957Y-31935266D01*
X151184957Y-31935265D01*
X151184533Y-31930782D01*
X151126651Y-31765957D01*
X151129763Y-31709405D01*
X151171952Y-31671618D01*
X151228504Y-31674730D01*
X151249702Y-31690033D01*
X151427983Y-31874648D01*
X151430857Y-31877624D01*
X151434317Y-31879888D01*
X151434318Y-31879889D01*
X151600339Y-31988530D01*
X151665610Y-32031242D01*
X151669490Y-32032685D01*
X151669492Y-32032686D01*
X151924684Y-32127591D01*
X151924686Y-32127591D01*
X151928562Y-32129033D01*
X151966838Y-32134140D01*
X152202543Y-32165590D01*
X152202547Y-32165590D01*
X152206646Y-32166137D01*
X152210767Y-32165762D01*
X152210771Y-32165762D01*
X152343282Y-32153702D01*
X152486039Y-32140710D01*
X152752856Y-32054016D01*
X152756411Y-32051897D01*
X152990283Y-31912482D01*
X152990287Y-31912479D01*
X152993835Y-31910364D01*
X153045616Y-31861054D01*
X153111752Y-31798073D01*
X153197000Y-31716892D01*
X153352253Y-31483218D01*
X153395680Y-31368896D01*
X153450409Y-31224823D01*
X153450410Y-31224820D01*
X153451878Y-31220955D01*
X153454724Y-31200709D01*
X153469959Y-31092299D01*
X153490922Y-30943137D01*
X153491413Y-30908000D01*
X153460141Y-30629200D01*
X153453580Y-30610358D01*
X153425137Y-30528682D01*
X153367878Y-30364258D01*
X153254414Y-30182678D01*
X153221403Y-30129849D01*
X153221401Y-30129847D01*
X153219210Y-30126340D01*
X153021526Y-29927271D01*
X152988324Y-29906200D01*
X152854295Y-29821143D01*
X152784652Y-29776946D01*
X152640995Y-29725792D01*
X152524262Y-29684225D01*
X152524258Y-29684224D01*
X152520360Y-29682836D01*
X152241785Y-29649618D01*
X152237675Y-29650050D01*
X152237673Y-29650050D01*
X151966883Y-29678511D01*
X151966882Y-29678511D01*
X151962774Y-29678943D01*
X151898138Y-29700947D01*
X151701105Y-29768022D01*
X151701101Y-29768024D01*
X151697194Y-29769354D01*
X151458244Y-29916357D01*
X151257800Y-30112646D01*
X151255558Y-30116125D01*
X151108691Y-30344018D01*
X151105825Y-30348465D01*
X151104410Y-30352354D01*
X151104409Y-30352355D01*
X151012017Y-30606201D01*
X151009872Y-30612094D01*
X151009354Y-30616197D01*
X151009353Y-30616200D01*
X150989406Y-30774101D01*
X150974710Y-30890430D01*
X150975114Y-30894550D01*
X150999720Y-31145504D01*
X151002086Y-31169639D01*
X151003390Y-31173560D01*
X151003391Y-31173563D01*
X151072549Y-31381458D01*
X151090641Y-31435844D01*
X151103619Y-31457273D01*
X151116002Y-31477720D01*
X151124569Y-31533705D01*
X151091039Y-31579351D01*
X151035054Y-31587918D01*
X150993181Y-31560019D01*
X150978964Y-31540771D01*
X150975678Y-31536322D01*
X150839642Y-31435844D01*
X150798596Y-31405527D01*
X150798594Y-31405526D01*
X150794148Y-31402242D01*
X150581218Y-31327467D01*
X150576735Y-31327043D01*
X150576734Y-31327043D01*
X150530402Y-31322663D01*
X150530395Y-31322663D01*
X150528674Y-31322500D01*
X149826230Y-31322500D01*
X149773904Y-31300826D01*
X149186331Y-30713253D01*
X149176073Y-30700415D01*
X149169692Y-30690302D01*
X149166880Y-30685845D01*
X149162931Y-30682357D01*
X149162929Y-30682355D01*
X149100491Y-30627212D01*
X149097151Y-30624073D01*
X149076394Y-30603316D01*
X149059219Y-30590444D01*
X149054625Y-30586704D01*
X148995012Y-30534056D01*
X148972343Y-30523413D01*
X148959413Y-30515644D01*
X148943592Y-30503787D01*
X148939372Y-30500624D01*
X148934436Y-30498773D01*
X148934433Y-30498772D01*
X148864910Y-30472709D01*
X148859437Y-30470403D01*
X148792222Y-30438846D01*
X148792219Y-30438845D01*
X148787450Y-30436606D01*
X148762707Y-30432754D01*
X148748115Y-30428926D01*
X148729600Y-30421985D01*
X148729601Y-30421985D01*
X148724663Y-30420134D01*
X148719408Y-30419744D01*
X148719406Y-30419743D01*
X148645359Y-30414241D01*
X148639457Y-30413563D01*
X148632900Y-30412542D01*
X148613364Y-30409500D01*
X148584316Y-30409500D01*
X148578832Y-30409297D01*
X148501246Y-30403531D01*
X148501243Y-30403531D01*
X148495993Y-30403141D01*
X148473837Y-30407871D01*
X148458395Y-30409500D01*
X143591905Y-30409500D01*
X143539579Y-30387826D01*
X143517905Y-30335500D01*
X143521527Y-30312633D01*
X143549178Y-30227531D01*
X143561265Y-30190331D01*
X143561684Y-30186351D01*
X143590534Y-29911853D01*
X143590939Y-29908000D01*
X143577019Y-29775557D01*
X143561670Y-29629520D01*
X143561670Y-29629518D01*
X143561265Y-29625669D01*
X143473539Y-29355676D01*
X143331596Y-29109823D01*
X143321349Y-29098442D01*
X143192904Y-28955790D01*
X143141639Y-28898855D01*
X143138501Y-28896575D01*
X142915114Y-28734274D01*
X142915112Y-28734273D01*
X142911970Y-28731990D01*
X142860156Y-28708921D01*
X142656176Y-28618103D01*
X142656171Y-28618101D01*
X142652626Y-28616523D01*
X142374943Y-28557500D01*
X142091057Y-28557500D01*
X142087261Y-28558307D01*
X142087260Y-28558307D01*
X141817169Y-28615716D01*
X141817166Y-28615717D01*
X141813374Y-28616523D01*
X141809832Y-28618100D01*
X141809829Y-28618101D01*
X141589092Y-28716380D01*
X141554031Y-28731990D01*
X141550895Y-28734268D01*
X141550894Y-28734269D01*
X141327499Y-28896575D01*
X141324361Y-28898855D01*
X141273096Y-28955790D01*
X141144652Y-29098442D01*
X141134404Y-29109823D01*
X140992461Y-29355676D01*
X140904735Y-29625669D01*
X140904330Y-29629518D01*
X140904330Y-29629520D01*
X140888981Y-29775557D01*
X140875061Y-29908000D01*
X140875466Y-29911853D01*
X140904317Y-30186351D01*
X140904735Y-30190331D01*
X140916822Y-30227531D01*
X140944473Y-30312633D01*
X140940029Y-30369095D01*
X140896962Y-30405878D01*
X140874095Y-30409500D01*
X138049994Y-30409500D01*
X138033663Y-30407675D01*
X138031264Y-30407132D01*
X138016860Y-30403873D01*
X137929429Y-30409297D01*
X137928446Y-30409358D01*
X137923864Y-30409500D01*
X137894519Y-30409500D01*
X137886766Y-30410610D01*
X137873276Y-30412542D01*
X137867368Y-30413147D01*
X137826740Y-30415668D01*
X137787999Y-30418071D01*
X137783042Y-30419861D01*
X137783040Y-30419861D01*
X137764445Y-30426574D01*
X137749810Y-30430223D01*
X137730235Y-30433027D01*
X137730231Y-30433028D01*
X137725016Y-30433775D01*
X137720221Y-30435955D01*
X137720218Y-30435956D01*
X137652620Y-30466691D01*
X137647119Y-30468930D01*
X137577286Y-30494140D01*
X137577284Y-30494141D01*
X137572323Y-30495932D01*
X137568064Y-30499044D01*
X137568063Y-30499044D01*
X137552100Y-30510706D01*
X137539075Y-30518317D01*
X137521079Y-30526499D01*
X137521076Y-30526501D01*
X137516279Y-30528682D01*
X137512287Y-30532122D01*
X137512285Y-30532123D01*
X137456044Y-30580583D01*
X137451394Y-30584275D01*
X137432376Y-30598170D01*
X137430059Y-30599863D01*
X137409513Y-30620409D01*
X137405492Y-30624143D01*
X137342569Y-30678360D01*
X137339702Y-30682782D01*
X137339702Y-30682783D01*
X137330248Y-30697368D01*
X137320478Y-30709444D01*
X130371096Y-37658826D01*
X130318770Y-37680500D01*
X129157787Y-37680500D01*
X129108559Y-37661750D01*
X129102528Y-37656376D01*
X129102521Y-37656371D01*
X129099193Y-37653406D01*
X128885180Y-37540093D01*
X128870327Y-37536362D01*
X128654644Y-37482186D01*
X128654645Y-37482186D01*
X128650317Y-37481099D01*
X128527486Y-37480456D01*
X128412619Y-37479854D01*
X128412616Y-37479854D01*
X128408161Y-37479831D01*
X128403826Y-37480872D01*
X128403824Y-37480872D01*
X128313721Y-37502504D01*
X128172692Y-37536362D01*
X127957505Y-37647428D01*
X127954147Y-37650357D01*
X127954146Y-37650358D01*
X127813004Y-37773485D01*
X127775023Y-37806618D01*
X127772455Y-37810272D01*
X127772454Y-37810273D01*
X127743084Y-37852063D01*
X127635780Y-38004741D01*
X127547815Y-38230358D01*
X127536076Y-38319526D01*
X127519175Y-38447905D01*
X127516207Y-38470446D01*
X127522400Y-38526543D01*
X127538379Y-38671276D01*
X127542780Y-38711143D01*
X127544313Y-38715332D01*
X127616328Y-38912120D01*
X127626001Y-38938553D01*
X127678097Y-39016080D01*
X127755978Y-39131980D01*
X127761064Y-39139549D01*
X127940173Y-39302525D01*
X127944096Y-39304655D01*
X128149062Y-39415943D01*
X128149066Y-39415945D01*
X128152986Y-39418073D01*
X128157300Y-39419205D01*
X128157303Y-39419206D01*
X128354849Y-39471031D01*
X128387219Y-39479523D01*
X128508284Y-39481425D01*
X128624892Y-39483257D01*
X128629349Y-39483327D01*
X128633691Y-39482333D01*
X128633696Y-39482332D01*
X128861049Y-39430261D01*
X128861052Y-39430260D01*
X128865396Y-39429265D01*
X129081735Y-39320458D01*
X129106590Y-39299230D01*
X129154649Y-39281500D01*
X130583012Y-39281500D01*
X130599341Y-39283325D01*
X130616141Y-39287126D01*
X130704538Y-39281642D01*
X130709120Y-39281500D01*
X130738481Y-39281500D01*
X130749396Y-39279937D01*
X130759733Y-39278457D01*
X130765639Y-39277852D01*
X130779951Y-39276964D01*
X130845001Y-39272928D01*
X130868552Y-39264425D01*
X130883191Y-39260775D01*
X130896992Y-39258799D01*
X130902768Y-39257972D01*
X130902769Y-39257972D01*
X130907984Y-39257225D01*
X130914521Y-39254253D01*
X130980378Y-39224310D01*
X130985878Y-39222071D01*
X131055716Y-39196859D01*
X131060677Y-39195068D01*
X131080901Y-39180293D01*
X131093925Y-39172683D01*
X131111921Y-39164501D01*
X131111924Y-39164499D01*
X131116721Y-39162318D01*
X131135457Y-39146175D01*
X131176956Y-39110417D01*
X131181606Y-39106725D01*
X131200624Y-39092830D01*
X131200626Y-39092828D01*
X131202941Y-39091137D01*
X131223487Y-39070591D01*
X131227509Y-39066857D01*
X131286439Y-39016080D01*
X131286440Y-39016079D01*
X131290431Y-39012640D01*
X131294105Y-39006972D01*
X131302752Y-38993632D01*
X131312522Y-38981556D01*
X136220894Y-34073184D01*
X136273220Y-34051510D01*
X136325546Y-34073184D01*
X136342713Y-34100079D01*
X136392983Y-34237446D01*
X136404001Y-34267553D01*
X136470173Y-34366028D01*
X136516106Y-34434383D01*
X136539064Y-34468549D01*
X136718173Y-34631525D01*
X136722096Y-34633655D01*
X136927062Y-34744943D01*
X136927066Y-34744945D01*
X136930986Y-34747073D01*
X136935300Y-34748205D01*
X136935303Y-34748206D01*
X137150212Y-34804586D01*
X137183760Y-34823838D01*
X138983669Y-36623747D01*
X138993927Y-36636585D01*
X139003120Y-36651155D01*
X139007069Y-36654643D01*
X139007071Y-36654645D01*
X139069509Y-36709788D01*
X139072849Y-36712927D01*
X139093606Y-36733684D01*
X139095713Y-36735263D01*
X139095714Y-36735264D01*
X139110777Y-36746553D01*
X139115375Y-36750296D01*
X139174988Y-36802944D01*
X139193224Y-36811506D01*
X139197657Y-36813587D01*
X139210587Y-36821356D01*
X139230628Y-36836376D01*
X139235564Y-36838226D01*
X139235565Y-36838227D01*
X139273705Y-36852525D01*
X139315092Y-36891188D01*
X139317548Y-36897297D01*
X139331202Y-36936177D01*
X139391242Y-37107148D01*
X139394526Y-37111594D01*
X139394527Y-37111596D01*
X139460356Y-37200721D01*
X139525322Y-37288678D01*
X139562288Y-37315982D01*
X139683465Y-37405484D01*
X139706852Y-37422758D01*
X139919782Y-37497533D01*
X139924265Y-37497957D01*
X139924266Y-37497957D01*
X139970598Y-37502337D01*
X139970605Y-37502337D01*
X139972326Y-37502500D01*
X140951674Y-37502500D01*
X140953395Y-37502337D01*
X140953402Y-37502337D01*
X140999734Y-37497957D01*
X140999735Y-37497957D01*
X141004218Y-37497533D01*
X141217148Y-37422758D01*
X141240536Y-37405484D01*
X141361711Y-37315982D01*
X141398678Y-37288678D01*
X141463644Y-37200721D01*
X141529473Y-37111596D01*
X141529474Y-37111594D01*
X141532758Y-37107148D01*
X141607533Y-36894218D01*
X141609991Y-36868214D01*
X141612337Y-36843402D01*
X141612337Y-36843395D01*
X141612500Y-36841674D01*
X141612500Y-36139230D01*
X141634174Y-36086904D01*
X142285174Y-35435904D01*
X142337500Y-35414230D01*
X142389826Y-35435904D01*
X142411500Y-35488230D01*
X142411500Y-36841674D01*
X142411663Y-36843395D01*
X142411663Y-36843402D01*
X142414009Y-36868214D01*
X142416467Y-36894218D01*
X142491242Y-37107148D01*
X142494526Y-37111594D01*
X142494527Y-37111596D01*
X142560356Y-37200721D01*
X142625322Y-37288678D01*
X142629771Y-37291964D01*
X142679465Y-37328669D01*
X142708678Y-37377192D01*
X142709500Y-37388193D01*
X142709500Y-38329034D01*
X142687826Y-38381360D01*
X142593690Y-38475496D01*
X142519096Y-38635463D01*
X142509500Y-38708353D01*
X142509501Y-40825646D01*
X142519096Y-40898537D01*
X142521488Y-40903666D01*
X142521488Y-40903667D01*
X142542911Y-40949608D01*
X142593690Y-41058504D01*
X142718496Y-41183310D01*
X142724362Y-41186045D01*
X142729667Y-41189760D01*
X142727467Y-41192902D01*
X142757065Y-41225273D01*
X142761500Y-41250507D01*
X142761500Y-45083493D01*
X142739826Y-45135819D01*
X142729057Y-45143368D01*
X142729667Y-45144240D01*
X142724362Y-45147955D01*
X142718496Y-45150690D01*
X142593690Y-45275496D01*
X142519096Y-45435463D01*
X142509500Y-45508353D01*
X142509500Y-46404770D01*
X142487826Y-46457096D01*
X141800585Y-47144337D01*
X141748259Y-47166011D01*
X140592000Y-47166011D01*
X140539674Y-47144337D01*
X140518000Y-47092011D01*
X140518000Y-46835719D01*
X140513689Y-46825311D01*
X140503281Y-46821000D01*
X138516720Y-46821000D01*
X138506312Y-46825311D01*
X138502001Y-46835719D01*
X138502001Y-47092011D01*
X138480327Y-47144337D01*
X138428001Y-47166011D01*
X137320741Y-47166011D01*
X137268415Y-47144337D01*
X136422359Y-46298281D01*
X138502000Y-46298281D01*
X138506311Y-46308689D01*
X138516719Y-46313000D01*
X139241281Y-46313000D01*
X139251689Y-46308689D01*
X139256000Y-46298281D01*
X139764000Y-46298281D01*
X139768311Y-46308689D01*
X139778719Y-46313000D01*
X140503280Y-46313000D01*
X140513688Y-46308689D01*
X140517999Y-46298281D01*
X140517999Y-45509903D01*
X140517682Y-45505065D01*
X140508999Y-45439105D01*
X140505868Y-45428362D01*
X140435284Y-45276994D01*
X140427972Y-45266551D01*
X140310449Y-45149028D01*
X140300006Y-45141716D01*
X140148639Y-45071133D01*
X140137894Y-45068001D01*
X140071934Y-45059317D01*
X140067099Y-45059000D01*
X139778719Y-45059000D01*
X139768311Y-45063311D01*
X139764000Y-45073719D01*
X139764000Y-46298281D01*
X139256000Y-46298281D01*
X139256000Y-45073720D01*
X139251689Y-45063312D01*
X139241281Y-45059001D01*
X138952903Y-45059001D01*
X138948065Y-45059318D01*
X138882105Y-45068001D01*
X138871362Y-45071132D01*
X138719994Y-45141716D01*
X138709551Y-45149028D01*
X138592028Y-45266551D01*
X138584716Y-45276994D01*
X138514133Y-45428361D01*
X138511001Y-45439106D01*
X138502317Y-45505066D01*
X138502000Y-45509901D01*
X138502000Y-46298281D01*
X136422359Y-46298281D01*
X134458331Y-44334253D01*
X134448073Y-44321415D01*
X134441692Y-44311302D01*
X134438880Y-44306845D01*
X134434931Y-44303357D01*
X134434929Y-44303355D01*
X134372491Y-44248212D01*
X134369151Y-44245073D01*
X134348394Y-44224316D01*
X134331219Y-44211444D01*
X134326625Y-44207704D01*
X134267012Y-44155056D01*
X134244343Y-44144413D01*
X134231413Y-44136644D01*
X134215592Y-44124787D01*
X134211372Y-44121624D01*
X134206436Y-44119773D01*
X134206433Y-44119772D01*
X134136910Y-44093709D01*
X134131437Y-44091403D01*
X134064222Y-44059846D01*
X134064219Y-44059845D01*
X134059450Y-44057606D01*
X134034707Y-44053754D01*
X134020115Y-44049926D01*
X134001600Y-44042985D01*
X134001601Y-44042985D01*
X133996663Y-44041134D01*
X133991408Y-44040744D01*
X133991406Y-44040743D01*
X133917359Y-44035241D01*
X133911457Y-44034563D01*
X133907134Y-44033890D01*
X133885364Y-44030500D01*
X133856316Y-44030500D01*
X133850832Y-44030297D01*
X133773246Y-44024531D01*
X133773243Y-44024531D01*
X133767993Y-44024141D01*
X133745837Y-44028871D01*
X133730395Y-44030500D01*
X129284787Y-44030500D01*
X129235559Y-44011750D01*
X129229528Y-44006376D01*
X129229521Y-44006371D01*
X129226193Y-44003406D01*
X129012180Y-43890093D01*
X128997327Y-43886362D01*
X128781644Y-43832186D01*
X128781645Y-43832186D01*
X128777317Y-43831099D01*
X128654486Y-43830456D01*
X128539619Y-43829854D01*
X128539616Y-43829854D01*
X128535161Y-43829831D01*
X128530826Y-43830872D01*
X128530824Y-43830872D01*
X128431124Y-43854808D01*
X128299692Y-43886362D01*
X128084505Y-43997428D01*
X128081147Y-44000357D01*
X128081146Y-44000358D01*
X127912283Y-44147668D01*
X127902023Y-44156618D01*
X127899455Y-44160272D01*
X127899454Y-44160273D01*
X127893609Y-44168590D01*
X127762780Y-44354741D01*
X127674815Y-44580358D01*
X127670884Y-44610216D01*
X127644264Y-44812420D01*
X127643207Y-44820446D01*
X127648523Y-44868596D01*
X127664463Y-45012978D01*
X127669780Y-45061143D01*
X127673436Y-45071133D01*
X127748223Y-45275496D01*
X127753001Y-45288553D01*
X127798630Y-45356456D01*
X127868234Y-45460038D01*
X127888064Y-45489549D01*
X128067173Y-45652525D01*
X128071096Y-45654655D01*
X128276062Y-45765943D01*
X128276066Y-45765945D01*
X128279986Y-45768073D01*
X128284300Y-45769205D01*
X128284303Y-45769206D01*
X128461868Y-45815789D01*
X128514219Y-45829523D01*
X128635284Y-45831425D01*
X128751892Y-45833257D01*
X128756349Y-45833327D01*
X128760691Y-45832333D01*
X128760696Y-45832332D01*
X128988049Y-45780261D01*
X128988052Y-45780260D01*
X128992396Y-45779265D01*
X129208735Y-45670458D01*
X129233590Y-45649230D01*
X129281649Y-45631500D01*
X133460770Y-45631500D01*
X133513096Y-45653174D01*
X136323180Y-48463258D01*
X136333438Y-48476096D01*
X136342631Y-48490666D01*
X136346580Y-48494154D01*
X136346582Y-48494156D01*
X136409020Y-48549299D01*
X136412360Y-48552438D01*
X136433117Y-48573195D01*
X136435224Y-48574774D01*
X136435225Y-48574775D01*
X136450288Y-48586064D01*
X136454886Y-48589807D01*
X136514499Y-48642455D01*
X136530595Y-48650012D01*
X136537168Y-48653098D01*
X136550098Y-48660867D01*
X136570139Y-48675887D01*
X136575075Y-48677738D01*
X136575078Y-48677739D01*
X136644601Y-48703802D01*
X136650074Y-48706108D01*
X136717289Y-48737665D01*
X136717292Y-48737666D01*
X136722061Y-48739905D01*
X136746804Y-48743757D01*
X136761396Y-48747585D01*
X136784848Y-48756377D01*
X136790102Y-48756767D01*
X136790105Y-48756768D01*
X136864153Y-48762270D01*
X136870056Y-48762948D01*
X136896147Y-48767011D01*
X136925194Y-48767011D01*
X136930678Y-48767214D01*
X137008264Y-48772980D01*
X137008267Y-48772980D01*
X137013517Y-48773370D01*
X137035673Y-48768640D01*
X137051115Y-48767011D01*
X138690270Y-48767011D01*
X138742596Y-48788685D01*
X138764270Y-48841011D01*
X138742596Y-48893337D01*
X132667596Y-54968337D01*
X132615270Y-54990011D01*
X125560036Y-54990011D01*
X125507710Y-54968337D01*
X125486669Y-54925670D01*
X125485413Y-54916126D01*
X125464321Y-54755922D01*
X125373585Y-54536865D01*
X125269369Y-54401047D01*
X125254710Y-54346341D01*
X125269369Y-54310952D01*
X125373585Y-54175135D01*
X125464321Y-53956078D01*
X125495270Y-53721000D01*
X125464321Y-53485922D01*
X125373585Y-53266865D01*
X125229244Y-53078756D01*
X125041135Y-52934415D01*
X124822078Y-52843679D01*
X124587000Y-52812730D01*
X124351922Y-52843679D01*
X124132865Y-52934415D01*
X124048923Y-52998826D01*
X124040606Y-53005208D01*
X123995558Y-53020500D01*
X121333808Y-53020500D01*
X121281482Y-52998826D01*
X120124174Y-51841517D01*
X120102500Y-51789191D01*
X120102500Y-46379808D01*
X120124174Y-46327482D01*
X120176500Y-46305808D01*
X120228826Y-46327482D01*
X122013819Y-48112476D01*
X123788459Y-49887116D01*
X123809500Y-49929783D01*
X123824679Y-50045078D01*
X123826535Y-50049558D01*
X123826535Y-50049559D01*
X123844235Y-50092291D01*
X123915415Y-50264135D01*
X124059756Y-50452244D01*
X124247865Y-50596585D01*
X124466922Y-50687321D01*
X124702000Y-50718270D01*
X124706808Y-50717637D01*
X124932270Y-50687954D01*
X124937078Y-50687321D01*
X125156135Y-50596585D01*
X125344244Y-50452244D01*
X125488585Y-50264135D01*
X125559765Y-50092291D01*
X125577465Y-50049559D01*
X125577465Y-50049558D01*
X125579321Y-50045078D01*
X125610270Y-49810000D01*
X125579321Y-49574922D01*
X125488585Y-49355865D01*
X125344244Y-49167756D01*
X125156135Y-49023415D01*
X124937078Y-48932679D01*
X124821782Y-48917500D01*
X124779115Y-48896459D01*
X124114287Y-48231631D01*
X124092613Y-48179305D01*
X124114287Y-48126979D01*
X124166613Y-48105305D01*
X124211661Y-48120597D01*
X124235097Y-48138580D01*
X124259865Y-48157585D01*
X124387614Y-48210500D01*
X124439940Y-48232174D01*
X124478922Y-48248321D01*
X124714000Y-48279270D01*
X124718808Y-48278637D01*
X124944270Y-48248954D01*
X124949078Y-48248321D01*
X124988061Y-48232174D01*
X125040386Y-48210500D01*
X125168135Y-48157585D01*
X125356244Y-48013244D01*
X125500585Y-47825135D01*
X125579018Y-47635780D01*
X125589465Y-47610559D01*
X125589465Y-47610558D01*
X125591321Y-47606078D01*
X125622270Y-47371000D01*
X125591321Y-47135922D01*
X125500585Y-46916865D01*
X125356244Y-46728756D01*
X125168135Y-46584415D01*
X124949078Y-46493679D01*
X124833783Y-46478500D01*
X124791116Y-46457459D01*
X120924174Y-42590517D01*
X120902500Y-42538191D01*
X120902500Y-40824097D01*
X138502001Y-40824097D01*
X138502318Y-40828935D01*
X138511001Y-40894895D01*
X138514132Y-40905638D01*
X138584716Y-41057006D01*
X138592028Y-41067449D01*
X138709551Y-41184972D01*
X138719994Y-41192284D01*
X138871361Y-41262867D01*
X138882106Y-41265999D01*
X138948066Y-41274683D01*
X138952901Y-41275000D01*
X139241281Y-41275000D01*
X139251689Y-41270689D01*
X139256000Y-41260281D01*
X139256000Y-41260280D01*
X139764000Y-41260280D01*
X139768311Y-41270688D01*
X139778719Y-41274999D01*
X140067097Y-41274999D01*
X140071935Y-41274682D01*
X140137895Y-41265999D01*
X140148638Y-41262868D01*
X140300006Y-41192284D01*
X140310449Y-41184972D01*
X140427972Y-41067449D01*
X140435284Y-41057006D01*
X140505867Y-40905639D01*
X140508999Y-40894894D01*
X140517683Y-40828934D01*
X140518000Y-40824099D01*
X140518000Y-40035719D01*
X140513689Y-40025311D01*
X140503281Y-40021000D01*
X139778719Y-40021000D01*
X139768311Y-40025311D01*
X139764000Y-40035719D01*
X139764000Y-41260280D01*
X139256000Y-41260280D01*
X139256000Y-40035719D01*
X139251689Y-40025311D01*
X139241281Y-40021000D01*
X138516720Y-40021000D01*
X138506312Y-40025311D01*
X138502001Y-40035719D01*
X138502001Y-40824097D01*
X120902500Y-40824097D01*
X120902500Y-39498281D01*
X138502000Y-39498281D01*
X138506311Y-39508689D01*
X138516719Y-39513000D01*
X139241281Y-39513000D01*
X139251689Y-39508689D01*
X139256000Y-39498281D01*
X139764000Y-39498281D01*
X139768311Y-39508689D01*
X139778719Y-39513000D01*
X140503280Y-39513000D01*
X140513688Y-39508689D01*
X140517999Y-39498281D01*
X140517999Y-38709903D01*
X140517682Y-38705065D01*
X140508999Y-38639105D01*
X140505868Y-38628362D01*
X140435284Y-38476994D01*
X140427972Y-38466551D01*
X140310449Y-38349028D01*
X140300006Y-38341716D01*
X140148639Y-38271133D01*
X140137894Y-38268001D01*
X140071934Y-38259317D01*
X140067099Y-38259000D01*
X139778719Y-38259000D01*
X139768311Y-38263311D01*
X139764000Y-38273719D01*
X139764000Y-39498281D01*
X139256000Y-39498281D01*
X139256000Y-38273720D01*
X139251689Y-38263312D01*
X139241281Y-38259001D01*
X138952903Y-38259001D01*
X138948065Y-38259318D01*
X138882105Y-38268001D01*
X138871362Y-38271132D01*
X138719994Y-38341716D01*
X138709551Y-38349028D01*
X138592028Y-38466551D01*
X138584716Y-38476994D01*
X138514133Y-38628361D01*
X138511001Y-38639106D01*
X138502317Y-38705066D01*
X138502000Y-38709901D01*
X138502000Y-39498281D01*
X120902500Y-39498281D01*
X120902500Y-36843084D01*
X120885125Y-36725054D01*
X120886326Y-36724877D01*
X120886302Y-36694055D01*
X120885430Y-36693928D01*
X120902113Y-36579569D01*
X120902500Y-36576916D01*
X120902500Y-32380666D01*
X120924174Y-32328340D01*
X120966842Y-32307299D01*
X121013684Y-32301133D01*
X121023342Y-32300500D01*
X121445400Y-32300499D01*
X121460646Y-32300499D01*
X121463053Y-32300182D01*
X121463055Y-32300182D01*
X121527925Y-32291643D01*
X121527927Y-32291643D01*
X121533537Y-32290904D01*
X121544657Y-32285719D01*
X121614421Y-32253187D01*
X121693504Y-32216310D01*
X121818310Y-32091504D01*
X121892904Y-31931537D01*
X121902500Y-31858647D01*
X121902499Y-26741354D01*
X121898746Y-26712844D01*
X121893643Y-26674075D01*
X121893643Y-26674073D01*
X121892904Y-26668463D01*
X121890512Y-26663332D01*
X121821045Y-26514362D01*
X121818310Y-26508496D01*
X121693504Y-26383690D01*
X121533537Y-26309096D01*
X121527871Y-26308350D01*
X121463062Y-26299818D01*
X121460647Y-26299500D01*
X121445409Y-26299500D01*
X121023349Y-26299501D01*
X121013692Y-26298868D01*
X120963933Y-26292317D01*
X120959099Y-26292000D01*
X120916719Y-26292000D01*
X120883699Y-26305677D01*
X120876086Y-26308354D01*
X120876075Y-26308357D01*
X120870463Y-26309096D01*
X120865336Y-26311487D01*
X120865335Y-26311487D01*
X120733274Y-26373068D01*
X120676690Y-26375538D01*
X120670726Y-26373068D01*
X120538668Y-26311488D01*
X120538664Y-26311487D01*
X120533537Y-26309096D01*
X120527924Y-26308357D01*
X120527900Y-26308350D01*
X120520289Y-26305673D01*
X120487281Y-26292001D01*
X120476989Y-26292001D01*
X120424663Y-26270327D01*
X120402989Y-26218001D01*
X120402989Y-25908000D01*
X140875061Y-25908000D01*
X140875466Y-25911853D01*
X140904175Y-26185000D01*
X140904735Y-26190331D01*
X140992461Y-26460324D01*
X141134404Y-26706177D01*
X141136995Y-26709054D01*
X141136996Y-26709056D01*
X141183063Y-26760218D01*
X141324361Y-26917145D01*
X141327498Y-26919424D01*
X141327499Y-26919425D01*
X141429994Y-26993892D01*
X141554030Y-27084010D01*
X141557581Y-27085591D01*
X141809824Y-27197897D01*
X141809829Y-27197899D01*
X141813374Y-27199477D01*
X142091057Y-27258500D01*
X142374943Y-27258500D01*
X142652626Y-27199477D01*
X142656171Y-27197899D01*
X142656176Y-27197897D01*
X142908419Y-27085591D01*
X142911970Y-27084010D01*
X143036007Y-26993892D01*
X143138501Y-26919425D01*
X143138502Y-26919424D01*
X143141639Y-26917145D01*
X143282937Y-26760218D01*
X143329004Y-26709056D01*
X143329005Y-26709054D01*
X143331596Y-26706177D01*
X143473539Y-26460324D01*
X143561265Y-26190331D01*
X143561826Y-26185000D01*
X143590534Y-25911853D01*
X143590939Y-25908000D01*
X143563314Y-25645162D01*
X143561670Y-25629520D01*
X143561670Y-25629518D01*
X143561265Y-25625669D01*
X143473539Y-25355676D01*
X143331596Y-25109823D01*
X143321296Y-25098383D01*
X143144232Y-24901735D01*
X143141639Y-24898855D01*
X143084888Y-24857623D01*
X142915114Y-24734274D01*
X142915112Y-24734273D01*
X142911970Y-24731990D01*
X142907630Y-24730058D01*
X142656176Y-24618103D01*
X142656171Y-24618101D01*
X142652626Y-24616523D01*
X142374943Y-24557500D01*
X142091057Y-24557500D01*
X142087261Y-24558307D01*
X142087260Y-24558307D01*
X141817169Y-24615716D01*
X141817166Y-24615717D01*
X141813374Y-24616523D01*
X141809832Y-24618100D01*
X141809829Y-24618101D01*
X141809825Y-24618103D01*
X141554031Y-24731990D01*
X141324361Y-24898855D01*
X141321768Y-24901735D01*
X141144705Y-25098383D01*
X141134404Y-25109823D01*
X140992461Y-25355676D01*
X140904735Y-25625669D01*
X140904330Y-25629518D01*
X140904330Y-25629520D01*
X140902686Y-25645162D01*
X140875061Y-25908000D01*
X120402989Y-25908000D01*
X120402989Y-25456493D01*
X120403502Y-25447795D01*
X120409900Y-25393734D01*
X120410551Y-25388237D01*
X120409557Y-25382795D01*
X120409557Y-25382791D01*
X120393816Y-25296601D01*
X120393434Y-25294309D01*
X120380406Y-25207652D01*
X120380405Y-25207650D01*
X120379584Y-25202187D01*
X120377191Y-25197203D01*
X120375565Y-25191918D01*
X120376019Y-25191778D01*
X120375942Y-25191542D01*
X120375493Y-25191696D01*
X120373703Y-25186467D01*
X120372708Y-25181022D01*
X120329776Y-25098375D01*
X120328740Y-25096303D01*
X120290798Y-25017289D01*
X120290797Y-25017288D01*
X120288403Y-25012302D01*
X120284647Y-25008239D01*
X120281539Y-25003666D01*
X120281933Y-25003399D01*
X120280296Y-25001070D01*
X120279905Y-25001334D01*
X120277552Y-24997841D01*
X120275606Y-24994095D01*
X120272868Y-24990889D01*
X120272866Y-24990886D01*
X120269844Y-24987348D01*
X120268902Y-24986245D01*
X120209265Y-24926608D01*
X120207251Y-24924513D01*
X120149173Y-24861685D01*
X120145418Y-24857623D01*
X120140636Y-24854846D01*
X120136317Y-24851385D01*
X120136330Y-24851369D01*
X120126340Y-24843683D01*
X119329854Y-24047197D01*
X119324067Y-24040684D01*
X119290366Y-23997934D01*
X119290364Y-23997932D01*
X119286941Y-23993590D01*
X119210302Y-23940621D01*
X119208447Y-23939296D01*
X119133487Y-23883930D01*
X119128268Y-23882098D01*
X119123378Y-23879508D01*
X119123603Y-23879083D01*
X119123388Y-23878974D01*
X119123177Y-23879405D01*
X119118207Y-23876970D01*
X119113658Y-23873826D01*
X119108387Y-23872159D01*
X119108385Y-23872158D01*
X119024822Y-23845731D01*
X119022617Y-23844995D01*
X118939960Y-23815968D01*
X118939959Y-23815968D01*
X118934743Y-23814136D01*
X118929218Y-23813919D01*
X118923783Y-23812882D01*
X118923872Y-23812415D01*
X118921070Y-23811926D01*
X118920980Y-23812388D01*
X118916840Y-23811581D01*
X118912820Y-23810310D01*
X118908619Y-23809979D01*
X118908617Y-23809979D01*
X118905619Y-23809743D01*
X118902528Y-23809500D01*
X118818192Y-23809500D01*
X118815287Y-23809443D01*
X118729791Y-23806084D01*
X118729790Y-23806084D01*
X118724263Y-23805867D01*
X118718914Y-23807285D01*
X118713420Y-23807892D01*
X118713418Y-23807871D01*
X118700919Y-23809500D01*
X118018192Y-23809500D01*
X118015287Y-23809443D01*
X117929791Y-23806084D01*
X117929790Y-23806084D01*
X117924263Y-23805867D01*
X117918914Y-23807285D01*
X117913420Y-23807892D01*
X117913418Y-23807871D01*
X117900919Y-23809500D01*
X116848004Y-23809500D01*
X116839306Y-23808987D01*
X116829876Y-23807871D01*
X116779748Y-23801938D01*
X116774306Y-23802932D01*
X116774303Y-23802932D01*
X116744935Y-23808296D01*
X116731640Y-23809500D01*
X114848004Y-23809500D01*
X114839306Y-23808987D01*
X114829876Y-23807871D01*
X114779748Y-23801938D01*
X114774306Y-23802932D01*
X114774303Y-23802932D01*
X114688127Y-23818671D01*
X114685834Y-23819053D01*
X114599163Y-23832083D01*
X114599161Y-23832084D01*
X114593698Y-23832905D01*
X114588716Y-23835297D01*
X114583426Y-23836925D01*
X114583285Y-23836466D01*
X114583051Y-23836542D01*
X114583207Y-23836997D01*
X114577976Y-23838788D01*
X114572533Y-23839782D01*
X114496057Y-23879508D01*
X114489883Y-23882715D01*
X114487812Y-23883750D01*
X114403813Y-23924086D01*
X114399751Y-23927841D01*
X114395177Y-23930950D01*
X114394910Y-23930556D01*
X114392585Y-23932190D01*
X114392849Y-23932581D01*
X114389354Y-23934936D01*
X114385606Y-23936883D01*
X114377756Y-23943588D01*
X114318132Y-24003212D01*
X114316037Y-24005226D01*
X114249134Y-24067071D01*
X114246354Y-24071857D01*
X114242897Y-24076172D01*
X114242881Y-24076159D01*
X114235194Y-24086150D01*
X110033517Y-28287826D01*
X109981191Y-28309500D01*
X108651023Y-28309500D01*
X108605975Y-28294208D01*
X108484986Y-28201370D01*
X108481135Y-28198415D01*
X108262078Y-28107679D01*
X108027000Y-28076730D01*
X107791922Y-28107679D01*
X107572865Y-28198415D01*
X107384756Y-28342756D01*
X107240415Y-28530865D01*
X107204281Y-28618101D01*
X107157762Y-28730409D01*
X107149679Y-28749922D01*
X107118730Y-28985000D01*
X106501556Y-28985000D01*
X106544244Y-28952244D01*
X106688585Y-28764135D01*
X106779321Y-28545078D01*
X106810270Y-28310000D01*
X106779321Y-28074922D01*
X106688585Y-27855865D01*
X106544244Y-27667756D01*
X106356135Y-27523415D01*
X106137078Y-27432679D01*
X105902000Y-27401730D01*
X105666922Y-27432679D01*
X105662442Y-27434535D01*
X105662441Y-27434535D01*
X105495058Y-27503867D01*
X105466740Y-27509500D01*
X99803988Y-27509500D01*
X99787659Y-27507675D01*
X99770859Y-27503874D01*
X99682462Y-27509358D01*
X99677880Y-27509500D01*
X99648519Y-27509500D01*
X99637604Y-27511063D01*
X99627267Y-27512543D01*
X99621361Y-27513148D01*
X99611346Y-27513769D01*
X99541999Y-27518072D01*
X99538797Y-27519228D01*
X99526377Y-27520500D01*
X97407787Y-27520500D01*
X97358559Y-27501750D01*
X97352528Y-27496376D01*
X97352521Y-27496371D01*
X97349193Y-27493406D01*
X97173539Y-27400403D01*
X97139120Y-27382179D01*
X97139119Y-27382179D01*
X97135180Y-27380093D01*
X97120327Y-27376362D01*
X96904644Y-27322186D01*
X96904645Y-27322186D01*
X96900317Y-27321099D01*
X96777486Y-27320456D01*
X96662619Y-27319854D01*
X96662616Y-27319854D01*
X96658161Y-27319831D01*
X96653826Y-27320872D01*
X96653824Y-27320872D01*
X96529166Y-27350800D01*
X96422692Y-27376362D01*
X96207505Y-27487428D01*
X96204147Y-27490357D01*
X96204146Y-27490358D01*
X96044812Y-27629355D01*
X96025023Y-27646618D01*
X95885780Y-27844741D01*
X95797815Y-28070358D01*
X95797233Y-28074781D01*
X95766899Y-28305192D01*
X95766207Y-28310446D01*
X95766697Y-28314881D01*
X95791580Y-28540270D01*
X95792780Y-28551143D01*
X95794313Y-28555332D01*
X95872134Y-28767985D01*
X95876001Y-28778553D01*
X95878489Y-28782255D01*
X95967903Y-28915318D01*
X95979098Y-28970838D01*
X95967025Y-28999141D01*
X95885780Y-29114741D01*
X95797815Y-29340358D01*
X95789061Y-29406849D01*
X95767309Y-29572078D01*
X95766207Y-29580446D01*
X95772423Y-29636747D01*
X95792040Y-29814436D01*
X95792780Y-29821143D01*
X95794313Y-29825332D01*
X95816224Y-29885205D01*
X95876001Y-30048553D01*
X95937371Y-30139882D01*
X95967903Y-30185318D01*
X95979098Y-30240838D01*
X95967025Y-30269141D01*
X95885780Y-30384741D01*
X95797815Y-30610358D01*
X95784839Y-30708921D01*
X95778596Y-30756345D01*
X95766207Y-30850446D01*
X95771076Y-30894550D01*
X95791864Y-31082842D01*
X95792780Y-31091143D01*
X95794313Y-31095332D01*
X95872871Y-31309999D01*
X95876001Y-31318553D01*
X95909830Y-31368896D01*
X95988970Y-31486669D01*
X96011064Y-31519549D01*
X96190173Y-31682525D01*
X96194096Y-31684655D01*
X96399062Y-31795943D01*
X96399066Y-31795945D01*
X96402986Y-31798073D01*
X96407300Y-31799205D01*
X96407303Y-31799206D01*
X96619775Y-31854947D01*
X96637219Y-31859523D01*
X96734733Y-31861055D01*
X96874892Y-31863257D01*
X96879349Y-31863327D01*
X96883691Y-31862333D01*
X96883696Y-31862332D01*
X97111049Y-31810261D01*
X97111052Y-31810260D01*
X97115396Y-31809265D01*
X97331735Y-31700458D01*
X97353593Y-31681790D01*
X97356590Y-31679230D01*
X97404649Y-31661500D01*
X100602770Y-31661500D01*
X100655096Y-31683174D01*
X102428826Y-33456904D01*
X102450500Y-33509230D01*
X102450500Y-39605146D01*
X102448675Y-39621475D01*
X102444874Y-39638275D01*
X102447459Y-39679939D01*
X102450358Y-39726679D01*
X102450500Y-39731261D01*
X102450500Y-39760616D01*
X102450873Y-39763220D01*
X102453542Y-39781861D01*
X102454147Y-39787768D01*
X102459071Y-39867135D01*
X102460861Y-39872092D01*
X102460861Y-39872094D01*
X102467574Y-39890689D01*
X102471224Y-39905325D01*
X102474775Y-39930119D01*
X102507696Y-40002525D01*
X102509928Y-40008010D01*
X102535140Y-40077849D01*
X102535142Y-40077853D01*
X102536932Y-40082811D01*
X102540043Y-40087069D01*
X102551705Y-40103033D01*
X102559316Y-40116058D01*
X102569682Y-40138856D01*
X102573122Y-40142848D01*
X102573123Y-40142850D01*
X102596341Y-40169795D01*
X102619322Y-40196465D01*
X102621586Y-40199093D01*
X102625278Y-40203742D01*
X102640862Y-40225075D01*
X102661409Y-40245622D01*
X102665143Y-40249644D01*
X102684136Y-40271686D01*
X102719360Y-40312566D01*
X102723779Y-40315430D01*
X102723781Y-40315432D01*
X102738366Y-40324885D01*
X102750443Y-40334656D01*
X102856118Y-40440331D01*
X102872159Y-40464337D01*
X102889770Y-40506855D01*
X102889770Y-40563491D01*
X102849722Y-40603540D01*
X102793085Y-40603540D01*
X102769077Y-40587499D01*
X101435831Y-39254253D01*
X101425573Y-39241415D01*
X101419192Y-39231302D01*
X101416380Y-39226845D01*
X101412431Y-39223357D01*
X101412429Y-39223355D01*
X101349991Y-39168212D01*
X101346651Y-39165073D01*
X101325894Y-39144316D01*
X101308719Y-39131444D01*
X101304125Y-39127704D01*
X101244512Y-39075056D01*
X101221843Y-39064413D01*
X101208913Y-39056644D01*
X101193092Y-39044787D01*
X101188872Y-39041624D01*
X101183936Y-39039773D01*
X101183933Y-39039772D01*
X101114410Y-39013709D01*
X101108937Y-39011403D01*
X101041722Y-38979846D01*
X101041719Y-38979845D01*
X101036950Y-38977606D01*
X101012207Y-38973754D01*
X100997615Y-38969926D01*
X100979100Y-38962985D01*
X100979101Y-38962985D01*
X100974163Y-38961134D01*
X100968908Y-38960744D01*
X100968906Y-38960743D01*
X100894859Y-38955241D01*
X100888957Y-38954563D01*
X100884634Y-38953890D01*
X100862864Y-38950500D01*
X100833816Y-38950500D01*
X100828332Y-38950297D01*
X100750746Y-38944531D01*
X100750743Y-38944531D01*
X100745493Y-38944141D01*
X100723337Y-38948871D01*
X100707895Y-38950500D01*
X99803230Y-38950500D01*
X99750904Y-38928826D01*
X95758331Y-34936253D01*
X95748073Y-34923415D01*
X95745600Y-34919496D01*
X95738880Y-34908845D01*
X95734931Y-34905357D01*
X95734929Y-34905355D01*
X95672491Y-34850212D01*
X95669151Y-34847073D01*
X95648394Y-34826316D01*
X95631219Y-34813444D01*
X95626625Y-34809704D01*
X95567012Y-34757056D01*
X95544343Y-34746413D01*
X95531413Y-34738644D01*
X95515592Y-34726787D01*
X95511372Y-34723624D01*
X95506436Y-34721773D01*
X95506433Y-34721772D01*
X95436910Y-34695709D01*
X95431437Y-34693403D01*
X95364222Y-34661846D01*
X95364219Y-34661845D01*
X95359450Y-34659606D01*
X95334707Y-34655754D01*
X95320115Y-34651926D01*
X95301600Y-34644985D01*
X95301601Y-34644985D01*
X95296663Y-34643134D01*
X95291408Y-34642744D01*
X95291406Y-34642743D01*
X95217359Y-34637241D01*
X95211457Y-34636563D01*
X95204906Y-34635543D01*
X95185364Y-34632500D01*
X95156316Y-34632500D01*
X95150832Y-34632297D01*
X95073246Y-34626531D01*
X95073243Y-34626531D01*
X95067993Y-34626141D01*
X95045837Y-34630871D01*
X95030395Y-34632500D01*
X91901314Y-34632500D01*
X91884985Y-34630675D01*
X91868185Y-34626874D01*
X91780771Y-34632297D01*
X91779788Y-34632358D01*
X91775206Y-34632500D01*
X91745845Y-34632500D01*
X91737779Y-34633655D01*
X91724593Y-34635543D01*
X91718687Y-34636148D01*
X91709497Y-34636718D01*
X91666408Y-34639392D01*
X91612841Y-34621000D01*
X91587826Y-34565534D01*
X91587826Y-34525656D01*
X91609500Y-34473330D01*
X91614657Y-34468638D01*
X91642967Y-34445219D01*
X91642975Y-34445212D01*
X91644308Y-34444109D01*
X92655009Y-33433408D01*
X92656112Y-33432075D01*
X92656119Y-33432067D01*
X92685776Y-33396216D01*
X92688651Y-33392741D01*
X92690602Y-33388678D01*
X92690604Y-33388675D01*
X92770075Y-33223179D01*
X92786342Y-33189303D01*
X92817001Y-32985376D01*
X92819072Y-32971601D01*
X92819894Y-32966133D01*
X92786342Y-32742963D01*
X92745497Y-32657904D01*
X92690604Y-32543591D01*
X92690602Y-32543588D01*
X92688651Y-32539525D01*
X92676694Y-32525071D01*
X92656119Y-32500199D01*
X92656112Y-32500191D01*
X92655009Y-32498858D01*
X91962506Y-31806355D01*
X91961173Y-31805252D01*
X91961165Y-31805245D01*
X91925314Y-31775588D01*
X91921839Y-31772713D01*
X91917776Y-31770762D01*
X91917773Y-31770760D01*
X91775540Y-31702460D01*
X91718401Y-31675022D01*
X91495231Y-31641470D01*
X91272061Y-31675022D01*
X91214922Y-31702460D01*
X91072689Y-31770760D01*
X91072686Y-31770762D01*
X91068623Y-31772713D01*
X91065148Y-31775588D01*
X91029297Y-31805245D01*
X91029289Y-31805252D01*
X91027956Y-31806355D01*
X90017255Y-32817056D01*
X90016152Y-32818389D01*
X90016145Y-32818397D01*
X90005836Y-32830859D01*
X89983613Y-32857723D01*
X89981662Y-32861786D01*
X89981660Y-32861789D01*
X89934607Y-32959776D01*
X89885922Y-33061161D01*
X89852370Y-33284331D01*
X89885922Y-33507501D01*
X89973501Y-33689880D01*
X89978937Y-33718634D01*
X89980500Y-33718527D01*
X89980858Y-33723783D01*
X89980467Y-33729045D01*
X89985197Y-33751201D01*
X89986826Y-33766643D01*
X89986826Y-34337770D01*
X89965152Y-34390096D01*
X89912826Y-34411770D01*
X89860500Y-34390096D01*
X87561834Y-32091430D01*
X87540160Y-32039104D01*
X87540160Y-31905976D01*
X87528758Y-31874648D01*
X87481729Y-31745439D01*
X87479792Y-31740117D01*
X87441362Y-31690033D01*
X87436509Y-31683708D01*
X87436507Y-31683705D01*
X87435037Y-31681790D01*
X86845545Y-31092299D01*
X87660338Y-31092299D01*
X87693890Y-31315469D01*
X87725578Y-31381458D01*
X87789628Y-31514841D01*
X87789630Y-31514844D01*
X87791581Y-31518907D01*
X87794456Y-31522382D01*
X87824113Y-31558233D01*
X87824120Y-31558241D01*
X87825223Y-31559574D01*
X88517726Y-32252077D01*
X88519059Y-32253180D01*
X88519067Y-32253187D01*
X88533802Y-32265376D01*
X88558393Y-32285719D01*
X88562456Y-32287670D01*
X88562459Y-32287672D01*
X88661177Y-32335076D01*
X88761831Y-32383410D01*
X88985001Y-32416962D01*
X89208171Y-32383410D01*
X89308825Y-32335076D01*
X89407543Y-32287672D01*
X89407546Y-32287670D01*
X89411609Y-32285719D01*
X89436200Y-32265376D01*
X89450935Y-32253187D01*
X89450943Y-32253180D01*
X89452276Y-32252077D01*
X90462977Y-31241376D01*
X90464080Y-31240043D01*
X90464087Y-31240035D01*
X90493744Y-31204184D01*
X90496619Y-31200709D01*
X90498570Y-31196646D01*
X90498572Y-31196643D01*
X90591914Y-31002260D01*
X90594310Y-30997271D01*
X90627862Y-30774101D01*
X90594310Y-30550931D01*
X90544229Y-30446639D01*
X90498572Y-30351559D01*
X90498570Y-30351556D01*
X90496619Y-30347493D01*
X90467781Y-30312633D01*
X90464087Y-30308167D01*
X90464080Y-30308159D01*
X90462977Y-30306826D01*
X90061243Y-29905092D01*
X90039569Y-29852766D01*
X90054861Y-29807717D01*
X90064633Y-29794982D01*
X90067585Y-29791135D01*
X90069440Y-29786656D01*
X90069442Y-29786653D01*
X90156465Y-29576559D01*
X90156465Y-29576558D01*
X90158321Y-29572078D01*
X90189270Y-29337000D01*
X90158321Y-29101922D01*
X90067585Y-28882865D01*
X89923244Y-28694756D01*
X89735135Y-28550415D01*
X89516078Y-28459679D01*
X89281000Y-28428730D01*
X89045922Y-28459679D01*
X88826865Y-28550415D01*
X88638756Y-28694756D01*
X88494415Y-28882865D01*
X88447246Y-28996742D01*
X88423227Y-29054729D01*
X88407186Y-29078736D01*
X88276253Y-29209669D01*
X88263415Y-29219927D01*
X88248845Y-29229120D01*
X88245357Y-29233069D01*
X88245355Y-29233071D01*
X88190212Y-29295509D01*
X88187073Y-29298849D01*
X88166316Y-29319606D01*
X88153879Y-29336201D01*
X88153447Y-29336777D01*
X88149704Y-29341375D01*
X88097056Y-29400988D01*
X88088494Y-29419224D01*
X88086413Y-29423657D01*
X88078644Y-29436587D01*
X88063624Y-29456628D01*
X88061773Y-29461564D01*
X88061772Y-29461567D01*
X88035709Y-29531090D01*
X88033403Y-29536563D01*
X88001846Y-29603778D01*
X87999606Y-29608550D01*
X87996236Y-29630199D01*
X87995754Y-29633292D01*
X87991926Y-29647885D01*
X87983134Y-29671337D01*
X87982744Y-29676592D01*
X87982743Y-29676594D01*
X87977241Y-29750641D01*
X87976563Y-29756543D01*
X87972500Y-29782636D01*
X87972500Y-29811684D01*
X87972297Y-29817168D01*
X87966642Y-29893270D01*
X87966141Y-29900007D01*
X87970871Y-29922163D01*
X87972500Y-29937605D01*
X87972500Y-30447095D01*
X87950826Y-30499421D01*
X87825223Y-30625024D01*
X87824120Y-30626357D01*
X87824113Y-30626365D01*
X87821768Y-30629200D01*
X87791581Y-30665691D01*
X87789630Y-30669754D01*
X87789628Y-30669757D01*
X87767240Y-30716380D01*
X87693890Y-30869129D01*
X87680861Y-30955790D01*
X87661179Y-31086708D01*
X87660338Y-31092299D01*
X86845545Y-31092299D01*
X85937884Y-30184639D01*
X85879557Y-30139882D01*
X85713698Y-30079514D01*
X85537195Y-30079514D01*
X85531110Y-30081729D01*
X85531109Y-30081729D01*
X85423679Y-30120831D01*
X85371336Y-30139882D01*
X85366844Y-30143329D01*
X85330065Y-30171550D01*
X85313009Y-30184637D01*
X84522965Y-30974683D01*
X84478208Y-31033010D01*
X84417840Y-31198869D01*
X84417840Y-31375372D01*
X84420055Y-31381457D01*
X84420055Y-31381458D01*
X84455092Y-31477720D01*
X84478208Y-31541231D01*
X84522963Y-31599558D01*
X86020116Y-33096709D01*
X86078443Y-33141466D01*
X86193988Y-33183521D01*
X86223581Y-33194292D01*
X86244302Y-33201834D01*
X86377430Y-33201834D01*
X86429756Y-33223508D01*
X89204492Y-35998244D01*
X89226166Y-36050570D01*
X89226166Y-36183698D01*
X89228381Y-36189783D01*
X89228381Y-36189784D01*
X89250923Y-36251717D01*
X89286534Y-36349557D01*
X89331289Y-36407884D01*
X90828442Y-37905035D01*
X90830362Y-37906508D01*
X90877999Y-37943062D01*
X90886769Y-37949792D01*
X91052628Y-38010160D01*
X91229131Y-38010160D01*
X91254054Y-38001089D01*
X91389668Y-37951729D01*
X91394990Y-37949792D01*
X91426066Y-37925947D01*
X91451399Y-37906509D01*
X91451402Y-37906507D01*
X91453317Y-37905037D01*
X91596700Y-37761654D01*
X92900571Y-37761654D01*
X92902786Y-37774215D01*
X92959908Y-37931155D01*
X92965290Y-37940965D01*
X93005789Y-37993744D01*
X93008988Y-37997392D01*
X93212902Y-38201306D01*
X93223310Y-38205617D01*
X93233718Y-38201306D01*
X94099614Y-37335410D01*
X94103925Y-37325002D01*
X94099614Y-37314594D01*
X93587272Y-36802252D01*
X93576864Y-36797941D01*
X93566456Y-36802252D01*
X93008983Y-37359725D01*
X93005798Y-37363357D01*
X92965290Y-37416146D01*
X92959907Y-37425958D01*
X92902786Y-37582896D01*
X92900571Y-37595457D01*
X92900571Y-37761654D01*
X91596700Y-37761654D01*
X91651486Y-37706868D01*
X92241649Y-37116703D01*
X92243361Y-37114991D01*
X92288118Y-37056664D01*
X92348486Y-36890805D01*
X92348486Y-36714302D01*
X92341071Y-36693928D01*
X92290055Y-36553765D01*
X92288118Y-36548443D01*
X92243363Y-36490116D01*
X92113151Y-36359905D01*
X92091477Y-36307579D01*
X92113151Y-36255253D01*
X92113230Y-36255174D01*
X92165556Y-36233500D01*
X93956556Y-36233500D01*
X94008882Y-36255174D01*
X94030556Y-36307500D01*
X94008882Y-36359826D01*
X93946482Y-36422226D01*
X93942171Y-36432634D01*
X93946482Y-36443042D01*
X95351192Y-37847752D01*
X95361600Y-37852063D01*
X95372008Y-37847752D01*
X95836515Y-37383245D01*
X95888841Y-37361571D01*
X95941167Y-37383245D01*
X97244719Y-38686797D01*
X97266393Y-38739123D01*
X97244719Y-38791449D01*
X96537888Y-39498281D01*
X95841624Y-40194545D01*
X95833498Y-40205135D01*
X95800942Y-40247562D01*
X95796867Y-40252872D01*
X95736499Y-40418731D01*
X95736499Y-40551859D01*
X95714825Y-40604185D01*
X92940089Y-43378921D01*
X92887763Y-43400595D01*
X92754635Y-43400595D01*
X92588776Y-43460963D01*
X92584284Y-43464410D01*
X92537977Y-43499942D01*
X92530449Y-43505718D01*
X91033298Y-45002871D01*
X90988541Y-45061198D01*
X90954303Y-45155267D01*
X90935743Y-45206260D01*
X90928173Y-45227057D01*
X90928173Y-45403560D01*
X90988541Y-45569419D01*
X91033296Y-45627746D01*
X91823342Y-46417790D01*
X91881669Y-46462547D01*
X92047528Y-46522915D01*
X92224031Y-46522915D01*
X92389890Y-46462547D01*
X92425241Y-46435422D01*
X92446299Y-46419264D01*
X92446302Y-46419262D01*
X92448217Y-46417792D01*
X93945368Y-44920639D01*
X93983990Y-44870307D01*
X93986679Y-44866803D01*
X93986679Y-44866802D01*
X93990125Y-44862312D01*
X94050493Y-44696453D01*
X94050493Y-44563325D01*
X94072167Y-44510999D01*
X96759306Y-41823860D01*
X96811632Y-41802186D01*
X96863958Y-41823860D01*
X96885632Y-41876186D01*
X96885632Y-42711797D01*
X96863958Y-42764123D01*
X96367255Y-43260826D01*
X96366152Y-43262159D01*
X96366145Y-43262167D01*
X96345570Y-43287039D01*
X96333613Y-43301493D01*
X96331662Y-43305556D01*
X96331660Y-43305559D01*
X96283879Y-43405062D01*
X96235922Y-43504931D01*
X96202370Y-43728101D01*
X96235922Y-43951271D01*
X96264964Y-44011750D01*
X96331660Y-44150643D01*
X96331662Y-44150646D01*
X96333613Y-44154709D01*
X96345096Y-44168590D01*
X96366145Y-44194035D01*
X96366152Y-44194043D01*
X96367255Y-44195376D01*
X97377956Y-45206077D01*
X97379289Y-45207180D01*
X97379297Y-45207187D01*
X97384736Y-45211686D01*
X97418623Y-45239719D01*
X97422686Y-45241670D01*
X97422689Y-45241672D01*
X97526236Y-45291395D01*
X97622061Y-45337410D01*
X97748746Y-45356456D01*
X97797268Y-45385669D01*
X97810922Y-45440636D01*
X97781398Y-45489386D01*
X97769376Y-45498169D01*
X97769366Y-45498178D01*
X97767059Y-45499863D01*
X97746513Y-45520409D01*
X97742491Y-45524143D01*
X97689946Y-45569419D01*
X97679569Y-45578360D01*
X97676702Y-45582782D01*
X97676702Y-45582783D01*
X97667248Y-45597368D01*
X97657478Y-45609444D01*
X97088193Y-46178729D01*
X97035867Y-46200403D01*
X96983541Y-46178729D01*
X96962689Y-46137405D01*
X96947458Y-46036102D01*
X96944310Y-46015161D01*
X96884391Y-45890382D01*
X96848572Y-45815789D01*
X96848570Y-45815786D01*
X96846619Y-45811723D01*
X96818111Y-45777262D01*
X96814087Y-45772397D01*
X96814080Y-45772389D01*
X96812977Y-45771056D01*
X95802276Y-44760355D01*
X95800943Y-44759252D01*
X95800935Y-44759245D01*
X95776063Y-44738670D01*
X95761609Y-44726713D01*
X95757546Y-44724762D01*
X95757543Y-44724760D01*
X95632530Y-44664729D01*
X95558171Y-44629022D01*
X95335001Y-44595470D01*
X95111831Y-44629022D01*
X95037472Y-44664729D01*
X94912459Y-44724760D01*
X94912456Y-44724762D01*
X94908393Y-44726713D01*
X94893939Y-44738670D01*
X94869067Y-44759245D01*
X94869059Y-44759252D01*
X94867726Y-44760355D01*
X94175223Y-45452858D01*
X94174120Y-45454191D01*
X94174113Y-45454199D01*
X94169283Y-45460038D01*
X94141581Y-45493525D01*
X94139630Y-45497588D01*
X94139628Y-45497591D01*
X94088569Y-45603921D01*
X94043890Y-45696963D01*
X94025505Y-45819248D01*
X94014575Y-45891954D01*
X94010338Y-45920133D01*
X94043890Y-46143303D01*
X94046286Y-46148292D01*
X94057730Y-46172124D01*
X94060843Y-46228675D01*
X94043349Y-46256483D01*
X93833199Y-46466633D01*
X93790532Y-46487674D01*
X93744922Y-46493679D01*
X93525865Y-46584415D01*
X93337756Y-46728756D01*
X93193415Y-46916865D01*
X93102679Y-47135922D01*
X93071730Y-47371000D01*
X93102679Y-47606078D01*
X93104535Y-47610558D01*
X93104535Y-47610559D01*
X93114982Y-47635780D01*
X93193415Y-47825135D01*
X93337756Y-48013244D01*
X93525865Y-48157585D01*
X93653614Y-48210500D01*
X93705940Y-48232174D01*
X93744922Y-48248321D01*
X93980000Y-48279270D01*
X93984808Y-48278637D01*
X94034210Y-48272133D01*
X94043869Y-48271500D01*
X94138461Y-48271500D01*
X94148120Y-48272133D01*
X94202332Y-48279270D01*
X94207140Y-48278637D01*
X94432605Y-48248955D01*
X94432608Y-48248954D01*
X94437410Y-48248322D01*
X94626366Y-48170053D01*
X94656467Y-48157585D01*
X94773868Y-48067500D01*
X94797350Y-48049482D01*
X94797351Y-48049481D01*
X94844576Y-48013244D01*
X94877858Y-47969870D01*
X94884240Y-47962592D01*
X95316849Y-47529983D01*
X95369175Y-47508309D01*
X95401208Y-47515602D01*
X95430029Y-47529442D01*
X95485766Y-47537822D01*
X95552273Y-47547821D01*
X95600795Y-47577034D01*
X95614449Y-47632001D01*
X95593597Y-47673325D01*
X92956137Y-50310785D01*
X92903811Y-50332459D01*
X89132775Y-50332459D01*
X89080449Y-50310785D01*
X88448299Y-49678636D01*
X88446587Y-49676924D01*
X88388260Y-49632167D01*
X88244191Y-49579730D01*
X88228487Y-49574014D01*
X88228486Y-49574014D01*
X88222401Y-49571799D01*
X88178333Y-49571799D01*
X88126007Y-49550125D01*
X87772782Y-49196900D01*
X90789069Y-49196900D01*
X90793380Y-49207308D01*
X91350853Y-49764781D01*
X91354485Y-49767966D01*
X91407274Y-49808474D01*
X91417086Y-49813857D01*
X91574024Y-49870978D01*
X91586585Y-49873193D01*
X91752782Y-49873193D01*
X91765343Y-49870978D01*
X91922283Y-49813856D01*
X91932093Y-49808474D01*
X91984872Y-49767975D01*
X91988520Y-49764776D01*
X92192434Y-49560862D01*
X92196745Y-49550454D01*
X92192434Y-49540046D01*
X91326538Y-48674150D01*
X91316130Y-48669839D01*
X91305722Y-48674150D01*
X90793380Y-49186492D01*
X90789069Y-49196900D01*
X87772782Y-49196900D01*
X86609959Y-48034077D01*
X89747469Y-48034077D01*
X89749684Y-48046638D01*
X89806806Y-48203578D01*
X89812188Y-48213388D01*
X89852687Y-48266167D01*
X89855885Y-48269814D01*
X90413354Y-48827282D01*
X90423762Y-48831593D01*
X90434170Y-48827282D01*
X90946512Y-48314940D01*
X90950823Y-48304532D01*
X91681437Y-48304532D01*
X91685748Y-48314940D01*
X92551644Y-49180836D01*
X92562052Y-49185147D01*
X92572459Y-49180836D01*
X92776379Y-48976916D01*
X92779564Y-48973284D01*
X92820072Y-48920495D01*
X92825455Y-48910683D01*
X92882576Y-48753745D01*
X92884791Y-48741184D01*
X92884791Y-48574987D01*
X92882576Y-48562426D01*
X92825454Y-48405486D01*
X92820072Y-48395676D01*
X92779573Y-48342897D01*
X92776375Y-48339250D01*
X92218906Y-47781782D01*
X92208498Y-47777471D01*
X92198090Y-47781782D01*
X91685748Y-48294124D01*
X91681437Y-48304532D01*
X90950823Y-48304532D01*
X90946512Y-48294124D01*
X90080616Y-47428228D01*
X90070208Y-47423917D01*
X90059801Y-47428228D01*
X89855881Y-47632148D01*
X89852696Y-47635780D01*
X89812188Y-47688569D01*
X89806805Y-47698381D01*
X89749684Y-47855319D01*
X89747469Y-47867880D01*
X89747469Y-48034077D01*
X86609959Y-48034077D01*
X85634492Y-47058610D01*
X90435515Y-47058610D01*
X90439826Y-47069018D01*
X91305722Y-47934914D01*
X91316130Y-47939225D01*
X91326538Y-47934914D01*
X91838880Y-47422572D01*
X91843191Y-47412164D01*
X91838880Y-47401756D01*
X91281407Y-46844283D01*
X91277775Y-46841098D01*
X91224986Y-46800590D01*
X91215174Y-46795207D01*
X91058236Y-46738086D01*
X91045675Y-46735871D01*
X90879478Y-46735871D01*
X90866917Y-46738086D01*
X90709977Y-46795208D01*
X90700167Y-46800590D01*
X90647388Y-46841089D01*
X90643741Y-46844287D01*
X90439826Y-47048202D01*
X90435515Y-47058610D01*
X85634492Y-47058610D01*
X85262211Y-46686329D01*
X85240537Y-46634003D01*
X85240537Y-46589935D01*
X85180169Y-46424076D01*
X85146202Y-46379808D01*
X85136886Y-46367667D01*
X85136884Y-46367664D01*
X85135414Y-46365749D01*
X83638261Y-44868598D01*
X83579934Y-44823841D01*
X83414075Y-44763473D01*
X83237572Y-44763473D01*
X83231487Y-44765688D01*
X83231486Y-44765688D01*
X83189725Y-44780888D01*
X83071713Y-44823841D01*
X83067221Y-44827288D01*
X83015723Y-44866803D01*
X83013386Y-44868596D01*
X83011675Y-44870307D01*
X82813982Y-45068001D01*
X82223342Y-45658642D01*
X82214275Y-45670458D01*
X82185833Y-45707524D01*
X82178585Y-45716969D01*
X82118217Y-45882828D01*
X82118217Y-46059331D01*
X82120432Y-46065416D01*
X82120432Y-46065417D01*
X82146958Y-46138295D01*
X82178585Y-46225190D01*
X82182032Y-46229682D01*
X82218402Y-46277081D01*
X82223340Y-46283517D01*
X83720493Y-47780668D01*
X83722413Y-47782141D01*
X83772599Y-47820651D01*
X83778820Y-47825425D01*
X83882279Y-47863081D01*
X83938591Y-47883577D01*
X83944679Y-47885793D01*
X84121182Y-47885793D01*
X84132851Y-47881546D01*
X84189434Y-47884018D01*
X84210484Y-47898758D01*
X86671132Y-50359406D01*
X86692806Y-50411732D01*
X86671132Y-50464058D01*
X86618806Y-50485732D01*
X85907535Y-50485732D01*
X85855209Y-50464058D01*
X85358506Y-49967355D01*
X85357173Y-49966252D01*
X85357165Y-49966245D01*
X85321314Y-49936588D01*
X85317839Y-49933713D01*
X85313776Y-49931762D01*
X85313773Y-49931760D01*
X85187196Y-49870978D01*
X85114401Y-49836022D01*
X84931166Y-49808474D01*
X84896699Y-49803292D01*
X84891231Y-49802470D01*
X84885763Y-49803292D01*
X84851296Y-49808474D01*
X84668061Y-49836022D01*
X84595266Y-49870978D01*
X84468689Y-49931760D01*
X84468686Y-49931762D01*
X84464623Y-49933713D01*
X84461148Y-49936588D01*
X84425297Y-49966245D01*
X84425289Y-49966252D01*
X84423956Y-49967355D01*
X83566926Y-50824385D01*
X83514600Y-50846059D01*
X83462274Y-50824385D01*
X83440600Y-50772059D01*
X83440600Y-49851405D01*
X83462274Y-49799079D01*
X83858977Y-49402376D01*
X83860080Y-49401043D01*
X83860087Y-49401035D01*
X83884655Y-49371336D01*
X83892619Y-49361709D01*
X83894570Y-49357646D01*
X83894572Y-49357643D01*
X83987914Y-49163260D01*
X83990310Y-49158271D01*
X84023862Y-48935101D01*
X83990310Y-48711931D01*
X83934605Y-48595928D01*
X83894572Y-48512559D01*
X83894570Y-48512556D01*
X83892619Y-48508493D01*
X83877872Y-48490666D01*
X83860087Y-48469167D01*
X83860080Y-48469159D01*
X83858977Y-48467826D01*
X83166474Y-47775323D01*
X83165141Y-47774220D01*
X83165133Y-47774213D01*
X83129282Y-47744556D01*
X83125807Y-47741681D01*
X83121744Y-47739730D01*
X83121741Y-47739728D01*
X82969112Y-47666436D01*
X82922369Y-47643990D01*
X82699199Y-47610438D01*
X82476029Y-47643990D01*
X82429286Y-47666436D01*
X82276657Y-47739728D01*
X82276654Y-47739730D01*
X82272591Y-47741681D01*
X82269116Y-47744556D01*
X82233265Y-47774213D01*
X82233257Y-47774220D01*
X82231924Y-47775323D01*
X81835221Y-48172026D01*
X81782895Y-48193700D01*
X80022751Y-48193700D01*
X79970425Y-48172026D01*
X78493951Y-46695552D01*
X79154785Y-46695552D01*
X79159096Y-46705959D01*
X79363016Y-46909879D01*
X79366648Y-46913064D01*
X79419437Y-46953572D01*
X79429249Y-46958955D01*
X79586187Y-47016076D01*
X79598748Y-47018291D01*
X79764945Y-47018291D01*
X79777506Y-47016076D01*
X79934446Y-46958954D01*
X79944256Y-46953572D01*
X79997035Y-46913073D01*
X80000682Y-46909875D01*
X80558150Y-46352406D01*
X80562461Y-46341998D01*
X80558150Y-46331590D01*
X80045808Y-45819248D01*
X80035400Y-45814937D01*
X80024992Y-45819248D01*
X79159096Y-46685144D01*
X79154785Y-46695552D01*
X78493951Y-46695552D01*
X77980130Y-46181731D01*
X77958992Y-46138295D01*
X77958885Y-46137405D01*
X77940756Y-45987595D01*
X77902473Y-45886282D01*
X78466739Y-45886282D01*
X78468954Y-45898843D01*
X78526076Y-46055783D01*
X78531458Y-46065593D01*
X78571957Y-46118372D01*
X78575156Y-46122020D01*
X78779070Y-46325934D01*
X78789478Y-46330245D01*
X78799886Y-46325934D01*
X79665782Y-45460038D01*
X79670093Y-45449630D01*
X80400707Y-45449630D01*
X80405018Y-45460038D01*
X80917360Y-45972380D01*
X80927768Y-45976691D01*
X80938176Y-45972380D01*
X81495649Y-45414907D01*
X81498834Y-45411275D01*
X81539342Y-45358486D01*
X81544725Y-45348674D01*
X81601846Y-45191736D01*
X81604061Y-45179175D01*
X81604061Y-45012978D01*
X81601846Y-45000417D01*
X81544724Y-44843477D01*
X81539342Y-44833667D01*
X81498843Y-44780888D01*
X81495644Y-44777240D01*
X81291730Y-44573326D01*
X81281322Y-44569015D01*
X81270914Y-44573326D01*
X80405018Y-45439222D01*
X80400707Y-45449630D01*
X79670093Y-45449630D01*
X79665782Y-45439222D01*
X79153440Y-44926880D01*
X79143032Y-44922569D01*
X79132624Y-44926880D01*
X78575151Y-45484353D01*
X78571966Y-45487985D01*
X78531458Y-45540774D01*
X78526075Y-45550586D01*
X78468954Y-45707524D01*
X78466739Y-45720085D01*
X78466739Y-45886282D01*
X77902473Y-45886282D01*
X77881026Y-45829523D01*
X77856735Y-45765238D01*
X77856734Y-45765236D01*
X77855159Y-45761068D01*
X77780559Y-45652525D01*
X77720529Y-45565180D01*
X77720527Y-45565178D01*
X77717998Y-45561498D01*
X77602214Y-45458338D01*
X77540527Y-45403376D01*
X77540524Y-45403374D01*
X77537193Y-45400406D01*
X77345967Y-45299158D01*
X77327120Y-45289179D01*
X77327119Y-45289179D01*
X77323180Y-45287093D01*
X77312320Y-45284365D01*
X77142353Y-45241672D01*
X77088317Y-45228099D01*
X77063785Y-45227971D01*
X77056598Y-45227933D01*
X77004659Y-45206260D01*
X76430290Y-44631890D01*
X76408616Y-44579564D01*
X76408616Y-44557262D01*
X79508339Y-44557262D01*
X79512650Y-44567670D01*
X80024992Y-45080012D01*
X80035400Y-45084323D01*
X80045808Y-45080012D01*
X80737246Y-44388574D01*
X85980743Y-44388574D01*
X85985054Y-44398982D01*
X86542527Y-44956455D01*
X86546159Y-44959640D01*
X86598948Y-45000148D01*
X86608760Y-45005531D01*
X86765698Y-45062652D01*
X86778259Y-45064867D01*
X86944456Y-45064867D01*
X86957017Y-45062652D01*
X87113957Y-45005530D01*
X87123767Y-45000148D01*
X87176546Y-44959649D01*
X87180193Y-44956451D01*
X87384108Y-44752536D01*
X87388419Y-44742128D01*
X87384108Y-44731720D01*
X86518212Y-43865824D01*
X86507804Y-43861513D01*
X86497396Y-43865824D01*
X85985054Y-44378166D01*
X85980743Y-44388574D01*
X80737246Y-44388574D01*
X80911704Y-44214116D01*
X80916015Y-44203708D01*
X80911704Y-44193301D01*
X80707784Y-43989381D01*
X80704152Y-43986196D01*
X80651363Y-43945688D01*
X80641551Y-43940305D01*
X80484613Y-43883184D01*
X80472052Y-43880969D01*
X80305855Y-43880969D01*
X80293294Y-43883184D01*
X80136354Y-43940306D01*
X80126544Y-43945688D01*
X80073765Y-43986187D01*
X80070118Y-43989385D01*
X79512650Y-44546854D01*
X79508339Y-44557262D01*
X76408616Y-44557262D01*
X76408616Y-44123524D01*
X76430290Y-44071198D01*
X76482616Y-44049524D01*
X76534942Y-44071198D01*
X76540982Y-44077238D01*
X76599309Y-44121995D01*
X76765168Y-44182363D01*
X76941671Y-44182363D01*
X77017650Y-44154709D01*
X77102208Y-44123932D01*
X77107530Y-44121995D01*
X77147399Y-44091403D01*
X77163939Y-44078712D01*
X77163942Y-44078710D01*
X77165857Y-44077240D01*
X78017345Y-43225751D01*
X84939143Y-43225751D01*
X84941358Y-43238312D01*
X84998480Y-43395252D01*
X85003862Y-43405062D01*
X85044361Y-43457841D01*
X85047559Y-43461488D01*
X85605028Y-44018956D01*
X85615436Y-44023267D01*
X85625844Y-44018956D01*
X86138186Y-43506614D01*
X86142497Y-43496206D01*
X86873111Y-43496206D01*
X86877422Y-43506614D01*
X87743318Y-44372510D01*
X87753726Y-44376821D01*
X87764133Y-44372510D01*
X87968053Y-44168590D01*
X87971238Y-44164958D01*
X88011746Y-44112169D01*
X88017129Y-44102357D01*
X88074250Y-43945419D01*
X88076465Y-43932858D01*
X88076465Y-43766661D01*
X88074250Y-43754100D01*
X88017128Y-43597160D01*
X88011746Y-43587350D01*
X87971247Y-43534571D01*
X87968049Y-43530924D01*
X87816375Y-43379250D01*
X88780291Y-43379250D01*
X88784602Y-43389657D01*
X88988522Y-43593577D01*
X88992154Y-43596762D01*
X89044943Y-43637270D01*
X89054755Y-43642653D01*
X89211693Y-43699774D01*
X89224254Y-43701989D01*
X89390451Y-43701989D01*
X89403012Y-43699774D01*
X89559952Y-43642652D01*
X89569762Y-43637270D01*
X89622541Y-43596771D01*
X89626188Y-43593573D01*
X90183656Y-43036104D01*
X90187967Y-43025696D01*
X90183656Y-43015288D01*
X89671314Y-42502946D01*
X89660906Y-42498635D01*
X89650498Y-42502946D01*
X88784602Y-43368842D01*
X88780291Y-43379250D01*
X87816375Y-43379250D01*
X87410580Y-42973456D01*
X87400172Y-42969145D01*
X87389764Y-42973456D01*
X86877422Y-43485798D01*
X86873111Y-43496206D01*
X86142497Y-43496206D01*
X86138186Y-43485798D01*
X85272290Y-42619902D01*
X85261882Y-42615591D01*
X85251475Y-42619902D01*
X85047555Y-42823822D01*
X85044370Y-42827454D01*
X85003862Y-42880243D01*
X84998479Y-42890055D01*
X84941358Y-43046993D01*
X84939143Y-43059554D01*
X84939143Y-43225751D01*
X78017345Y-43225751D01*
X78663008Y-42580087D01*
X78707765Y-42521760D01*
X78759097Y-42380728D01*
X78765918Y-42361987D01*
X78765918Y-42361986D01*
X78768133Y-42355901D01*
X78768133Y-42250284D01*
X85627189Y-42250284D01*
X85631500Y-42260692D01*
X86497396Y-43126588D01*
X86507804Y-43130899D01*
X86518212Y-43126588D01*
X87030554Y-42614246D01*
X87034865Y-42603838D01*
X87030554Y-42593430D01*
X87007104Y-42569980D01*
X88092245Y-42569980D01*
X88094460Y-42582541D01*
X88151582Y-42739481D01*
X88156964Y-42749291D01*
X88197463Y-42802070D01*
X88200662Y-42805718D01*
X88404576Y-43009632D01*
X88414984Y-43013943D01*
X88425392Y-43009632D01*
X89291288Y-42143736D01*
X89295599Y-42133328D01*
X90026213Y-42133328D01*
X90030524Y-42143736D01*
X90542866Y-42656078D01*
X90553274Y-42660389D01*
X90563682Y-42656078D01*
X91121155Y-42098605D01*
X91124340Y-42094973D01*
X91164848Y-42042184D01*
X91170231Y-42032372D01*
X91227352Y-41875434D01*
X91229567Y-41862873D01*
X91229567Y-41696676D01*
X91227352Y-41684115D01*
X91170230Y-41527175D01*
X91164848Y-41517365D01*
X91124349Y-41464586D01*
X91121151Y-41460939D01*
X90917236Y-41257024D01*
X90906828Y-41252713D01*
X90896420Y-41257024D01*
X90030524Y-42122920D01*
X90026213Y-42133328D01*
X89295599Y-42133328D01*
X89291288Y-42122920D01*
X88778946Y-41610578D01*
X88768538Y-41606267D01*
X88758130Y-41610578D01*
X88200657Y-42168051D01*
X88197472Y-42171683D01*
X88156964Y-42224472D01*
X88151581Y-42234284D01*
X88094460Y-42391222D01*
X88092245Y-42403783D01*
X88092245Y-42569980D01*
X87007104Y-42569980D01*
X86473081Y-42035957D01*
X86469449Y-42032772D01*
X86416660Y-41992264D01*
X86406848Y-41986881D01*
X86249910Y-41929760D01*
X86237349Y-41927545D01*
X86071152Y-41927545D01*
X86058591Y-41929760D01*
X85901651Y-41986882D01*
X85891841Y-41992264D01*
X85839062Y-42032763D01*
X85835415Y-42035962D01*
X85631500Y-42239876D01*
X85627189Y-42250284D01*
X78768133Y-42250284D01*
X78768133Y-42248173D01*
X78789807Y-42195847D01*
X79098428Y-41887226D01*
X83963111Y-41887226D01*
X83967422Y-41897633D01*
X84171342Y-42101553D01*
X84174974Y-42104738D01*
X84227763Y-42145246D01*
X84237575Y-42150629D01*
X84394513Y-42207750D01*
X84407074Y-42209965D01*
X84573271Y-42209965D01*
X84585832Y-42207750D01*
X84742772Y-42150628D01*
X84752582Y-42145246D01*
X84805361Y-42104747D01*
X84809008Y-42101549D01*
X85366476Y-41544080D01*
X85370787Y-41533672D01*
X85366476Y-41523264D01*
X85084172Y-41240960D01*
X89133845Y-41240960D01*
X89138156Y-41251368D01*
X89650498Y-41763710D01*
X89660906Y-41768021D01*
X89671314Y-41763710D01*
X90537210Y-40897814D01*
X90541521Y-40887406D01*
X90537210Y-40876999D01*
X90333290Y-40673079D01*
X90329658Y-40669894D01*
X90276869Y-40629386D01*
X90267057Y-40624003D01*
X90110119Y-40566882D01*
X90097558Y-40564667D01*
X89931361Y-40564667D01*
X89918800Y-40566882D01*
X89761860Y-40624004D01*
X89752050Y-40629386D01*
X89699271Y-40669885D01*
X89695624Y-40673083D01*
X89138156Y-41230552D01*
X89133845Y-41240960D01*
X85084172Y-41240960D01*
X84854134Y-41010922D01*
X84843726Y-41006611D01*
X84833318Y-41010922D01*
X83967422Y-41876818D01*
X83963111Y-41887226D01*
X79098428Y-41887226D01*
X79907698Y-41077956D01*
X83275065Y-41077956D01*
X83277280Y-41090517D01*
X83334402Y-41247457D01*
X83339784Y-41257267D01*
X83380283Y-41310046D01*
X83383482Y-41313694D01*
X83587396Y-41517608D01*
X83597804Y-41521919D01*
X83608212Y-41517608D01*
X84474108Y-40651712D01*
X84478419Y-40641304D01*
X85209033Y-40641304D01*
X85213344Y-40651712D01*
X85725686Y-41164054D01*
X85736094Y-41168365D01*
X85746502Y-41164054D01*
X86303975Y-40606581D01*
X86307160Y-40602949D01*
X86347668Y-40550160D01*
X86353051Y-40540348D01*
X86410172Y-40383410D01*
X86412387Y-40370849D01*
X86412387Y-40204652D01*
X86410172Y-40192091D01*
X86402057Y-40169795D01*
X87431838Y-40169795D01*
X87436149Y-40180203D01*
X87993622Y-40737676D01*
X87997254Y-40740861D01*
X88050043Y-40781369D01*
X88059855Y-40786752D01*
X88216793Y-40843873D01*
X88229354Y-40846088D01*
X88395551Y-40846088D01*
X88408112Y-40843873D01*
X88565052Y-40786751D01*
X88574862Y-40781369D01*
X88627641Y-40740870D01*
X88631288Y-40737672D01*
X88835203Y-40533757D01*
X88839514Y-40523349D01*
X88835203Y-40512941D01*
X87969307Y-39647045D01*
X87958899Y-39642734D01*
X87948491Y-39647045D01*
X87436149Y-40159387D01*
X87431838Y-40169795D01*
X86402057Y-40169795D01*
X86353050Y-40035151D01*
X86347668Y-40025341D01*
X86307169Y-39972562D01*
X86303970Y-39968914D01*
X86100056Y-39765000D01*
X86089648Y-39760689D01*
X86079240Y-39765000D01*
X85213344Y-40630896D01*
X85209033Y-40641304D01*
X84478419Y-40641304D01*
X84474108Y-40630896D01*
X83961766Y-40118554D01*
X83951358Y-40114243D01*
X83940950Y-40118554D01*
X83383477Y-40676027D01*
X83380292Y-40679659D01*
X83339784Y-40732448D01*
X83334401Y-40742260D01*
X83277280Y-40899198D01*
X83275065Y-40911759D01*
X83275065Y-41077956D01*
X79907698Y-41077956D01*
X81236718Y-39748936D01*
X84316665Y-39748936D01*
X84320976Y-39759344D01*
X84833318Y-40271686D01*
X84843726Y-40275997D01*
X84854134Y-40271686D01*
X85720030Y-39405790D01*
X85724341Y-39395382D01*
X85720030Y-39384975D01*
X85516110Y-39181055D01*
X85512478Y-39177870D01*
X85459689Y-39137362D01*
X85449877Y-39131979D01*
X85292939Y-39074858D01*
X85280378Y-39072643D01*
X85114181Y-39072643D01*
X85101620Y-39074858D01*
X84944680Y-39131980D01*
X84934870Y-39137362D01*
X84882091Y-39177861D01*
X84878444Y-39181059D01*
X84320976Y-39738528D01*
X84316665Y-39748936D01*
X81236718Y-39748936D01*
X81589943Y-39395711D01*
X81642269Y-39374037D01*
X81749997Y-39374037D01*
X81915856Y-39313669D01*
X81950874Y-39286799D01*
X81972265Y-39270386D01*
X81972268Y-39270384D01*
X81974183Y-39268914D01*
X82236125Y-39006972D01*
X86390238Y-39006972D01*
X86392453Y-39019533D01*
X86449575Y-39176473D01*
X86454957Y-39186283D01*
X86495456Y-39239062D01*
X86498654Y-39242709D01*
X87056123Y-39800177D01*
X87066531Y-39804488D01*
X87076939Y-39800177D01*
X87589281Y-39287835D01*
X87593592Y-39277427D01*
X88324206Y-39277427D01*
X88328517Y-39287835D01*
X89194413Y-40153731D01*
X89204821Y-40158042D01*
X89215228Y-40153731D01*
X89419148Y-39949811D01*
X89422333Y-39946179D01*
X89462841Y-39893390D01*
X89468224Y-39883578D01*
X89525345Y-39726640D01*
X89527560Y-39714079D01*
X89527560Y-39547882D01*
X89525345Y-39535321D01*
X89468223Y-39378381D01*
X89462841Y-39368571D01*
X89422342Y-39315792D01*
X89419144Y-39312145D01*
X88861675Y-38754677D01*
X88851267Y-38750366D01*
X88840859Y-38754677D01*
X88328517Y-39267019D01*
X88324206Y-39277427D01*
X87593592Y-39277427D01*
X87589281Y-39267019D01*
X86723385Y-38401123D01*
X86712977Y-38396812D01*
X86702570Y-38401123D01*
X86498650Y-38605043D01*
X86495465Y-38608675D01*
X86454957Y-38661464D01*
X86449574Y-38671276D01*
X86392453Y-38828214D01*
X86390238Y-38840775D01*
X86390238Y-39006972D01*
X82236125Y-39006972D01*
X83211590Y-38031505D01*
X87078284Y-38031505D01*
X87082595Y-38041913D01*
X87948491Y-38907809D01*
X87958899Y-38912120D01*
X87969307Y-38907809D01*
X88306192Y-38570924D01*
X93588617Y-38570924D01*
X93592928Y-38581331D01*
X93796848Y-38785251D01*
X93800480Y-38788436D01*
X93853269Y-38828944D01*
X93863081Y-38834327D01*
X94020019Y-38891448D01*
X94032580Y-38893663D01*
X94198777Y-38893663D01*
X94211338Y-38891448D01*
X94368278Y-38834326D01*
X94378088Y-38828944D01*
X94430867Y-38788445D01*
X94434514Y-38785247D01*
X94991982Y-38227778D01*
X94996293Y-38217370D01*
X94991982Y-38206962D01*
X94479640Y-37694620D01*
X94469232Y-37690309D01*
X94458824Y-37694620D01*
X93592928Y-38560516D01*
X93588617Y-38570924D01*
X88306192Y-38570924D01*
X88481649Y-38395467D01*
X88485960Y-38385059D01*
X88481649Y-38374651D01*
X87924176Y-37817178D01*
X87920544Y-37813993D01*
X87867755Y-37773485D01*
X87857943Y-37768102D01*
X87701005Y-37710981D01*
X87688444Y-37708766D01*
X87522247Y-37708766D01*
X87509686Y-37710981D01*
X87352746Y-37768103D01*
X87342936Y-37773485D01*
X87290157Y-37813984D01*
X87286510Y-37817182D01*
X87082595Y-38021097D01*
X87078284Y-38031505D01*
X83211590Y-38031505D01*
X83471334Y-37771761D01*
X83516091Y-37713434D01*
X83576459Y-37547575D01*
X83576459Y-37371072D01*
X83564748Y-37338895D01*
X83518028Y-37210535D01*
X83516091Y-37205213D01*
X83471336Y-37146886D01*
X82681290Y-36356842D01*
X82622963Y-36312085D01*
X82457104Y-36251717D01*
X82280601Y-36251717D01*
X82114742Y-36312085D01*
X82110250Y-36315532D01*
X82065907Y-36349557D01*
X82056415Y-36356840D01*
X81774499Y-36638757D01*
X81498753Y-36914503D01*
X81446427Y-36936177D01*
X80418790Y-36936177D01*
X80366464Y-36914503D01*
X80345613Y-36873180D01*
X80341166Y-36843605D01*
X80341165Y-36843600D01*
X80340342Y-36838129D01*
X80290946Y-36735264D01*
X80244604Y-36638757D01*
X80244602Y-36638754D01*
X80242651Y-36634691D01*
X80211146Y-36596607D01*
X80210119Y-36595365D01*
X80210112Y-36595357D01*
X80209009Y-36594024D01*
X79198308Y-35583323D01*
X79196975Y-35582220D01*
X79196967Y-35582213D01*
X79161116Y-35552556D01*
X79157641Y-35549681D01*
X79153578Y-35547730D01*
X79153575Y-35547728D01*
X79028562Y-35487697D01*
X78954203Y-35451990D01*
X78731033Y-35418438D01*
X78507863Y-35451990D01*
X78433504Y-35487697D01*
X78308491Y-35547728D01*
X78308488Y-35547730D01*
X78304425Y-35549681D01*
X78300950Y-35552556D01*
X78265099Y-35582213D01*
X78265091Y-35582220D01*
X78263758Y-35583323D01*
X77767055Y-36080026D01*
X77714729Y-36101700D01*
X76733794Y-36101700D01*
X76717463Y-36099875D01*
X76715064Y-36099332D01*
X76700660Y-36096073D01*
X76612246Y-36101558D01*
X76607664Y-36101700D01*
X76578319Y-36101700D01*
X76570401Y-36102834D01*
X76557075Y-36104742D01*
X76551167Y-36105347D01*
X76510792Y-36107852D01*
X76471800Y-36110271D01*
X76466843Y-36112061D01*
X76466841Y-36112061D01*
X76448246Y-36118774D01*
X76433610Y-36122424D01*
X76414032Y-36125228D01*
X76408816Y-36125975D01*
X76336410Y-36158896D01*
X76330925Y-36161128D01*
X76261086Y-36186340D01*
X76261082Y-36186342D01*
X76256124Y-36188132D01*
X76235902Y-36202905D01*
X76222877Y-36210516D01*
X76200079Y-36220882D01*
X76139832Y-36272794D01*
X76135186Y-36276482D01*
X76116166Y-36290377D01*
X76116161Y-36290381D01*
X76113859Y-36292063D01*
X76093313Y-36312609D01*
X76089291Y-36316343D01*
X76038735Y-36359905D01*
X76026369Y-36370560D01*
X76023502Y-36374982D01*
X76023502Y-36374983D01*
X76014048Y-36389568D01*
X76004278Y-36401644D01*
X73527510Y-38878412D01*
X73475184Y-38900086D01*
X73422858Y-38878412D01*
X73401184Y-38826090D01*
X73401180Y-38744423D01*
X73400997Y-35361469D01*
X82623512Y-35361469D01*
X82627823Y-35371877D01*
X83185296Y-35929350D01*
X83188928Y-35932535D01*
X83241717Y-35973043D01*
X83251529Y-35978426D01*
X83408467Y-36035547D01*
X83421028Y-36037762D01*
X83587225Y-36037762D01*
X83599786Y-36035547D01*
X83756726Y-35978425D01*
X83766536Y-35973043D01*
X83819315Y-35932544D01*
X83822963Y-35929345D01*
X84026877Y-35725431D01*
X84031188Y-35715023D01*
X84026877Y-35704615D01*
X83160981Y-34838719D01*
X83150573Y-34834408D01*
X83140165Y-34838719D01*
X82627823Y-35351061D01*
X82623512Y-35361469D01*
X73400997Y-35361469D01*
X73400934Y-34198646D01*
X81581912Y-34198646D01*
X81584127Y-34211207D01*
X81641249Y-34368147D01*
X81646631Y-34377957D01*
X81687130Y-34430736D01*
X81690328Y-34434383D01*
X82247797Y-34991851D01*
X82258205Y-34996162D01*
X82268613Y-34991851D01*
X82780955Y-34479509D01*
X82785266Y-34469101D01*
X83515880Y-34469101D01*
X83520191Y-34479509D01*
X84386087Y-35345405D01*
X84396495Y-35349716D01*
X84406902Y-35345405D01*
X84610822Y-35141485D01*
X84614007Y-35137853D01*
X84654515Y-35085064D01*
X84659898Y-35075252D01*
X84717019Y-34918314D01*
X84719234Y-34905753D01*
X84719234Y-34739556D01*
X84717019Y-34726995D01*
X84659897Y-34570055D01*
X84654515Y-34560245D01*
X84614016Y-34507466D01*
X84610818Y-34503819D01*
X84053349Y-33946351D01*
X84042941Y-33942040D01*
X84032533Y-33946351D01*
X83520191Y-34458693D01*
X83515880Y-34469101D01*
X82785266Y-34469101D01*
X82780955Y-34458693D01*
X81915059Y-33592797D01*
X81904651Y-33588486D01*
X81894244Y-33592797D01*
X81690324Y-33796717D01*
X81687139Y-33800349D01*
X81646631Y-33853138D01*
X81641248Y-33862950D01*
X81584127Y-34019888D01*
X81581912Y-34032449D01*
X81581912Y-34198646D01*
X73400934Y-34198646D01*
X73400830Y-32285000D01*
X74242786Y-32285000D01*
X74243191Y-32288853D01*
X74269173Y-32536050D01*
X74273559Y-32577784D01*
X74345300Y-32798582D01*
X74357460Y-32836005D01*
X74364532Y-32857772D01*
X74511731Y-33112727D01*
X74708721Y-33331507D01*
X74711858Y-33333786D01*
X74711859Y-33333787D01*
X74908290Y-33476502D01*
X74946893Y-33504549D01*
X74950435Y-33506126D01*
X75212291Y-33622712D01*
X75212293Y-33622713D01*
X75215838Y-33624291D01*
X75219633Y-33625098D01*
X75219634Y-33625098D01*
X75255789Y-33632783D01*
X75503802Y-33685500D01*
X75798198Y-33685500D01*
X76046211Y-33632783D01*
X76082366Y-33625098D01*
X76082367Y-33625098D01*
X76086162Y-33624291D01*
X76089707Y-33622713D01*
X76089709Y-33622712D01*
X76351565Y-33506126D01*
X76355107Y-33504549D01*
X76393711Y-33476502D01*
X76590141Y-33333787D01*
X76590142Y-33333786D01*
X76593279Y-33331507D01*
X76690818Y-33223179D01*
X82269958Y-33223179D01*
X82274269Y-33233587D01*
X83140165Y-34099483D01*
X83150573Y-34103794D01*
X83160981Y-34099483D01*
X83673323Y-33587141D01*
X83677634Y-33576733D01*
X83673323Y-33566325D01*
X83115850Y-33008852D01*
X83112218Y-33005667D01*
X83059429Y-32965159D01*
X83049617Y-32959776D01*
X82892679Y-32902655D01*
X82880118Y-32900440D01*
X82713921Y-32900440D01*
X82701360Y-32902655D01*
X82544420Y-32959777D01*
X82534610Y-32965159D01*
X82481831Y-33005658D01*
X82478184Y-33008856D01*
X82274269Y-33212771D01*
X82269958Y-33223179D01*
X76690818Y-33223179D01*
X76790269Y-33112727D01*
X76937468Y-32857772D01*
X76944541Y-32836005D01*
X76956700Y-32798582D01*
X77028441Y-32577784D01*
X77032828Y-32536050D01*
X77058809Y-32288853D01*
X77059214Y-32285000D01*
X77046682Y-32165762D01*
X77028846Y-31996067D01*
X77028846Y-31996065D01*
X77028441Y-31992216D01*
X76937468Y-31712228D01*
X76790269Y-31457273D01*
X76593279Y-31238493D01*
X76569140Y-31220955D01*
X76531758Y-31193795D01*
X76502165Y-31145504D01*
X76515387Y-31090432D01*
X76524222Y-31080339D01*
X76611452Y-30997271D01*
X76615000Y-30993892D01*
X76770253Y-30760218D01*
X76837752Y-30582528D01*
X76868409Y-30501823D01*
X76868410Y-30501820D01*
X76869878Y-30497955D01*
X76872498Y-30479317D01*
X76888119Y-30368162D01*
X76908922Y-30220137D01*
X76909413Y-30185000D01*
X76907905Y-30171550D01*
X76878602Y-29910310D01*
X76878141Y-29906200D01*
X76875985Y-29900007D01*
X76834130Y-29779818D01*
X76785878Y-29641258D01*
X76662519Y-29443842D01*
X76639403Y-29406849D01*
X76639401Y-29406847D01*
X76637210Y-29403340D01*
X76530129Y-29295509D01*
X76470685Y-29235648D01*
X76449193Y-29183247D01*
X76472161Y-29129916D01*
X76488096Y-29114741D01*
X76615000Y-28993892D01*
X76770253Y-28760218D01*
X76847259Y-28557500D01*
X76868409Y-28501823D01*
X76868410Y-28501820D01*
X76869878Y-28497955D01*
X76874997Y-28461535D01*
X76896852Y-28306023D01*
X76908922Y-28220137D01*
X76909413Y-28185000D01*
X76878141Y-27906200D01*
X76860613Y-27855865D01*
X76850310Y-27826281D01*
X76785878Y-27641258D01*
X76698704Y-27501750D01*
X76639403Y-27406849D01*
X76639401Y-27406847D01*
X76637210Y-27403340D01*
X76493378Y-27258500D01*
X76470685Y-27235648D01*
X76449193Y-27183247D01*
X76472161Y-27129916D01*
X76612007Y-26996742D01*
X76615000Y-26993892D01*
X76770253Y-26760218D01*
X76865874Y-26508496D01*
X76868409Y-26501823D01*
X76868410Y-26501820D01*
X76869878Y-26497955D01*
X76876539Y-26450563D01*
X76887429Y-26373068D01*
X76908922Y-26220137D01*
X76909413Y-26185000D01*
X76907905Y-26171550D01*
X76878602Y-25910310D01*
X76878141Y-25906200D01*
X76785878Y-25641258D01*
X76637210Y-25403340D01*
X76522827Y-25288155D01*
X76501335Y-25235755D01*
X76523192Y-25183505D01*
X76531839Y-25176146D01*
X76590141Y-25133787D01*
X76590142Y-25133786D01*
X76593279Y-25131507D01*
X76790269Y-24912727D01*
X76937468Y-24657772D01*
X77028441Y-24377784D01*
X77059214Y-24085000D01*
X77044251Y-23942639D01*
X77028846Y-23796067D01*
X77028846Y-23796065D01*
X77028441Y-23792216D01*
X76937468Y-23512228D01*
X76790269Y-23257273D01*
X76593279Y-23038493D01*
X76355107Y-22865451D01*
X76351565Y-22863874D01*
X76089709Y-22747288D01*
X76089707Y-22747287D01*
X76086162Y-22745709D01*
X76082367Y-22744902D01*
X76082366Y-22744902D01*
X76005098Y-22728478D01*
X75798198Y-22684500D01*
X75503802Y-22684500D01*
X75296902Y-22728478D01*
X75219634Y-22744902D01*
X75219633Y-22744902D01*
X75215838Y-22745709D01*
X75212293Y-22747287D01*
X75212291Y-22747288D01*
X74950435Y-22863874D01*
X74946893Y-22865451D01*
X74708721Y-23038493D01*
X74511731Y-23257273D01*
X74364532Y-23512228D01*
X74273559Y-23792216D01*
X74273154Y-23796065D01*
X74273154Y-23796067D01*
X74257749Y-23942639D01*
X74242786Y-24085000D01*
X74273559Y-24377784D01*
X74364532Y-24657772D01*
X74511731Y-24912727D01*
X74708721Y-25131507D01*
X74770310Y-25176254D01*
X74799901Y-25224542D01*
X74786680Y-25279615D01*
X74778587Y-25288990D01*
X74675800Y-25389646D01*
X74669027Y-25400156D01*
X74638326Y-25447795D01*
X74523825Y-25625465D01*
X74427872Y-25889094D01*
X74427354Y-25893197D01*
X74427353Y-25893200D01*
X74409969Y-26030808D01*
X74392710Y-26167430D01*
X74393114Y-26171550D01*
X74414363Y-26388267D01*
X74420086Y-26446639D01*
X74421390Y-26450560D01*
X74421391Y-26450563D01*
X74492170Y-26663332D01*
X74508641Y-26712844D01*
X74653972Y-26952815D01*
X74656840Y-26955785D01*
X74656844Y-26955790D01*
X74830345Y-27135454D01*
X74851103Y-27188150D01*
X74828889Y-27239730D01*
X74745821Y-27321076D01*
X74675800Y-27389646D01*
X74673558Y-27393125D01*
X74590789Y-27521558D01*
X74523825Y-27625465D01*
X74522410Y-27629354D01*
X74522409Y-27629355D01*
X74441368Y-27852015D01*
X74427872Y-27889094D01*
X74427354Y-27893197D01*
X74427353Y-27893200D01*
X74404414Y-28074781D01*
X74392710Y-28167430D01*
X74393114Y-28171550D01*
X74409611Y-28339801D01*
X74420086Y-28446639D01*
X74421390Y-28450560D01*
X74421391Y-28450563D01*
X74456965Y-28557500D01*
X74508641Y-28712844D01*
X74653972Y-28952815D01*
X74656840Y-28955785D01*
X74656844Y-28955790D01*
X74752389Y-29054729D01*
X74827178Y-29132174D01*
X74830345Y-29135454D01*
X74851103Y-29188150D01*
X74828889Y-29239730D01*
X74710489Y-29355676D01*
X74675800Y-29389646D01*
X74673558Y-29393125D01*
X74549980Y-29584881D01*
X74523825Y-29625465D01*
X74522410Y-29629354D01*
X74522409Y-29629355D01*
X74437617Y-29862321D01*
X74427872Y-29889094D01*
X74427354Y-29893197D01*
X74427353Y-29893200D01*
X74393229Y-30163320D01*
X74392710Y-30167430D01*
X74393114Y-30171550D01*
X74419322Y-30438846D01*
X74420086Y-30446639D01*
X74421390Y-30450560D01*
X74421391Y-30450563D01*
X74479873Y-30626365D01*
X74508641Y-30712844D01*
X74653972Y-30952815D01*
X74656840Y-30955785D01*
X74656844Y-30955790D01*
X74779538Y-31082842D01*
X74800296Y-31135538D01*
X74777712Y-31187478D01*
X74769803Y-31194114D01*
X74732860Y-31220955D01*
X74708721Y-31238493D01*
X74511731Y-31457273D01*
X74364532Y-31712228D01*
X74273559Y-31992216D01*
X74273154Y-31996065D01*
X74273154Y-31996067D01*
X74255318Y-32165762D01*
X74242786Y-32285000D01*
X73400830Y-32285000D01*
X73400266Y-21908000D01*
X140875061Y-21908000D01*
X140875466Y-21911853D01*
X140902153Y-22165762D01*
X140904735Y-22190331D01*
X140992461Y-22460324D01*
X141134404Y-22706177D01*
X141136995Y-22709054D01*
X141136996Y-22709056D01*
X141250191Y-22834771D01*
X141324361Y-22917145D01*
X141554030Y-23084010D01*
X141557581Y-23085591D01*
X141809824Y-23197897D01*
X141809829Y-23197899D01*
X141813374Y-23199477D01*
X142032466Y-23246046D01*
X142071740Y-23254394D01*
X142091057Y-23258500D01*
X142374943Y-23258500D01*
X142394261Y-23254394D01*
X142433534Y-23246046D01*
X142652626Y-23199477D01*
X142656171Y-23197899D01*
X142656176Y-23197897D01*
X142908419Y-23085591D01*
X142911970Y-23084010D01*
X143141639Y-22917145D01*
X143215809Y-22834771D01*
X143329004Y-22709056D01*
X143329005Y-22709054D01*
X143331596Y-22706177D01*
X143473539Y-22460324D01*
X143561265Y-22190331D01*
X143563848Y-22165762D01*
X143590534Y-21911853D01*
X143590939Y-21908000D01*
X143586860Y-21869193D01*
X143561670Y-21629520D01*
X143561670Y-21629518D01*
X143561265Y-21625669D01*
X143473539Y-21355676D01*
X143331596Y-21109823D01*
X143141639Y-20898855D01*
X143130043Y-20890430D01*
X150974710Y-20890430D01*
X150975114Y-20894550D01*
X150980104Y-20945439D01*
X151002086Y-21169639D01*
X151003390Y-21173560D01*
X151003391Y-21173563D01*
X151065200Y-21359366D01*
X151090641Y-21435844D01*
X151235972Y-21675815D01*
X151238840Y-21678785D01*
X151238844Y-21678790D01*
X151427983Y-21874648D01*
X151430857Y-21877624D01*
X151434317Y-21879888D01*
X151434318Y-21879889D01*
X151662147Y-22028976D01*
X151665610Y-22031242D01*
X151669490Y-22032685D01*
X151669492Y-22032686D01*
X151924684Y-22127591D01*
X151924686Y-22127591D01*
X151928562Y-22129033D01*
X152006485Y-22139430D01*
X152202543Y-22165590D01*
X152202547Y-22165590D01*
X152206646Y-22166137D01*
X152210767Y-22165762D01*
X152210771Y-22165762D01*
X152332740Y-22154661D01*
X152486039Y-22140710D01*
X152752856Y-22054016D01*
X152756411Y-22051897D01*
X152990283Y-21912482D01*
X152990287Y-21912479D01*
X152993835Y-21910364D01*
X153000364Y-21904147D01*
X153194007Y-21719742D01*
X153197000Y-21716892D01*
X153352253Y-21483218D01*
X153451878Y-21220955D01*
X153458539Y-21173563D01*
X153490598Y-20945439D01*
X153490922Y-20943137D01*
X153491413Y-20908000D01*
X153460141Y-20629200D01*
X153455727Y-20616523D01*
X153409566Y-20483970D01*
X153367878Y-20364258D01*
X153265284Y-20200073D01*
X153221403Y-20129849D01*
X153221401Y-20129847D01*
X153219210Y-20126340D01*
X153021526Y-19927271D01*
X152784652Y-19776946D01*
X152687619Y-19742394D01*
X152524262Y-19684225D01*
X152524258Y-19684224D01*
X152520360Y-19682836D01*
X152241785Y-19649618D01*
X152237675Y-19650050D01*
X152237673Y-19650050D01*
X151966883Y-19678511D01*
X151966882Y-19678511D01*
X151962774Y-19678943D01*
X151882979Y-19706107D01*
X151701105Y-19768022D01*
X151701101Y-19768024D01*
X151697194Y-19769354D01*
X151458244Y-19916357D01*
X151257800Y-20112646D01*
X151105825Y-20348465D01*
X151104410Y-20352354D01*
X151104409Y-20352355D01*
X151029449Y-20558307D01*
X151009872Y-20612094D01*
X151009354Y-20616197D01*
X151009353Y-20616200D01*
X150994437Y-20734274D01*
X150974710Y-20890430D01*
X143130043Y-20890430D01*
X142911970Y-20731990D01*
X142907630Y-20730058D01*
X142656176Y-20618103D01*
X142656171Y-20618101D01*
X142652626Y-20616523D01*
X142374943Y-20557500D01*
X142091057Y-20557500D01*
X142087261Y-20558307D01*
X142087260Y-20558307D01*
X141817169Y-20615716D01*
X141817166Y-20615717D01*
X141813374Y-20616523D01*
X141809832Y-20618100D01*
X141809829Y-20618101D01*
X141558158Y-20730152D01*
X141554031Y-20731990D01*
X141324361Y-20898855D01*
X141134404Y-21109823D01*
X140992461Y-21355676D01*
X140904735Y-21625669D01*
X140904330Y-21629518D01*
X140904330Y-21629520D01*
X140879140Y-21869193D01*
X140875061Y-21908000D01*
X73400266Y-21908000D01*
X73400074Y-18366587D01*
X75101167Y-18366587D01*
X75101728Y-18370296D01*
X75101728Y-18370297D01*
X75135621Y-18594403D01*
X75149788Y-18688081D01*
X75262061Y-18993231D01*
X75264032Y-18996410D01*
X75264035Y-18996416D01*
X75353378Y-19140510D01*
X75433401Y-19269573D01*
X75656807Y-19505819D01*
X75659872Y-19507965D01*
X75659873Y-19507966D01*
X75702766Y-19538000D01*
X75923154Y-19692317D01*
X76019000Y-19733793D01*
X76218126Y-19819963D01*
X76218130Y-19819964D01*
X76221561Y-19821449D01*
X76225223Y-19822214D01*
X76225226Y-19822215D01*
X76522530Y-19884325D01*
X76539839Y-19887941D01*
X76542667Y-19888089D01*
X76542673Y-19888090D01*
X76549544Y-19888450D01*
X76549558Y-19888450D01*
X76550505Y-19888500D01*
X76789260Y-19888500D01*
X76791117Y-19888311D01*
X76791124Y-19888311D01*
X77027754Y-19864275D01*
X77031485Y-19863896D01*
X77094287Y-19844215D01*
X77338180Y-19767784D01*
X77338183Y-19767783D01*
X77341756Y-19766663D01*
X77626138Y-19609027D01*
X77691834Y-19552719D01*
X77693022Y-19551701D01*
X87302422Y-19551701D01*
X87324457Y-19733793D01*
X87326570Y-19742394D01*
X87413934Y-19973597D01*
X87418036Y-19981442D01*
X87558022Y-20185125D01*
X87563889Y-20191779D01*
X87748416Y-20356187D01*
X87755694Y-20361245D01*
X87974120Y-20476896D01*
X87982387Y-20480069D01*
X88091725Y-20507533D01*
X88102869Y-20505888D01*
X88106000Y-20501672D01*
X88106000Y-20496418D01*
X88614000Y-20496418D01*
X88618311Y-20506826D01*
X88623318Y-20508900D01*
X88727157Y-20483970D01*
X88735463Y-20480881D01*
X88955090Y-20367523D01*
X88962411Y-20362548D01*
X89148660Y-20200073D01*
X89154588Y-20193489D01*
X89296703Y-19991281D01*
X89300889Y-19983472D01*
X89390666Y-19753207D01*
X89392871Y-19744620D01*
X89417683Y-19556153D01*
X89417921Y-19552527D01*
X89417579Y-19551701D01*
X92142422Y-19551701D01*
X92164457Y-19733793D01*
X92166570Y-19742394D01*
X92253934Y-19973597D01*
X92258036Y-19981442D01*
X92398022Y-20185125D01*
X92403889Y-20191779D01*
X92588416Y-20356187D01*
X92595694Y-20361245D01*
X92814120Y-20476896D01*
X92822387Y-20480069D01*
X92931725Y-20507533D01*
X92942869Y-20505888D01*
X92946000Y-20501672D01*
X92946000Y-20496418D01*
X93454000Y-20496418D01*
X93458311Y-20506826D01*
X93463318Y-20508900D01*
X93567157Y-20483970D01*
X93575463Y-20480881D01*
X93795090Y-20367523D01*
X93802411Y-20362548D01*
X93988660Y-20200073D01*
X93994588Y-20193489D01*
X94136703Y-19991281D01*
X94140889Y-19983472D01*
X94230666Y-19753207D01*
X94232871Y-19744620D01*
X94257683Y-19556153D01*
X94257921Y-19552527D01*
X94253689Y-19542311D01*
X94243281Y-19538000D01*
X93468719Y-19538000D01*
X93458311Y-19542311D01*
X93454000Y-19552719D01*
X93454000Y-20496418D01*
X92946000Y-20496418D01*
X92946000Y-19552719D01*
X92941689Y-19542311D01*
X92931281Y-19538000D01*
X92156719Y-19538000D01*
X92146311Y-19542311D01*
X92142422Y-19551701D01*
X89417579Y-19551701D01*
X89413689Y-19542311D01*
X89403281Y-19538000D01*
X88628719Y-19538000D01*
X88618311Y-19542311D01*
X88614000Y-19552719D01*
X88614000Y-20496418D01*
X88106000Y-20496418D01*
X88106000Y-19552719D01*
X88101689Y-19542311D01*
X88091281Y-19538000D01*
X87316719Y-19538000D01*
X87306311Y-19542311D01*
X87302422Y-19551701D01*
X77693022Y-19551701D01*
X77749726Y-19503099D01*
X77873014Y-19397428D01*
X77970078Y-19272295D01*
X78070001Y-19143476D01*
X78070004Y-19143472D01*
X78072301Y-19140510D01*
X78133827Y-19015473D01*
X87302079Y-19015473D01*
X87306311Y-19025689D01*
X87316719Y-19030000D01*
X88091281Y-19030000D01*
X88101689Y-19025689D01*
X88106000Y-19015281D01*
X88614000Y-19015281D01*
X88618311Y-19025689D01*
X88628719Y-19030000D01*
X89403281Y-19030000D01*
X89413689Y-19025689D01*
X89417578Y-19016299D01*
X89417478Y-19015473D01*
X92142079Y-19015473D01*
X92146311Y-19025689D01*
X92156719Y-19030000D01*
X92931281Y-19030000D01*
X92941689Y-19025689D01*
X92946000Y-19015281D01*
X93454000Y-19015281D01*
X93458311Y-19025689D01*
X93468719Y-19030000D01*
X94243281Y-19030000D01*
X94253689Y-19025689D01*
X94257578Y-19016299D01*
X94235543Y-18834207D01*
X94233430Y-18825606D01*
X94146066Y-18594403D01*
X94141964Y-18586558D01*
X94005904Y-18388587D01*
X137195167Y-18388587D01*
X137195728Y-18392296D01*
X137195728Y-18392297D01*
X137240993Y-18691598D01*
X137243788Y-18710081D01*
X137356061Y-19015231D01*
X137358032Y-19018410D01*
X137358035Y-19018416D01*
X137447378Y-19162510D01*
X137527401Y-19291573D01*
X137750807Y-19527819D01*
X137753872Y-19529965D01*
X137753873Y-19529966D01*
X138014079Y-19712164D01*
X138017154Y-19714317D01*
X138107024Y-19753207D01*
X138312126Y-19841963D01*
X138312130Y-19841964D01*
X138315561Y-19843449D01*
X138319223Y-19844214D01*
X138319226Y-19844215D01*
X138531207Y-19888500D01*
X138633839Y-19909941D01*
X138636667Y-19910089D01*
X138636673Y-19910090D01*
X138643544Y-19910450D01*
X138643558Y-19910450D01*
X138644505Y-19910500D01*
X138883260Y-19910500D01*
X138885117Y-19910311D01*
X138885124Y-19910311D01*
X139121754Y-19886275D01*
X139125485Y-19885896D01*
X139199264Y-19862775D01*
X139432180Y-19789784D01*
X139432183Y-19789783D01*
X139435756Y-19788663D01*
X139720138Y-19631027D01*
X139748652Y-19606588D01*
X139964168Y-19421867D01*
X139967014Y-19419428D01*
X139969312Y-19416466D01*
X140164001Y-19165476D01*
X140164004Y-19165472D01*
X140166301Y-19162510D01*
X140177127Y-19140510D01*
X140308201Y-18874130D01*
X140309856Y-18870767D01*
X140391816Y-18556117D01*
X140393165Y-18530378D01*
X140408637Y-18235158D01*
X140408637Y-18235155D01*
X140408833Y-18231413D01*
X140404907Y-18205452D01*
X140360773Y-17913626D01*
X140360772Y-17913622D01*
X140360212Y-17909919D01*
X140247939Y-17604769D01*
X140245968Y-17601590D01*
X140245965Y-17601584D01*
X140078573Y-17331611D01*
X140076599Y-17328427D01*
X139853193Y-17092181D01*
X139825659Y-17072901D01*
X139589921Y-16907836D01*
X139589920Y-16907835D01*
X139586846Y-16905683D01*
X139412452Y-16830216D01*
X139291874Y-16778037D01*
X139291870Y-16778036D01*
X139288439Y-16776551D01*
X139284777Y-16775786D01*
X139284774Y-16775785D01*
X138972942Y-16710640D01*
X138970161Y-16710059D01*
X138967333Y-16709911D01*
X138967327Y-16709910D01*
X138960456Y-16709550D01*
X138960442Y-16709550D01*
X138959495Y-16709500D01*
X138720740Y-16709500D01*
X138718883Y-16709689D01*
X138718876Y-16709689D01*
X138482246Y-16733725D01*
X138478515Y-16734104D01*
X138446252Y-16744215D01*
X138171820Y-16830216D01*
X138171817Y-16830217D01*
X138168244Y-16831337D01*
X137883862Y-16988973D01*
X137881018Y-16991411D01*
X137881016Y-16991412D01*
X137819943Y-17043758D01*
X137636986Y-17200572D01*
X137634690Y-17203532D01*
X137634688Y-17203534D01*
X137439999Y-17454524D01*
X137439996Y-17454528D01*
X137437699Y-17457490D01*
X137294144Y-17749233D01*
X137212184Y-18063883D01*
X137211988Y-18067622D01*
X137195905Y-18374511D01*
X137195167Y-18388587D01*
X94005904Y-18388587D01*
X94001978Y-18382875D01*
X93996111Y-18376221D01*
X93811584Y-18211813D01*
X93804306Y-18206755D01*
X93585880Y-18091104D01*
X93577613Y-18087931D01*
X93468275Y-18060467D01*
X93457131Y-18062112D01*
X93454000Y-18066328D01*
X93454000Y-19015281D01*
X92946000Y-19015281D01*
X92946000Y-18071582D01*
X92941689Y-18061174D01*
X92936682Y-18059100D01*
X92832843Y-18084030D01*
X92824537Y-18087119D01*
X92604910Y-18200477D01*
X92597589Y-18205452D01*
X92411340Y-18367927D01*
X92405412Y-18374511D01*
X92263297Y-18576719D01*
X92259111Y-18584528D01*
X92169334Y-18814793D01*
X92167129Y-18823380D01*
X92142317Y-19011847D01*
X92142079Y-19015473D01*
X89417478Y-19015473D01*
X89395543Y-18834207D01*
X89393430Y-18825606D01*
X89306066Y-18594403D01*
X89301964Y-18586558D01*
X89161978Y-18382875D01*
X89156111Y-18376221D01*
X88971584Y-18211813D01*
X88964306Y-18206755D01*
X88745880Y-18091104D01*
X88737613Y-18087931D01*
X88628275Y-18060467D01*
X88617131Y-18062112D01*
X88614000Y-18066328D01*
X88614000Y-19015281D01*
X88106000Y-19015281D01*
X88106000Y-18071582D01*
X88101689Y-18061174D01*
X88096682Y-18059100D01*
X87992843Y-18084030D01*
X87984537Y-18087119D01*
X87764910Y-18200477D01*
X87757589Y-18205452D01*
X87571340Y-18367927D01*
X87565412Y-18374511D01*
X87423297Y-18576719D01*
X87419111Y-18584528D01*
X87329334Y-18814793D01*
X87327129Y-18823380D01*
X87302317Y-19011847D01*
X87302079Y-19015473D01*
X78133827Y-19015473D01*
X78215856Y-18848767D01*
X78297816Y-18534117D01*
X78298012Y-18530378D01*
X78314637Y-18213158D01*
X78314637Y-18213155D01*
X78314833Y-18209413D01*
X78293988Y-18071582D01*
X78266773Y-17891626D01*
X78266772Y-17891622D01*
X78266212Y-17887919D01*
X78153939Y-17582769D01*
X78151968Y-17579590D01*
X78151965Y-17579584D01*
X77984573Y-17309611D01*
X77982599Y-17306427D01*
X77759193Y-17070181D01*
X77717196Y-17040774D01*
X77495921Y-16885836D01*
X77495920Y-16885835D01*
X77492846Y-16883683D01*
X77318452Y-16808216D01*
X77197874Y-16756037D01*
X77197870Y-16756036D01*
X77194439Y-16754551D01*
X77190777Y-16753786D01*
X77190774Y-16753785D01*
X76878942Y-16688640D01*
X76876161Y-16688059D01*
X76873333Y-16687911D01*
X76873327Y-16687910D01*
X76866456Y-16687550D01*
X76866442Y-16687550D01*
X76865495Y-16687500D01*
X76626740Y-16687500D01*
X76624883Y-16687689D01*
X76624876Y-16687689D01*
X76398928Y-16710640D01*
X76384515Y-16712104D01*
X76380938Y-16713225D01*
X76077820Y-16808216D01*
X76077817Y-16808217D01*
X76074244Y-16809337D01*
X75789862Y-16966973D01*
X75787018Y-16969411D01*
X75787016Y-16969412D01*
X75751329Y-17000000D01*
X75542986Y-17178572D01*
X75540690Y-17181532D01*
X75540688Y-17181534D01*
X75345999Y-17432524D01*
X75345996Y-17432528D01*
X75343699Y-17435490D01*
X75342043Y-17438855D01*
X75342042Y-17438857D01*
X75314283Y-17495271D01*
X75200144Y-17727233D01*
X75118184Y-18041883D01*
X75117988Y-18045622D01*
X75108446Y-18227703D01*
X75101167Y-18366587D01*
X73400074Y-18366587D01*
X73400003Y-17050200D01*
X73401127Y-17037350D01*
X73406589Y-17006374D01*
X73407713Y-17000000D01*
X73406589Y-16993624D01*
X73404015Y-16979025D01*
X73403119Y-16960370D01*
X73421349Y-16728729D01*
X73422936Y-16708574D01*
X73424752Y-16697109D01*
X73426786Y-16688640D01*
X73460194Y-16549486D01*
X86869496Y-16549486D01*
X86890394Y-16728729D01*
X86892360Y-16737044D01*
X86983546Y-16988259D01*
X86987375Y-16995904D01*
X87133908Y-17219404D01*
X87139390Y-17225960D01*
X87333408Y-17409755D01*
X87340251Y-17414875D01*
X87571352Y-17549108D01*
X87579182Y-17552513D01*
X87781914Y-17613914D01*
X87793123Y-17612805D01*
X87796000Y-17609297D01*
X87796000Y-17601014D01*
X88304000Y-17601014D01*
X88308311Y-17611422D01*
X88314403Y-17613945D01*
X88382049Y-17602322D01*
X88390238Y-17599912D01*
X88636159Y-17495271D01*
X88643585Y-17491035D01*
X88858837Y-17332627D01*
X88865075Y-17326810D01*
X89038117Y-17123125D01*
X89042857Y-17116018D01*
X89164397Y-16877998D01*
X89167375Y-16869991D01*
X89231136Y-16609419D01*
X89232124Y-16602927D01*
X89232930Y-16589935D01*
X89233000Y-16587677D01*
X89233000Y-16552719D01*
X89231661Y-16549486D01*
X92329496Y-16549486D01*
X92350394Y-16728729D01*
X92352360Y-16737044D01*
X92443546Y-16988259D01*
X92447375Y-16995904D01*
X92593908Y-17219404D01*
X92599390Y-17225960D01*
X92793408Y-17409755D01*
X92800251Y-17414875D01*
X93031352Y-17549108D01*
X93039182Y-17552513D01*
X93241914Y-17613914D01*
X93253123Y-17612805D01*
X93256000Y-17609297D01*
X93256000Y-17601014D01*
X93764000Y-17601014D01*
X93768311Y-17611422D01*
X93774403Y-17613945D01*
X93842049Y-17602322D01*
X93850238Y-17599912D01*
X94096159Y-17495271D01*
X94103585Y-17491035D01*
X94318837Y-17332627D01*
X94325075Y-17326810D01*
X94498117Y-17123125D01*
X94502857Y-17116018D01*
X94624397Y-16877998D01*
X94627375Y-16869991D01*
X94691136Y-16609419D01*
X94692124Y-16602927D01*
X94692930Y-16589935D01*
X94693000Y-16587677D01*
X94693000Y-16552719D01*
X94688689Y-16542311D01*
X94678281Y-16538000D01*
X93778719Y-16538000D01*
X93768311Y-16542311D01*
X93764000Y-16552719D01*
X93764000Y-17601014D01*
X93256000Y-17601014D01*
X93256000Y-16552719D01*
X93251689Y-16542311D01*
X93241281Y-16538000D01*
X92342876Y-16538000D01*
X92332468Y-16542311D01*
X92329496Y-16549486D01*
X89231661Y-16549486D01*
X89228689Y-16542311D01*
X89218281Y-16538000D01*
X88318719Y-16538000D01*
X88308311Y-16542311D01*
X88304000Y-16552719D01*
X88304000Y-17601014D01*
X87796000Y-17601014D01*
X87796000Y-16552719D01*
X87791689Y-16542311D01*
X87781281Y-16538000D01*
X86882876Y-16538000D01*
X86872468Y-16542311D01*
X86869496Y-16549486D01*
X73460194Y-16549486D01*
X73491633Y-16418534D01*
X73495221Y-16407491D01*
X73604860Y-16142797D01*
X73610132Y-16132450D01*
X73610830Y-16131312D01*
X73759825Y-15888174D01*
X73766650Y-15878780D01*
X73952715Y-15660926D01*
X73960926Y-15652715D01*
X74178780Y-15466650D01*
X74188174Y-15459825D01*
X74380381Y-15342040D01*
X74432454Y-15310130D01*
X74442797Y-15304860D01*
X74707491Y-15195221D01*
X74718534Y-15191633D01*
X74857822Y-15158192D01*
X74997113Y-15124751D01*
X75008574Y-15122936D01*
X75137460Y-15112792D01*
X75260370Y-15103119D01*
X75279025Y-15104015D01*
X75293624Y-15106589D01*
X75293626Y-15106589D01*
X75300000Y-15107713D01*
X75306375Y-15106589D01*
X75337410Y-15101117D01*
X75350248Y-15099993D01*
X75447530Y-15099978D01*
X87202187Y-15098171D01*
X87254516Y-15119837D01*
X87276198Y-15172160D01*
X87254532Y-15224489D01*
X87246056Y-15231773D01*
X87241163Y-15235374D01*
X87234925Y-15241190D01*
X87061883Y-15444875D01*
X87057143Y-15451982D01*
X86935603Y-15690002D01*
X86932625Y-15698009D01*
X86868864Y-15958581D01*
X86867876Y-15965073D01*
X86867070Y-15978065D01*
X86867000Y-15980323D01*
X86867000Y-16015281D01*
X86871311Y-16025689D01*
X86881719Y-16030000D01*
X89217124Y-16030000D01*
X89227532Y-16025689D01*
X89230504Y-16018514D01*
X89209606Y-15839271D01*
X89207640Y-15830956D01*
X89116454Y-15579741D01*
X89112625Y-15572096D01*
X88966092Y-15348596D01*
X88960610Y-15342040D01*
X88837728Y-15225633D01*
X88814646Y-15173913D01*
X88834897Y-15121020D01*
X88888608Y-15097911D01*
X89129396Y-15097874D01*
X92663328Y-15097331D01*
X92715657Y-15118997D01*
X92737339Y-15171320D01*
X92715673Y-15223649D01*
X92707199Y-15230932D01*
X92701161Y-15235375D01*
X92694925Y-15241190D01*
X92521883Y-15444875D01*
X92517143Y-15451982D01*
X92395603Y-15690002D01*
X92392625Y-15698009D01*
X92328864Y-15958581D01*
X92327876Y-15965073D01*
X92327070Y-15978065D01*
X92327000Y-15980323D01*
X92327000Y-16015281D01*
X92331311Y-16025689D01*
X92341719Y-16030000D01*
X94677124Y-16030000D01*
X94687532Y-16025689D01*
X94690504Y-16018514D01*
X94669606Y-15839271D01*
X94667640Y-15830956D01*
X94576454Y-15579741D01*
X94572625Y-15572096D01*
X94426092Y-15348596D01*
X94420614Y-15342044D01*
X94296842Y-15224793D01*
X94273761Y-15173072D01*
X94294012Y-15120179D01*
X94347722Y-15097072D01*
X153982121Y-15087901D01*
X154227509Y-15087863D01*
X154240383Y-15088989D01*
G37*
%TD.AperFunction*%
%TD*%
M02*
