%TF.GenerationSoftware,KiCad,Pcbnew,6.0.2+dfsg-1*%
%TF.CreationDate,2023-02-12T20:47:07+01:00*%
%TF.ProjectId,picopico,7069636f-7069-4636-9f2e-6b696361645f,rev?*%
%TF.SameCoordinates,Original*%
%TF.FileFunction,Copper,L2,Bot*%
%TF.FilePolarity,Positive*%
%FSLAX46Y46*%
G04 Gerber Fmt 4.6, Leading zero omitted, Abs format (unit mm)*
G04 Created by KiCad (PCBNEW 6.0.2+dfsg-1) date 2023-02-12 20:47:07*
%MOMM*%
%LPD*%
G01*
G04 APERTURE LIST*
%TA.AperFunction,ComponentPad*%
%ADD10C,2.000000*%
%TD*%
%TA.AperFunction,ComponentPad*%
%ADD11C,1.700000*%
%TD*%
%TA.AperFunction,ComponentPad*%
%ADD12R,1.700000X1.700000*%
%TD*%
%TA.AperFunction,ComponentPad*%
%ADD13O,1.700000X1.700000*%
%TD*%
%TA.AperFunction,ConnectorPad*%
%ADD14C,1.524000*%
%TD*%
%TA.AperFunction,SMDPad,CuDef*%
%ADD15R,1.000000X1.000000*%
%TD*%
%TA.AperFunction,Conductor*%
%ADD16C,0.800000*%
%TD*%
G04 APERTURE END LIST*
D10*
%TO.P,SW1,*%
%TO.N,*%
X72075500Y-37157500D03*
X78075500Y-25157500D03*
X72075500Y-25157500D03*
X78075500Y-37157500D03*
D11*
%TO.P,SW1,1,A*%
%TO.N,unconnected-(SW1-Pad1)*%
X76325500Y-27157500D03*
%TO.P,SW1,2,B*%
%TO.N,+BATT*%
X76325500Y-31157500D03*
%TO.P,SW1,3,C*%
%TO.N,+3.3V*%
X76325500Y-35157500D03*
%TD*%
%TO.P,U2,1,1*%
%TO.N,Net-(U2-Pad1)*%
X153155000Y-24956000D03*
%TO.P,U2,2,2*%
%TO.N,Net-(J1-Pad9)*%
X153155000Y-28956000D03*
%TO.P,U2,3,3*%
%TO.N,Net-(U2-Pad3)*%
X153155000Y-32956000D03*
%TD*%
D12*
%TO.P,J2,1,Pin_1*%
%TO.N,+3.3V*%
X108034200Y-20291200D03*
D13*
%TO.P,J2,2,Pin_2*%
%TO.N,GND*%
X110574200Y-20291200D03*
%TO.P,J2,3,Pin_3*%
%TO.N,/LED{slash}BL*%
X113114200Y-20291200D03*
%TO.P,J2,4,Pin_4*%
%TO.N,/CS*%
X115654200Y-20291200D03*
%TO.P,J2,5,Pin_5*%
%TO.N,/DC{slash}RS*%
X118194200Y-20291200D03*
%TO.P,J2,6,Pin_6*%
%TO.N,/RESET*%
X120734200Y-20291200D03*
%TO.P,J2,7,Pin_7*%
%TO.N,/SDA*%
X123274200Y-20291200D03*
%TO.P,J2,8,Pin_8*%
%TO.N,/SCK*%
X125814200Y-20291200D03*
%TD*%
D11*
%TO.P,J1,1,Pin_1*%
%TO.N,/LRC*%
X147828000Y-34036000D03*
D13*
%TO.P,J1,2,Pin_2*%
%TO.N,/BCLK*%
X147828000Y-36576000D03*
%TO.P,J1,3,Pin_3*%
%TO.N,/DIN*%
X147828000Y-39116000D03*
%TO.P,J1,4,Pin_4*%
%TO.N,GND*%
X147828000Y-41656000D03*
%TO.P,J1,5,Pin_5*%
%TO.N,+3.3V*%
X147828000Y-44196000D03*
D12*
%TO.P,J1,6,Pin_6*%
%TO.N,GND*%
X147828000Y-46736000D03*
D13*
%TO.P,J1,7,Pin_7*%
%TO.N,+3.3V*%
X147828000Y-49276000D03*
D14*
%TO.P,J1,8,Out_-*%
%TO.N,unconnected-(J1-Pad8)*%
X162843000Y-37916000D03*
%TO.P,J1,9,Out_+*%
%TO.N,Net-(J1-Pad9)*%
X162773000Y-42926000D03*
%TD*%
D15*
%TO.P,TP4,1,1*%
%TO.N,+BATT*%
X86615500Y-31093000D03*
%TD*%
D13*
%TO.P,U1,1,3v3*%
%TO.N,+3.3V*%
X132810000Y-43085000D03*
%TO.P,U1,2,RST*%
%TO.N,unconnected-(U1-Pad2)*%
X132810000Y-45720000D03*
%TO.P,U1,3,VP*%
%TO.N,unconnected-(U1-Pad3)*%
X132810000Y-48260000D03*
%TO.P,U1,4,VN*%
%TO.N,unconnected-(U1-Pad4)*%
X132810000Y-50800000D03*
%TO.P,U1,5,34i*%
%TO.N,/SW_SEL*%
X132810000Y-53340000D03*
%TO.P,U1,6,35i*%
%TO.N,/SW_START*%
X132810000Y-55880000D03*
%TO.P,U1,7,32*%
%TO.N,unconnected-(U1-Pad7)*%
X132810000Y-58420000D03*
%TO.P,U1,8,33*%
%TO.N,unconnected-(U1-Pad8)*%
X132810000Y-60960000D03*
%TO.P,U1,9,25*%
%TO.N,/LRC*%
X132810000Y-63500000D03*
%TO.P,U1,10,26*%
%TO.N,/BCLK*%
X132810000Y-66040000D03*
%TO.P,U1,11,27*%
%TO.N,/DIN*%
X132810000Y-68580000D03*
%TO.P,U1,12,14*%
%TO.N,/SW_A*%
X132810000Y-71120000D03*
%TO.P,U1,13,12STRAP*%
%TO.N,unconnected-(U1-Pad13)*%
X132810000Y-73660000D03*
%TO.P,U1,14,13*%
%TO.N,/SW_B*%
X132810000Y-76200000D03*
D12*
%TO.P,U1,15,GND*%
%TO.N,GND*%
X132810000Y-78740000D03*
D13*
%TO.P,U1,16,VBAT*%
%TO.N,unconnected-(U1-Pad16)*%
X132810000Y-81280000D03*
D12*
%TO.P,U1,17,GND*%
%TO.N,GND*%
X132810000Y-83725000D03*
D13*
%TO.P,U1,18,3.3v*%
%TO.N,+3.3V*%
X109950000Y-83725000D03*
%TO.P,U1,19,VIN*%
X109950000Y-81185000D03*
%TO.P,U1,20,5V*%
%TO.N,unconnected-(U1-Pad20)*%
X109950000Y-78645000D03*
D12*
%TO.P,U1,21,GND*%
%TO.N,GND*%
X109950000Y-76105000D03*
D13*
%TO.P,U1,22,15*%
%TO.N,/SW_R*%
X109950000Y-73565000D03*
%TO.P,U1,23,2*%
%TO.N,/SW_BOT*%
X109950000Y-71025000D03*
%TO.P,U1,24,0STRAP*%
%TO.N,/SW_T*%
X109950000Y-68485000D03*
%TO.P,U1,25,4*%
%TO.N,/SW_L*%
X109950000Y-65945000D03*
%TO.P,U1,26,5*%
%TO.N,/SCK*%
X109950000Y-63405000D03*
%TO.P,U1,27,18*%
%TO.N,/SDA*%
X109950000Y-60865000D03*
%TO.P,U1,28,19*%
%TO.N,/RESET*%
X109950000Y-58325000D03*
%TO.P,U1,29,21*%
%TO.N,/DC{slash}RS*%
X109950000Y-55785000D03*
%TO.P,U1,30,RX*%
%TO.N,unconnected-(U1-Pad30)*%
X109950000Y-53245000D03*
%TO.P,U1,31,TX*%
%TO.N,unconnected-(U1-Pad31)*%
X109950000Y-50705000D03*
%TO.P,U1,32,22*%
%TO.N,/CS*%
X109950000Y-48165000D03*
D11*
%TO.P,U1,33,23*%
%TO.N,/LED{slash}BL*%
X109950000Y-45625000D03*
D12*
%TO.P,U1,34,GND*%
%TO.N,GND*%
X109950000Y-43085000D03*
%TD*%
D15*
%TO.P,TP3,1,1*%
%TO.N,GND*%
X86615500Y-26013000D03*
%TD*%
D16*
%TO.N,+3.3V*%
X76347000Y-35179000D02*
X90551000Y-35179000D01*
X102362000Y-74676000D02*
X108871000Y-81185000D01*
X108871000Y-81185000D02*
X109950000Y-81185000D01*
X90551000Y-35179000D02*
X102362000Y-46990000D01*
X102362000Y-46990000D02*
X102362000Y-74676000D01*
X76325500Y-35157500D02*
X76347000Y-35179000D01*
%TO.N,/DIN*%
X144780000Y-39116000D02*
X147828000Y-39116000D01*
X144145000Y-39751000D02*
X144780000Y-39116000D01*
X144145000Y-57245000D02*
X144145000Y-39751000D01*
X132810000Y-68580000D02*
X144145000Y-57245000D01*
%TO.N,/LRC*%
X139065000Y-37211000D02*
X142240000Y-34036000D01*
X132810000Y-63500000D02*
X139065000Y-57245000D01*
X139065000Y-57245000D02*
X139065000Y-37211000D01*
X142240000Y-34036000D02*
X147828000Y-34036000D01*
%TO.N,/BCLK*%
X143510000Y-36576000D02*
X147828000Y-36576000D01*
X132810000Y-66040000D02*
X141605000Y-57245000D01*
X141605000Y-57245000D02*
X141605000Y-38481000D01*
X141605000Y-38481000D02*
X143510000Y-36576000D01*
%TO.N,+BATT*%
X76347500Y-31135500D02*
X86573000Y-31135500D01*
X86573000Y-31135500D02*
X86615500Y-31093000D01*
X76325500Y-31157500D02*
X76347500Y-31135500D01*
%TD*%
%TA.AperFunction,Conductor*%
%TO.N,GND*%
G36*
X165439121Y-15625002D02*
G01*
X165485614Y-15678658D01*
X165497000Y-15731000D01*
X165497000Y-96918000D01*
X165476998Y-96986121D01*
X165423342Y-97032614D01*
X165371000Y-97044000D01*
X68182000Y-97044000D01*
X68113879Y-97023998D01*
X68067386Y-96970342D01*
X68056000Y-96918000D01*
X68056000Y-91186000D01*
X79432457Y-91186000D01*
X79452609Y-91493460D01*
X79453413Y-91497500D01*
X79453413Y-91497503D01*
X79503937Y-91751503D01*
X79512720Y-91795659D01*
X79611762Y-92087427D01*
X79613586Y-92091125D01*
X79738845Y-92345125D01*
X79748040Y-92363771D01*
X79919222Y-92619964D01*
X79921936Y-92623058D01*
X79921940Y-92623064D01*
X80119671Y-92848531D01*
X80122380Y-92851620D01*
X80125469Y-92854329D01*
X80350936Y-93052060D01*
X80350942Y-93052064D01*
X80354036Y-93054778D01*
X80610229Y-93225960D01*
X80613928Y-93227784D01*
X80613933Y-93227787D01*
X80755962Y-93297828D01*
X80886573Y-93362238D01*
X80890478Y-93363564D01*
X80890479Y-93363564D01*
X81174434Y-93459954D01*
X81174437Y-93459955D01*
X81178341Y-93461280D01*
X81182380Y-93462083D01*
X81182386Y-93462085D01*
X81476497Y-93520587D01*
X81476500Y-93520587D01*
X81480540Y-93521391D01*
X81484651Y-93521660D01*
X81484655Y-93521661D01*
X81709010Y-93536366D01*
X81709019Y-93536366D01*
X81711059Y-93536500D01*
X81864941Y-93536500D01*
X81866981Y-93536366D01*
X81866990Y-93536366D01*
X82091345Y-93521661D01*
X82091349Y-93521660D01*
X82095460Y-93521391D01*
X82099500Y-93520587D01*
X82099503Y-93520587D01*
X82393614Y-93462085D01*
X82393620Y-93462083D01*
X82397659Y-93461280D01*
X82401563Y-93459955D01*
X82401566Y-93459954D01*
X82685521Y-93363564D01*
X82685522Y-93363564D01*
X82689427Y-93362238D01*
X82820038Y-93297828D01*
X82962067Y-93227787D01*
X82962072Y-93227784D01*
X82965771Y-93225960D01*
X83221964Y-93054778D01*
X83225058Y-93052064D01*
X83225064Y-93052060D01*
X83450531Y-92854329D01*
X83453620Y-92851620D01*
X83456329Y-92848531D01*
X83654060Y-92623064D01*
X83654064Y-92623058D01*
X83656778Y-92619964D01*
X83660719Y-92614067D01*
X83825666Y-92367205D01*
X83825667Y-92367204D01*
X83827960Y-92363772D01*
X83838980Y-92341427D01*
X83962414Y-92091125D01*
X83964238Y-92087427D01*
X84063280Y-91795659D01*
X84072064Y-91751503D01*
X84122587Y-91497503D01*
X84122587Y-91497500D01*
X84123391Y-91493460D01*
X84126895Y-91440000D01*
X151568457Y-91440000D01*
X151588609Y-91747460D01*
X151589413Y-91751500D01*
X151589413Y-91751503D01*
X151598974Y-91799566D01*
X151648720Y-92049659D01*
X151650045Y-92053563D01*
X151650046Y-92053566D01*
X151662796Y-92091125D01*
X151747762Y-92341427D01*
X151884040Y-92617771D01*
X152055222Y-92873964D01*
X152057936Y-92877058D01*
X152057940Y-92877064D01*
X152255671Y-93102531D01*
X152258380Y-93105620D01*
X152261469Y-93108329D01*
X152486936Y-93306060D01*
X152486942Y-93306064D01*
X152490036Y-93308778D01*
X152746229Y-93479960D01*
X152749928Y-93481784D01*
X152749933Y-93481787D01*
X152891962Y-93551828D01*
X153022573Y-93616238D01*
X153026478Y-93617564D01*
X153026479Y-93617564D01*
X153310434Y-93713954D01*
X153310437Y-93713955D01*
X153314341Y-93715280D01*
X153318380Y-93716083D01*
X153318386Y-93716085D01*
X153612497Y-93774587D01*
X153612500Y-93774587D01*
X153616540Y-93775391D01*
X153620651Y-93775660D01*
X153620655Y-93775661D01*
X153845010Y-93790366D01*
X153845019Y-93790366D01*
X153847059Y-93790500D01*
X154000941Y-93790500D01*
X154002981Y-93790366D01*
X154002990Y-93790366D01*
X154227345Y-93775661D01*
X154227349Y-93775660D01*
X154231460Y-93775391D01*
X154235500Y-93774587D01*
X154235503Y-93774587D01*
X154529614Y-93716085D01*
X154529620Y-93716083D01*
X154533659Y-93715280D01*
X154537563Y-93713955D01*
X154537566Y-93713954D01*
X154821521Y-93617564D01*
X154821522Y-93617564D01*
X154825427Y-93616238D01*
X154956038Y-93551828D01*
X155098067Y-93481787D01*
X155098072Y-93481784D01*
X155101771Y-93479960D01*
X155357964Y-93308778D01*
X155361058Y-93306064D01*
X155361064Y-93306060D01*
X155586531Y-93108329D01*
X155589620Y-93105620D01*
X155592329Y-93102531D01*
X155790060Y-92877064D01*
X155790064Y-92877058D01*
X155792778Y-92873964D01*
X155963960Y-92617772D01*
X156100238Y-92341427D01*
X156185204Y-92091125D01*
X156197954Y-92053566D01*
X156197955Y-92053563D01*
X156199280Y-92049659D01*
X156249027Y-91799566D01*
X156258587Y-91751503D01*
X156258587Y-91751500D01*
X156259391Y-91747460D01*
X156279543Y-91440000D01*
X156259391Y-91132540D01*
X156209686Y-90882655D01*
X156200085Y-90834386D01*
X156200083Y-90834380D01*
X156199280Y-90830341D01*
X156100238Y-90538573D01*
X155974979Y-90284573D01*
X155965787Y-90265933D01*
X155965784Y-90265928D01*
X155963960Y-90262229D01*
X155792778Y-90006036D01*
X155790064Y-90002942D01*
X155790060Y-90002936D01*
X155592329Y-89777469D01*
X155589620Y-89774380D01*
X155560607Y-89748936D01*
X155361064Y-89573940D01*
X155361058Y-89573936D01*
X155357964Y-89571222D01*
X155101771Y-89400040D01*
X155098072Y-89398216D01*
X155098067Y-89398213D01*
X154956038Y-89328172D01*
X154825427Y-89263762D01*
X154821521Y-89262436D01*
X154537566Y-89166046D01*
X154537563Y-89166045D01*
X154533659Y-89164720D01*
X154529620Y-89163917D01*
X154529614Y-89163915D01*
X154235503Y-89105413D01*
X154235500Y-89105413D01*
X154231460Y-89104609D01*
X154227349Y-89104340D01*
X154227345Y-89104339D01*
X154002990Y-89089634D01*
X154002981Y-89089634D01*
X154000941Y-89089500D01*
X153847059Y-89089500D01*
X153845019Y-89089634D01*
X153845010Y-89089634D01*
X153620655Y-89104339D01*
X153620651Y-89104340D01*
X153616540Y-89104609D01*
X153612500Y-89105413D01*
X153612497Y-89105413D01*
X153318386Y-89163915D01*
X153318380Y-89163917D01*
X153314341Y-89164720D01*
X153310437Y-89166045D01*
X153310434Y-89166046D01*
X153026479Y-89262436D01*
X153022573Y-89263762D01*
X152891962Y-89328172D01*
X152749933Y-89398213D01*
X152749928Y-89398216D01*
X152746229Y-89400040D01*
X152490036Y-89571222D01*
X152486942Y-89573936D01*
X152486936Y-89573940D01*
X152287393Y-89748936D01*
X152258380Y-89774380D01*
X152255671Y-89777469D01*
X152057940Y-90002936D01*
X152057936Y-90002942D01*
X152055222Y-90006036D01*
X152052933Y-90009462D01*
X152052929Y-90009467D01*
X151924616Y-90201501D01*
X151884040Y-90262228D01*
X151882216Y-90265927D01*
X151882213Y-90265932D01*
X151871094Y-90288479D01*
X151747762Y-90538573D01*
X151648720Y-90830341D01*
X151647917Y-90834380D01*
X151647915Y-90834386D01*
X151638314Y-90882655D01*
X151588609Y-91132540D01*
X151568457Y-91440000D01*
X84126895Y-91440000D01*
X84143543Y-91186000D01*
X84123391Y-90878540D01*
X84113804Y-90830341D01*
X84064085Y-90580386D01*
X84064083Y-90580380D01*
X84063280Y-90576341D01*
X84051786Y-90542479D01*
X83965564Y-90288479D01*
X83965564Y-90288478D01*
X83964238Y-90284573D01*
X83827960Y-90008229D01*
X83656778Y-89752036D01*
X83654064Y-89748942D01*
X83654060Y-89748936D01*
X83456329Y-89523469D01*
X83453620Y-89520380D01*
X83450531Y-89517671D01*
X83225064Y-89319940D01*
X83225058Y-89319936D01*
X83221964Y-89317222D01*
X82965771Y-89146040D01*
X82962072Y-89144216D01*
X82962067Y-89144213D01*
X82820038Y-89074172D01*
X82689427Y-89009762D01*
X82685521Y-89008436D01*
X82401566Y-88912046D01*
X82401563Y-88912045D01*
X82397659Y-88910720D01*
X82393620Y-88909917D01*
X82393614Y-88909915D01*
X82099503Y-88851413D01*
X82099500Y-88851413D01*
X82095460Y-88850609D01*
X82091349Y-88850340D01*
X82091345Y-88850339D01*
X81866990Y-88835634D01*
X81866981Y-88835634D01*
X81864941Y-88835500D01*
X81711059Y-88835500D01*
X81709019Y-88835634D01*
X81709010Y-88835634D01*
X81484655Y-88850339D01*
X81484651Y-88850340D01*
X81480540Y-88850609D01*
X81476500Y-88851413D01*
X81476497Y-88851413D01*
X81182386Y-88909915D01*
X81182380Y-88909917D01*
X81178341Y-88910720D01*
X81174437Y-88912045D01*
X81174434Y-88912046D01*
X80890479Y-89008436D01*
X80886573Y-89009762D01*
X80755962Y-89074172D01*
X80613933Y-89144213D01*
X80613928Y-89144216D01*
X80610229Y-89146040D01*
X80354036Y-89317222D01*
X80350942Y-89319936D01*
X80350936Y-89319940D01*
X80125469Y-89517671D01*
X80122380Y-89520380D01*
X80119671Y-89523469D01*
X79921940Y-89748936D01*
X79921936Y-89748942D01*
X79919222Y-89752036D01*
X79748040Y-90008228D01*
X79611762Y-90284573D01*
X79610436Y-90288478D01*
X79610436Y-90288479D01*
X79524215Y-90542479D01*
X79512720Y-90576341D01*
X79511917Y-90580380D01*
X79511915Y-90580386D01*
X79462196Y-90830341D01*
X79452609Y-90878540D01*
X79432457Y-91186000D01*
X68056000Y-91186000D01*
X68056000Y-37094502D01*
X70070880Y-37094502D01*
X70082002Y-37377584D01*
X70132900Y-37656275D01*
X70134309Y-37660498D01*
X70196817Y-37847857D01*
X70222558Y-37925014D01*
X70224550Y-37929001D01*
X70224551Y-37929003D01*
X70262697Y-38005344D01*
X70349187Y-38178439D01*
X70510261Y-38411493D01*
X70702565Y-38619527D01*
X70706019Y-38622339D01*
X70918807Y-38795575D01*
X70918811Y-38795578D01*
X70922264Y-38798389D01*
X71164972Y-38944512D01*
X71169067Y-38946246D01*
X71169069Y-38946247D01*
X71421747Y-39053242D01*
X71421754Y-39053244D01*
X71425848Y-39054978D01*
X71515814Y-39078832D01*
X71695389Y-39126446D01*
X71695393Y-39126447D01*
X71699686Y-39127585D01*
X71704095Y-39128107D01*
X71704101Y-39128108D01*
X71861453Y-39146732D01*
X71981023Y-39160884D01*
X72264245Y-39154209D01*
X72268643Y-39153477D01*
X72539310Y-39108426D01*
X72539314Y-39108425D01*
X72543700Y-39107695D01*
X72547941Y-39106354D01*
X72547944Y-39106353D01*
X72809568Y-39023612D01*
X72809570Y-39023611D01*
X72813814Y-39022269D01*
X72817825Y-39020343D01*
X72817830Y-39020341D01*
X73065178Y-38901566D01*
X73065179Y-38901565D01*
X73069197Y-38899636D01*
X73072903Y-38897160D01*
X73301045Y-38744721D01*
X73301049Y-38744718D01*
X73304753Y-38742243D01*
X73515781Y-38553230D01*
X73698073Y-38336368D01*
X73847989Y-38095985D01*
X73962540Y-37836876D01*
X74039439Y-37564212D01*
X74074344Y-37304341D01*
X74076725Y-37286615D01*
X74076726Y-37286607D01*
X74077152Y-37283433D01*
X74079635Y-37204436D01*
X74081009Y-37160722D01*
X74081009Y-37160717D01*
X74081110Y-37157500D01*
X74061101Y-36874907D01*
X74052637Y-36835590D01*
X74002411Y-36602300D01*
X74002411Y-36602298D01*
X74001475Y-36597953D01*
X73903420Y-36332163D01*
X73896342Y-36319045D01*
X73771006Y-36086756D01*
X73768893Y-36082840D01*
X73600578Y-35854960D01*
X73554054Y-35807699D01*
X73433471Y-35685208D01*
X73401834Y-35653070D01*
X73398294Y-35650369D01*
X73398288Y-35650363D01*
X73180167Y-35483898D01*
X73180163Y-35483895D01*
X73176626Y-35481196D01*
X73046651Y-35408407D01*
X72933337Y-35344948D01*
X72933332Y-35344945D01*
X72929447Y-35342770D01*
X72925289Y-35341162D01*
X72925284Y-35341159D01*
X72669385Y-35242159D01*
X72669379Y-35242157D01*
X72665230Y-35240552D01*
X72660898Y-35239548D01*
X72660895Y-35239547D01*
X72556040Y-35215243D01*
X72389247Y-35176582D01*
X72107003Y-35152137D01*
X72102568Y-35152381D01*
X72102564Y-35152381D01*
X71828573Y-35167460D01*
X71828566Y-35167461D01*
X71824130Y-35167705D01*
X71686243Y-35195132D01*
X71550646Y-35222104D01*
X71550641Y-35222105D01*
X71546274Y-35222974D01*
X71542071Y-35224450D01*
X71283184Y-35315364D01*
X71283181Y-35315365D01*
X71278976Y-35316842D01*
X71275023Y-35318895D01*
X71275017Y-35318898D01*
X71174475Y-35371126D01*
X71027572Y-35447436D01*
X71023957Y-35450019D01*
X71023951Y-35450023D01*
X70976548Y-35483898D01*
X70797076Y-35612151D01*
X70793849Y-35615229D01*
X70793847Y-35615231D01*
X70698354Y-35706327D01*
X70592088Y-35807699D01*
X70416699Y-36030180D01*
X70386112Y-36082840D01*
X70276641Y-36271307D01*
X70276638Y-36271313D01*
X70274407Y-36275154D01*
X70272737Y-36279277D01*
X70179140Y-36510358D01*
X70168052Y-36537732D01*
X70166981Y-36542045D01*
X70166979Y-36542050D01*
X70100862Y-36808220D01*
X70099755Y-36812677D01*
X70099301Y-36817105D01*
X70099301Y-36817107D01*
X70075033Y-37053965D01*
X70070880Y-37094502D01*
X68056000Y-37094502D01*
X68056000Y-35099226D01*
X74471188Y-35099226D01*
X74471363Y-35103677D01*
X74479681Y-35315364D01*
X74481477Y-35361082D01*
X74528558Y-35618876D01*
X74529967Y-35623099D01*
X74590529Y-35804624D01*
X74611494Y-35867465D01*
X74613487Y-35871453D01*
X74719111Y-36082840D01*
X74728628Y-36101887D01*
X74731157Y-36105546D01*
X74849833Y-36277256D01*
X74877624Y-36317467D01*
X75055510Y-36509902D01*
X75058964Y-36512714D01*
X75255278Y-36672539D01*
X75255282Y-36672542D01*
X75258735Y-36675353D01*
X75483245Y-36810519D01*
X75542381Y-36835560D01*
X75720462Y-36910968D01*
X75720466Y-36910969D01*
X75724560Y-36912703D01*
X75728852Y-36913841D01*
X75728855Y-36913842D01*
X75977351Y-36979730D01*
X76038070Y-37016523D01*
X76069258Y-37080303D01*
X76070961Y-37096575D01*
X76078828Y-37296807D01*
X76082002Y-37377584D01*
X76132900Y-37656275D01*
X76134309Y-37660498D01*
X76196817Y-37847857D01*
X76222558Y-37925014D01*
X76224550Y-37929001D01*
X76224551Y-37929003D01*
X76262697Y-38005344D01*
X76349187Y-38178439D01*
X76510261Y-38411493D01*
X76702565Y-38619527D01*
X76706019Y-38622339D01*
X76918807Y-38795575D01*
X76918811Y-38795578D01*
X76922264Y-38798389D01*
X77164972Y-38944512D01*
X77169067Y-38946246D01*
X77169069Y-38946247D01*
X77421747Y-39053242D01*
X77421754Y-39053244D01*
X77425848Y-39054978D01*
X77515814Y-39078832D01*
X77695389Y-39126446D01*
X77695393Y-39126447D01*
X77699686Y-39127585D01*
X77704095Y-39128107D01*
X77704101Y-39128108D01*
X77861453Y-39146732D01*
X77981023Y-39160884D01*
X78264245Y-39154209D01*
X78268643Y-39153477D01*
X78539310Y-39108426D01*
X78539314Y-39108425D01*
X78543700Y-39107695D01*
X78547941Y-39106354D01*
X78547944Y-39106353D01*
X78809568Y-39023612D01*
X78809570Y-39023611D01*
X78813814Y-39022269D01*
X78817825Y-39020343D01*
X78817830Y-39020341D01*
X79065178Y-38901566D01*
X79065179Y-38901565D01*
X79069197Y-38899636D01*
X79072903Y-38897160D01*
X79301045Y-38744721D01*
X79301049Y-38744718D01*
X79304753Y-38742243D01*
X79515781Y-38553230D01*
X79698073Y-38336368D01*
X79847989Y-38095985D01*
X79962540Y-37836876D01*
X80039439Y-37564212D01*
X80074344Y-37304341D01*
X80076725Y-37286615D01*
X80076726Y-37286607D01*
X80077152Y-37283433D01*
X80079635Y-37204436D01*
X80081009Y-37160722D01*
X80081009Y-37160717D01*
X80081110Y-37157500D01*
X80061101Y-36874907D01*
X80030338Y-36732018D01*
X80035555Y-36661215D01*
X80078223Y-36604470D01*
X80144796Y-36579802D01*
X80153516Y-36579500D01*
X89918704Y-36579500D01*
X89986825Y-36599502D01*
X90007799Y-36616405D01*
X100924595Y-47533201D01*
X100958621Y-47595513D01*
X100961500Y-47622296D01*
X100961500Y-74621592D01*
X100961185Y-74630489D01*
X100956573Y-74695625D01*
X100962337Y-74753883D01*
X100967222Y-74803263D01*
X100967381Y-74804990D01*
X100976531Y-74912823D01*
X100977871Y-74917987D01*
X100978631Y-74922433D01*
X100979448Y-74926842D01*
X100979973Y-74932144D01*
X101008624Y-75036517D01*
X101009054Y-75038128D01*
X101034818Y-75137394D01*
X101036240Y-75142874D01*
X101038431Y-75147737D01*
X101039905Y-75151923D01*
X101041475Y-75156189D01*
X101042888Y-75161338D01*
X101088723Y-75259408D01*
X101089386Y-75260855D01*
X101133857Y-75359576D01*
X101136833Y-75363997D01*
X101139028Y-75367940D01*
X101141265Y-75371829D01*
X101143521Y-75376657D01*
X101146563Y-75381042D01*
X101205154Y-75465500D01*
X101206142Y-75466945D01*
X101266591Y-75556732D01*
X101270268Y-75560586D01*
X101273617Y-75564752D01*
X101273262Y-75565037D01*
X101273688Y-75565561D01*
X101274042Y-75565280D01*
X101276630Y-75568531D01*
X101278995Y-75571940D01*
X101281785Y-75575007D01*
X101281788Y-75575010D01*
X101294761Y-75589268D01*
X101294773Y-75589281D01*
X101295767Y-75590373D01*
X101358009Y-75652615D01*
X101360084Y-75654738D01*
X101430645Y-75728705D01*
X101434930Y-75731893D01*
X101434931Y-75731894D01*
X101436764Y-75733258D01*
X101450646Y-75745252D01*
X107842211Y-82136817D01*
X107848282Y-82143332D01*
X107891090Y-82192664D01*
X107895221Y-82196051D01*
X107974740Y-82261253D01*
X107976092Y-82262377D01*
X107987142Y-82271698D01*
X108058785Y-82332134D01*
X108063389Y-82334841D01*
X108067069Y-82337446D01*
X108070751Y-82339977D01*
X108074880Y-82343362D01*
X108168899Y-82396880D01*
X108170358Y-82397725D01*
X108259072Y-82449878D01*
X108259077Y-82449881D01*
X108263676Y-82452584D01*
X108268661Y-82454472D01*
X108272655Y-82456386D01*
X108276799Y-82458301D01*
X108281433Y-82460939D01*
X108357681Y-82488616D01*
X108414889Y-82530661D01*
X108440284Y-82596960D01*
X108425804Y-82666465D01*
X108418900Y-82677879D01*
X108418333Y-82678713D01*
X108415578Y-82682208D01*
X108283955Y-82908813D01*
X108282290Y-82912925D01*
X108282287Y-82912930D01*
X108213010Y-83083967D01*
X108185574Y-83151703D01*
X108122399Y-83406032D01*
X108095688Y-83666726D01*
X108105977Y-83928582D01*
X108153058Y-84186376D01*
X108235994Y-84434965D01*
X108237987Y-84438953D01*
X108331694Y-84626490D01*
X108353128Y-84669387D01*
X108502124Y-84884967D01*
X108544422Y-84930724D01*
X108676384Y-85073479D01*
X108680010Y-85077402D01*
X108683464Y-85080214D01*
X108879778Y-85240039D01*
X108879782Y-85240042D01*
X108883235Y-85242853D01*
X109107745Y-85378019D01*
X109220545Y-85425784D01*
X109344962Y-85478468D01*
X109344966Y-85478469D01*
X109349060Y-85480203D01*
X109353352Y-85481341D01*
X109353355Y-85481342D01*
X109454125Y-85508061D01*
X109602365Y-85547366D01*
X109606789Y-85547890D01*
X109606791Y-85547890D01*
X109757572Y-85565736D01*
X109862607Y-85578167D01*
X110124592Y-85571993D01*
X110128986Y-85571262D01*
X110128993Y-85571261D01*
X110378692Y-85529700D01*
X110378696Y-85529699D01*
X110383094Y-85528967D01*
X110547061Y-85477111D01*
X110628709Y-85451289D01*
X110628711Y-85451288D01*
X110632955Y-85449946D01*
X110636966Y-85448020D01*
X110636971Y-85448018D01*
X110865169Y-85338439D01*
X110865170Y-85338438D01*
X110869188Y-85336509D01*
X111013566Y-85240039D01*
X111083380Y-85193391D01*
X111083384Y-85193388D01*
X111087082Y-85190917D01*
X111282287Y-85016076D01*
X111392496Y-84884967D01*
X111448043Y-84818886D01*
X111448045Y-84818884D01*
X111450910Y-84815475D01*
X111573026Y-84619669D01*
X131452001Y-84619669D01*
X131452371Y-84626490D01*
X131457895Y-84677352D01*
X131461521Y-84692604D01*
X131506676Y-84813054D01*
X131515214Y-84828649D01*
X131591715Y-84930724D01*
X131604276Y-84943285D01*
X131706351Y-85019786D01*
X131721946Y-85028324D01*
X131842394Y-85073478D01*
X131857649Y-85077105D01*
X131908514Y-85082631D01*
X131915328Y-85083000D01*
X132537885Y-85083000D01*
X132553124Y-85078525D01*
X132554329Y-85077135D01*
X132556000Y-85069452D01*
X132556000Y-85064884D01*
X133064000Y-85064884D01*
X133068475Y-85080123D01*
X133069865Y-85081328D01*
X133077548Y-85082999D01*
X133704669Y-85082999D01*
X133711490Y-85082629D01*
X133762352Y-85077105D01*
X133777604Y-85073479D01*
X133898054Y-85028324D01*
X133913649Y-85019786D01*
X134015724Y-84943285D01*
X134028285Y-84930724D01*
X134104786Y-84828649D01*
X134113324Y-84813054D01*
X134158478Y-84692606D01*
X134162105Y-84677351D01*
X134167631Y-84626486D01*
X134168000Y-84619672D01*
X134168000Y-83997115D01*
X134163525Y-83981876D01*
X134162135Y-83980671D01*
X134154452Y-83979000D01*
X133082115Y-83979000D01*
X133066876Y-83983475D01*
X133065671Y-83984865D01*
X133064000Y-83992548D01*
X133064000Y-85064884D01*
X132556000Y-85064884D01*
X132556000Y-83997115D01*
X132551525Y-83981876D01*
X132550135Y-83980671D01*
X132542452Y-83979000D01*
X131470116Y-83979000D01*
X131454877Y-83983475D01*
X131453672Y-83984865D01*
X131452001Y-83992548D01*
X131452001Y-84619669D01*
X111573026Y-84619669D01*
X111589586Y-84593116D01*
X111657741Y-84438953D01*
X111693749Y-84357503D01*
X111695547Y-84353436D01*
X111766681Y-84101216D01*
X111782309Y-83984865D01*
X111801139Y-83844673D01*
X111801140Y-83844665D01*
X111801566Y-83841491D01*
X111805227Y-83725000D01*
X111786719Y-83463596D01*
X111731563Y-83207408D01*
X111712610Y-83156032D01*
X111642401Y-82965724D01*
X111640860Y-82961547D01*
X111516420Y-82730920D01*
X111513774Y-82727337D01*
X111365735Y-82526907D01*
X111341353Y-82460228D01*
X111356890Y-82390953D01*
X111370636Y-82370973D01*
X111448045Y-82278883D01*
X111450910Y-82275475D01*
X111589586Y-82053116D01*
X111619375Y-81985736D01*
X111693749Y-81817503D01*
X111695547Y-81813436D01*
X111766681Y-81561216D01*
X111788806Y-81396491D01*
X111801139Y-81304673D01*
X111801140Y-81304665D01*
X111801566Y-81301491D01*
X111802140Y-81283222D01*
X111804073Y-81221726D01*
X130955688Y-81221726D01*
X130965977Y-81483582D01*
X131013058Y-81741376D01*
X131095994Y-81989965D01*
X131097987Y-81993953D01*
X131175018Y-82148116D01*
X131213128Y-82224387D01*
X131239384Y-82262377D01*
X131316458Y-82373893D01*
X131362124Y-82439967D01*
X131464784Y-82551023D01*
X131496337Y-82614623D01*
X131490242Y-82680781D01*
X131461522Y-82757391D01*
X131457895Y-82772649D01*
X131452369Y-82823514D01*
X131452000Y-82830328D01*
X131452000Y-83452885D01*
X131456475Y-83468124D01*
X131457865Y-83469329D01*
X131465548Y-83471000D01*
X134149884Y-83471000D01*
X134165123Y-83466525D01*
X134166328Y-83465135D01*
X134167999Y-83457452D01*
X134167999Y-82830331D01*
X134167629Y-82823510D01*
X134162105Y-82772648D01*
X134158478Y-82757394D01*
X134131026Y-82684164D01*
X134125843Y-82613357D01*
X134152557Y-82558860D01*
X134308038Y-82373893D01*
X134308045Y-82373883D01*
X134310910Y-82370475D01*
X134449586Y-82148116D01*
X134453186Y-82139975D01*
X134553749Y-81912503D01*
X134555547Y-81908436D01*
X134626681Y-81656216D01*
X134649280Y-81487962D01*
X134661139Y-81399673D01*
X134661140Y-81399665D01*
X134661566Y-81396491D01*
X134665227Y-81280000D01*
X134646719Y-81018596D01*
X134591563Y-80762408D01*
X134572610Y-80711032D01*
X134502401Y-80520724D01*
X134500860Y-80516547D01*
X134376420Y-80285920D01*
X134343283Y-80241055D01*
X134223370Y-80078706D01*
X134220726Y-80075126D01*
X134130490Y-79983461D01*
X134096956Y-79920884D01*
X134102577Y-79850110D01*
X134109762Y-79834562D01*
X134113322Y-79828059D01*
X134158478Y-79707606D01*
X134162105Y-79692351D01*
X134167631Y-79641486D01*
X134168000Y-79634672D01*
X134168000Y-79012115D01*
X134163525Y-78996876D01*
X134162135Y-78995671D01*
X134154452Y-78994000D01*
X131470116Y-78994000D01*
X131454877Y-78998475D01*
X131453672Y-78999865D01*
X131452001Y-79007548D01*
X131452001Y-79634669D01*
X131452371Y-79641490D01*
X131457895Y-79692352D01*
X131461521Y-79707604D01*
X131506677Y-79828058D01*
X131509715Y-79833606D01*
X131524884Y-79902963D01*
X131500148Y-79969511D01*
X131486166Y-79985285D01*
X131441043Y-80028330D01*
X131441039Y-80028335D01*
X131437816Y-80031409D01*
X131275578Y-80237208D01*
X131273346Y-80241050D01*
X131273343Y-80241055D01*
X131170781Y-80417629D01*
X131143955Y-80463813D01*
X131142290Y-80467925D01*
X131142287Y-80467930D01*
X131063184Y-80663227D01*
X131045574Y-80706703D01*
X130982399Y-80961032D01*
X130955688Y-81221726D01*
X111804073Y-81221726D01*
X111805126Y-81188222D01*
X111805126Y-81188217D01*
X111805227Y-81185000D01*
X111789684Y-80965466D01*
X111787034Y-80928045D01*
X111786719Y-80923596D01*
X111731563Y-80667408D01*
X111677449Y-80520724D01*
X111642401Y-80425724D01*
X111640860Y-80421547D01*
X111516420Y-80190920D01*
X111428554Y-80071958D01*
X111365735Y-79986907D01*
X111341353Y-79920228D01*
X111356890Y-79850953D01*
X111370636Y-79830973D01*
X111448045Y-79738883D01*
X111450910Y-79735475D01*
X111589586Y-79513116D01*
X111599573Y-79490527D01*
X111693749Y-79277503D01*
X111695547Y-79273436D01*
X111766681Y-79021216D01*
X111801566Y-78761491D01*
X111805227Y-78645000D01*
X111786719Y-78383596D01*
X111731563Y-78127408D01*
X111712610Y-78076032D01*
X111642401Y-77885724D01*
X111640860Y-77881547D01*
X111516420Y-77650920D01*
X111512738Y-77645934D01*
X111402912Y-77497242D01*
X111360726Y-77440126D01*
X111270490Y-77348461D01*
X111236956Y-77285884D01*
X111242577Y-77215110D01*
X111249762Y-77199562D01*
X111253322Y-77193059D01*
X111298478Y-77072606D01*
X111302105Y-77057351D01*
X111307631Y-77006486D01*
X111308000Y-76999672D01*
X111308000Y-76377115D01*
X111303525Y-76361876D01*
X111302135Y-76360671D01*
X111294452Y-76359000D01*
X108610116Y-76359000D01*
X108594877Y-76363475D01*
X108593672Y-76364865D01*
X108592001Y-76372548D01*
X108592001Y-76999669D01*
X108592371Y-77006490D01*
X108597895Y-77057352D01*
X108601521Y-77072604D01*
X108646677Y-77193058D01*
X108649715Y-77198606D01*
X108664884Y-77267963D01*
X108640148Y-77334511D01*
X108626166Y-77350285D01*
X108581043Y-77393330D01*
X108581039Y-77393335D01*
X108577816Y-77396409D01*
X108575060Y-77399905D01*
X108498861Y-77496564D01*
X108415578Y-77602208D01*
X108413346Y-77606050D01*
X108413343Y-77606055D01*
X108307865Y-77787649D01*
X108283955Y-77828813D01*
X108282290Y-77832925D01*
X108282287Y-77832930D01*
X108213010Y-78003967D01*
X108185574Y-78071703D01*
X108150322Y-78213620D01*
X108114489Y-78274908D01*
X108051208Y-78307095D01*
X107980571Y-78299960D01*
X107938944Y-78272338D01*
X105808332Y-76141726D01*
X130955688Y-76141726D01*
X130955863Y-76146177D01*
X130964758Y-76372548D01*
X130965977Y-76403582D01*
X131013058Y-76661376D01*
X131095994Y-76909965D01*
X131124163Y-76966340D01*
X131175018Y-77068116D01*
X131213128Y-77144387D01*
X131246767Y-77193059D01*
X131262008Y-77215110D01*
X131362124Y-77359967D01*
X131433294Y-77436958D01*
X131491786Y-77500234D01*
X131523339Y-77563834D01*
X131515498Y-77634396D01*
X131509781Y-77646273D01*
X131506678Y-77651940D01*
X131461522Y-77772394D01*
X131457895Y-77787649D01*
X131452369Y-77838514D01*
X131452000Y-77845328D01*
X131452000Y-78467885D01*
X131456475Y-78483124D01*
X131457865Y-78484329D01*
X131465548Y-78486000D01*
X134149884Y-78486000D01*
X134165123Y-78481525D01*
X134166328Y-78480135D01*
X134167999Y-78472452D01*
X134167999Y-77845331D01*
X134167629Y-77838510D01*
X134162105Y-77787648D01*
X134158479Y-77772396D01*
X134113323Y-77651942D01*
X134111760Y-77649088D01*
X134111070Y-77645934D01*
X134110172Y-77643538D01*
X134110518Y-77643408D01*
X134096591Y-77579730D01*
X134121328Y-77513182D01*
X134135893Y-77497261D01*
X134135873Y-77497242D01*
X134136530Y-77496564D01*
X134138210Y-77494728D01*
X134142287Y-77491076D01*
X134187778Y-77436958D01*
X134308043Y-77293886D01*
X134308045Y-77293884D01*
X134310910Y-77290475D01*
X134449586Y-77068116D01*
X134451778Y-77063159D01*
X134553749Y-76832503D01*
X134555547Y-76828436D01*
X134626681Y-76576216D01*
X134649280Y-76407962D01*
X134661139Y-76319673D01*
X134661140Y-76319665D01*
X134661566Y-76316491D01*
X134665227Y-76200000D01*
X134646719Y-75938596D01*
X134591563Y-75682408D01*
X134572610Y-75631032D01*
X134502401Y-75440724D01*
X134500860Y-75436547D01*
X134376420Y-75205920D01*
X134347062Y-75166172D01*
X134225735Y-75001907D01*
X134201353Y-74935228D01*
X134216890Y-74865953D01*
X134230636Y-74845973D01*
X134308045Y-74753883D01*
X134310910Y-74750475D01*
X134449586Y-74528116D01*
X134456249Y-74513046D01*
X134553749Y-74292503D01*
X134555547Y-74288436D01*
X134626681Y-74036216D01*
X134649280Y-73867962D01*
X134661139Y-73779673D01*
X134661140Y-73779665D01*
X134661566Y-73776491D01*
X134665227Y-73660000D01*
X134646719Y-73398596D01*
X134591563Y-73142408D01*
X134572610Y-73091032D01*
X134502401Y-72900724D01*
X134500860Y-72896547D01*
X134376420Y-72665920D01*
X134373774Y-72662337D01*
X134225735Y-72461907D01*
X134201353Y-72395228D01*
X134216890Y-72325953D01*
X134230636Y-72305973D01*
X134308045Y-72213883D01*
X134310910Y-72210475D01*
X134449586Y-71988116D01*
X134456249Y-71973046D01*
X134553749Y-71752503D01*
X134555547Y-71748436D01*
X134626681Y-71496216D01*
X134649280Y-71327962D01*
X134661139Y-71239673D01*
X134661140Y-71239665D01*
X134661566Y-71236491D01*
X134665227Y-71120000D01*
X134646719Y-70858596D01*
X134591563Y-70602408D01*
X134572610Y-70551032D01*
X134502401Y-70360724D01*
X134500860Y-70356547D01*
X134376420Y-70125920D01*
X134373774Y-70122337D01*
X134225735Y-69921907D01*
X134201353Y-69855228D01*
X134216890Y-69785953D01*
X134230636Y-69765973D01*
X134308045Y-69673883D01*
X134310910Y-69670475D01*
X134449586Y-69448116D01*
X134456249Y-69433046D01*
X134553749Y-69212503D01*
X134555547Y-69208436D01*
X134626681Y-68956216D01*
X134653950Y-68753194D01*
X134682843Y-68688342D01*
X134689734Y-68680872D01*
X145096817Y-58273789D01*
X145103332Y-58267718D01*
X145148631Y-58228410D01*
X145148633Y-58228408D01*
X145152664Y-58224910D01*
X145221253Y-58141260D01*
X145222377Y-58139908D01*
X145288690Y-58061298D01*
X145288692Y-58061296D01*
X145292134Y-58057215D01*
X145294841Y-58052611D01*
X145297446Y-58048931D01*
X145299977Y-58045249D01*
X145303362Y-58041120D01*
X145356880Y-57947101D01*
X145357725Y-57945642D01*
X145409876Y-57856932D01*
X145409880Y-57856923D01*
X145412584Y-57852324D01*
X145414476Y-57847331D01*
X145416410Y-57843294D01*
X145418301Y-57839202D01*
X145420939Y-57834567D01*
X145457863Y-57732847D01*
X145458435Y-57731305D01*
X145496790Y-57630067D01*
X145497812Y-57624833D01*
X145499031Y-57620555D01*
X145500214Y-57616172D01*
X145502034Y-57611156D01*
X145521279Y-57504728D01*
X145521604Y-57503000D01*
X145541320Y-57402038D01*
X145541320Y-57402037D01*
X145542343Y-57396799D01*
X145542469Y-57391464D01*
X145543045Y-57386160D01*
X145543420Y-57386201D01*
X145543489Y-57385525D01*
X145543119Y-57385483D01*
X145543587Y-57381364D01*
X145544326Y-57377275D01*
X145545500Y-57352381D01*
X145545500Y-57264307D01*
X145545535Y-57261339D01*
X145547816Y-57164529D01*
X145547942Y-57159192D01*
X145546836Y-57151655D01*
X145545500Y-57133360D01*
X145545500Y-49217726D01*
X145973688Y-49217726D01*
X145973863Y-49222177D01*
X145981635Y-49419967D01*
X145983977Y-49479582D01*
X146031058Y-49737376D01*
X146038958Y-49761055D01*
X146111995Y-49979972D01*
X146113994Y-49985965D01*
X146141356Y-50040724D01*
X146193018Y-50144116D01*
X146231128Y-50220387D01*
X146380124Y-50435967D01*
X146391289Y-50448045D01*
X146501321Y-50567076D01*
X146558010Y-50628402D01*
X146561464Y-50631214D01*
X146757778Y-50791039D01*
X146757782Y-50791042D01*
X146761235Y-50793853D01*
X146765057Y-50796154D01*
X146959603Y-50913280D01*
X146985745Y-50929019D01*
X147098545Y-50976784D01*
X147222962Y-51029468D01*
X147222966Y-51029469D01*
X147227060Y-51031203D01*
X147231352Y-51032341D01*
X147231355Y-51032342D01*
X147332125Y-51059061D01*
X147480365Y-51098366D01*
X147484789Y-51098890D01*
X147484791Y-51098890D01*
X147635572Y-51116736D01*
X147740607Y-51129167D01*
X148002592Y-51122993D01*
X148006986Y-51122262D01*
X148006993Y-51122261D01*
X148256692Y-51080700D01*
X148256696Y-51080699D01*
X148261094Y-51079967D01*
X148488771Y-51007962D01*
X148506709Y-51002289D01*
X148506711Y-51002288D01*
X148510955Y-51000946D01*
X148514966Y-50999020D01*
X148514971Y-50999018D01*
X148743169Y-50889439D01*
X148743170Y-50889438D01*
X148747188Y-50887509D01*
X148891566Y-50791039D01*
X148961380Y-50744391D01*
X148961384Y-50744388D01*
X148965082Y-50741917D01*
X149160287Y-50567076D01*
X149187888Y-50534241D01*
X149326043Y-50369886D01*
X149326045Y-50369884D01*
X149328910Y-50366475D01*
X149467586Y-50144116D01*
X149535741Y-49989953D01*
X149571749Y-49908503D01*
X149573547Y-49904436D01*
X149644681Y-49652216D01*
X149667280Y-49483962D01*
X149679139Y-49395673D01*
X149679140Y-49395665D01*
X149679566Y-49392491D01*
X149680871Y-49350973D01*
X149683126Y-49279222D01*
X149683126Y-49279217D01*
X149683227Y-49276000D01*
X149671690Y-49113046D01*
X149665034Y-49019045D01*
X149664719Y-49014596D01*
X149609563Y-48758408D01*
X149597460Y-48725599D01*
X149520401Y-48516724D01*
X149518860Y-48512547D01*
X149394420Y-48281920D01*
X149391732Y-48278280D01*
X149241370Y-48074706D01*
X149238726Y-48071126D01*
X149148490Y-47979461D01*
X149114956Y-47916884D01*
X149120577Y-47846110D01*
X149127762Y-47830562D01*
X149131322Y-47824059D01*
X149176478Y-47703606D01*
X149180105Y-47688351D01*
X149185631Y-47637486D01*
X149186000Y-47630672D01*
X149186000Y-47008115D01*
X149181525Y-46992876D01*
X149180135Y-46991671D01*
X149172452Y-46990000D01*
X146488116Y-46990000D01*
X146472877Y-46994475D01*
X146471672Y-46995865D01*
X146470001Y-47003548D01*
X146470001Y-47630669D01*
X146470371Y-47637490D01*
X146475895Y-47688352D01*
X146479521Y-47703604D01*
X146524677Y-47824058D01*
X146527715Y-47829606D01*
X146542884Y-47898963D01*
X146518148Y-47965511D01*
X146504166Y-47981285D01*
X146459043Y-48024330D01*
X146459039Y-48024335D01*
X146455816Y-48027409D01*
X146453060Y-48030905D01*
X146344809Y-48168222D01*
X146293578Y-48233208D01*
X146291346Y-48237050D01*
X146291343Y-48237055D01*
X146214946Y-48368582D01*
X146161955Y-48459813D01*
X146160290Y-48463925D01*
X146160287Y-48463930D01*
X146065248Y-48698570D01*
X146063574Y-48702703D01*
X146000399Y-48957032D01*
X145973688Y-49217726D01*
X145545500Y-49217726D01*
X145545500Y-44137726D01*
X145973688Y-44137726D01*
X145973863Y-44142177D01*
X145983128Y-44377964D01*
X145983977Y-44399582D01*
X146031058Y-44657376D01*
X146042670Y-44692182D01*
X146111995Y-44899972D01*
X146113994Y-44905965D01*
X146141356Y-44960724D01*
X146193018Y-45064116D01*
X146231128Y-45140387D01*
X146380124Y-45355967D01*
X146391289Y-45368045D01*
X146509786Y-45496234D01*
X146541339Y-45559834D01*
X146533498Y-45630396D01*
X146527781Y-45642273D01*
X146524678Y-45647940D01*
X146479522Y-45768394D01*
X146475895Y-45783649D01*
X146470369Y-45834514D01*
X146470000Y-45841328D01*
X146470000Y-46463885D01*
X146474475Y-46479124D01*
X146475865Y-46480329D01*
X146483548Y-46482000D01*
X149167884Y-46482000D01*
X149183123Y-46477525D01*
X149184328Y-46476135D01*
X149185999Y-46468452D01*
X149185999Y-45841331D01*
X149185629Y-45834510D01*
X149180105Y-45783648D01*
X149176479Y-45768396D01*
X149131323Y-45647942D01*
X149129760Y-45645088D01*
X149129070Y-45641934D01*
X149128172Y-45639538D01*
X149128518Y-45639408D01*
X149114591Y-45575730D01*
X149139328Y-45509182D01*
X149153893Y-45493261D01*
X149153873Y-45493242D01*
X149154530Y-45492564D01*
X149156210Y-45490728D01*
X149160287Y-45487076D01*
X149187888Y-45454241D01*
X149326043Y-45289886D01*
X149326045Y-45289884D01*
X149328910Y-45286475D01*
X149467586Y-45064116D01*
X149535741Y-44909953D01*
X149571749Y-44828503D01*
X149573547Y-44824436D01*
X149644681Y-44572216D01*
X149658221Y-44471409D01*
X149679139Y-44315673D01*
X149679140Y-44315665D01*
X149679566Y-44312491D01*
X149679667Y-44309280D01*
X149683126Y-44199222D01*
X149683126Y-44199217D01*
X149683227Y-44196000D01*
X149681996Y-44178606D01*
X149665034Y-43939045D01*
X149664719Y-43934596D01*
X149609563Y-43678408D01*
X149598718Y-43649009D01*
X149520401Y-43436724D01*
X149518860Y-43432547D01*
X149394420Y-43201920D01*
X149391732Y-43198280D01*
X149258945Y-43018501D01*
X149238726Y-42991126D01*
X149129070Y-42879734D01*
X161006164Y-42879734D01*
X161006388Y-42884401D01*
X161006388Y-42884406D01*
X161009582Y-42950905D01*
X161018732Y-43141397D01*
X161031551Y-43205842D01*
X161060733Y-43352548D01*
X161069839Y-43398328D01*
X161071418Y-43402726D01*
X161071420Y-43402733D01*
X161148914Y-43618570D01*
X161158361Y-43644883D01*
X161282355Y-43875646D01*
X161285150Y-43879389D01*
X161285152Y-43879392D01*
X161436303Y-44081808D01*
X161436308Y-44081814D01*
X161439095Y-44085546D01*
X161442404Y-44088826D01*
X161442409Y-44088832D01*
X161621013Y-44265884D01*
X161625138Y-44269973D01*
X161628900Y-44272731D01*
X161628903Y-44272734D01*
X161807875Y-44403962D01*
X161836398Y-44424876D01*
X161840529Y-44427050D01*
X161840530Y-44427050D01*
X162064099Y-44544675D01*
X162064105Y-44544677D01*
X162068234Y-44546850D01*
X162072642Y-44548389D01*
X162072648Y-44548392D01*
X162311136Y-44631676D01*
X162315552Y-44633218D01*
X162572920Y-44682081D01*
X162697175Y-44686963D01*
X162830015Y-44692182D01*
X162830020Y-44692182D01*
X162834683Y-44692365D01*
X162937955Y-44681055D01*
X163090438Y-44664356D01*
X163090444Y-44664355D01*
X163095091Y-44663846D01*
X163136302Y-44652996D01*
X163343900Y-44598340D01*
X163343902Y-44598339D01*
X163348423Y-44597149D01*
X163589114Y-44493740D01*
X163811876Y-44355891D01*
X164011816Y-44186629D01*
X164110249Y-44074388D01*
X164181460Y-43993188D01*
X164181464Y-43993183D01*
X164184542Y-43989673D01*
X164208056Y-43953116D01*
X164323730Y-43773281D01*
X164323733Y-43773276D01*
X164326258Y-43769350D01*
X164433852Y-43530501D01*
X164504960Y-43278371D01*
X164521802Y-43145985D01*
X164537622Y-43021631D01*
X164537622Y-43021627D01*
X164538020Y-43018501D01*
X164540442Y-42926000D01*
X164533050Y-42826525D01*
X164521374Y-42669407D01*
X164521373Y-42669403D01*
X164521028Y-42664755D01*
X164463213Y-42409250D01*
X164461520Y-42404896D01*
X164369960Y-42169450D01*
X164369959Y-42169448D01*
X164368267Y-42165097D01*
X164347015Y-42127914D01*
X164240595Y-41941716D01*
X164240593Y-41941714D01*
X164238276Y-41937659D01*
X164076095Y-41731933D01*
X163885287Y-41552440D01*
X163863165Y-41537093D01*
X163673887Y-41405785D01*
X163673884Y-41405783D01*
X163670045Y-41403120D01*
X163665855Y-41401054D01*
X163665852Y-41401052D01*
X163439283Y-41289321D01*
X163439280Y-41289320D01*
X163435095Y-41287256D01*
X163388832Y-41272447D01*
X163330015Y-41253620D01*
X163185601Y-41207393D01*
X163180994Y-41206643D01*
X163180991Y-41206642D01*
X162931654Y-41166035D01*
X162931655Y-41166035D01*
X162927043Y-41165284D01*
X162799858Y-41163619D01*
X162669777Y-41161916D01*
X162669774Y-41161916D01*
X162665100Y-41161855D01*
X162405528Y-41197181D01*
X162401042Y-41198489D01*
X162401040Y-41198489D01*
X162370492Y-41207393D01*
X162154029Y-41270486D01*
X161916127Y-41380160D01*
X161882816Y-41402000D01*
X161700962Y-41521228D01*
X161700957Y-41521232D01*
X161697049Y-41523794D01*
X161501609Y-41698232D01*
X161334098Y-41899641D01*
X161198198Y-42123598D01*
X161196389Y-42127912D01*
X161196388Y-42127914D01*
X161101925Y-42353183D01*
X161096893Y-42365182D01*
X161095742Y-42369714D01*
X161095741Y-42369717D01*
X161033661Y-42614159D01*
X161032409Y-42619087D01*
X161006164Y-42879734D01*
X149129070Y-42879734D01*
X149054884Y-42804374D01*
X148906953Y-42691477D01*
X148864936Y-42634249D01*
X148860528Y-42563389D01*
X148881072Y-42517788D01*
X148993009Y-42362011D01*
X148998313Y-42353183D01*
X149092670Y-42162267D01*
X149096469Y-42152672D01*
X149158377Y-41948910D01*
X149160555Y-41938837D01*
X149161986Y-41927962D01*
X149159775Y-41913778D01*
X149146617Y-41910000D01*
X146511225Y-41910000D01*
X146497694Y-41913973D01*
X146496257Y-41923966D01*
X146526565Y-42058446D01*
X146529645Y-42068275D01*
X146609770Y-42265603D01*
X146614413Y-42274794D01*
X146725695Y-42456390D01*
X146731773Y-42464695D01*
X146769666Y-42508439D01*
X146799149Y-42573025D01*
X146789034Y-42643297D01*
X146747687Y-42693452D01*
X146645434Y-42766523D01*
X146550625Y-42856966D01*
X146481560Y-42922851D01*
X146455816Y-42947409D01*
X146453060Y-42950905D01*
X146344809Y-43088222D01*
X146293578Y-43153208D01*
X146291346Y-43157050D01*
X146291343Y-43157055D01*
X146183991Y-43341876D01*
X146161955Y-43379813D01*
X146160290Y-43383925D01*
X146160287Y-43383930D01*
X146100920Y-43530501D01*
X146063574Y-43622703D01*
X146000399Y-43877032D01*
X145973688Y-44137726D01*
X145545500Y-44137726D01*
X145545500Y-40642500D01*
X145565502Y-40574379D01*
X145619158Y-40527886D01*
X145671500Y-40516500D01*
X146572284Y-40516500D01*
X146640405Y-40536502D01*
X146651834Y-40544787D01*
X146749129Y-40623997D01*
X146789328Y-40682517D01*
X146791508Y-40753480D01*
X146768848Y-40798337D01*
X146769019Y-40798454D01*
X146768131Y-40799755D01*
X146767501Y-40801003D01*
X146766100Y-40802734D01*
X146646098Y-40978649D01*
X146641000Y-40987623D01*
X146551338Y-41180783D01*
X146547775Y-41190470D01*
X146492389Y-41390183D01*
X146493912Y-41398607D01*
X146506292Y-41402000D01*
X149146344Y-41402000D01*
X149159875Y-41398027D01*
X149161180Y-41388947D01*
X149119214Y-41221875D01*
X149115894Y-41212124D01*
X149030972Y-41016814D01*
X149026105Y-41007739D01*
X148910426Y-40828926D01*
X148904136Y-40820757D01*
X148890528Y-40805803D01*
X148859475Y-40741958D01*
X148867869Y-40671459D01*
X148913719Y-40616237D01*
X148961374Y-40584395D01*
X148961378Y-40584392D01*
X148965082Y-40581917D01*
X149160287Y-40407076D01*
X149328910Y-40206475D01*
X149467586Y-39984116D01*
X149573547Y-39744436D01*
X149644681Y-39492216D01*
X149675875Y-39259973D01*
X149679139Y-39235673D01*
X149679140Y-39235665D01*
X149679566Y-39232491D01*
X149681432Y-39173118D01*
X149683126Y-39119222D01*
X149683126Y-39119217D01*
X149683227Y-39116000D01*
X149664719Y-38854596D01*
X149609563Y-38598408D01*
X149591640Y-38549824D01*
X149520401Y-38356724D01*
X149518860Y-38352547D01*
X149394420Y-38121920D01*
X149391774Y-38118337D01*
X149243735Y-37917907D01*
X149226120Y-37869734D01*
X161076164Y-37869734D01*
X161088732Y-38131397D01*
X161098817Y-38182098D01*
X161133553Y-38356724D01*
X161139839Y-38388328D01*
X161141418Y-38392726D01*
X161141420Y-38392733D01*
X161200111Y-38556200D01*
X161228361Y-38634883D01*
X161352355Y-38865646D01*
X161355150Y-38869389D01*
X161355152Y-38869392D01*
X161506303Y-39071808D01*
X161506308Y-39071814D01*
X161509095Y-39075546D01*
X161512404Y-39078826D01*
X161512409Y-39078832D01*
X161614109Y-39179648D01*
X161695138Y-39259973D01*
X161698900Y-39262731D01*
X161698903Y-39262734D01*
X161815667Y-39348349D01*
X161906398Y-39414876D01*
X161910529Y-39417050D01*
X161910530Y-39417050D01*
X162134099Y-39534675D01*
X162134105Y-39534677D01*
X162138234Y-39536850D01*
X162142642Y-39538389D01*
X162142648Y-39538392D01*
X162381136Y-39621676D01*
X162385552Y-39623218D01*
X162642920Y-39672081D01*
X162767175Y-39676963D01*
X162900015Y-39682182D01*
X162900020Y-39682182D01*
X162904683Y-39682365D01*
X163006540Y-39671210D01*
X163160438Y-39654356D01*
X163160444Y-39654355D01*
X163165091Y-39653846D01*
X163287281Y-39621676D01*
X163413900Y-39588340D01*
X163413902Y-39588339D01*
X163418423Y-39587149D01*
X163639386Y-39492216D01*
X163654820Y-39485585D01*
X163654822Y-39485584D01*
X163659114Y-39483740D01*
X163881876Y-39345891D01*
X164081816Y-39176629D01*
X164124368Y-39128108D01*
X164251460Y-38983188D01*
X164251464Y-38983183D01*
X164254542Y-38979673D01*
X164257072Y-38975740D01*
X164393730Y-38763281D01*
X164393733Y-38763276D01*
X164396258Y-38759350D01*
X164503852Y-38520501D01*
X164574960Y-38268371D01*
X164591802Y-38135985D01*
X164607622Y-38011631D01*
X164607622Y-38011627D01*
X164608020Y-38008501D01*
X164610442Y-37916000D01*
X164591899Y-37666475D01*
X164591374Y-37659407D01*
X164591373Y-37659403D01*
X164591028Y-37654755D01*
X164533213Y-37399250D01*
X164524788Y-37377584D01*
X164439960Y-37159450D01*
X164439959Y-37159448D01*
X164438267Y-37155097D01*
X164417015Y-37117914D01*
X164310595Y-36931716D01*
X164310593Y-36931714D01*
X164308276Y-36927659D01*
X164146095Y-36721933D01*
X163955287Y-36542440D01*
X163942553Y-36533606D01*
X163743887Y-36395785D01*
X163743884Y-36395783D01*
X163740045Y-36393120D01*
X163735855Y-36391054D01*
X163735852Y-36391052D01*
X163509283Y-36279321D01*
X163509280Y-36279320D01*
X163505095Y-36277256D01*
X163498529Y-36275154D01*
X163404752Y-36245136D01*
X163255601Y-36197393D01*
X163250994Y-36196643D01*
X163250991Y-36196642D01*
X163001654Y-36156035D01*
X163001655Y-36156035D01*
X162997043Y-36155284D01*
X162869858Y-36153619D01*
X162739777Y-36151916D01*
X162739774Y-36151916D01*
X162735100Y-36151855D01*
X162475528Y-36187181D01*
X162471042Y-36188489D01*
X162471040Y-36188489D01*
X162440492Y-36197393D01*
X162224029Y-36260486D01*
X162219776Y-36262447D01*
X162219775Y-36262447D01*
X162190739Y-36275833D01*
X161986127Y-36370160D01*
X161951107Y-36393120D01*
X161770962Y-36511228D01*
X161770957Y-36511232D01*
X161767049Y-36513794D01*
X161571609Y-36688232D01*
X161404098Y-36889641D01*
X161268198Y-37113598D01*
X161266389Y-37117912D01*
X161266388Y-37117914D01*
X161184395Y-37313445D01*
X161166893Y-37355182D01*
X161165742Y-37359714D01*
X161165741Y-37359717D01*
X161112716Y-37568505D01*
X161102409Y-37609087D01*
X161101940Y-37613743D01*
X161101940Y-37613744D01*
X161096394Y-37668822D01*
X161076164Y-37869734D01*
X149226120Y-37869734D01*
X149219353Y-37851228D01*
X149234890Y-37781953D01*
X149248636Y-37761973D01*
X149326045Y-37669883D01*
X149328910Y-37666475D01*
X149467586Y-37444116D01*
X149485407Y-37403807D01*
X149571749Y-37208503D01*
X149573547Y-37204436D01*
X149644681Y-36952216D01*
X149675119Y-36725601D01*
X149679139Y-36695673D01*
X149679140Y-36695665D01*
X149679566Y-36692491D01*
X149682357Y-36603676D01*
X149683126Y-36579222D01*
X149683126Y-36579217D01*
X149683227Y-36576000D01*
X149678472Y-36508834D01*
X149665034Y-36319045D01*
X149664719Y-36314596D01*
X149609563Y-36058408D01*
X149600571Y-36034032D01*
X149520401Y-35816724D01*
X149518860Y-35812547D01*
X149394420Y-35581920D01*
X149391774Y-35578337D01*
X149243735Y-35377907D01*
X149219353Y-35311228D01*
X149234890Y-35241953D01*
X149248636Y-35221973D01*
X149326045Y-35129883D01*
X149328910Y-35126475D01*
X149467586Y-34904116D01*
X149492865Y-34846937D01*
X149571749Y-34668503D01*
X149573547Y-34664436D01*
X149644681Y-34412216D01*
X149658625Y-34308402D01*
X149679139Y-34155673D01*
X149679140Y-34155665D01*
X149679566Y-34152491D01*
X149680714Y-34115967D01*
X149683126Y-34039222D01*
X149683126Y-34039217D01*
X149683227Y-34036000D01*
X149678321Y-33966701D01*
X149665034Y-33779045D01*
X149664719Y-33774596D01*
X149609563Y-33518408D01*
X149573849Y-33421599D01*
X149520401Y-33276724D01*
X149518860Y-33272547D01*
X149394420Y-33041920D01*
X149388633Y-33034084D01*
X149287917Y-32897726D01*
X151300688Y-32897726D01*
X151303936Y-32980390D01*
X151309349Y-33118138D01*
X151310977Y-33159582D01*
X151358058Y-33417376D01*
X151440994Y-33665965D01*
X151472003Y-33728023D01*
X151520018Y-33824116D01*
X151558128Y-33900387D01*
X151560657Y-33904046D01*
X151702305Y-34108994D01*
X151707124Y-34115967D01*
X151740887Y-34152491D01*
X151828321Y-34247076D01*
X151885010Y-34308402D01*
X151888464Y-34311214D01*
X152084778Y-34471039D01*
X152084782Y-34471042D01*
X152088235Y-34473853D01*
X152092057Y-34476154D01*
X152271526Y-34584203D01*
X152312745Y-34609019D01*
X152323533Y-34613587D01*
X152549962Y-34709468D01*
X152549966Y-34709469D01*
X152554060Y-34711203D01*
X152558352Y-34712341D01*
X152558355Y-34712342D01*
X152659125Y-34739061D01*
X152807365Y-34778366D01*
X152811789Y-34778890D01*
X152811791Y-34778890D01*
X152962572Y-34796736D01*
X153067607Y-34809167D01*
X153329592Y-34802993D01*
X153333986Y-34802262D01*
X153333993Y-34802261D01*
X153583692Y-34760700D01*
X153583696Y-34760699D01*
X153588094Y-34759967D01*
X153752061Y-34708111D01*
X153833709Y-34682289D01*
X153833711Y-34682288D01*
X153837955Y-34680946D01*
X153841966Y-34679020D01*
X153841971Y-34679018D01*
X154070169Y-34569439D01*
X154070170Y-34569438D01*
X154074188Y-34567509D01*
X154218566Y-34471039D01*
X154288380Y-34424391D01*
X154288384Y-34424388D01*
X154292082Y-34421917D01*
X154487287Y-34247076D01*
X154504009Y-34227183D01*
X154641881Y-34063165D01*
X161402866Y-34063165D01*
X161437952Y-34320970D01*
X161510758Y-34570757D01*
X161619686Y-34807039D01*
X161622246Y-34810944D01*
X161622249Y-34810949D01*
X161759775Y-35020712D01*
X161759779Y-35020717D01*
X161762341Y-35024625D01*
X161824970Y-35094795D01*
X161890821Y-35168574D01*
X161935591Y-35218735D01*
X162135629Y-35385105D01*
X162358061Y-35520080D01*
X162362375Y-35521889D01*
X162362377Y-35521890D01*
X162593686Y-35618886D01*
X162593691Y-35618888D01*
X162598001Y-35620695D01*
X162602533Y-35621846D01*
X162602536Y-35621847D01*
X162714820Y-35650363D01*
X162850177Y-35684739D01*
X163066286Y-35706500D01*
X163221044Y-35706500D01*
X163223369Y-35706327D01*
X163223375Y-35706327D01*
X163409814Y-35692472D01*
X163409818Y-35692471D01*
X163414466Y-35692126D01*
X163668232Y-35634705D01*
X163698077Y-35623099D01*
X163906370Y-35542098D01*
X163906372Y-35542097D01*
X163910723Y-35540405D01*
X163946285Y-35520080D01*
X164073385Y-35447436D01*
X164136612Y-35411299D01*
X164340936Y-35250223D01*
X164519208Y-35060714D01*
X164667511Y-34846937D01*
X164686395Y-34808644D01*
X164780521Y-34617775D01*
X164780522Y-34617772D01*
X164782586Y-34613587D01*
X164861906Y-34365792D01*
X164902592Y-34115967D01*
X164902977Y-34113606D01*
X164902977Y-34113605D01*
X164903728Y-34108994D01*
X164906360Y-33907928D01*
X164907073Y-33853512D01*
X164907073Y-33853509D01*
X164907134Y-33848835D01*
X164872048Y-33591030D01*
X164799242Y-33341243D01*
X164795081Y-33332216D01*
X164717514Y-33163962D01*
X164690314Y-33104961D01*
X164687751Y-33101051D01*
X164550225Y-32891288D01*
X164550221Y-32891283D01*
X164547659Y-32887375D01*
X164436349Y-32762663D01*
X164377526Y-32696757D01*
X164377524Y-32696755D01*
X164374409Y-32693265D01*
X164174371Y-32526895D01*
X163951939Y-32391920D01*
X163947623Y-32390110D01*
X163716314Y-32293114D01*
X163716309Y-32293112D01*
X163711999Y-32291305D01*
X163707467Y-32290154D01*
X163707464Y-32290153D01*
X163541507Y-32248006D01*
X163459823Y-32227261D01*
X163243714Y-32205500D01*
X163088956Y-32205500D01*
X163086631Y-32205673D01*
X163086625Y-32205673D01*
X162900186Y-32219528D01*
X162900182Y-32219529D01*
X162895534Y-32219874D01*
X162641768Y-32277295D01*
X162637416Y-32278987D01*
X162637414Y-32278988D01*
X162403630Y-32369902D01*
X162403628Y-32369903D01*
X162399277Y-32371595D01*
X162395223Y-32373912D01*
X162395221Y-32373913D01*
X162359467Y-32394348D01*
X162173388Y-32500701D01*
X161969064Y-32661777D01*
X161790792Y-32851286D01*
X161707858Y-32970834D01*
X161661030Y-33038337D01*
X161642489Y-33065063D01*
X161640423Y-33069253D01*
X161640421Y-33069256D01*
X161540170Y-33272547D01*
X161527414Y-33298413D01*
X161525992Y-33302856D01*
X161525991Y-33302858D01*
X161515222Y-33336501D01*
X161448094Y-33546208D01*
X161447344Y-33550814D01*
X161410535Y-33776833D01*
X161406272Y-33803006D01*
X161404898Y-33907928D01*
X161403085Y-34046475D01*
X161402866Y-34063165D01*
X154641881Y-34063165D01*
X154653043Y-34049886D01*
X154653045Y-34049884D01*
X154655910Y-34046475D01*
X154794586Y-33824116D01*
X154804117Y-33802559D01*
X154898749Y-33588503D01*
X154900547Y-33584436D01*
X154971681Y-33332216D01*
X154994280Y-33163962D01*
X155006139Y-33075673D01*
X155006140Y-33075665D01*
X155006566Y-33072491D01*
X155006668Y-33069256D01*
X155010126Y-32959222D01*
X155010126Y-32959217D01*
X155010227Y-32956000D01*
X155009639Y-32947688D01*
X154992034Y-32699045D01*
X154991719Y-32694596D01*
X154936563Y-32438408D01*
X154934411Y-32432573D01*
X154847401Y-32196724D01*
X154845860Y-32192547D01*
X154721420Y-31961920D01*
X154688283Y-31917055D01*
X154580469Y-31771087D01*
X154565726Y-31751126D01*
X154381884Y-31564374D01*
X154313336Y-31512060D01*
X154177107Y-31408093D01*
X154177103Y-31408090D01*
X154173562Y-31405388D01*
X153944917Y-31277340D01*
X153940768Y-31275735D01*
X153940764Y-31275733D01*
X153793196Y-31218644D01*
X153700512Y-31182787D01*
X153696191Y-31181785D01*
X153696183Y-31181783D01*
X153528069Y-31142817D01*
X153445221Y-31123614D01*
X153184141Y-31101002D01*
X153179706Y-31101246D01*
X153179702Y-31101246D01*
X152926921Y-31115157D01*
X152926914Y-31115158D01*
X152922478Y-31115402D01*
X152665456Y-31166527D01*
X152661246Y-31168005D01*
X152661244Y-31168006D01*
X152516497Y-31218838D01*
X152418201Y-31253357D01*
X152414250Y-31255410D01*
X152414244Y-31255412D01*
X152286894Y-31321566D01*
X152185647Y-31374159D01*
X152182032Y-31376742D01*
X152182026Y-31376746D01*
X151976055Y-31523935D01*
X151976051Y-31523938D01*
X151972434Y-31526523D01*
X151782816Y-31707409D01*
X151780060Y-31710905D01*
X151659973Y-31863236D01*
X151620578Y-31913208D01*
X151618346Y-31917050D01*
X151618343Y-31917055D01*
X151589641Y-31966470D01*
X151488955Y-32139813D01*
X151487290Y-32143925D01*
X151487287Y-32143930D01*
X151445731Y-32246527D01*
X151390574Y-32382703D01*
X151327399Y-32637032D01*
X151300688Y-32897726D01*
X149287917Y-32897726D01*
X149241370Y-32834706D01*
X149238726Y-32831126D01*
X149054884Y-32644374D01*
X148954997Y-32568143D01*
X148850107Y-32488093D01*
X148850103Y-32488090D01*
X148846562Y-32485388D01*
X148617917Y-32357340D01*
X148613768Y-32355735D01*
X148613764Y-32355733D01*
X148408348Y-32276264D01*
X148373512Y-32262787D01*
X148369191Y-32261785D01*
X148369183Y-32261783D01*
X148186879Y-32219528D01*
X148118221Y-32203614D01*
X147857141Y-32181002D01*
X147852706Y-32181246D01*
X147852702Y-32181246D01*
X147599921Y-32195157D01*
X147599914Y-32195158D01*
X147595478Y-32195402D01*
X147338456Y-32246527D01*
X147334246Y-32248005D01*
X147334244Y-32248006D01*
X147250842Y-32277295D01*
X147091201Y-32333357D01*
X147087250Y-32335410D01*
X147087244Y-32335412D01*
X147013127Y-32373913D01*
X146858647Y-32454159D01*
X146855032Y-32456742D01*
X146855026Y-32456746D01*
X146744121Y-32536000D01*
X146645434Y-32606523D01*
X146644976Y-32606960D01*
X146580622Y-32634594D01*
X146565538Y-32635500D01*
X142294408Y-32635500D01*
X142285511Y-32635185D01*
X142265902Y-32633797D01*
X142225702Y-32630950D01*
X142225700Y-32630950D01*
X142220375Y-32630573D01*
X142112700Y-32641225D01*
X142111010Y-32641381D01*
X142003177Y-32650531D01*
X141998013Y-32651871D01*
X141993567Y-32652631D01*
X141989158Y-32653448D01*
X141983856Y-32653973D01*
X141879483Y-32682624D01*
X141877895Y-32683048D01*
X141851270Y-32689958D01*
X141778291Y-32708899D01*
X141778286Y-32708901D01*
X141773126Y-32710240D01*
X141768263Y-32712431D01*
X141764077Y-32713905D01*
X141759811Y-32715475D01*
X141754662Y-32716888D01*
X141656592Y-32762723D01*
X141655145Y-32763386D01*
X141638379Y-32770939D01*
X141561289Y-32805665D01*
X141561284Y-32805668D01*
X141556424Y-32807857D01*
X141552003Y-32810833D01*
X141548060Y-32813028D01*
X141544171Y-32815265D01*
X141539343Y-32817521D01*
X141534958Y-32820563D01*
X141450500Y-32879154D01*
X141449055Y-32880142D01*
X141359268Y-32940591D01*
X141355414Y-32944268D01*
X141351248Y-32947617D01*
X141350963Y-32947262D01*
X141350439Y-32947688D01*
X141350720Y-32948042D01*
X141347469Y-32950630D01*
X141344060Y-32952995D01*
X141340993Y-32955785D01*
X141340990Y-32955788D01*
X141326732Y-32968761D01*
X141326719Y-32968773D01*
X141325627Y-32969767D01*
X141263385Y-33032009D01*
X141261262Y-33034084D01*
X141187295Y-33104645D01*
X141184107Y-33108930D01*
X141184106Y-33108931D01*
X141182742Y-33110764D01*
X141170748Y-33124646D01*
X138113183Y-36182211D01*
X138106668Y-36188282D01*
X138096169Y-36197393D01*
X138057336Y-36231090D01*
X138053949Y-36235221D01*
X137988747Y-36314740D01*
X137987623Y-36316092D01*
X137970543Y-36336340D01*
X137917866Y-36398785D01*
X137915159Y-36403389D01*
X137912554Y-36407069D01*
X137910023Y-36410751D01*
X137906638Y-36414880D01*
X137853120Y-36508899D01*
X137852275Y-36510358D01*
X137800122Y-36599072D01*
X137800119Y-36599077D01*
X137797416Y-36603676D01*
X137795528Y-36608661D01*
X137793614Y-36612655D01*
X137791698Y-36616801D01*
X137789061Y-36621433D01*
X137787243Y-36626442D01*
X137787240Y-36626448D01*
X137752136Y-36723158D01*
X137751535Y-36724777D01*
X137713211Y-36825933D01*
X137712187Y-36831175D01*
X137710938Y-36835560D01*
X137709786Y-36839829D01*
X137707966Y-36844844D01*
X137692992Y-36927659D01*
X137688720Y-36951282D01*
X137688411Y-36952929D01*
X137667657Y-37059200D01*
X137667531Y-37064537D01*
X137666955Y-37069839D01*
X137666577Y-37069798D01*
X137666509Y-37070475D01*
X137666881Y-37070517D01*
X137666413Y-37074636D01*
X137665674Y-37078725D01*
X137664500Y-37103619D01*
X137664500Y-37191692D01*
X137664465Y-37194660D01*
X137662058Y-37296807D01*
X137662833Y-37302086D01*
X137662833Y-37302089D01*
X137663164Y-37304341D01*
X137664500Y-37322639D01*
X137664500Y-56612704D01*
X137644498Y-56680825D01*
X137627595Y-56701799D01*
X134474412Y-59854982D01*
X134412100Y-59889008D01*
X134341285Y-59883943D01*
X134283965Y-59840745D01*
X134225735Y-59761906D01*
X134201353Y-59695228D01*
X134216890Y-59625952D01*
X134230636Y-59605973D01*
X134308045Y-59513883D01*
X134310910Y-59510475D01*
X134449586Y-59288116D01*
X134456249Y-59273046D01*
X134553749Y-59052503D01*
X134555547Y-59048436D01*
X134626681Y-58796216D01*
X134649280Y-58627962D01*
X134661139Y-58539673D01*
X134661140Y-58539665D01*
X134661566Y-58536491D01*
X134665227Y-58420000D01*
X134646719Y-58158596D01*
X134591563Y-57902408D01*
X134572610Y-57851032D01*
X134502401Y-57660724D01*
X134500860Y-57656547D01*
X134376420Y-57425920D01*
X134354911Y-57396799D01*
X134225735Y-57221907D01*
X134201353Y-57155228D01*
X134216890Y-57085953D01*
X134230636Y-57065973D01*
X134308045Y-56973883D01*
X134310910Y-56970475D01*
X134449586Y-56748116D01*
X134456249Y-56733046D01*
X134553749Y-56512503D01*
X134555547Y-56508436D01*
X134626681Y-56256216D01*
X134649280Y-56087962D01*
X134661139Y-55999673D01*
X134661140Y-55999665D01*
X134661566Y-55996491D01*
X134665227Y-55880000D01*
X134646719Y-55618596D01*
X134591563Y-55362408D01*
X134572610Y-55311032D01*
X134502401Y-55120724D01*
X134500860Y-55116547D01*
X134376420Y-54885920D01*
X134373774Y-54882337D01*
X134225735Y-54681907D01*
X134201353Y-54615228D01*
X134216890Y-54545953D01*
X134230636Y-54525973D01*
X134308045Y-54433883D01*
X134310910Y-54430475D01*
X134449586Y-54208116D01*
X134456249Y-54193046D01*
X134553749Y-53972503D01*
X134555547Y-53968436D01*
X134626681Y-53716216D01*
X134649280Y-53547962D01*
X134661139Y-53459673D01*
X134661140Y-53459665D01*
X134661566Y-53456491D01*
X134665227Y-53340000D01*
X134646719Y-53078596D01*
X134591563Y-52822408D01*
X134572610Y-52771032D01*
X134502401Y-52580724D01*
X134500860Y-52576547D01*
X134376420Y-52345920D01*
X134373774Y-52342337D01*
X134225735Y-52141907D01*
X134201353Y-52075228D01*
X134216890Y-52005953D01*
X134230636Y-51985973D01*
X134308045Y-51893883D01*
X134310910Y-51890475D01*
X134449586Y-51668116D01*
X134456249Y-51653046D01*
X134553749Y-51432503D01*
X134555547Y-51428436D01*
X134626681Y-51176216D01*
X134633000Y-51129167D01*
X134661139Y-50919673D01*
X134661140Y-50919665D01*
X134661566Y-50916491D01*
X134665227Y-50800000D01*
X134646719Y-50538596D01*
X134591563Y-50282408D01*
X134572610Y-50231032D01*
X134502401Y-50040724D01*
X134500860Y-50036547D01*
X134376420Y-49805920D01*
X134373774Y-49802337D01*
X134225735Y-49601907D01*
X134201353Y-49535228D01*
X134216890Y-49465953D01*
X134230636Y-49445973D01*
X134308045Y-49353883D01*
X134310910Y-49350475D01*
X134449586Y-49128116D01*
X134456249Y-49113046D01*
X134553749Y-48892503D01*
X134555547Y-48888436D01*
X134626681Y-48636216D01*
X134649822Y-48463930D01*
X134661139Y-48379673D01*
X134661140Y-48379665D01*
X134661566Y-48376491D01*
X134665227Y-48260000D01*
X134646719Y-47998596D01*
X134591563Y-47742408D01*
X134577249Y-47703606D01*
X134502401Y-47500724D01*
X134500860Y-47496547D01*
X134495454Y-47486527D01*
X134378536Y-47269842D01*
X134376420Y-47265920D01*
X134373774Y-47262337D01*
X134225735Y-47061907D01*
X134201353Y-46995228D01*
X134216890Y-46925953D01*
X134230636Y-46905973D01*
X134308045Y-46813883D01*
X134310910Y-46810475D01*
X134449586Y-46588116D01*
X134456249Y-46573046D01*
X134553749Y-46352503D01*
X134555547Y-46348436D01*
X134626681Y-46096216D01*
X134633830Y-46042993D01*
X134661139Y-45839673D01*
X134661140Y-45839665D01*
X134661566Y-45836491D01*
X134665227Y-45720000D01*
X134646719Y-45458596D01*
X134591563Y-45202408D01*
X134572610Y-45151032D01*
X134502401Y-44960724D01*
X134500860Y-44956547D01*
X134376420Y-44725920D01*
X134344176Y-44682264D01*
X134259637Y-44567808D01*
X134220726Y-44515126D01*
X134195800Y-44489806D01*
X134162265Y-44427230D01*
X134167885Y-44356456D01*
X134189141Y-44320338D01*
X134308038Y-44178893D01*
X134308045Y-44178883D01*
X134310910Y-44175475D01*
X134449586Y-43953116D01*
X134463185Y-43922357D01*
X134553749Y-43717503D01*
X134555547Y-43713436D01*
X134626681Y-43461216D01*
X134642309Y-43344865D01*
X134661139Y-43204673D01*
X134661140Y-43204665D01*
X134661566Y-43201491D01*
X134662963Y-43157055D01*
X134665126Y-43088222D01*
X134665126Y-43088217D01*
X134665227Y-43085000D01*
X134653747Y-42922851D01*
X134647034Y-42828045D01*
X134646719Y-42823596D01*
X134591563Y-42567408D01*
X134573258Y-42517788D01*
X134502401Y-42325724D01*
X134500860Y-42321547D01*
X134376420Y-42090920D01*
X134359695Y-42068275D01*
X134256058Y-41927962D01*
X134220726Y-41880126D01*
X134036884Y-41693374D01*
X133848719Y-41549771D01*
X133832107Y-41537093D01*
X133832103Y-41537090D01*
X133828562Y-41534388D01*
X133599917Y-41406340D01*
X133595768Y-41404735D01*
X133595764Y-41404733D01*
X133448196Y-41347644D01*
X133355512Y-41311787D01*
X133351191Y-41310785D01*
X133351183Y-41310783D01*
X133171670Y-41269175D01*
X133100221Y-41252614D01*
X132839141Y-41230002D01*
X132834706Y-41230246D01*
X132834702Y-41230246D01*
X132581921Y-41244157D01*
X132581914Y-41244158D01*
X132577478Y-41244402D01*
X132320456Y-41295527D01*
X132316246Y-41297005D01*
X132316244Y-41297006D01*
X132171497Y-41347838D01*
X132073201Y-41382357D01*
X132069250Y-41384410D01*
X132069244Y-41384412D01*
X131941894Y-41450566D01*
X131840647Y-41503159D01*
X131837032Y-41505742D01*
X131837026Y-41505746D01*
X131631055Y-41652935D01*
X131631051Y-41652938D01*
X131627434Y-41655523D01*
X131437816Y-41836409D01*
X131435060Y-41839905D01*
X131323554Y-41981351D01*
X131275578Y-42042208D01*
X131273346Y-42046050D01*
X131273343Y-42046055D01*
X131211415Y-42152672D01*
X131143955Y-42268813D01*
X131142290Y-42272925D01*
X131142287Y-42272930D01*
X131105556Y-42363614D01*
X131045574Y-42511703D01*
X130982399Y-42766032D01*
X130955688Y-43026726D01*
X130955863Y-43031177D01*
X130965753Y-43282869D01*
X130965977Y-43288582D01*
X131013058Y-43546376D01*
X131014467Y-43550599D01*
X131086027Y-43765089D01*
X131095994Y-43794965D01*
X131136308Y-43875646D01*
X131191694Y-43986490D01*
X131213128Y-44029387D01*
X131215657Y-44033046D01*
X131354112Y-44233374D01*
X131362124Y-44244967D01*
X131426276Y-44314365D01*
X131457827Y-44377964D01*
X131449986Y-44448526D01*
X131432701Y-44477898D01*
X131377128Y-44548392D01*
X131285710Y-44664356D01*
X131275578Y-44677208D01*
X131273346Y-44681050D01*
X131273343Y-44681055D01*
X131170781Y-44857629D01*
X131143955Y-44903813D01*
X131142290Y-44907925D01*
X131142287Y-44907930D01*
X131085727Y-45047570D01*
X131045574Y-45146703D01*
X130982399Y-45401032D01*
X130955688Y-45661726D01*
X130965977Y-45923582D01*
X131013058Y-46181376D01*
X131095994Y-46429965D01*
X131138005Y-46514042D01*
X131195302Y-46628711D01*
X131213128Y-46664387D01*
X131215657Y-46668046D01*
X131358164Y-46874237D01*
X131362124Y-46879967D01*
X131385855Y-46905638D01*
X131417406Y-46969237D01*
X131409565Y-47039800D01*
X131392279Y-47069171D01*
X131278338Y-47213705D01*
X131278328Y-47213719D01*
X131275578Y-47217208D01*
X131273346Y-47221050D01*
X131273343Y-47221055D01*
X131146186Y-47439972D01*
X131143955Y-47443813D01*
X131142290Y-47447925D01*
X131142287Y-47447930D01*
X131068270Y-47630669D01*
X131045574Y-47686703D01*
X130982399Y-47941032D01*
X130955688Y-48201726D01*
X130965977Y-48463582D01*
X131013058Y-48721376D01*
X131014467Y-48725599D01*
X131093159Y-48961466D01*
X131095994Y-48969965D01*
X131097987Y-48973953D01*
X131175018Y-49128116D01*
X131213128Y-49204387D01*
X131215657Y-49208046D01*
X131358164Y-49414237D01*
X131362124Y-49419967D01*
X131385855Y-49445638D01*
X131417406Y-49509237D01*
X131409565Y-49579800D01*
X131392279Y-49609171D01*
X131278338Y-49753705D01*
X131278328Y-49753719D01*
X131275578Y-49757208D01*
X131273346Y-49761050D01*
X131273343Y-49761055D01*
X131170781Y-49937629D01*
X131143955Y-49983813D01*
X131142290Y-49987925D01*
X131142287Y-49987930D01*
X131085727Y-50127570D01*
X131045574Y-50226703D01*
X130982399Y-50481032D01*
X130955688Y-50741726D01*
X130955863Y-50746177D01*
X130965798Y-50999018D01*
X130965977Y-51003582D01*
X131013058Y-51261376D01*
X131095994Y-51509965D01*
X131097987Y-51513953D01*
X131175018Y-51668116D01*
X131213128Y-51744387D01*
X131215657Y-51748046D01*
X131358164Y-51954237D01*
X131362124Y-51959967D01*
X131385855Y-51985638D01*
X131417406Y-52049237D01*
X131409565Y-52119800D01*
X131392279Y-52149171D01*
X131278338Y-52293705D01*
X131278328Y-52293719D01*
X131275578Y-52297208D01*
X131273346Y-52301050D01*
X131273343Y-52301055D01*
X131196744Y-52432930D01*
X131143955Y-52523813D01*
X131142290Y-52527925D01*
X131142287Y-52527930D01*
X131085727Y-52667570D01*
X131045574Y-52766703D01*
X130982399Y-53021032D01*
X130955688Y-53281726D01*
X130965977Y-53543582D01*
X131013058Y-53801376D01*
X131095994Y-54049965D01*
X131097987Y-54053953D01*
X131175018Y-54208116D01*
X131213128Y-54284387D01*
X131215657Y-54288046D01*
X131358164Y-54494237D01*
X131362124Y-54499967D01*
X131385855Y-54525638D01*
X131417406Y-54589237D01*
X131409565Y-54659800D01*
X131392279Y-54689171D01*
X131278338Y-54833705D01*
X131278328Y-54833719D01*
X131275578Y-54837208D01*
X131273346Y-54841050D01*
X131273343Y-54841055D01*
X131196744Y-54972930D01*
X131143955Y-55063813D01*
X131142290Y-55067925D01*
X131142287Y-55067930D01*
X131085727Y-55207570D01*
X131045574Y-55306703D01*
X130982399Y-55561032D01*
X130955688Y-55821726D01*
X130965977Y-56083582D01*
X131013058Y-56341376D01*
X131095994Y-56589965D01*
X131097987Y-56593953D01*
X131175018Y-56748116D01*
X131213128Y-56824387D01*
X131215657Y-56828046D01*
X131358164Y-57034237D01*
X131362124Y-57039967D01*
X131385855Y-57065638D01*
X131417406Y-57129237D01*
X131409565Y-57199800D01*
X131392279Y-57229171D01*
X131278338Y-57373705D01*
X131278328Y-57373719D01*
X131275578Y-57377208D01*
X131273346Y-57381050D01*
X131273343Y-57381055D01*
X131196744Y-57512930D01*
X131143955Y-57603813D01*
X131142290Y-57607925D01*
X131142287Y-57607930D01*
X131092347Y-57731226D01*
X131045574Y-57846703D01*
X130982399Y-58101032D01*
X130955688Y-58361726D01*
X130965977Y-58623582D01*
X131013058Y-58881376D01*
X131095994Y-59129965D01*
X131097987Y-59133953D01*
X131175018Y-59288116D01*
X131213128Y-59364387D01*
X131215657Y-59368046D01*
X131358164Y-59574237D01*
X131362124Y-59579967D01*
X131385855Y-59605638D01*
X131417406Y-59669237D01*
X131409565Y-59739800D01*
X131392279Y-59769171D01*
X131278338Y-59913705D01*
X131278328Y-59913719D01*
X131275578Y-59917208D01*
X131273346Y-59921050D01*
X131273343Y-59921055D01*
X131196744Y-60052930D01*
X131143955Y-60143813D01*
X131045574Y-60386703D01*
X130982399Y-60641032D01*
X130955688Y-60901726D01*
X130965977Y-61163582D01*
X131013058Y-61421376D01*
X131095994Y-61669965D01*
X131097987Y-61673953D01*
X131167488Y-61813046D01*
X131213128Y-61904387D01*
X131215657Y-61908046D01*
X131358164Y-62114237D01*
X131362124Y-62119967D01*
X131385855Y-62145638D01*
X131417406Y-62209237D01*
X131409565Y-62279800D01*
X131392279Y-62309171D01*
X131278338Y-62453705D01*
X131278328Y-62453719D01*
X131275578Y-62457208D01*
X131273346Y-62461050D01*
X131273343Y-62461055D01*
X131196744Y-62592930D01*
X131143955Y-62683813D01*
X131045574Y-62926703D01*
X130982399Y-63181032D01*
X130955688Y-63441726D01*
X130965977Y-63703582D01*
X131013058Y-63961376D01*
X131095994Y-64209965D01*
X131097987Y-64213953D01*
X131167488Y-64353046D01*
X131213128Y-64444387D01*
X131215657Y-64448046D01*
X131358164Y-64654237D01*
X131362124Y-64659967D01*
X131385855Y-64685638D01*
X131417406Y-64749237D01*
X131409565Y-64819800D01*
X131392279Y-64849171D01*
X131278338Y-64993705D01*
X131278328Y-64993719D01*
X131275578Y-64997208D01*
X131273346Y-65001050D01*
X131273343Y-65001055D01*
X131196744Y-65132930D01*
X131143955Y-65223813D01*
X131045574Y-65466703D01*
X130982399Y-65721032D01*
X130955688Y-65981726D01*
X130965977Y-66243582D01*
X131013058Y-66501376D01*
X131095994Y-66749965D01*
X131097987Y-66753953D01*
X131167488Y-66893046D01*
X131213128Y-66984387D01*
X131215657Y-66988046D01*
X131358164Y-67194237D01*
X131362124Y-67199967D01*
X131385855Y-67225638D01*
X131417406Y-67289237D01*
X131409565Y-67359800D01*
X131392279Y-67389171D01*
X131278338Y-67533705D01*
X131278328Y-67533719D01*
X131275578Y-67537208D01*
X131273346Y-67541050D01*
X131273343Y-67541055D01*
X131196744Y-67672930D01*
X131143955Y-67763813D01*
X131045574Y-68006703D01*
X130982399Y-68261032D01*
X130955688Y-68521726D01*
X130955863Y-68526177D01*
X130963125Y-68710987D01*
X130965977Y-68783582D01*
X131013058Y-69041376D01*
X131095994Y-69289965D01*
X131097987Y-69293953D01*
X131175018Y-69448116D01*
X131213128Y-69524387D01*
X131215657Y-69528046D01*
X131358164Y-69734237D01*
X131362124Y-69739967D01*
X131385855Y-69765638D01*
X131417406Y-69829237D01*
X131409565Y-69899800D01*
X131392279Y-69929171D01*
X131278338Y-70073705D01*
X131278328Y-70073719D01*
X131275578Y-70077208D01*
X131273346Y-70081050D01*
X131273343Y-70081055D01*
X131196744Y-70212930D01*
X131143955Y-70303813D01*
X131142290Y-70307925D01*
X131142287Y-70307930D01*
X131085727Y-70447570D01*
X131045574Y-70546703D01*
X130982399Y-70801032D01*
X130955688Y-71061726D01*
X130965977Y-71323582D01*
X131013058Y-71581376D01*
X131095994Y-71829965D01*
X131097987Y-71833953D01*
X131175018Y-71988116D01*
X131213128Y-72064387D01*
X131215657Y-72068046D01*
X131358164Y-72274237D01*
X131362124Y-72279967D01*
X131385855Y-72305638D01*
X131417406Y-72369237D01*
X131409565Y-72439800D01*
X131392279Y-72469171D01*
X131278338Y-72613705D01*
X131278328Y-72613719D01*
X131275578Y-72617208D01*
X131273346Y-72621050D01*
X131273343Y-72621055D01*
X131196744Y-72752930D01*
X131143955Y-72843813D01*
X131142290Y-72847925D01*
X131142287Y-72847930D01*
X131085727Y-72987570D01*
X131045574Y-73086703D01*
X130982399Y-73341032D01*
X130955688Y-73601726D01*
X130965977Y-73863582D01*
X131013058Y-74121376D01*
X131095994Y-74369965D01*
X131097987Y-74373953D01*
X131175018Y-74528116D01*
X131213128Y-74604387D01*
X131362124Y-74819967D01*
X131385855Y-74845638D01*
X131417406Y-74909237D01*
X131409565Y-74979800D01*
X131392279Y-75009171D01*
X131278338Y-75153705D01*
X131278328Y-75153719D01*
X131275578Y-75157208D01*
X131273346Y-75161050D01*
X131273343Y-75161055D01*
X131198477Y-75289946D01*
X131143955Y-75383813D01*
X131142290Y-75387925D01*
X131142287Y-75387930D01*
X131110868Y-75465500D01*
X131045574Y-75626703D01*
X130982399Y-75881032D01*
X130955688Y-76141726D01*
X105808332Y-76141726D01*
X103799405Y-74132799D01*
X103765379Y-74070487D01*
X103762500Y-74043704D01*
X103762500Y-73506726D01*
X108095688Y-73506726D01*
X108095863Y-73511177D01*
X108101711Y-73660000D01*
X108105977Y-73768582D01*
X108153058Y-74026376D01*
X108235994Y-74274965D01*
X108294804Y-74392662D01*
X108315018Y-74433116D01*
X108353128Y-74509387D01*
X108355657Y-74513046D01*
X108485517Y-74700938D01*
X108502124Y-74724967D01*
X108609110Y-74840703D01*
X108631786Y-74865234D01*
X108663339Y-74928834D01*
X108655498Y-74999396D01*
X108649781Y-75011273D01*
X108646678Y-75016940D01*
X108601522Y-75137394D01*
X108597895Y-75152649D01*
X108592369Y-75203514D01*
X108592000Y-75210328D01*
X108592000Y-75832885D01*
X108596475Y-75848124D01*
X108597865Y-75849329D01*
X108605548Y-75851000D01*
X111289884Y-75851000D01*
X111305123Y-75846525D01*
X111306328Y-75845135D01*
X111307999Y-75837452D01*
X111307999Y-75210331D01*
X111307629Y-75203510D01*
X111302105Y-75152648D01*
X111298479Y-75137396D01*
X111253323Y-75016942D01*
X111251760Y-75014088D01*
X111251070Y-75010934D01*
X111250172Y-75008538D01*
X111250518Y-75008408D01*
X111236591Y-74944730D01*
X111261328Y-74878182D01*
X111275893Y-74862261D01*
X111275873Y-74862242D01*
X111276530Y-74861564D01*
X111278210Y-74859728D01*
X111282287Y-74856076D01*
X111285151Y-74852669D01*
X111448043Y-74658886D01*
X111448045Y-74658884D01*
X111450910Y-74655475D01*
X111589586Y-74433116D01*
X111619375Y-74365736D01*
X111693749Y-74197503D01*
X111695547Y-74193436D01*
X111766681Y-73941216D01*
X111788806Y-73776491D01*
X111801139Y-73684673D01*
X111801140Y-73684665D01*
X111801566Y-73681491D01*
X111802140Y-73663222D01*
X111805126Y-73568222D01*
X111805126Y-73568217D01*
X111805227Y-73565000D01*
X111789684Y-73345466D01*
X111787034Y-73308045D01*
X111786719Y-73303596D01*
X111731563Y-73047408D01*
X111712610Y-72996032D01*
X111642401Y-72805724D01*
X111640860Y-72801547D01*
X111516420Y-72570920D01*
X111513774Y-72567337D01*
X111365735Y-72366907D01*
X111341353Y-72300228D01*
X111356890Y-72230953D01*
X111370636Y-72210973D01*
X111448045Y-72118883D01*
X111450910Y-72115475D01*
X111589586Y-71893116D01*
X111619375Y-71825736D01*
X111693749Y-71657503D01*
X111695547Y-71653436D01*
X111766681Y-71401216D01*
X111788806Y-71236491D01*
X111801139Y-71144673D01*
X111801140Y-71144665D01*
X111801566Y-71141491D01*
X111802140Y-71123222D01*
X111805126Y-71028222D01*
X111805126Y-71028217D01*
X111805227Y-71025000D01*
X111789684Y-70805466D01*
X111787034Y-70768045D01*
X111786719Y-70763596D01*
X111731563Y-70507408D01*
X111712610Y-70456032D01*
X111642401Y-70265724D01*
X111640860Y-70261547D01*
X111516420Y-70030920D01*
X111513774Y-70027337D01*
X111365735Y-69826907D01*
X111341353Y-69760228D01*
X111356890Y-69690953D01*
X111370636Y-69670973D01*
X111448045Y-69578883D01*
X111450910Y-69575475D01*
X111589586Y-69353116D01*
X111619375Y-69285736D01*
X111693749Y-69117503D01*
X111695547Y-69113436D01*
X111766681Y-68861216D01*
X111789280Y-68692962D01*
X111801139Y-68604673D01*
X111801140Y-68604665D01*
X111801566Y-68601491D01*
X111805227Y-68485000D01*
X111789684Y-68265466D01*
X111787034Y-68228045D01*
X111786719Y-68223596D01*
X111731563Y-67967408D01*
X111712610Y-67916032D01*
X111642401Y-67725724D01*
X111640860Y-67721547D01*
X111516420Y-67490920D01*
X111513774Y-67487337D01*
X111365735Y-67286907D01*
X111341353Y-67220228D01*
X111356890Y-67150953D01*
X111370636Y-67130973D01*
X111448045Y-67038883D01*
X111450910Y-67035475D01*
X111589586Y-66813116D01*
X111619375Y-66745736D01*
X111693749Y-66577503D01*
X111695547Y-66573436D01*
X111766681Y-66321216D01*
X111789280Y-66152962D01*
X111801139Y-66064673D01*
X111801140Y-66064665D01*
X111801566Y-66061491D01*
X111805227Y-65945000D01*
X111789684Y-65725466D01*
X111787034Y-65688045D01*
X111786719Y-65683596D01*
X111731563Y-65427408D01*
X111712610Y-65376032D01*
X111642401Y-65185724D01*
X111640860Y-65181547D01*
X111516420Y-64950920D01*
X111513774Y-64947337D01*
X111365735Y-64746907D01*
X111341353Y-64680228D01*
X111356890Y-64610953D01*
X111370636Y-64590973D01*
X111448045Y-64498883D01*
X111450910Y-64495475D01*
X111589586Y-64273116D01*
X111619375Y-64205736D01*
X111693749Y-64037503D01*
X111695547Y-64033436D01*
X111766681Y-63781216D01*
X111789280Y-63612962D01*
X111801139Y-63524673D01*
X111801140Y-63524665D01*
X111801566Y-63521491D01*
X111805227Y-63405000D01*
X111789684Y-63185466D01*
X111787034Y-63148045D01*
X111786719Y-63143596D01*
X111731563Y-62887408D01*
X111712610Y-62836032D01*
X111642401Y-62645724D01*
X111640860Y-62641547D01*
X111516420Y-62410920D01*
X111513774Y-62407337D01*
X111365735Y-62206907D01*
X111341353Y-62140228D01*
X111356890Y-62070953D01*
X111370636Y-62050973D01*
X111448045Y-61958883D01*
X111450910Y-61955475D01*
X111589586Y-61733116D01*
X111619375Y-61665736D01*
X111693749Y-61497503D01*
X111695547Y-61493436D01*
X111766681Y-61241216D01*
X111789280Y-61072962D01*
X111801139Y-60984673D01*
X111801140Y-60984665D01*
X111801566Y-60981491D01*
X111805227Y-60865000D01*
X111789684Y-60645466D01*
X111787034Y-60608045D01*
X111786719Y-60603596D01*
X111731563Y-60347408D01*
X111712610Y-60296032D01*
X111642401Y-60105724D01*
X111640860Y-60101547D01*
X111516420Y-59870920D01*
X111513774Y-59867337D01*
X111365735Y-59666907D01*
X111341353Y-59600228D01*
X111356890Y-59530953D01*
X111370636Y-59510973D01*
X111448045Y-59418883D01*
X111450910Y-59415475D01*
X111589586Y-59193116D01*
X111619375Y-59125736D01*
X111693749Y-58957503D01*
X111695547Y-58953436D01*
X111766681Y-58701216D01*
X111788806Y-58536491D01*
X111801139Y-58444673D01*
X111801140Y-58444665D01*
X111801566Y-58441491D01*
X111802140Y-58423222D01*
X111805126Y-58328222D01*
X111805126Y-58328217D01*
X111805227Y-58325000D01*
X111789684Y-58105466D01*
X111787034Y-58068045D01*
X111786719Y-58063596D01*
X111731563Y-57807408D01*
X111712610Y-57756032D01*
X111642401Y-57565724D01*
X111640860Y-57561547D01*
X111516420Y-57330920D01*
X111513774Y-57327337D01*
X111365735Y-57126907D01*
X111341353Y-57060228D01*
X111356890Y-56990953D01*
X111370636Y-56970973D01*
X111448045Y-56878883D01*
X111450910Y-56875475D01*
X111589586Y-56653116D01*
X111619375Y-56585736D01*
X111693749Y-56417503D01*
X111695547Y-56413436D01*
X111766681Y-56161216D01*
X111788806Y-55996491D01*
X111801139Y-55904673D01*
X111801140Y-55904665D01*
X111801566Y-55901491D01*
X111802140Y-55883222D01*
X111805126Y-55788222D01*
X111805126Y-55788217D01*
X111805227Y-55785000D01*
X111789684Y-55565466D01*
X111787034Y-55528045D01*
X111786719Y-55523596D01*
X111731563Y-55267408D01*
X111712610Y-55216032D01*
X111642401Y-55025724D01*
X111640860Y-55021547D01*
X111516420Y-54790920D01*
X111513774Y-54787337D01*
X111365735Y-54586907D01*
X111341353Y-54520228D01*
X111356890Y-54450953D01*
X111370636Y-54430973D01*
X111448045Y-54338883D01*
X111450910Y-54335475D01*
X111589586Y-54113116D01*
X111619375Y-54045736D01*
X111693749Y-53877503D01*
X111695547Y-53873436D01*
X111766681Y-53621216D01*
X111788806Y-53456491D01*
X111801139Y-53364673D01*
X111801140Y-53364665D01*
X111801566Y-53361491D01*
X111802140Y-53343222D01*
X111805126Y-53248222D01*
X111805126Y-53248217D01*
X111805227Y-53245000D01*
X111789684Y-53025466D01*
X111787034Y-52988045D01*
X111786719Y-52983596D01*
X111731563Y-52727408D01*
X111712610Y-52676032D01*
X111642401Y-52485724D01*
X111640860Y-52481547D01*
X111516420Y-52250920D01*
X111513774Y-52247337D01*
X111365735Y-52046907D01*
X111341353Y-51980228D01*
X111356890Y-51910953D01*
X111370636Y-51890973D01*
X111448045Y-51798883D01*
X111450910Y-51795475D01*
X111589586Y-51573116D01*
X111619375Y-51505736D01*
X111693749Y-51337503D01*
X111695547Y-51333436D01*
X111766681Y-51081216D01*
X111777282Y-51002289D01*
X111801139Y-50824673D01*
X111801140Y-50824665D01*
X111801566Y-50821491D01*
X111802140Y-50803222D01*
X111805126Y-50708222D01*
X111805126Y-50708217D01*
X111805227Y-50705000D01*
X111789684Y-50485466D01*
X111787034Y-50448045D01*
X111786719Y-50443596D01*
X111731563Y-50187408D01*
X111712610Y-50136032D01*
X111642401Y-49945724D01*
X111640860Y-49941547D01*
X111516420Y-49710920D01*
X111513774Y-49707337D01*
X111365735Y-49506907D01*
X111341353Y-49440228D01*
X111356890Y-49370953D01*
X111370636Y-49350973D01*
X111401761Y-49313945D01*
X111450910Y-49255475D01*
X111589586Y-49033116D01*
X111619375Y-48965736D01*
X111693749Y-48797503D01*
X111695547Y-48793436D01*
X111766681Y-48541216D01*
X111788806Y-48376491D01*
X111801139Y-48284673D01*
X111801140Y-48284665D01*
X111801566Y-48281491D01*
X111802140Y-48263222D01*
X111805126Y-48168222D01*
X111805126Y-48168217D01*
X111805227Y-48165000D01*
X111792091Y-47979462D01*
X111787034Y-47908045D01*
X111786719Y-47903596D01*
X111731563Y-47647408D01*
X111712610Y-47596032D01*
X111642401Y-47405724D01*
X111640860Y-47401547D01*
X111516420Y-47170920D01*
X111513774Y-47167337D01*
X111365735Y-46966907D01*
X111341353Y-46900228D01*
X111356890Y-46830953D01*
X111370636Y-46810973D01*
X111448045Y-46718883D01*
X111450910Y-46715475D01*
X111589586Y-46493116D01*
X111594501Y-46482000D01*
X111693749Y-46257503D01*
X111695547Y-46253436D01*
X111766681Y-46001216D01*
X111777108Y-45923582D01*
X111801139Y-45744673D01*
X111801140Y-45744665D01*
X111801566Y-45741491D01*
X111802140Y-45723222D01*
X111805126Y-45628222D01*
X111805126Y-45628217D01*
X111805227Y-45625000D01*
X111789684Y-45405466D01*
X111787034Y-45368045D01*
X111786719Y-45363596D01*
X111731563Y-45107408D01*
X111712610Y-45056032D01*
X111642401Y-44865724D01*
X111640860Y-44861547D01*
X111516420Y-44630920D01*
X111492357Y-44598340D01*
X111363370Y-44423706D01*
X111360726Y-44420126D01*
X111270490Y-44328461D01*
X111236956Y-44265884D01*
X111242577Y-44195110D01*
X111249762Y-44179562D01*
X111253322Y-44173059D01*
X111298478Y-44052606D01*
X111302105Y-44037351D01*
X111307631Y-43986486D01*
X111308000Y-43979672D01*
X111308000Y-43357115D01*
X111303525Y-43341876D01*
X111302135Y-43340671D01*
X111294452Y-43339000D01*
X108610116Y-43339000D01*
X108594877Y-43343475D01*
X108593672Y-43344865D01*
X108592001Y-43352548D01*
X108592001Y-43979669D01*
X108592371Y-43986490D01*
X108597895Y-44037352D01*
X108601521Y-44052604D01*
X108646677Y-44173058D01*
X108649715Y-44178606D01*
X108664884Y-44247963D01*
X108640148Y-44314511D01*
X108626166Y-44330285D01*
X108581043Y-44373330D01*
X108581039Y-44373335D01*
X108577816Y-44376409D01*
X108415578Y-44582208D01*
X108413346Y-44586050D01*
X108413343Y-44586055D01*
X108334184Y-44722337D01*
X108283955Y-44808813D01*
X108282290Y-44812925D01*
X108282287Y-44812930D01*
X108246317Y-44901736D01*
X108185574Y-45051703D01*
X108122399Y-45306032D01*
X108095688Y-45566726D01*
X108095863Y-45571177D01*
X108101711Y-45720000D01*
X108105977Y-45828582D01*
X108108003Y-45839673D01*
X108146263Y-46049167D01*
X108153058Y-46086376D01*
X108235994Y-46334965D01*
X108294804Y-46452662D01*
X108315018Y-46493116D01*
X108353128Y-46569387D01*
X108355657Y-46573046D01*
X108480153Y-46753177D01*
X108502124Y-46784967D01*
X108525855Y-46810638D01*
X108557406Y-46874237D01*
X108549565Y-46944800D01*
X108532279Y-46974171D01*
X108418338Y-47118705D01*
X108418328Y-47118719D01*
X108415578Y-47122208D01*
X108413346Y-47126050D01*
X108413343Y-47126055D01*
X108362432Y-47213705D01*
X108283955Y-47348813D01*
X108282290Y-47352925D01*
X108282287Y-47352930D01*
X108245556Y-47443614D01*
X108185574Y-47591703D01*
X108122399Y-47846032D01*
X108095688Y-48106726D01*
X108095863Y-48111177D01*
X108101711Y-48260000D01*
X108105977Y-48368582D01*
X108153058Y-48626376D01*
X108235994Y-48874965D01*
X108294804Y-48992662D01*
X108315018Y-49033116D01*
X108353128Y-49109387D01*
X108502124Y-49324967D01*
X108525855Y-49350638D01*
X108557406Y-49414237D01*
X108549565Y-49484800D01*
X108532279Y-49514171D01*
X108418338Y-49658705D01*
X108418328Y-49658719D01*
X108415578Y-49662208D01*
X108413346Y-49666050D01*
X108413343Y-49666055D01*
X108374461Y-49732996D01*
X108283955Y-49888813D01*
X108282290Y-49892925D01*
X108282287Y-49892930D01*
X108246317Y-49981736D01*
X108185574Y-50131703D01*
X108122399Y-50386032D01*
X108095688Y-50646726D01*
X108095863Y-50651177D01*
X108101711Y-50800000D01*
X108105977Y-50908582D01*
X108108003Y-50919673D01*
X108146263Y-51129167D01*
X108153058Y-51166376D01*
X108235994Y-51414965D01*
X108294804Y-51532662D01*
X108315018Y-51573116D01*
X108353128Y-51649387D01*
X108502124Y-51864967D01*
X108525855Y-51890638D01*
X108557406Y-51954237D01*
X108549565Y-52024800D01*
X108532279Y-52054171D01*
X108418338Y-52198705D01*
X108418328Y-52198719D01*
X108415578Y-52202208D01*
X108413346Y-52206050D01*
X108413343Y-52206055D01*
X108362432Y-52293705D01*
X108283955Y-52428813D01*
X108282290Y-52432925D01*
X108282287Y-52432930D01*
X108245476Y-52523813D01*
X108185574Y-52671703D01*
X108122399Y-52926032D01*
X108095688Y-53186726D01*
X108095863Y-53191177D01*
X108101711Y-53340000D01*
X108105977Y-53448582D01*
X108153058Y-53706376D01*
X108235994Y-53954965D01*
X108294804Y-54072662D01*
X108315018Y-54113116D01*
X108353128Y-54189387D01*
X108502124Y-54404967D01*
X108525855Y-54430638D01*
X108557406Y-54494237D01*
X108549565Y-54564800D01*
X108532279Y-54594171D01*
X108418338Y-54738705D01*
X108418328Y-54738719D01*
X108415578Y-54742208D01*
X108413346Y-54746050D01*
X108413343Y-54746055D01*
X108362432Y-54833705D01*
X108283955Y-54968813D01*
X108282290Y-54972925D01*
X108282287Y-54972930D01*
X108245476Y-55063813D01*
X108185574Y-55211703D01*
X108122399Y-55466032D01*
X108095688Y-55726726D01*
X108095863Y-55731177D01*
X108101711Y-55880000D01*
X108105977Y-55988582D01*
X108153058Y-56246376D01*
X108235994Y-56494965D01*
X108294804Y-56612662D01*
X108315018Y-56653116D01*
X108353128Y-56729387D01*
X108502124Y-56944967D01*
X108525855Y-56970638D01*
X108557406Y-57034237D01*
X108549565Y-57104800D01*
X108532279Y-57134171D01*
X108418338Y-57278705D01*
X108418328Y-57278719D01*
X108415578Y-57282208D01*
X108413346Y-57286050D01*
X108413343Y-57286055D01*
X108349018Y-57396799D01*
X108283955Y-57508813D01*
X108282290Y-57512925D01*
X108282287Y-57512930D01*
X108234842Y-57630067D01*
X108185574Y-57751703D01*
X108122399Y-58006032D01*
X108095688Y-58266726D01*
X108095863Y-58271177D01*
X108101711Y-58420000D01*
X108105977Y-58528582D01*
X108153058Y-58786376D01*
X108235994Y-59034965D01*
X108294804Y-59152662D01*
X108315018Y-59193116D01*
X108353128Y-59269387D01*
X108502124Y-59484967D01*
X108525855Y-59510638D01*
X108557406Y-59574237D01*
X108549565Y-59644800D01*
X108532279Y-59674171D01*
X108418338Y-59818705D01*
X108418328Y-59818719D01*
X108415578Y-59822208D01*
X108413346Y-59826050D01*
X108413343Y-59826055D01*
X108379719Y-59883943D01*
X108283955Y-60048813D01*
X108282290Y-60052925D01*
X108282287Y-60052930D01*
X108245476Y-60143813D01*
X108185574Y-60291703D01*
X108122399Y-60546032D01*
X108095688Y-60806726D01*
X108105977Y-61068582D01*
X108153058Y-61326376D01*
X108235994Y-61574965D01*
X108294804Y-61692662D01*
X108315018Y-61733116D01*
X108353128Y-61809387D01*
X108502124Y-62024967D01*
X108525855Y-62050638D01*
X108557406Y-62114237D01*
X108549565Y-62184800D01*
X108532279Y-62214171D01*
X108418338Y-62358705D01*
X108418328Y-62358719D01*
X108415578Y-62362208D01*
X108413346Y-62366050D01*
X108413343Y-62366055D01*
X108362432Y-62453705D01*
X108283955Y-62588813D01*
X108282290Y-62592925D01*
X108282287Y-62592930D01*
X108245476Y-62683813D01*
X108185574Y-62831703D01*
X108122399Y-63086032D01*
X108095688Y-63346726D01*
X108105977Y-63608582D01*
X108153058Y-63866376D01*
X108235994Y-64114965D01*
X108294804Y-64232662D01*
X108315018Y-64273116D01*
X108353128Y-64349387D01*
X108502124Y-64564967D01*
X108525855Y-64590638D01*
X108557406Y-64654237D01*
X108549565Y-64724800D01*
X108532279Y-64754171D01*
X108418338Y-64898705D01*
X108418328Y-64898719D01*
X108415578Y-64902208D01*
X108413346Y-64906050D01*
X108413343Y-64906055D01*
X108362432Y-64993705D01*
X108283955Y-65128813D01*
X108282290Y-65132925D01*
X108282287Y-65132930D01*
X108245476Y-65223813D01*
X108185574Y-65371703D01*
X108122399Y-65626032D01*
X108095688Y-65886726D01*
X108105977Y-66148582D01*
X108153058Y-66406376D01*
X108235994Y-66654965D01*
X108294804Y-66772662D01*
X108315018Y-66813116D01*
X108353128Y-66889387D01*
X108502124Y-67104967D01*
X108525855Y-67130638D01*
X108557406Y-67194237D01*
X108549565Y-67264800D01*
X108532279Y-67294171D01*
X108418338Y-67438705D01*
X108418328Y-67438719D01*
X108415578Y-67442208D01*
X108413346Y-67446050D01*
X108413343Y-67446055D01*
X108362432Y-67533705D01*
X108283955Y-67668813D01*
X108282290Y-67672925D01*
X108282287Y-67672930D01*
X108245476Y-67763813D01*
X108185574Y-67911703D01*
X108122399Y-68166032D01*
X108095688Y-68426726D01*
X108105977Y-68688582D01*
X108153058Y-68946376D01*
X108235994Y-69194965D01*
X108294804Y-69312662D01*
X108315018Y-69353116D01*
X108353128Y-69429387D01*
X108502124Y-69644967D01*
X108525855Y-69670638D01*
X108557406Y-69734237D01*
X108549565Y-69804800D01*
X108532279Y-69834171D01*
X108418338Y-69978705D01*
X108418328Y-69978719D01*
X108415578Y-69982208D01*
X108413346Y-69986050D01*
X108413343Y-69986055D01*
X108362432Y-70073705D01*
X108283955Y-70208813D01*
X108282290Y-70212925D01*
X108282287Y-70212930D01*
X108245476Y-70303813D01*
X108185574Y-70451703D01*
X108122399Y-70706032D01*
X108095688Y-70966726D01*
X108095863Y-70971177D01*
X108101711Y-71120000D01*
X108105977Y-71228582D01*
X108153058Y-71486376D01*
X108235994Y-71734965D01*
X108294804Y-71852662D01*
X108315018Y-71893116D01*
X108353128Y-71969387D01*
X108502124Y-72184967D01*
X108525855Y-72210638D01*
X108557406Y-72274237D01*
X108549565Y-72344800D01*
X108532279Y-72374171D01*
X108418338Y-72518705D01*
X108418328Y-72518719D01*
X108415578Y-72522208D01*
X108413346Y-72526050D01*
X108413343Y-72526055D01*
X108362432Y-72613705D01*
X108283955Y-72748813D01*
X108282290Y-72752925D01*
X108282287Y-72752930D01*
X108245476Y-72843813D01*
X108185574Y-72991703D01*
X108122399Y-73246032D01*
X108095688Y-73506726D01*
X103762500Y-73506726D01*
X103762500Y-47044408D01*
X103762815Y-47035508D01*
X103767050Y-46975702D01*
X103767050Y-46975700D01*
X103767427Y-46970375D01*
X103756775Y-46862700D01*
X103756617Y-46860985D01*
X103752331Y-46810475D01*
X103747469Y-46753177D01*
X103746129Y-46748013D01*
X103745369Y-46743567D01*
X103744552Y-46739159D01*
X103744027Y-46733856D01*
X103715383Y-46629509D01*
X103714944Y-46627864D01*
X103689103Y-46528299D01*
X103689102Y-46528295D01*
X103687760Y-46523126D01*
X103685566Y-46518255D01*
X103684082Y-46514042D01*
X103682526Y-46509814D01*
X103681112Y-46504661D01*
X103635283Y-46406603D01*
X103634571Y-46405052D01*
X103607139Y-46344153D01*
X103590143Y-46306424D01*
X103587157Y-46301989D01*
X103584943Y-46298011D01*
X103582738Y-46294176D01*
X103580479Y-46289343D01*
X103518800Y-46200434D01*
X103517819Y-46198999D01*
X103460387Y-46113691D01*
X103460385Y-46113689D01*
X103457409Y-46109268D01*
X103453728Y-46105410D01*
X103450383Y-46101249D01*
X103450677Y-46101013D01*
X103450251Y-46100491D01*
X103449961Y-46100722D01*
X103447368Y-46097465D01*
X103445005Y-46094059D01*
X103442216Y-46090994D01*
X103442212Y-46090989D01*
X103429242Y-46076736D01*
X103428233Y-46075627D01*
X103365991Y-46013385D01*
X103363916Y-46011262D01*
X103350128Y-45996808D01*
X103293355Y-45937295D01*
X103287236Y-45932742D01*
X103273354Y-45920748D01*
X100165491Y-42812885D01*
X108592000Y-42812885D01*
X108596475Y-42828124D01*
X108597865Y-42829329D01*
X108605548Y-42831000D01*
X109677885Y-42831000D01*
X109693124Y-42826525D01*
X109694329Y-42825135D01*
X109696000Y-42817452D01*
X109696000Y-42812885D01*
X110204000Y-42812885D01*
X110208475Y-42828124D01*
X110209865Y-42829329D01*
X110217548Y-42831000D01*
X111289884Y-42831000D01*
X111305123Y-42826525D01*
X111306328Y-42825135D01*
X111307999Y-42817452D01*
X111307999Y-42190331D01*
X111307629Y-42183510D01*
X111302105Y-42132648D01*
X111298479Y-42117396D01*
X111253324Y-41996946D01*
X111244786Y-41981351D01*
X111168285Y-41879276D01*
X111155724Y-41866715D01*
X111053649Y-41790214D01*
X111038054Y-41781676D01*
X110917606Y-41736522D01*
X110902351Y-41732895D01*
X110851486Y-41727369D01*
X110844672Y-41727000D01*
X110222115Y-41727000D01*
X110206876Y-41731475D01*
X110205671Y-41732865D01*
X110204000Y-41740548D01*
X110204000Y-42812885D01*
X109696000Y-42812885D01*
X109696000Y-41745116D01*
X109691525Y-41729877D01*
X109690135Y-41728672D01*
X109682452Y-41727001D01*
X109055331Y-41727001D01*
X109048510Y-41727371D01*
X108997648Y-41732895D01*
X108982396Y-41736521D01*
X108861946Y-41781676D01*
X108846351Y-41790214D01*
X108744276Y-41866715D01*
X108731715Y-41879276D01*
X108655214Y-41981351D01*
X108646676Y-41996946D01*
X108601522Y-42117394D01*
X108597895Y-42132649D01*
X108592369Y-42183514D01*
X108592000Y-42190328D01*
X108592000Y-42812885D01*
X100165491Y-42812885D01*
X91579789Y-34227183D01*
X91573718Y-34220668D01*
X91534410Y-34175369D01*
X91534408Y-34175367D01*
X91530910Y-34171336D01*
X91466539Y-34118555D01*
X91447260Y-34102747D01*
X91445908Y-34101623D01*
X91367298Y-34035310D01*
X91367296Y-34035308D01*
X91363215Y-34031866D01*
X91358611Y-34029159D01*
X91354931Y-34026554D01*
X91351249Y-34024023D01*
X91347120Y-34020638D01*
X91253101Y-33967120D01*
X91251642Y-33966275D01*
X91162928Y-33914122D01*
X91162923Y-33914119D01*
X91158324Y-33911416D01*
X91153339Y-33909528D01*
X91149345Y-33907614D01*
X91145199Y-33905698D01*
X91140567Y-33903061D01*
X91135558Y-33901243D01*
X91135552Y-33901240D01*
X91038842Y-33866136D01*
X91037223Y-33865535D01*
X90936067Y-33827211D01*
X90930825Y-33826187D01*
X90926440Y-33824938D01*
X90922171Y-33823786D01*
X90917156Y-33821966D01*
X90810656Y-33802708D01*
X90809071Y-33802411D01*
X90702800Y-33781657D01*
X90697463Y-33781531D01*
X90692161Y-33780955D01*
X90692202Y-33780577D01*
X90691525Y-33780509D01*
X90691483Y-33780881D01*
X90687364Y-33780413D01*
X90683275Y-33779674D01*
X90679131Y-33779479D01*
X90679126Y-33779478D01*
X90659869Y-33778570D01*
X90659862Y-33778570D01*
X90658381Y-33778500D01*
X90570308Y-33778500D01*
X90567340Y-33778465D01*
X90564485Y-33778398D01*
X90465193Y-33776058D01*
X90459914Y-33776833D01*
X90459911Y-33776833D01*
X90458699Y-33777011D01*
X90457656Y-33777164D01*
X90439361Y-33778500D01*
X77611515Y-33778500D01*
X77543394Y-33758498D01*
X77535073Y-33752663D01*
X77347607Y-33609593D01*
X77347603Y-33609590D01*
X77344062Y-33606888D01*
X77115417Y-33478840D01*
X77111268Y-33477235D01*
X77111264Y-33477233D01*
X76945220Y-33412996D01*
X76871012Y-33384287D01*
X76866691Y-33383285D01*
X76866683Y-33383283D01*
X76698569Y-33344317D01*
X76615721Y-33325114D01*
X76354641Y-33302502D01*
X76350206Y-33302746D01*
X76350202Y-33302746D01*
X76097421Y-33316657D01*
X76097414Y-33316658D01*
X76092978Y-33316902D01*
X75835956Y-33368027D01*
X75831746Y-33369505D01*
X75831744Y-33369506D01*
X75707903Y-33412996D01*
X75588701Y-33454857D01*
X75584750Y-33456910D01*
X75584744Y-33456912D01*
X75474409Y-33514227D01*
X75356147Y-33575659D01*
X75352532Y-33578242D01*
X75352526Y-33578246D01*
X75146555Y-33725435D01*
X75146551Y-33725438D01*
X75142934Y-33728023D01*
X75139714Y-33731095D01*
X74958414Y-33904046D01*
X74953316Y-33908909D01*
X74950560Y-33912405D01*
X74795583Y-34108994D01*
X74791078Y-34114708D01*
X74788846Y-34118550D01*
X74788843Y-34118555D01*
X74755843Y-34175369D01*
X74659455Y-34341313D01*
X74657790Y-34345425D01*
X74657787Y-34345430D01*
X74567836Y-34567509D01*
X74561074Y-34584203D01*
X74497899Y-34838532D01*
X74471188Y-35099226D01*
X68056000Y-35099226D01*
X68056000Y-31099226D01*
X74471188Y-31099226D01*
X74471363Y-31103677D01*
X74478187Y-31277340D01*
X74481477Y-31361082D01*
X74528558Y-31618876D01*
X74611494Y-31867465D01*
X74728628Y-32101887D01*
X74757686Y-32143930D01*
X74868392Y-32304109D01*
X74877624Y-32317467D01*
X74980300Y-32428541D01*
X75047005Y-32500701D01*
X75055510Y-32509902D01*
X75058964Y-32512714D01*
X75255278Y-32672539D01*
X75255282Y-32672542D01*
X75258735Y-32675353D01*
X75262557Y-32677654D01*
X75475183Y-32805665D01*
X75483245Y-32810519D01*
X75571471Y-32847878D01*
X75720462Y-32910968D01*
X75720466Y-32910969D01*
X75724560Y-32912703D01*
X75728852Y-32913841D01*
X75728855Y-32913842D01*
X75818523Y-32937617D01*
X75977865Y-32979866D01*
X75982289Y-32980390D01*
X75982291Y-32980390D01*
X76133072Y-32998236D01*
X76238107Y-33010667D01*
X76500092Y-33004493D01*
X76504486Y-33003762D01*
X76504493Y-33003761D01*
X76754192Y-32962200D01*
X76754196Y-32962199D01*
X76758594Y-32961467D01*
X76922561Y-32909611D01*
X77004209Y-32883789D01*
X77004211Y-32883788D01*
X77008455Y-32882446D01*
X77012466Y-32880520D01*
X77012471Y-32880518D01*
X77240669Y-32770939D01*
X77240670Y-32770938D01*
X77244688Y-32769009D01*
X77431218Y-32644374D01*
X77458874Y-32625895D01*
X77458878Y-32625892D01*
X77462582Y-32623417D01*
X77524294Y-32568143D01*
X77588382Y-32537594D01*
X77608359Y-32536000D01*
X85756612Y-32536000D01*
X85791342Y-32540881D01*
X85937413Y-32582766D01*
X85969045Y-32585589D01*
X86054891Y-32593251D01*
X86054897Y-32593251D01*
X86057684Y-32593500D01*
X87173316Y-32593500D01*
X87176103Y-32593251D01*
X87176109Y-32593251D01*
X87261955Y-32585589D01*
X87293587Y-32582766D01*
X87488970Y-32526741D01*
X87669096Y-32432573D01*
X87735311Y-32378570D01*
X87821669Y-32308138D01*
X87826609Y-32304109D01*
X87888344Y-32228414D01*
X87951041Y-32151540D01*
X87951042Y-32151539D01*
X87955073Y-32146596D01*
X88049241Y-31966470D01*
X88105266Y-31771087D01*
X88116000Y-31650816D01*
X88116000Y-30535184D01*
X88105266Y-30414913D01*
X88049241Y-30219530D01*
X87955073Y-30039404D01*
X87826609Y-29881891D01*
X87669096Y-29753427D01*
X87488970Y-29659259D01*
X87293587Y-29603234D01*
X87261955Y-29600411D01*
X87176109Y-29592749D01*
X87176103Y-29592749D01*
X87173316Y-29592500D01*
X86057684Y-29592500D01*
X86054897Y-29592749D01*
X86054891Y-29592749D01*
X85969045Y-29600411D01*
X85937413Y-29603234D01*
X85742030Y-29659259D01*
X85646573Y-29709163D01*
X85624577Y-29720662D01*
X85566202Y-29735000D01*
X77554516Y-29735000D01*
X77486395Y-29714998D01*
X77478074Y-29709163D01*
X77347607Y-29609593D01*
X77347603Y-29609590D01*
X77344062Y-29606888D01*
X77115417Y-29478840D01*
X77111268Y-29477235D01*
X77111264Y-29477233D01*
X76945220Y-29412996D01*
X76871012Y-29384287D01*
X76866691Y-29383285D01*
X76866683Y-29383283D01*
X76664848Y-29336501D01*
X76615721Y-29325114D01*
X76354641Y-29302502D01*
X76350206Y-29302746D01*
X76350202Y-29302746D01*
X76097421Y-29316657D01*
X76097414Y-29316658D01*
X76092978Y-29316902D01*
X75835956Y-29368027D01*
X75831746Y-29369505D01*
X75831744Y-29369506D01*
X75707903Y-29412996D01*
X75588701Y-29454857D01*
X75584750Y-29456910D01*
X75584744Y-29456912D01*
X75457394Y-29523066D01*
X75356147Y-29575659D01*
X75352532Y-29578242D01*
X75352526Y-29578246D01*
X75146555Y-29725435D01*
X75146551Y-29725438D01*
X75142934Y-29728023D01*
X75116304Y-29753427D01*
X74958414Y-29904046D01*
X74953316Y-29908909D01*
X74950560Y-29912405D01*
X74847851Y-30042692D01*
X74791078Y-30114708D01*
X74788846Y-30118550D01*
X74788843Y-30118555D01*
X74733478Y-30213873D01*
X74659455Y-30341313D01*
X74657790Y-30345425D01*
X74657787Y-30345430D01*
X74582060Y-30532391D01*
X74561074Y-30584203D01*
X74497899Y-30838532D01*
X74471188Y-31099226D01*
X68056000Y-31099226D01*
X68056000Y-25094502D01*
X70070880Y-25094502D01*
X70071055Y-25098954D01*
X70081685Y-25369506D01*
X70082002Y-25377584D01*
X70132900Y-25656275D01*
X70156837Y-25728023D01*
X70215563Y-25904046D01*
X70222558Y-25925014D01*
X70224550Y-25929001D01*
X70224551Y-25929003D01*
X70319609Y-26119243D01*
X70349187Y-26178439D01*
X70510261Y-26411493D01*
X70513283Y-26414762D01*
X70692852Y-26609019D01*
X70702565Y-26619527D01*
X70706019Y-26622339D01*
X70918807Y-26795575D01*
X70918811Y-26795578D01*
X70922264Y-26798389D01*
X71164972Y-26944512D01*
X71169067Y-26946246D01*
X71169069Y-26946247D01*
X71421747Y-27053242D01*
X71421754Y-27053244D01*
X71425848Y-27054978D01*
X71525992Y-27081531D01*
X71695389Y-27126446D01*
X71695393Y-27126447D01*
X71699686Y-27127585D01*
X71704095Y-27128107D01*
X71704101Y-27128108D01*
X71861453Y-27146732D01*
X71981023Y-27160884D01*
X72264245Y-27154209D01*
X72282395Y-27151188D01*
X72539310Y-27108426D01*
X72539314Y-27108425D01*
X72543700Y-27107695D01*
X72547941Y-27106354D01*
X72547944Y-27106353D01*
X72570479Y-27099226D01*
X74471188Y-27099226D01*
X74471814Y-27115157D01*
X74478187Y-27277340D01*
X74481477Y-27361082D01*
X74528558Y-27618876D01*
X74611494Y-27867465D01*
X74660650Y-27965842D01*
X74690518Y-28025616D01*
X74728628Y-28101887D01*
X74877624Y-28317467D01*
X74937928Y-28382703D01*
X74998821Y-28448576D01*
X75055510Y-28509902D01*
X75058964Y-28512714D01*
X75255278Y-28672539D01*
X75255282Y-28672542D01*
X75258735Y-28675353D01*
X75483245Y-28810519D01*
X75596045Y-28858284D01*
X75720462Y-28910968D01*
X75720466Y-28910969D01*
X75724560Y-28912703D01*
X75728852Y-28913841D01*
X75728855Y-28913842D01*
X75829625Y-28940561D01*
X75977865Y-28979866D01*
X75982289Y-28980390D01*
X75982291Y-28980390D01*
X76133072Y-28998236D01*
X76238107Y-29010667D01*
X76500092Y-29004493D01*
X76504486Y-29003762D01*
X76504493Y-29003761D01*
X76754192Y-28962200D01*
X76754196Y-28962199D01*
X76758594Y-28961467D01*
X76922561Y-28909611D01*
X76960141Y-28897726D01*
X151300688Y-28897726D01*
X151310977Y-29159582D01*
X151358058Y-29417376D01*
X151359467Y-29421599D01*
X151438170Y-29657499D01*
X151440994Y-29665965D01*
X151472003Y-29728023D01*
X151520018Y-29824116D01*
X151558128Y-29900387D01*
X151707124Y-30115967D01*
X151797628Y-30213873D01*
X151828321Y-30247076D01*
X151885010Y-30308402D01*
X151888464Y-30311214D01*
X152084778Y-30471039D01*
X152084782Y-30471042D01*
X152088235Y-30473853D01*
X152092057Y-30476154D01*
X152271526Y-30584203D01*
X152312745Y-30609019D01*
X152425545Y-30656784D01*
X152549962Y-30709468D01*
X152549966Y-30709469D01*
X152554060Y-30711203D01*
X152558352Y-30712341D01*
X152558355Y-30712342D01*
X152659125Y-30739061D01*
X152807365Y-30778366D01*
X152811789Y-30778890D01*
X152811791Y-30778890D01*
X152962572Y-30796736D01*
X153067607Y-30809167D01*
X153329592Y-30802993D01*
X153333986Y-30802262D01*
X153333993Y-30802261D01*
X153583692Y-30760700D01*
X153583696Y-30760699D01*
X153588094Y-30759967D01*
X153752061Y-30708111D01*
X153833709Y-30682289D01*
X153833711Y-30682288D01*
X153837955Y-30680946D01*
X153841966Y-30679020D01*
X153841971Y-30679018D01*
X154070169Y-30569439D01*
X154070170Y-30569438D01*
X154074188Y-30567509D01*
X154218566Y-30471039D01*
X154288380Y-30424391D01*
X154288384Y-30424388D01*
X154292082Y-30421917D01*
X154487287Y-30247076D01*
X154594742Y-30119243D01*
X154653043Y-30049886D01*
X154653045Y-30049884D01*
X154655910Y-30046475D01*
X154794586Y-29824116D01*
X154838213Y-29725435D01*
X154898749Y-29588503D01*
X154900547Y-29584436D01*
X154971681Y-29332216D01*
X154994280Y-29163962D01*
X155006139Y-29075673D01*
X155006140Y-29075665D01*
X155006566Y-29072491D01*
X155008512Y-29010562D01*
X155010126Y-28959222D01*
X155010126Y-28959217D01*
X155010227Y-28956000D01*
X155007162Y-28912703D01*
X154992034Y-28699045D01*
X154991719Y-28694596D01*
X154936563Y-28438408D01*
X154917610Y-28387032D01*
X154847401Y-28196724D01*
X154845860Y-28192547D01*
X154721420Y-27961920D01*
X154688283Y-27917055D01*
X154568370Y-27754706D01*
X154565726Y-27751126D01*
X154381884Y-27564374D01*
X154313336Y-27512060D01*
X154177107Y-27408093D01*
X154177103Y-27408090D01*
X154173562Y-27405388D01*
X153944917Y-27277340D01*
X153940768Y-27275735D01*
X153940764Y-27275733D01*
X153755466Y-27204047D01*
X153700512Y-27182787D01*
X153696191Y-27181785D01*
X153696183Y-27181783D01*
X153528069Y-27142817D01*
X153445221Y-27123614D01*
X153184141Y-27101002D01*
X153179706Y-27101246D01*
X153179702Y-27101246D01*
X152926921Y-27115157D01*
X152926914Y-27115158D01*
X152922478Y-27115402D01*
X152665456Y-27166527D01*
X152661246Y-27168005D01*
X152661244Y-27168006D01*
X152558615Y-27204047D01*
X152418201Y-27253357D01*
X152414250Y-27255410D01*
X152414244Y-27255412D01*
X152286894Y-27321566D01*
X152185647Y-27374159D01*
X152182032Y-27376742D01*
X152182026Y-27376746D01*
X151976055Y-27523935D01*
X151976051Y-27523938D01*
X151972434Y-27526523D01*
X151782816Y-27707409D01*
X151780060Y-27710905D01*
X151659973Y-27863236D01*
X151620578Y-27913208D01*
X151618346Y-27917050D01*
X151618343Y-27917055D01*
X151557648Y-28021550D01*
X151488955Y-28139813D01*
X151487290Y-28143925D01*
X151487287Y-28143930D01*
X151443763Y-28251386D01*
X151390574Y-28382703D01*
X151327399Y-28637032D01*
X151300688Y-28897726D01*
X76960141Y-28897726D01*
X77004209Y-28883789D01*
X77004211Y-28883788D01*
X77008455Y-28882446D01*
X77012466Y-28880520D01*
X77012471Y-28880518D01*
X77240669Y-28770939D01*
X77240670Y-28770938D01*
X77244688Y-28769009D01*
X77448682Y-28632705D01*
X77458880Y-28625891D01*
X77458884Y-28625888D01*
X77462582Y-28623417D01*
X77657787Y-28448576D01*
X77767996Y-28317467D01*
X77823543Y-28251386D01*
X77823545Y-28251384D01*
X77826410Y-28247975D01*
X77965086Y-28025616D01*
X78033241Y-27871453D01*
X78069249Y-27790003D01*
X78071047Y-27785936D01*
X78142181Y-27533716D01*
X78159054Y-27408093D01*
X78176639Y-27277173D01*
X78176640Y-27277165D01*
X78177066Y-27273991D01*
X78177167Y-27270782D01*
X78177432Y-27267572D01*
X78178409Y-27267653D01*
X78199286Y-27204047D01*
X78254382Y-27159270D01*
X78282395Y-27151188D01*
X78450366Y-27123230D01*
X78543700Y-27107695D01*
X78547941Y-27106354D01*
X78547944Y-27106353D01*
X78809568Y-27023612D01*
X78809570Y-27023611D01*
X78813814Y-27022269D01*
X78817825Y-27020343D01*
X78817830Y-27020341D01*
X79065178Y-26901566D01*
X79065179Y-26901565D01*
X79069197Y-26899636D01*
X79072903Y-26897160D01*
X79301045Y-26744721D01*
X79301049Y-26744718D01*
X79304753Y-26742243D01*
X79510825Y-26557669D01*
X85607501Y-26557669D01*
X85607871Y-26564490D01*
X85613395Y-26615352D01*
X85617021Y-26630604D01*
X85662176Y-26751054D01*
X85670714Y-26766649D01*
X85747215Y-26868724D01*
X85759776Y-26881285D01*
X85861851Y-26957786D01*
X85877446Y-26966324D01*
X85997894Y-27011478D01*
X86013149Y-27015105D01*
X86064014Y-27020631D01*
X86070828Y-27021000D01*
X86343385Y-27021000D01*
X86358624Y-27016525D01*
X86359829Y-27015135D01*
X86361500Y-27007452D01*
X86361500Y-27002884D01*
X86869500Y-27002884D01*
X86873975Y-27018123D01*
X86875365Y-27019328D01*
X86883048Y-27020999D01*
X87160169Y-27020999D01*
X87166990Y-27020629D01*
X87217852Y-27015105D01*
X87233104Y-27011479D01*
X87353554Y-26966324D01*
X87369149Y-26957786D01*
X87471224Y-26881285D01*
X87483785Y-26868724D01*
X87560286Y-26766649D01*
X87568824Y-26751054D01*
X87613978Y-26630606D01*
X87617605Y-26615351D01*
X87623131Y-26564486D01*
X87623500Y-26557672D01*
X87623500Y-26285115D01*
X87619025Y-26269876D01*
X87617635Y-26268671D01*
X87609952Y-26267000D01*
X86887615Y-26267000D01*
X86872376Y-26271475D01*
X86871171Y-26272865D01*
X86869500Y-26280548D01*
X86869500Y-27002884D01*
X86361500Y-27002884D01*
X86361500Y-26285115D01*
X86357025Y-26269876D01*
X86355635Y-26268671D01*
X86347952Y-26267000D01*
X85625616Y-26267000D01*
X85610377Y-26271475D01*
X85609172Y-26272865D01*
X85607501Y-26280548D01*
X85607501Y-26557669D01*
X79510825Y-26557669D01*
X79515781Y-26553230D01*
X79698073Y-26336368D01*
X79713761Y-26311214D01*
X79799048Y-26174459D01*
X79847989Y-26095985D01*
X79962540Y-25836876D01*
X79989612Y-25740885D01*
X85607500Y-25740885D01*
X85611975Y-25756124D01*
X85613365Y-25757329D01*
X85621048Y-25759000D01*
X86343385Y-25759000D01*
X86358624Y-25754525D01*
X86359829Y-25753135D01*
X86361500Y-25745452D01*
X86361500Y-25740885D01*
X86869500Y-25740885D01*
X86873975Y-25756124D01*
X86875365Y-25757329D01*
X86883048Y-25759000D01*
X87605384Y-25759000D01*
X87620623Y-25754525D01*
X87621828Y-25753135D01*
X87623499Y-25745452D01*
X87623499Y-25468331D01*
X87623129Y-25461510D01*
X87617605Y-25410648D01*
X87613979Y-25395396D01*
X87568824Y-25274946D01*
X87560286Y-25259351D01*
X87483785Y-25157276D01*
X87471224Y-25144715D01*
X87369149Y-25068214D01*
X87353554Y-25059676D01*
X87233106Y-25014522D01*
X87217851Y-25010895D01*
X87166986Y-25005369D01*
X87160172Y-25005000D01*
X86887615Y-25005000D01*
X86872376Y-25009475D01*
X86871171Y-25010865D01*
X86869500Y-25018548D01*
X86869500Y-25740885D01*
X86361500Y-25740885D01*
X86361500Y-25023116D01*
X86357025Y-25007877D01*
X86355635Y-25006672D01*
X86347952Y-25005001D01*
X86070831Y-25005001D01*
X86064010Y-25005371D01*
X86013148Y-25010895D01*
X85997896Y-25014521D01*
X85877446Y-25059676D01*
X85861851Y-25068214D01*
X85759776Y-25144715D01*
X85747215Y-25157276D01*
X85670714Y-25259351D01*
X85662176Y-25274946D01*
X85617022Y-25395394D01*
X85613395Y-25410649D01*
X85607869Y-25461514D01*
X85607500Y-25468328D01*
X85607500Y-25740885D01*
X79989612Y-25740885D01*
X80039439Y-25564212D01*
X80053233Y-25461514D01*
X80076725Y-25286615D01*
X80076726Y-25286607D01*
X80077152Y-25283433D01*
X80078303Y-25246821D01*
X80081009Y-25160722D01*
X80081009Y-25160717D01*
X80081110Y-25157500D01*
X80062717Y-24897726D01*
X151300688Y-24897726D01*
X151300863Y-24902177D01*
X151310769Y-25154279D01*
X151310977Y-25159582D01*
X151358058Y-25417376D01*
X151440994Y-25665965D01*
X151480711Y-25745452D01*
X151520018Y-25824116D01*
X151558128Y-25900387D01*
X151560657Y-25904046D01*
X151695934Y-26099776D01*
X151707124Y-26115967D01*
X151761194Y-26174459D01*
X151863484Y-26285115D01*
X151885010Y-26308402D01*
X151888464Y-26311214D01*
X152084778Y-26471039D01*
X152084782Y-26471042D01*
X152088235Y-26473853D01*
X152092057Y-26476154D01*
X152271526Y-26584203D01*
X152312745Y-26609019D01*
X152425545Y-26656784D01*
X152549962Y-26709468D01*
X152549966Y-26709469D01*
X152554060Y-26711203D01*
X152558352Y-26712341D01*
X152558355Y-26712342D01*
X152659125Y-26739061D01*
X152807365Y-26778366D01*
X152811789Y-26778890D01*
X152811791Y-26778890D01*
X152952766Y-26795575D01*
X153067607Y-26809167D01*
X153329592Y-26802993D01*
X153333986Y-26802262D01*
X153333993Y-26802261D01*
X153583692Y-26760700D01*
X153583696Y-26760699D01*
X153588094Y-26759967D01*
X153752061Y-26708111D01*
X153833709Y-26682289D01*
X153833711Y-26682288D01*
X153837955Y-26680946D01*
X153841966Y-26679020D01*
X153841971Y-26679018D01*
X154070169Y-26569439D01*
X154070170Y-26569438D01*
X154074188Y-26567509D01*
X154218566Y-26471039D01*
X154288380Y-26424391D01*
X154288384Y-26424388D01*
X154292082Y-26421917D01*
X154487287Y-26247076D01*
X154594742Y-26119243D01*
X154653043Y-26049886D01*
X154653045Y-26049884D01*
X154655910Y-26046475D01*
X154794586Y-25824116D01*
X154823374Y-25759000D01*
X154898749Y-25588503D01*
X154900547Y-25584436D01*
X154971681Y-25332216D01*
X154978233Y-25283433D01*
X155006139Y-25075673D01*
X155006140Y-25075665D01*
X155006566Y-25072491D01*
X155006667Y-25069280D01*
X155010126Y-24959222D01*
X155010126Y-24959217D01*
X155010227Y-24956000D01*
X154991719Y-24694596D01*
X154936563Y-24438408D01*
X154917610Y-24387032D01*
X154847401Y-24196724D01*
X154845860Y-24192547D01*
X154776049Y-24063165D01*
X161402866Y-24063165D01*
X161437952Y-24320970D01*
X161510758Y-24570757D01*
X161619686Y-24807039D01*
X161622246Y-24810944D01*
X161622249Y-24810949D01*
X161759775Y-25020712D01*
X161759779Y-25020717D01*
X161762341Y-25024625D01*
X161801246Y-25068214D01*
X161869526Y-25144715D01*
X161935591Y-25218735D01*
X162135629Y-25385105D01*
X162358061Y-25520080D01*
X162362375Y-25521889D01*
X162362377Y-25521890D01*
X162593686Y-25618886D01*
X162593691Y-25618888D01*
X162598001Y-25620695D01*
X162602533Y-25621846D01*
X162602536Y-25621847D01*
X162720852Y-25651895D01*
X162850177Y-25684739D01*
X163066286Y-25706500D01*
X163221044Y-25706500D01*
X163223369Y-25706327D01*
X163223375Y-25706327D01*
X163409814Y-25692472D01*
X163409818Y-25692471D01*
X163414466Y-25692126D01*
X163668232Y-25634705D01*
X163672586Y-25633012D01*
X163906370Y-25542098D01*
X163906372Y-25542097D01*
X163910723Y-25540405D01*
X163946285Y-25520080D01*
X163994038Y-25492786D01*
X164136612Y-25411299D01*
X164340936Y-25250223D01*
X164519208Y-25060714D01*
X164624631Y-24908748D01*
X164664846Y-24850779D01*
X164664848Y-24850776D01*
X164667511Y-24846937D01*
X164669579Y-24842744D01*
X164780521Y-24617775D01*
X164780522Y-24617772D01*
X164782586Y-24613587D01*
X164787591Y-24597953D01*
X164860483Y-24370237D01*
X164861906Y-24365792D01*
X164903728Y-24108994D01*
X164905602Y-23965842D01*
X164907073Y-23853512D01*
X164907073Y-23853509D01*
X164907134Y-23848835D01*
X164872048Y-23591030D01*
X164799242Y-23341243D01*
X164690314Y-23104961D01*
X164687751Y-23101051D01*
X164550225Y-22891288D01*
X164550221Y-22891283D01*
X164547659Y-22887375D01*
X164374409Y-22693265D01*
X164174371Y-22526895D01*
X163951939Y-22391920D01*
X163947623Y-22390110D01*
X163716314Y-22293114D01*
X163716309Y-22293112D01*
X163711999Y-22291305D01*
X163707467Y-22290154D01*
X163707464Y-22290153D01*
X163582185Y-22258337D01*
X163459823Y-22227261D01*
X163243714Y-22205500D01*
X163088956Y-22205500D01*
X163086631Y-22205673D01*
X163086625Y-22205673D01*
X162900186Y-22219528D01*
X162900182Y-22219529D01*
X162895534Y-22219874D01*
X162641768Y-22277295D01*
X162637416Y-22278987D01*
X162637414Y-22278988D01*
X162403630Y-22369902D01*
X162403628Y-22369903D01*
X162399277Y-22371595D01*
X162395223Y-22373912D01*
X162395221Y-22373913D01*
X162359467Y-22394348D01*
X162173388Y-22500701D01*
X161969064Y-22661777D01*
X161790792Y-22851286D01*
X161642489Y-23065063D01*
X161640423Y-23069253D01*
X161640421Y-23069256D01*
X161548620Y-23255412D01*
X161527414Y-23298413D01*
X161448094Y-23546208D01*
X161406272Y-23803006D01*
X161405611Y-23853512D01*
X161403344Y-24026684D01*
X161402866Y-24063165D01*
X154776049Y-24063165D01*
X154721420Y-23961920D01*
X154688283Y-23917055D01*
X154568370Y-23754706D01*
X154565726Y-23751126D01*
X154381884Y-23564374D01*
X154276435Y-23483898D01*
X154177107Y-23408093D01*
X154177103Y-23408090D01*
X154173562Y-23405388D01*
X153944917Y-23277340D01*
X153940768Y-23275735D01*
X153940764Y-23275733D01*
X153793196Y-23218644D01*
X153700512Y-23182787D01*
X153696191Y-23181785D01*
X153696183Y-23181783D01*
X153528069Y-23142817D01*
X153445221Y-23123614D01*
X153184141Y-23101002D01*
X153179706Y-23101246D01*
X153179702Y-23101246D01*
X152926921Y-23115157D01*
X152926914Y-23115158D01*
X152922478Y-23115402D01*
X152665456Y-23166527D01*
X152661246Y-23168005D01*
X152661244Y-23168006D01*
X152516497Y-23218838D01*
X152418201Y-23253357D01*
X152414250Y-23255410D01*
X152414244Y-23255412D01*
X152331464Y-23298413D01*
X152185647Y-23374159D01*
X152182032Y-23376742D01*
X152182026Y-23376746D01*
X151976055Y-23523935D01*
X151976051Y-23523938D01*
X151972434Y-23526523D01*
X151885390Y-23609559D01*
X151836444Y-23656251D01*
X151782816Y-23707409D01*
X151780060Y-23710905D01*
X151711090Y-23798394D01*
X151620578Y-23913208D01*
X151618346Y-23917050D01*
X151618343Y-23917055D01*
X151519773Y-24086756D01*
X151488955Y-24139813D01*
X151487290Y-24143925D01*
X151487287Y-24143930D01*
X151413761Y-24325458D01*
X151390574Y-24382703D01*
X151327399Y-24637032D01*
X151300688Y-24897726D01*
X80062717Y-24897726D01*
X80061101Y-24874907D01*
X80055907Y-24850779D01*
X80002411Y-24602300D01*
X80002411Y-24602298D01*
X80001475Y-24597953D01*
X79903420Y-24332163D01*
X79828088Y-24192547D01*
X79771006Y-24086756D01*
X79768893Y-24082840D01*
X79600578Y-23854960D01*
X79594549Y-23848835D01*
X79404965Y-23656251D01*
X79401834Y-23653070D01*
X79398294Y-23650369D01*
X79398288Y-23650363D01*
X79180167Y-23483898D01*
X79180163Y-23483895D01*
X79176626Y-23481196D01*
X79112679Y-23445384D01*
X78933337Y-23344948D01*
X78933332Y-23344945D01*
X78929447Y-23342770D01*
X78925289Y-23341162D01*
X78925284Y-23341159D01*
X78669385Y-23242159D01*
X78669379Y-23242157D01*
X78665230Y-23240552D01*
X78660898Y-23239548D01*
X78660895Y-23239547D01*
X78585641Y-23222104D01*
X78389247Y-23176582D01*
X78107003Y-23152137D01*
X78102568Y-23152381D01*
X78102564Y-23152381D01*
X77828573Y-23167460D01*
X77828566Y-23167461D01*
X77824130Y-23167705D01*
X77686243Y-23195132D01*
X77550646Y-23222104D01*
X77550641Y-23222105D01*
X77546274Y-23222974D01*
X77542071Y-23224450D01*
X77283184Y-23315364D01*
X77283181Y-23315365D01*
X77278976Y-23316842D01*
X77275023Y-23318895D01*
X77275017Y-23318898D01*
X77223341Y-23345742D01*
X77027572Y-23447436D01*
X77023957Y-23450019D01*
X77023951Y-23450023D01*
X76976548Y-23483898D01*
X76797076Y-23612151D01*
X76793849Y-23615229D01*
X76793847Y-23615231D01*
X76597008Y-23803006D01*
X76592088Y-23807699D01*
X76416699Y-24030180D01*
X76355250Y-24135972D01*
X76276641Y-24271307D01*
X76276638Y-24271313D01*
X76274407Y-24275154D01*
X76272737Y-24279277D01*
X76206520Y-24442760D01*
X76168052Y-24537732D01*
X76166981Y-24542045D01*
X76166979Y-24542050D01*
X76127981Y-24699045D01*
X76099755Y-24812677D01*
X76099301Y-24817105D01*
X76099301Y-24817107D01*
X76078662Y-25018548D01*
X76070880Y-25094502D01*
X76071055Y-25098954D01*
X76075496Y-25212009D01*
X76058183Y-25280863D01*
X76006394Y-25329426D01*
X75974176Y-25340533D01*
X75835956Y-25368027D01*
X75831746Y-25369505D01*
X75831744Y-25369506D01*
X75720971Y-25408407D01*
X75588701Y-25454857D01*
X75584750Y-25456910D01*
X75584744Y-25456912D01*
X75562762Y-25468331D01*
X75356147Y-25575659D01*
X75352532Y-25578242D01*
X75352526Y-25578246D01*
X75146555Y-25725435D01*
X75146551Y-25725438D01*
X75142934Y-25728023D01*
X75110462Y-25759000D01*
X74958414Y-25904046D01*
X74953316Y-25908909D01*
X74950560Y-25912405D01*
X74847851Y-26042692D01*
X74791078Y-26114708D01*
X74788846Y-26118550D01*
X74788843Y-26118555D01*
X74701649Y-26268671D01*
X74659455Y-26341313D01*
X74657790Y-26345425D01*
X74657787Y-26345430D01*
X74574999Y-26549824D01*
X74561074Y-26584203D01*
X74497899Y-26838532D01*
X74471188Y-27099226D01*
X72570479Y-27099226D01*
X72809568Y-27023612D01*
X72809570Y-27023611D01*
X72813814Y-27022269D01*
X72817825Y-27020343D01*
X72817830Y-27020341D01*
X73065178Y-26901566D01*
X73065179Y-26901565D01*
X73069197Y-26899636D01*
X73072903Y-26897160D01*
X73301045Y-26744721D01*
X73301049Y-26744718D01*
X73304753Y-26742243D01*
X73515781Y-26553230D01*
X73698073Y-26336368D01*
X73713761Y-26311214D01*
X73799048Y-26174459D01*
X73847989Y-26095985D01*
X73962540Y-25836876D01*
X74039439Y-25564212D01*
X74053233Y-25461514D01*
X74076725Y-25286615D01*
X74076726Y-25286607D01*
X74077152Y-25283433D01*
X74078303Y-25246821D01*
X74081009Y-25160722D01*
X74081009Y-25160717D01*
X74081110Y-25157500D01*
X74061101Y-24874907D01*
X74055907Y-24850779D01*
X74002411Y-24602300D01*
X74002411Y-24602298D01*
X74001475Y-24597953D01*
X73903420Y-24332163D01*
X73828088Y-24192547D01*
X73771006Y-24086756D01*
X73768893Y-24082840D01*
X73600578Y-23854960D01*
X73594549Y-23848835D01*
X73404965Y-23656251D01*
X73401834Y-23653070D01*
X73398294Y-23650369D01*
X73398288Y-23650363D01*
X73180167Y-23483898D01*
X73180163Y-23483895D01*
X73176626Y-23481196D01*
X73112679Y-23445384D01*
X72933337Y-23344948D01*
X72933332Y-23344945D01*
X72929447Y-23342770D01*
X72925289Y-23341162D01*
X72925284Y-23341159D01*
X72669385Y-23242159D01*
X72669379Y-23242157D01*
X72665230Y-23240552D01*
X72660898Y-23239548D01*
X72660895Y-23239547D01*
X72585641Y-23222104D01*
X72389247Y-23176582D01*
X72107003Y-23152137D01*
X72102568Y-23152381D01*
X72102564Y-23152381D01*
X71828573Y-23167460D01*
X71828566Y-23167461D01*
X71824130Y-23167705D01*
X71686243Y-23195132D01*
X71550646Y-23222104D01*
X71550641Y-23222105D01*
X71546274Y-23222974D01*
X71542071Y-23224450D01*
X71283184Y-23315364D01*
X71283181Y-23315365D01*
X71278976Y-23316842D01*
X71275023Y-23318895D01*
X71275017Y-23318898D01*
X71223341Y-23345742D01*
X71027572Y-23447436D01*
X71023957Y-23450019D01*
X71023951Y-23450023D01*
X70976548Y-23483898D01*
X70797076Y-23612151D01*
X70793849Y-23615229D01*
X70793847Y-23615231D01*
X70597008Y-23803006D01*
X70592088Y-23807699D01*
X70416699Y-24030180D01*
X70355250Y-24135972D01*
X70276641Y-24271307D01*
X70276638Y-24271313D01*
X70274407Y-24275154D01*
X70272737Y-24279277D01*
X70206520Y-24442760D01*
X70168052Y-24537732D01*
X70166981Y-24542045D01*
X70166979Y-24542050D01*
X70127981Y-24699045D01*
X70099755Y-24812677D01*
X70099301Y-24817105D01*
X70099301Y-24817107D01*
X70078662Y-25018548D01*
X70070880Y-25094502D01*
X68056000Y-25094502D01*
X68056000Y-19304000D01*
X79178457Y-19304000D01*
X79198609Y-19611460D01*
X79199413Y-19615500D01*
X79199413Y-19615503D01*
X79230031Y-19769427D01*
X79258720Y-19913659D01*
X79260045Y-19917563D01*
X79260046Y-19917566D01*
X79310433Y-20066000D01*
X79357762Y-20205427D01*
X79359586Y-20209125D01*
X79438598Y-20369345D01*
X79494040Y-20481771D01*
X79665222Y-20737964D01*
X79667936Y-20741058D01*
X79667940Y-20741064D01*
X79678036Y-20752576D01*
X79868380Y-20969620D01*
X79871469Y-20972329D01*
X80096936Y-21170060D01*
X80096942Y-21170064D01*
X80100036Y-21172778D01*
X80356229Y-21343960D01*
X80359928Y-21345784D01*
X80359933Y-21345787D01*
X80419129Y-21374979D01*
X80632573Y-21480238D01*
X80636478Y-21481564D01*
X80636479Y-21481564D01*
X80920434Y-21577954D01*
X80920437Y-21577955D01*
X80924341Y-21579280D01*
X80928380Y-21580083D01*
X80928386Y-21580085D01*
X81222497Y-21638587D01*
X81222500Y-21638587D01*
X81226540Y-21639391D01*
X81230651Y-21639660D01*
X81230655Y-21639661D01*
X81455010Y-21654366D01*
X81455019Y-21654366D01*
X81457059Y-21654500D01*
X81610941Y-21654500D01*
X81612981Y-21654366D01*
X81612990Y-21654366D01*
X81837345Y-21639661D01*
X81837349Y-21639660D01*
X81841460Y-21639391D01*
X81845500Y-21638587D01*
X81845503Y-21638587D01*
X82139614Y-21580085D01*
X82139620Y-21580083D01*
X82143659Y-21579280D01*
X82147563Y-21577955D01*
X82147566Y-21577954D01*
X82431521Y-21481564D01*
X82431522Y-21481564D01*
X82435427Y-21480238D01*
X82648871Y-21374979D01*
X82708067Y-21345787D01*
X82708072Y-21345784D01*
X82711771Y-21343960D01*
X82928696Y-21199016D01*
X106183700Y-21199016D01*
X106194434Y-21319287D01*
X106250459Y-21514670D01*
X106344627Y-21694796D01*
X106348658Y-21699739D01*
X106348659Y-21699740D01*
X106435517Y-21806239D01*
X106473091Y-21852309D01*
X106478031Y-21856338D01*
X106577019Y-21937070D01*
X106630604Y-21980773D01*
X106810730Y-22074941D01*
X107006113Y-22130966D01*
X107037745Y-22133789D01*
X107123591Y-22141451D01*
X107123597Y-22141451D01*
X107126384Y-22141700D01*
X108942016Y-22141700D01*
X108944803Y-22141451D01*
X108944809Y-22141451D01*
X109030655Y-22133789D01*
X109062287Y-22130966D01*
X109257670Y-22074941D01*
X109437796Y-21980773D01*
X109491382Y-21937070D01*
X109590369Y-21856338D01*
X109595309Y-21852309D01*
X109632883Y-21806239D01*
X109719741Y-21699740D01*
X109719742Y-21699739D01*
X109723773Y-21694796D01*
X109793770Y-21560905D01*
X109843055Y-21509804D01*
X109912145Y-21493460D01*
X109969003Y-21510494D01*
X109980958Y-21517480D01*
X109990242Y-21521929D01*
X110189201Y-21597903D01*
X110199099Y-21600779D01*
X110302450Y-21621806D01*
X110316499Y-21620610D01*
X110320200Y-21610265D01*
X110320200Y-21609717D01*
X110828200Y-21609717D01*
X110832264Y-21623559D01*
X110845678Y-21625593D01*
X110852384Y-21624734D01*
X110862462Y-21622592D01*
X111066455Y-21561391D01*
X111076042Y-21557633D01*
X111267295Y-21463939D01*
X111276145Y-21458664D01*
X111436846Y-21344038D01*
X111503920Y-21320764D01*
X111572928Y-21337448D01*
X111613667Y-21374979D01*
X111663785Y-21447495D01*
X111663793Y-21447505D01*
X111666324Y-21451167D01*
X111730255Y-21520327D01*
X111827563Y-21625593D01*
X111844210Y-21643602D01*
X111847664Y-21646414D01*
X112043978Y-21806239D01*
X112043982Y-21806242D01*
X112047435Y-21809053D01*
X112051257Y-21811354D01*
X112260071Y-21937070D01*
X112271945Y-21944219D01*
X112348748Y-21976741D01*
X112509162Y-22044668D01*
X112509166Y-22044669D01*
X112513260Y-22046403D01*
X112517552Y-22047541D01*
X112517555Y-22047542D01*
X112609735Y-22071983D01*
X112766565Y-22113566D01*
X112770989Y-22114090D01*
X112770991Y-22114090D01*
X112913580Y-22130966D01*
X113026807Y-22144367D01*
X113288792Y-22138193D01*
X113293186Y-22137462D01*
X113293193Y-22137461D01*
X113542892Y-22095900D01*
X113542896Y-22095899D01*
X113547294Y-22095167D01*
X113711261Y-22043311D01*
X113792909Y-22017489D01*
X113792911Y-22017488D01*
X113797155Y-22016146D01*
X113801166Y-22014220D01*
X113801171Y-22014218D01*
X114029369Y-21904639D01*
X114029370Y-21904638D01*
X114033388Y-21902709D01*
X114177766Y-21806239D01*
X114247574Y-21759595D01*
X114247579Y-21759591D01*
X114251282Y-21757117D01*
X114254598Y-21754146D01*
X114254603Y-21754143D01*
X114300806Y-21712760D01*
X114364894Y-21682211D01*
X114435325Y-21691160D01*
X114464421Y-21708904D01*
X114583978Y-21806239D01*
X114583982Y-21806242D01*
X114587435Y-21809053D01*
X114591257Y-21811354D01*
X114800071Y-21937070D01*
X114811945Y-21944219D01*
X114888748Y-21976741D01*
X115049162Y-22044668D01*
X115049166Y-22044669D01*
X115053260Y-22046403D01*
X115057552Y-22047541D01*
X115057555Y-22047542D01*
X115149735Y-22071983D01*
X115306565Y-22113566D01*
X115310989Y-22114090D01*
X115310991Y-22114090D01*
X115453580Y-22130966D01*
X115566807Y-22144367D01*
X115828792Y-22138193D01*
X115833186Y-22137462D01*
X115833193Y-22137461D01*
X116082892Y-22095900D01*
X116082896Y-22095899D01*
X116087294Y-22095167D01*
X116251261Y-22043311D01*
X116332909Y-22017489D01*
X116332911Y-22017488D01*
X116337155Y-22016146D01*
X116341166Y-22014220D01*
X116341171Y-22014218D01*
X116569369Y-21904639D01*
X116569370Y-21904638D01*
X116573388Y-21902709D01*
X116717766Y-21806239D01*
X116787574Y-21759595D01*
X116787579Y-21759591D01*
X116791282Y-21757117D01*
X116794598Y-21754146D01*
X116794603Y-21754143D01*
X116840806Y-21712760D01*
X116904894Y-21682211D01*
X116975325Y-21691160D01*
X117004421Y-21708904D01*
X117123978Y-21806239D01*
X117123982Y-21806242D01*
X117127435Y-21809053D01*
X117131257Y-21811354D01*
X117340071Y-21937070D01*
X117351945Y-21944219D01*
X117428748Y-21976741D01*
X117589162Y-22044668D01*
X117589166Y-22044669D01*
X117593260Y-22046403D01*
X117597552Y-22047541D01*
X117597555Y-22047542D01*
X117689735Y-22071983D01*
X117846565Y-22113566D01*
X117850989Y-22114090D01*
X117850991Y-22114090D01*
X117993580Y-22130966D01*
X118106807Y-22144367D01*
X118368792Y-22138193D01*
X118373186Y-22137462D01*
X118373193Y-22137461D01*
X118622892Y-22095900D01*
X118622896Y-22095899D01*
X118627294Y-22095167D01*
X118791261Y-22043311D01*
X118872909Y-22017489D01*
X118872911Y-22017488D01*
X118877155Y-22016146D01*
X118881166Y-22014220D01*
X118881171Y-22014218D01*
X119109369Y-21904639D01*
X119109370Y-21904638D01*
X119113388Y-21902709D01*
X119257766Y-21806239D01*
X119327574Y-21759595D01*
X119327579Y-21759591D01*
X119331282Y-21757117D01*
X119334598Y-21754146D01*
X119334603Y-21754143D01*
X119380806Y-21712760D01*
X119444894Y-21682211D01*
X119515325Y-21691160D01*
X119544421Y-21708904D01*
X119663978Y-21806239D01*
X119663982Y-21806242D01*
X119667435Y-21809053D01*
X119671257Y-21811354D01*
X119880071Y-21937070D01*
X119891945Y-21944219D01*
X119968748Y-21976741D01*
X120129162Y-22044668D01*
X120129166Y-22044669D01*
X120133260Y-22046403D01*
X120137552Y-22047541D01*
X120137555Y-22047542D01*
X120229735Y-22071983D01*
X120386565Y-22113566D01*
X120390989Y-22114090D01*
X120390991Y-22114090D01*
X120533580Y-22130966D01*
X120646807Y-22144367D01*
X120908792Y-22138193D01*
X120913186Y-22137462D01*
X120913193Y-22137461D01*
X121162892Y-22095900D01*
X121162896Y-22095899D01*
X121167294Y-22095167D01*
X121331261Y-22043311D01*
X121412909Y-22017489D01*
X121412911Y-22017488D01*
X121417155Y-22016146D01*
X121421166Y-22014220D01*
X121421171Y-22014218D01*
X121649369Y-21904639D01*
X121649370Y-21904638D01*
X121653388Y-21902709D01*
X121797766Y-21806239D01*
X121867574Y-21759595D01*
X121867579Y-21759591D01*
X121871282Y-21757117D01*
X121874598Y-21754146D01*
X121874603Y-21754143D01*
X121920806Y-21712760D01*
X121984894Y-21682211D01*
X122055325Y-21691160D01*
X122084421Y-21708904D01*
X122203978Y-21806239D01*
X122203982Y-21806242D01*
X122207435Y-21809053D01*
X122211257Y-21811354D01*
X122420071Y-21937070D01*
X122431945Y-21944219D01*
X122508748Y-21976741D01*
X122669162Y-22044668D01*
X122669166Y-22044669D01*
X122673260Y-22046403D01*
X122677552Y-22047541D01*
X122677555Y-22047542D01*
X122769735Y-22071983D01*
X122926565Y-22113566D01*
X122930989Y-22114090D01*
X122930991Y-22114090D01*
X123073580Y-22130966D01*
X123186807Y-22144367D01*
X123448792Y-22138193D01*
X123453186Y-22137462D01*
X123453193Y-22137461D01*
X123702892Y-22095900D01*
X123702896Y-22095899D01*
X123707294Y-22095167D01*
X123871261Y-22043311D01*
X123952909Y-22017489D01*
X123952911Y-22017488D01*
X123957155Y-22016146D01*
X123961166Y-22014220D01*
X123961171Y-22014218D01*
X124189369Y-21904639D01*
X124189370Y-21904638D01*
X124193388Y-21902709D01*
X124337766Y-21806239D01*
X124407574Y-21759595D01*
X124407579Y-21759591D01*
X124411282Y-21757117D01*
X124414598Y-21754146D01*
X124414603Y-21754143D01*
X124460806Y-21712760D01*
X124524894Y-21682211D01*
X124595325Y-21691160D01*
X124624421Y-21708904D01*
X124743978Y-21806239D01*
X124743982Y-21806242D01*
X124747435Y-21809053D01*
X124751257Y-21811354D01*
X124960071Y-21937070D01*
X124971945Y-21944219D01*
X125048748Y-21976741D01*
X125209162Y-22044668D01*
X125209166Y-22044669D01*
X125213260Y-22046403D01*
X125217552Y-22047541D01*
X125217555Y-22047542D01*
X125309735Y-22071983D01*
X125466565Y-22113566D01*
X125470989Y-22114090D01*
X125470991Y-22114090D01*
X125613580Y-22130966D01*
X125726807Y-22144367D01*
X125988792Y-22138193D01*
X125993186Y-22137462D01*
X125993193Y-22137461D01*
X126242892Y-22095900D01*
X126242896Y-22095899D01*
X126247294Y-22095167D01*
X126411261Y-22043311D01*
X126492909Y-22017489D01*
X126492911Y-22017488D01*
X126497155Y-22016146D01*
X126501166Y-22014220D01*
X126501171Y-22014218D01*
X126729369Y-21904639D01*
X126729370Y-21904638D01*
X126733388Y-21902709D01*
X126877766Y-21806239D01*
X126947580Y-21759591D01*
X126947584Y-21759588D01*
X126951282Y-21757117D01*
X127146487Y-21582276D01*
X127164043Y-21561391D01*
X127312243Y-21385086D01*
X127312245Y-21385084D01*
X127315110Y-21381675D01*
X127453786Y-21159316D01*
X127559747Y-20919636D01*
X127630881Y-20667416D01*
X127636055Y-20628896D01*
X127665339Y-20410873D01*
X127665340Y-20410865D01*
X127665766Y-20407691D01*
X127669427Y-20291200D01*
X127653482Y-20066000D01*
X148266457Y-20066000D01*
X148266727Y-20070119D01*
X148281429Y-20294422D01*
X148286609Y-20373460D01*
X148287413Y-20377500D01*
X148287413Y-20377503D01*
X148344204Y-20663008D01*
X148346720Y-20675659D01*
X148445762Y-20967427D01*
X148462400Y-21001165D01*
X148561347Y-21201809D01*
X148582040Y-21243771D01*
X148753222Y-21499964D01*
X148755936Y-21503058D01*
X148755940Y-21503064D01*
X148920897Y-21691160D01*
X148956380Y-21731620D01*
X148959469Y-21734329D01*
X149184936Y-21932060D01*
X149184942Y-21932064D01*
X149188036Y-21934778D01*
X149444229Y-22105960D01*
X149447928Y-22107784D01*
X149447933Y-22107787D01*
X149589962Y-22177828D01*
X149720573Y-22242238D01*
X149724478Y-22243564D01*
X149724479Y-22243564D01*
X150008434Y-22339954D01*
X150008437Y-22339955D01*
X150012341Y-22341280D01*
X150016380Y-22342083D01*
X150016386Y-22342085D01*
X150310497Y-22400587D01*
X150310500Y-22400587D01*
X150314540Y-22401391D01*
X150318651Y-22401660D01*
X150318655Y-22401661D01*
X150543010Y-22416366D01*
X150543019Y-22416366D01*
X150545059Y-22416500D01*
X150698941Y-22416500D01*
X150700981Y-22416366D01*
X150700990Y-22416366D01*
X150925345Y-22401661D01*
X150925349Y-22401660D01*
X150929460Y-22401391D01*
X150933500Y-22400587D01*
X150933503Y-22400587D01*
X151227614Y-22342085D01*
X151227620Y-22342083D01*
X151231659Y-22341280D01*
X151235563Y-22339955D01*
X151235566Y-22339954D01*
X151519521Y-22243564D01*
X151519522Y-22243564D01*
X151523427Y-22242238D01*
X151654038Y-22177828D01*
X151796067Y-22107787D01*
X151796072Y-22107784D01*
X151799771Y-22105960D01*
X152055964Y-21934778D01*
X152059058Y-21932064D01*
X152059064Y-21932060D01*
X152284531Y-21734329D01*
X152287620Y-21731620D01*
X152323103Y-21691160D01*
X152488060Y-21503064D01*
X152488064Y-21503058D01*
X152490778Y-21499964D01*
X152503073Y-21481564D01*
X152659666Y-21247205D01*
X152659667Y-21247204D01*
X152661960Y-21243772D01*
X152665997Y-21235587D01*
X152781600Y-21001165D01*
X152798238Y-20967427D01*
X152897280Y-20675659D01*
X152899797Y-20663008D01*
X152956587Y-20377503D01*
X152956587Y-20377500D01*
X152957391Y-20373460D01*
X152962572Y-20294422D01*
X152977273Y-20070119D01*
X152977543Y-20066000D01*
X152957391Y-19758540D01*
X152949308Y-19717903D01*
X152898085Y-19460386D01*
X152898083Y-19460380D01*
X152897280Y-19456341D01*
X152872515Y-19383384D01*
X152799564Y-19168479D01*
X152799564Y-19168478D01*
X152798238Y-19164573D01*
X152728883Y-19023935D01*
X152663787Y-18891933D01*
X152663784Y-18891928D01*
X152661960Y-18888229D01*
X152490778Y-18632036D01*
X152488064Y-18628942D01*
X152488060Y-18628936D01*
X152290329Y-18403469D01*
X152287620Y-18400380D01*
X152284531Y-18397671D01*
X152059064Y-18199940D01*
X152059058Y-18199936D01*
X152055964Y-18197222D01*
X151799771Y-18026040D01*
X151796072Y-18024216D01*
X151796067Y-18024213D01*
X151654038Y-17954172D01*
X151523427Y-17889762D01*
X151456184Y-17866936D01*
X151235566Y-17792046D01*
X151235563Y-17792045D01*
X151231659Y-17790720D01*
X151227620Y-17789917D01*
X151227614Y-17789915D01*
X150933503Y-17731413D01*
X150933500Y-17731413D01*
X150929460Y-17730609D01*
X150925349Y-17730340D01*
X150925345Y-17730339D01*
X150700990Y-17715634D01*
X150700981Y-17715634D01*
X150698941Y-17715500D01*
X150545059Y-17715500D01*
X150543019Y-17715634D01*
X150543010Y-17715634D01*
X150318655Y-17730339D01*
X150318651Y-17730340D01*
X150314540Y-17730609D01*
X150310500Y-17731413D01*
X150310497Y-17731413D01*
X150016386Y-17789915D01*
X150016380Y-17789917D01*
X150012341Y-17790720D01*
X150008437Y-17792045D01*
X150008434Y-17792046D01*
X149787816Y-17866936D01*
X149720573Y-17889762D01*
X149589962Y-17954172D01*
X149447933Y-18024213D01*
X149447928Y-18024216D01*
X149444229Y-18026040D01*
X149188036Y-18197222D01*
X149184942Y-18199936D01*
X149184936Y-18199940D01*
X148959469Y-18397671D01*
X148956380Y-18400380D01*
X148953671Y-18403469D01*
X148755940Y-18628936D01*
X148755936Y-18628942D01*
X148753222Y-18632036D01*
X148750933Y-18635462D01*
X148750929Y-18635467D01*
X148701556Y-18709359D01*
X148582040Y-18888228D01*
X148580216Y-18891927D01*
X148580213Y-18891932D01*
X148526597Y-19000655D01*
X148445762Y-19164573D01*
X148444436Y-19168478D01*
X148444436Y-19168479D01*
X148371486Y-19383384D01*
X148346720Y-19456341D01*
X148345917Y-19460380D01*
X148345915Y-19460386D01*
X148294692Y-19717903D01*
X148286609Y-19758540D01*
X148266457Y-20066000D01*
X127653482Y-20066000D01*
X127650919Y-20029796D01*
X127595763Y-19773608D01*
X127591723Y-19762655D01*
X127506601Y-19531924D01*
X127505060Y-19527747D01*
X127380620Y-19297120D01*
X127355503Y-19263113D01*
X127227570Y-19089906D01*
X127224926Y-19086326D01*
X127041084Y-18899574D01*
X126972536Y-18847260D01*
X126836307Y-18743293D01*
X126836303Y-18743290D01*
X126832762Y-18740588D01*
X126604117Y-18612540D01*
X126599968Y-18610935D01*
X126599964Y-18610933D01*
X126452396Y-18553844D01*
X126359712Y-18517987D01*
X126355391Y-18516985D01*
X126355383Y-18516983D01*
X126187269Y-18478017D01*
X126104421Y-18458814D01*
X125843341Y-18436202D01*
X125838906Y-18436446D01*
X125838902Y-18436446D01*
X125586121Y-18450357D01*
X125586114Y-18450358D01*
X125581678Y-18450602D01*
X125324656Y-18501727D01*
X125320446Y-18503205D01*
X125320444Y-18503206D01*
X125175697Y-18554038D01*
X125077401Y-18588557D01*
X125073450Y-18590610D01*
X125073444Y-18590612D01*
X124999668Y-18628936D01*
X124844847Y-18709359D01*
X124841232Y-18711942D01*
X124841226Y-18711946D01*
X124635255Y-18859135D01*
X124635251Y-18859138D01*
X124631634Y-18861723D01*
X124628415Y-18864794D01*
X124624977Y-18867638D01*
X124624100Y-18866578D01*
X124566317Y-18896372D01*
X124495641Y-18889629D01*
X124466020Y-18872814D01*
X124296307Y-18743293D01*
X124296303Y-18743290D01*
X124292762Y-18740588D01*
X124064117Y-18612540D01*
X124059968Y-18610935D01*
X124059964Y-18610933D01*
X123912396Y-18553844D01*
X123819712Y-18517987D01*
X123815391Y-18516985D01*
X123815383Y-18516983D01*
X123647269Y-18478017D01*
X123564421Y-18458814D01*
X123303341Y-18436202D01*
X123298906Y-18436446D01*
X123298902Y-18436446D01*
X123046121Y-18450357D01*
X123046114Y-18450358D01*
X123041678Y-18450602D01*
X122784656Y-18501727D01*
X122780446Y-18503205D01*
X122780444Y-18503206D01*
X122635697Y-18554038D01*
X122537401Y-18588557D01*
X122533450Y-18590610D01*
X122533444Y-18590612D01*
X122459668Y-18628936D01*
X122304847Y-18709359D01*
X122301232Y-18711942D01*
X122301226Y-18711946D01*
X122095255Y-18859135D01*
X122095251Y-18859138D01*
X122091634Y-18861723D01*
X122088415Y-18864794D01*
X122084977Y-18867638D01*
X122084100Y-18866578D01*
X122026317Y-18896372D01*
X121955641Y-18889629D01*
X121926020Y-18872814D01*
X121756307Y-18743293D01*
X121756303Y-18743290D01*
X121752762Y-18740588D01*
X121524117Y-18612540D01*
X121519968Y-18610935D01*
X121519964Y-18610933D01*
X121372396Y-18553844D01*
X121279712Y-18517987D01*
X121275391Y-18516985D01*
X121275383Y-18516983D01*
X121107269Y-18478017D01*
X121024421Y-18458814D01*
X120763341Y-18436202D01*
X120758906Y-18436446D01*
X120758902Y-18436446D01*
X120506121Y-18450357D01*
X120506114Y-18450358D01*
X120501678Y-18450602D01*
X120244656Y-18501727D01*
X120240446Y-18503205D01*
X120240444Y-18503206D01*
X120095697Y-18554038D01*
X119997401Y-18588557D01*
X119993450Y-18590610D01*
X119993444Y-18590612D01*
X119919668Y-18628936D01*
X119764847Y-18709359D01*
X119761232Y-18711942D01*
X119761226Y-18711946D01*
X119555255Y-18859135D01*
X119555251Y-18859138D01*
X119551634Y-18861723D01*
X119548415Y-18864794D01*
X119544977Y-18867638D01*
X119544100Y-18866578D01*
X119486317Y-18896372D01*
X119415641Y-18889629D01*
X119386020Y-18872814D01*
X119216307Y-18743293D01*
X119216303Y-18743290D01*
X119212762Y-18740588D01*
X118984117Y-18612540D01*
X118979968Y-18610935D01*
X118979964Y-18610933D01*
X118832396Y-18553844D01*
X118739712Y-18517987D01*
X118735391Y-18516985D01*
X118735383Y-18516983D01*
X118567269Y-18478017D01*
X118484421Y-18458814D01*
X118223341Y-18436202D01*
X118218906Y-18436446D01*
X118218902Y-18436446D01*
X117966121Y-18450357D01*
X117966114Y-18450358D01*
X117961678Y-18450602D01*
X117704656Y-18501727D01*
X117700446Y-18503205D01*
X117700444Y-18503206D01*
X117555697Y-18554038D01*
X117457401Y-18588557D01*
X117453450Y-18590610D01*
X117453444Y-18590612D01*
X117379668Y-18628936D01*
X117224847Y-18709359D01*
X117221232Y-18711942D01*
X117221226Y-18711946D01*
X117015255Y-18859135D01*
X117015251Y-18859138D01*
X117011634Y-18861723D01*
X117008415Y-18864794D01*
X117004977Y-18867638D01*
X117004100Y-18866578D01*
X116946317Y-18896372D01*
X116875641Y-18889629D01*
X116846020Y-18872814D01*
X116676307Y-18743293D01*
X116676303Y-18743290D01*
X116672762Y-18740588D01*
X116444117Y-18612540D01*
X116439968Y-18610935D01*
X116439964Y-18610933D01*
X116292396Y-18553844D01*
X116199712Y-18517987D01*
X116195391Y-18516985D01*
X116195383Y-18516983D01*
X116027269Y-18478017D01*
X115944421Y-18458814D01*
X115683341Y-18436202D01*
X115678906Y-18436446D01*
X115678902Y-18436446D01*
X115426121Y-18450357D01*
X115426114Y-18450358D01*
X115421678Y-18450602D01*
X115164656Y-18501727D01*
X115160446Y-18503205D01*
X115160444Y-18503206D01*
X115015697Y-18554038D01*
X114917401Y-18588557D01*
X114913450Y-18590610D01*
X114913444Y-18590612D01*
X114839668Y-18628936D01*
X114684847Y-18709359D01*
X114681232Y-18711942D01*
X114681226Y-18711946D01*
X114475255Y-18859135D01*
X114475251Y-18859138D01*
X114471634Y-18861723D01*
X114468415Y-18864794D01*
X114464977Y-18867638D01*
X114464100Y-18866578D01*
X114406317Y-18896372D01*
X114335641Y-18889629D01*
X114306020Y-18872814D01*
X114136307Y-18743293D01*
X114136303Y-18743290D01*
X114132762Y-18740588D01*
X113904117Y-18612540D01*
X113899968Y-18610935D01*
X113899964Y-18610933D01*
X113752396Y-18553844D01*
X113659712Y-18517987D01*
X113655391Y-18516985D01*
X113655383Y-18516983D01*
X113487269Y-18478017D01*
X113404421Y-18458814D01*
X113143341Y-18436202D01*
X113138906Y-18436446D01*
X113138902Y-18436446D01*
X112886121Y-18450357D01*
X112886114Y-18450358D01*
X112881678Y-18450602D01*
X112624656Y-18501727D01*
X112620446Y-18503205D01*
X112620444Y-18503206D01*
X112475697Y-18554038D01*
X112377401Y-18588557D01*
X112373450Y-18590610D01*
X112373444Y-18590612D01*
X112299668Y-18628936D01*
X112144847Y-18709359D01*
X112141232Y-18711942D01*
X112141226Y-18711946D01*
X111935255Y-18859135D01*
X111935251Y-18859138D01*
X111931634Y-18861723D01*
X111891956Y-18899574D01*
X111812386Y-18975480D01*
X111742016Y-19042609D01*
X111739260Y-19046105D01*
X111606143Y-19214964D01*
X111548262Y-19256077D01*
X111477342Y-19259371D01*
X111429101Y-19235840D01*
X111332339Y-19159422D01*
X111323752Y-19153717D01*
X111137317Y-19050799D01*
X111127905Y-19046569D01*
X110927159Y-18975480D01*
X110917188Y-18972846D01*
X110846037Y-18960172D01*
X110832740Y-18961632D01*
X110828200Y-18976189D01*
X110828200Y-21609717D01*
X110320200Y-21609717D01*
X110320200Y-18974302D01*
X110316282Y-18960958D01*
X110302006Y-18958971D01*
X110263524Y-18964860D01*
X110253488Y-18967251D01*
X110051068Y-19033412D01*
X110041559Y-19037409D01*
X109964887Y-19077322D01*
X109895228Y-19091035D01*
X109829213Y-19064910D01*
X109795045Y-19023935D01*
X109723773Y-18887604D01*
X109700555Y-18859135D01*
X109599338Y-18735031D01*
X109595309Y-18730091D01*
X109451177Y-18612540D01*
X109442740Y-18605659D01*
X109442739Y-18605658D01*
X109437796Y-18601627D01*
X109257670Y-18507459D01*
X109062287Y-18451434D01*
X109030655Y-18448611D01*
X108944809Y-18440949D01*
X108944803Y-18440949D01*
X108942016Y-18440700D01*
X107126384Y-18440700D01*
X107123597Y-18440949D01*
X107123591Y-18440949D01*
X107037745Y-18448611D01*
X107006113Y-18451434D01*
X106810730Y-18507459D01*
X106630604Y-18601627D01*
X106625661Y-18605658D01*
X106625660Y-18605659D01*
X106617223Y-18612540D01*
X106473091Y-18730091D01*
X106469062Y-18735031D01*
X106367846Y-18859135D01*
X106344627Y-18887604D01*
X106250459Y-19067730D01*
X106194434Y-19263113D01*
X106193901Y-19269086D01*
X106191153Y-19299881D01*
X106183700Y-19383384D01*
X106183700Y-21199016D01*
X82928696Y-21199016D01*
X82967964Y-21172778D01*
X82971058Y-21170064D01*
X82971064Y-21170060D01*
X83196531Y-20972329D01*
X83199620Y-20969620D01*
X83389964Y-20752576D01*
X83400060Y-20741064D01*
X83400064Y-20741058D01*
X83402778Y-20737964D01*
X83441799Y-20679566D01*
X83571666Y-20485205D01*
X83571667Y-20485204D01*
X83573960Y-20481772D01*
X83608924Y-20410873D01*
X83645763Y-20336171D01*
X83710238Y-20205427D01*
X83757567Y-20066000D01*
X83807954Y-19917566D01*
X83807955Y-19917563D01*
X83809280Y-19913659D01*
X83837970Y-19769427D01*
X83868587Y-19615503D01*
X83868587Y-19615500D01*
X83869391Y-19611460D01*
X83889543Y-19304000D01*
X83883707Y-19214964D01*
X83869661Y-19000655D01*
X83869660Y-19000651D01*
X83869391Y-18996540D01*
X83863565Y-18967251D01*
X83810085Y-18698386D01*
X83810083Y-18698380D01*
X83809280Y-18694341D01*
X83779177Y-18605659D01*
X83711564Y-18406479D01*
X83711564Y-18406478D01*
X83710238Y-18402573D01*
X83573960Y-18126229D01*
X83402778Y-17870036D01*
X83400064Y-17866942D01*
X83400060Y-17866936D01*
X83202329Y-17641469D01*
X83199620Y-17638380D01*
X83196531Y-17635671D01*
X82971064Y-17437940D01*
X82971058Y-17437936D01*
X82967964Y-17435222D01*
X82711771Y-17264040D01*
X82708072Y-17262216D01*
X82708067Y-17262213D01*
X82566038Y-17192172D01*
X82435427Y-17127762D01*
X82431521Y-17126436D01*
X82147566Y-17030046D01*
X82147563Y-17030045D01*
X82143659Y-17028720D01*
X82139620Y-17027917D01*
X82139614Y-17027915D01*
X81845503Y-16969413D01*
X81845500Y-16969413D01*
X81841460Y-16968609D01*
X81837349Y-16968340D01*
X81837345Y-16968339D01*
X81612990Y-16953634D01*
X81612981Y-16953634D01*
X81610941Y-16953500D01*
X81457059Y-16953500D01*
X81455019Y-16953634D01*
X81455010Y-16953634D01*
X81230655Y-16968339D01*
X81230651Y-16968340D01*
X81226540Y-16968609D01*
X81222500Y-16969413D01*
X81222497Y-16969413D01*
X80928386Y-17027915D01*
X80928380Y-17027917D01*
X80924341Y-17028720D01*
X80920437Y-17030045D01*
X80920434Y-17030046D01*
X80636479Y-17126436D01*
X80632573Y-17127762D01*
X80501962Y-17192172D01*
X80359933Y-17262213D01*
X80359928Y-17262216D01*
X80356229Y-17264040D01*
X80100036Y-17435222D01*
X80096942Y-17437936D01*
X80096936Y-17437940D01*
X79871469Y-17635671D01*
X79868380Y-17638380D01*
X79865671Y-17641469D01*
X79667940Y-17866936D01*
X79667936Y-17866942D01*
X79665222Y-17870036D01*
X79662933Y-17873462D01*
X79662929Y-17873467D01*
X79562204Y-18024213D01*
X79494040Y-18126228D01*
X79492216Y-18129927D01*
X79492213Y-18129932D01*
X79457689Y-18199940D01*
X79357762Y-18402573D01*
X79356436Y-18406478D01*
X79356436Y-18406479D01*
X79288824Y-18605659D01*
X79258720Y-18694341D01*
X79257917Y-18698380D01*
X79257915Y-18698386D01*
X79204435Y-18967251D01*
X79198609Y-18996540D01*
X79198340Y-19000651D01*
X79198339Y-19000655D01*
X79184293Y-19214964D01*
X79178457Y-19304000D01*
X68056000Y-19304000D01*
X68056000Y-15731000D01*
X68076002Y-15662879D01*
X68129658Y-15616386D01*
X68182000Y-15605000D01*
X165371000Y-15605000D01*
X165439121Y-15625002D01*
G37*
%TD.AperFunction*%
%TD*%
M02*
