%TF.GenerationSoftware,KiCad,Pcbnew,6.0.2+dfsg-1*%
%TF.CreationDate,2023-02-12T20:47:07+01:00*%
%TF.ProjectId,picopico,7069636f-7069-4636-9f2e-6b696361645f,rev?*%
%TF.SameCoordinates,Original*%
%TF.FileFunction,Legend,Bot*%
%TF.FilePolarity,Positive*%
%FSLAX46Y46*%
G04 Gerber Fmt 4.6, Leading zero omitted, Abs format (unit mm)*
G04 Created by KiCad (PCBNEW 6.0.2+dfsg-1) date 2023-02-12 20:47:07*
%MOMM*%
%LPD*%
G01*
G04 APERTURE LIST*
%ADD10C,0.150000*%
%ADD11C,0.120000*%
%ADD12C,2.700000*%
%ADD13C,2.000000*%
%ADD14C,1.700000*%
%ADD15C,1.500000*%
%ADD16R,1.700000X1.700000*%
%ADD17O,1.700000X1.700000*%
%ADD18C,1.524000*%
%ADD19R,1.000000X1.000000*%
G04 APERTURE END LIST*
D10*
%TO.C,J1*%
X152076333Y-39878380D02*
X152076333Y-40592666D01*
X152123952Y-40735523D01*
X152219190Y-40830761D01*
X152362047Y-40878380D01*
X152457285Y-40878380D01*
X151076333Y-40878380D02*
X151647761Y-40878380D01*
X151362047Y-40878380D02*
X151362047Y-39878380D01*
X151457285Y-40021238D01*
X151552523Y-40116476D01*
X151647761Y-40164095D01*
%TO.C,TP4*%
X87877404Y-29097380D02*
X87305976Y-29097380D01*
X87591690Y-30097380D02*
X87591690Y-29097380D01*
X86972642Y-30097380D02*
X86972642Y-29097380D01*
X86591690Y-29097380D01*
X86496452Y-29145000D01*
X86448833Y-29192619D01*
X86401214Y-29287857D01*
X86401214Y-29430714D01*
X86448833Y-29525952D01*
X86496452Y-29573571D01*
X86591690Y-29621190D01*
X86972642Y-29621190D01*
X85544071Y-29430714D02*
X85544071Y-30097380D01*
X85782166Y-29049761D02*
X86020261Y-29764047D01*
X85401214Y-29764047D01*
%TO.C,U1*%
X110664285Y-38727380D02*
X110664285Y-39441666D01*
X110711904Y-39584523D01*
X110807142Y-39679761D01*
X110950000Y-39727380D01*
X111045238Y-39727380D01*
X110235714Y-39679761D02*
X110092857Y-39727380D01*
X109854761Y-39727380D01*
X109759523Y-39679761D01*
X109711904Y-39632142D01*
X109664285Y-39536904D01*
X109664285Y-39441666D01*
X109711904Y-39346428D01*
X109759523Y-39298809D01*
X109854761Y-39251190D01*
X110045238Y-39203571D01*
X110140476Y-39155952D01*
X110188095Y-39108333D01*
X110235714Y-39013095D01*
X110235714Y-38917857D01*
X110188095Y-38822619D01*
X110140476Y-38775000D01*
X110045238Y-38727380D01*
X109807142Y-38727380D01*
X109664285Y-38775000D01*
X109378571Y-38727380D02*
X108807142Y-38727380D01*
X109092857Y-39727380D02*
X109092857Y-38727380D01*
X120736904Y-38092380D02*
X120736904Y-38901904D01*
X120689285Y-38997142D01*
X120641666Y-39044761D01*
X120546428Y-39092380D01*
X120355952Y-39092380D01*
X120260714Y-39044761D01*
X120213095Y-38997142D01*
X120165476Y-38901904D01*
X120165476Y-38092380D01*
X119736904Y-39044761D02*
X119594047Y-39092380D01*
X119355952Y-39092380D01*
X119260714Y-39044761D01*
X119213095Y-38997142D01*
X119165476Y-38901904D01*
X119165476Y-38806666D01*
X119213095Y-38711428D01*
X119260714Y-38663809D01*
X119355952Y-38616190D01*
X119546428Y-38568571D01*
X119641666Y-38520952D01*
X119689285Y-38473333D01*
X119736904Y-38378095D01*
X119736904Y-38282857D01*
X119689285Y-38187619D01*
X119641666Y-38140000D01*
X119546428Y-38092380D01*
X119308333Y-38092380D01*
X119165476Y-38140000D01*
X118403571Y-38568571D02*
X118260714Y-38616190D01*
X118213095Y-38663809D01*
X118165476Y-38759047D01*
X118165476Y-38901904D01*
X118213095Y-38997142D01*
X118260714Y-39044761D01*
X118355952Y-39092380D01*
X118736904Y-39092380D01*
X118736904Y-38092380D01*
X118403571Y-38092380D01*
X118308333Y-38140000D01*
X118260714Y-38187619D01*
X118213095Y-38282857D01*
X118213095Y-38378095D01*
X118260714Y-38473333D01*
X118308333Y-38520952D01*
X118403571Y-38568571D01*
X118736904Y-38568571D01*
%TO.C,TP3*%
X87877404Y-24017380D02*
X87305976Y-24017380D01*
X87591690Y-25017380D02*
X87591690Y-24017380D01*
X86972642Y-25017380D02*
X86972642Y-24017380D01*
X86591690Y-24017380D01*
X86496452Y-24065000D01*
X86448833Y-24112619D01*
X86401214Y-24207857D01*
X86401214Y-24350714D01*
X86448833Y-24445952D01*
X86496452Y-24493571D01*
X86591690Y-24541190D01*
X86972642Y-24541190D01*
X86067880Y-24017380D02*
X85448833Y-24017380D01*
X85782166Y-24398333D01*
X85639309Y-24398333D01*
X85544071Y-24445952D01*
X85496452Y-24493571D01*
X85448833Y-24588809D01*
X85448833Y-24826904D01*
X85496452Y-24922142D01*
X85544071Y-24969761D01*
X85639309Y-25017380D01*
X85925023Y-25017380D01*
X86020261Y-24969761D01*
X86067880Y-24922142D01*
D11*
%TO.C,J1*%
X149158000Y-34036000D02*
X149158000Y-32706000D01*
X146498000Y-35306000D02*
X146498000Y-50606000D01*
X149158000Y-35306000D02*
X149158000Y-50606000D01*
X149158000Y-50606000D02*
X146498000Y-50606000D01*
X149158000Y-35306000D02*
X146498000Y-35306000D01*
X149158000Y-32706000D02*
X147828000Y-32706000D01*
X164443000Y-35846000D02*
X161268000Y-35846000D01*
X161268000Y-35846000D02*
X161268000Y-46006000D01*
X161268000Y-46006000D02*
X164443000Y-46006000D01*
X164443000Y-46006000D02*
X164443000Y-35846000D01*
X165713000Y-51086000D02*
X145393000Y-51086000D01*
X145393000Y-51086000D02*
X145393000Y-32036000D01*
X145393000Y-32036000D02*
X165713000Y-32036000D01*
X165713000Y-32036000D02*
X165713000Y-51086000D01*
%TO.C,TP4*%
X85915500Y-31793000D02*
X87315500Y-31793000D01*
X85915500Y-30393000D02*
X85915500Y-31793000D01*
X87315500Y-31793000D02*
X87315500Y-30393000D01*
X87315500Y-30393000D02*
X85915500Y-30393000D01*
%TO.C,U1*%
X111280000Y-85055000D02*
X108620000Y-85055000D01*
X111280000Y-43085000D02*
X111280000Y-41755000D01*
X134140000Y-41815000D02*
X134140000Y-85150000D01*
X108620000Y-44355000D02*
X108620000Y-85055000D01*
X111280000Y-44355000D02*
X111280000Y-85055000D01*
X134140000Y-85150000D02*
X131480000Y-85150000D01*
X111280000Y-41755000D02*
X109950000Y-41755000D01*
X134140000Y-41815000D02*
X131480000Y-41815000D01*
X111280000Y-44355000D02*
X108620000Y-44355000D01*
X115030000Y-28480000D02*
X106775000Y-28480000D01*
X106775000Y-28480000D02*
X106775000Y-35465000D01*
X106775000Y-35465000D02*
X115030000Y-35465000D01*
X115030000Y-35465000D02*
X115030000Y-28480000D01*
X135667500Y-27210000D02*
X106775000Y-27210000D01*
X106775000Y-27210000D02*
X106775000Y-93250000D01*
X106775000Y-93250000D02*
X135667500Y-93250000D01*
X135667500Y-93250000D02*
X135667500Y-27210000D01*
X124555000Y-28480000D02*
X117570000Y-28480000D01*
X117570000Y-28480000D02*
X117570000Y-35465000D01*
X117570000Y-35465000D02*
X124555000Y-35465000D01*
X124555000Y-35465000D02*
X124555000Y-28480000D01*
%TO.C,TP3*%
X87315500Y-25313000D02*
X85915500Y-25313000D01*
X85915500Y-26713000D02*
X87315500Y-26713000D01*
X85915500Y-25313000D02*
X85915500Y-26713000D01*
X87315500Y-26713000D02*
X87315500Y-25313000D01*
%TD*%
%LPC*%
D12*
%TO.C,H5*%
X81788000Y-91186000D03*
%TD*%
%TO.C,H2*%
X81534000Y-19304000D03*
%TD*%
%TO.C,H3*%
X150622000Y-20066000D03*
%TD*%
%TO.C,H1*%
X153924000Y-91440000D03*
%TD*%
D13*
%TO.C,SW1*%
X72075500Y-37157500D03*
X78075500Y-25157500D03*
X72075500Y-25157500D03*
X78075500Y-37157500D03*
D14*
X76325500Y-27157500D03*
X76325500Y-31157500D03*
X76325500Y-35157500D03*
%TD*%
D15*
%TO.C,U2*%
X163155000Y-33956000D03*
X163155000Y-23956000D03*
D14*
X153155000Y-24956000D03*
X153155000Y-28956000D03*
X153155000Y-32956000D03*
%TD*%
D16*
%TO.C,J2*%
X108034200Y-20291200D03*
D17*
X110574200Y-20291200D03*
X113114200Y-20291200D03*
X115654200Y-20291200D03*
X118194200Y-20291200D03*
X120734200Y-20291200D03*
X123274200Y-20291200D03*
X125814200Y-20291200D03*
%TD*%
D14*
%TO.C,J1*%
X147828000Y-34036000D03*
D17*
X147828000Y-36576000D03*
X147828000Y-39116000D03*
X147828000Y-41656000D03*
X147828000Y-44196000D03*
D16*
X147828000Y-46736000D03*
D17*
X147828000Y-49276000D03*
D18*
X162843000Y-37916000D03*
X162773000Y-42926000D03*
%TD*%
D19*
%TO.C,TP4*%
X86615500Y-31093000D03*
%TD*%
D17*
%TO.C,U1*%
X132810000Y-43085000D03*
X132810000Y-45720000D03*
X132810000Y-48260000D03*
X132810000Y-50800000D03*
X132810000Y-53340000D03*
X132810000Y-55880000D03*
X132810000Y-58420000D03*
X132810000Y-60960000D03*
X132810000Y-63500000D03*
X132810000Y-66040000D03*
X132810000Y-68580000D03*
X132810000Y-71120000D03*
X132810000Y-73660000D03*
X132810000Y-76200000D03*
D16*
X132810000Y-78740000D03*
D17*
X132810000Y-81280000D03*
D16*
X132810000Y-83725000D03*
D17*
X109950000Y-83725000D03*
X109950000Y-81185000D03*
X109950000Y-78645000D03*
D16*
X109950000Y-76105000D03*
D17*
X109950000Y-73565000D03*
X109950000Y-71025000D03*
X109950000Y-68485000D03*
X109950000Y-65945000D03*
X109950000Y-63405000D03*
X109950000Y-60865000D03*
X109950000Y-58325000D03*
X109950000Y-55785000D03*
X109950000Y-53245000D03*
X109950000Y-50705000D03*
X109950000Y-48165000D03*
D14*
X109950000Y-45625000D03*
D16*
X109950000Y-43085000D03*
%TD*%
D19*
%TO.C,TP3*%
X86615500Y-26013000D03*
%TD*%
M02*
