M48
; DRILL file {KiCad 6.0.2+dfsg-1} date wo 19 apr 2023 23:44:22 CEST
; FORMAT={-:-/ absolute / metric / decimal}
; #@! TF.CreationDate,2023-04-19T23:44:22+02:00
; #@! TF.GenerationSoftware,Kicad,Pcbnew,6.0.2+dfsg-1
; #@! TF.FileFunction,Plated,1,2,PTH
FMAT,2
METRIC
; #@! TA.AperFunction,Plated,PTH,ComponentDrill
T1C0.300
; #@! TA.AperFunction,Plated,PTH,ViaDrill
T2C0.400
; #@! TA.AperFunction,Plated,PTH,ViaDrill
T3C0.500
; #@! TA.AperFunction,Plated,PTH,ComponentDrill
T4C0.650
; #@! TA.AperFunction,Plated,PTH,ComponentDrill
T5C0.700
; #@! TA.AperFunction,Plated,PTH,ComponentDrill
T6C0.900
; #@! TA.AperFunction,Plated,PTH,ComponentDrill
T7C1.000
%
G90
G05
T1
X113.698Y-47.762
X113.698Y-49.163
X115.195Y-46.262
X115.199Y-47.76
X115.199Y-49.16
X115.199Y-50.66
X116.596Y-50.664
X116.599Y-46.26
X116.599Y-47.76
X116.599Y-49.16
X118.099Y-47.76
X118.099Y-49.16
T2
X86.902Y-56.11
X88.646Y-36.195
X89.281Y-29.337
X93.98Y-47.371
X94.602Y-56.11
X103.73Y-40.182
X105.177Y-40.335
X105.902Y-28.31
X106.402Y-48.61
X106.402Y-49.71
X106.807Y-36.449
X108.027Y-28.985
X108.102Y-30.135
X110.102Y-37.235
X110.236Y-54.991
X110.736Y-39.751
X111.887Y-33.528
X111.927Y-50.185
X112.952Y-50.01
X113.102Y-32.72
X120.652Y-24.71
X124.587Y-53.721
X124.587Y-54.991
X124.702Y-49.81
X124.714Y-47.371
X129.902Y-42.51
X134.252Y-41.91
X140.002Y-48.766
X150.952Y-47.61
X152.852Y-47.51
T3
X76.962Y-46.228
X82.352Y-51.76
X84.201Y-43.942
X95.631Y-17.145
X96.266Y-20.193
X96.774Y-28.321
X96.774Y-29.591
X96.774Y-30.861
X96.774Y-32.131
X105.537Y-38.989
X106.402Y-43.61
X106.402Y-44.81
X106.402Y-46.11
X106.402Y-47.41
X128.524Y-38.481
X128.651Y-44.831
X137.302Y-33.81
T6
X75.651Y-26.185
X75.651Y-28.185
X75.651Y-30.185
T7
X142.233Y-21.908
X142.233Y-25.908
X142.233Y-29.908
T4
X88.36Y-19.084G85X88.36Y-19.484
G05
X93.2Y-19.084G85X93.2Y-19.484
G05
T5
X88.05Y-16.034G85X88.05Y-16.534
G05
X93.51Y-16.034G85X93.51Y-16.534
G05
T0
M30
